<svg width="29" height="29" viewBox="0 0 29 29" fill="none"
  xmlns="http://www.w3.org/2000/svg">
  <g clip-path="url(#clip0_121_2064)">
    <path d="M14.5005 2.41666C12.2572 2.41666 10.1058 3.3078 8.51953 4.89404C6.93328 6.48029 6.04214 8.6317 6.04214 10.875V15.138C6.04232 15.3254 5.99888 15.5104 5.91527 15.6781L3.84056 19.8263C3.73921 20.029 3.69136 20.2542 3.70154 20.4806C3.71172 20.7069 3.7796 20.9269 3.89873 21.1197C4.01787 21.3124 4.1843 21.4715 4.38221 21.5818C4.58013 21.6921 4.80297 21.75 5.02956 21.75H23.9714C24.198 21.75 24.4208 21.6921 24.6187 21.5818C24.8167 21.4715 24.9831 21.3124 25.1022 21.1197C25.2213 20.9269 25.2892 20.7069 25.2994 20.4806C25.3096 20.2542 25.2617 20.029 25.1604 19.8263L23.0869 15.6781C23.0029 15.5105 22.959 15.3255 22.9588 15.138V10.875C22.9588 8.6317 22.0677 6.48029 20.4814 4.89404C18.8952 3.3078 16.7438 2.41666 14.5005 2.41666ZM14.5005 25.375C13.7506 25.3752 13.019 25.1429 12.4066 24.7101C11.7942 24.2773 11.331 23.6653 11.0809 22.9583H17.9201C17.6699 23.6653 17.2068 24.2773 16.5943 24.7101C15.9819 25.1429 15.2504 25.3752 14.5005 25.375Z" fill="white"/>
  </g>
  <defs>
    <clipPath id="clip0_121_2064">
      <rect width="29" height="29" fill="white"/>
    </clipPath>
  </defs>
</svg>
