<svg
  width="344"
  height="360"
  viewBox="0 0 344 360"
  fill="none"
  xmlns="http://www.w3.org/2000/svg"
>
  <g clip-path="url(#clip0_1_6168)">
    <path
      d="M0 24C0 10.7452 10.7452 0 24 0H320C333.255 0 344 10.7452 344 24V336C344 349.255 333.255 360 320 360H24C10.7452 360 0 349.255 0 336V24Z"
      fill="#F5F5F5"
    />
    <path
      d="M267.215 189.9L307.522 203.635C307.928 203.773 308.358 203.83 308.787 203.802C309.215 203.774 309.634 203.661 310.019 203.471C310.404 203.282 310.748 203.018 311.031 202.695C311.314 202.372 311.531 201.996 311.669 201.589L339.785 119.057C339.924 118.65 339.981 118.22 339.954 117.791C339.927 117.362 339.816 116.943 339.626 116.557C339.437 116.171 339.173 115.826 338.85 115.543C338.528 115.259 338.152 115.041 337.745 114.903L297.439 101.175C296.618 100.895 295.721 100.953 294.943 101.336C294.165 101.718 293.571 102.394 293.292 103.214L265.176 185.753C265.037 186.159 264.979 186.589 265.007 187.017C265.034 187.446 265.145 187.865 265.335 188.25C265.524 188.635 265.788 188.979 266.111 189.263C266.433 189.546 266.809 189.763 267.215 189.9Z"
      fill="#EBEBEB"
    />
    <path
      d="M319.317 126.328C319.087 127.001 319.062 127.727 319.245 128.415C319.427 129.102 319.81 129.72 320.344 130.19C320.877 130.66 321.539 130.961 322.244 131.055C322.949 131.149 323.666 131.032 324.304 130.719C324.942 130.405 325.473 129.909 325.83 129.294C326.187 128.678 326.353 127.971 326.307 127.261C326.262 126.552 326.007 125.871 325.574 125.307C325.142 124.742 324.552 124.318 323.879 124.088C322.977 123.781 321.99 123.844 321.135 124.264C320.279 124.684 319.626 125.427 319.317 126.328Z"
      fill="#FAFAFA"
    />
    <path
      d="M299.553 119.596C299.324 120.268 299.3 120.992 299.483 121.678C299.666 122.364 300.048 122.98 300.581 123.449C301.114 123.917 301.775 124.217 302.478 124.31C303.182 124.404 303.897 124.287 304.534 123.973C305.171 123.66 305.701 123.165 306.057 122.551C306.412 121.937 306.578 121.231 306.532 120.522C306.487 119.814 306.232 119.135 305.801 118.571C305.369 118.008 304.78 117.585 304.108 117.356C303.662 117.204 303.191 117.141 302.72 117.171C302.25 117.201 301.79 117.324 301.367 117.532C300.944 117.74 300.566 118.029 300.255 118.384C299.944 118.738 299.705 119.149 299.553 119.596Z"
      fill="#FAFAFA"
    />
    <path
      d="M313.062 144.706C312.833 145.378 312.809 146.103 312.992 146.788C313.175 147.474 313.557 148.09 314.09 148.559C314.623 149.027 315.283 149.327 315.987 149.421C316.691 149.514 317.406 149.397 318.043 149.084C318.68 148.77 319.21 148.275 319.565 147.661C319.921 147.047 320.086 146.341 320.041 145.633C319.995 144.924 319.741 144.245 319.309 143.682C318.878 143.118 318.289 142.695 317.617 142.466C317.171 142.313 316.699 142.25 316.228 142.28C315.758 142.31 315.298 142.432 314.874 142.64C314.451 142.848 314.073 143.138 313.762 143.492C313.451 143.847 313.213 144.259 313.062 144.706Z"
      fill="#FAFAFA"
    />
    <path
      d="M293.292 137.974C293.063 138.645 293.038 139.37 293.221 140.056C293.404 140.742 293.786 141.358 294.32 141.826C294.853 142.295 295.513 142.595 296.216 142.688C296.92 142.782 297.636 142.665 298.272 142.351C298.909 142.038 299.439 141.543 299.795 140.929C300.15 140.314 300.316 139.609 300.27 138.9C300.225 138.192 299.97 137.513 299.539 136.949C299.107 136.386 298.519 135.963 297.847 135.734C297.401 135.582 296.929 135.519 296.458 135.549C295.988 135.579 295.528 135.702 295.105 135.91C294.682 136.118 294.304 136.407 293.993 136.761C293.682 137.115 293.443 137.527 293.292 137.974Z"
      fill="#FAFAFA"
    />
    <path
      d="M306.8 163.09C306.571 163.762 306.547 164.486 306.73 165.172C306.913 165.858 307.295 166.474 307.828 166.943C308.361 167.411 309.021 167.711 309.725 167.805C310.429 167.898 311.144 167.781 311.781 167.468C312.418 167.154 312.948 166.659 313.303 166.045C313.659 165.431 313.825 164.725 313.779 164.016C313.733 163.308 313.479 162.629 313.047 162.066C312.616 161.502 312.027 161.079 311.355 160.85C310.909 160.698 310.437 160.635 309.967 160.665C309.497 160.696 309.037 160.818 308.614 161.026C308.191 161.234 307.813 161.524 307.502 161.878C307.19 162.232 306.952 162.644 306.8 163.09Z"
      fill="#FAFAFA"
    />
    <path
      d="M287.03 156.358C286.801 157.03 286.776 157.754 286.959 158.44C287.142 159.126 287.524 159.742 288.058 160.21C288.591 160.679 289.251 160.979 289.955 161.072C290.658 161.166 291.374 161.049 292.011 160.735C292.648 160.422 293.177 159.927 293.533 159.313C293.888 158.699 294.054 157.993 294.008 157.284C293.963 156.576 293.708 155.897 293.277 155.333C292.845 154.77 292.257 154.347 291.585 154.118C291.139 153.966 290.667 153.903 290.196 153.933C289.726 153.963 289.266 154.086 288.843 154.294C288.42 154.502 288.042 154.791 287.731 155.145C287.42 155.5 287.182 155.911 287.03 156.358Z"
      fill="#FAFAFA"
    />
    <path
      d="M300.538 181.455C300.309 182.127 300.285 182.851 300.468 183.537C300.651 184.223 301.033 184.839 301.566 185.308C302.099 185.776 302.76 186.076 303.463 186.17C304.167 186.263 304.882 186.146 305.519 185.833C306.156 185.519 306.686 185.024 307.042 184.41C307.397 183.796 307.563 183.09 307.517 182.381C307.472 181.673 307.217 180.994 306.786 180.431C306.354 179.867 305.765 179.444 305.093 179.215C304.647 179.063 304.176 179 303.705 179.03C303.235 179.061 302.775 179.183 302.352 179.391C301.929 179.599 301.551 179.889 301.24 180.243C300.929 180.597 300.69 181.009 300.538 181.455Z"
      fill="#FAFAFA"
    />
    <path
      d="M280.768 174.735C280.539 175.407 280.515 176.132 280.698 176.818C280.881 177.503 281.263 178.12 281.796 178.588C282.329 179.057 282.989 179.357 283.693 179.45C284.396 179.544 285.112 179.426 285.749 179.113C286.386 178.8 286.916 178.305 287.271 177.69C287.627 177.076 287.792 176.37 287.747 175.662C287.701 174.954 287.447 174.275 287.015 173.711C286.584 173.147 285.995 172.724 285.323 172.495C284.877 172.343 284.405 172.281 283.935 172.311C283.464 172.341 283.005 172.464 282.582 172.672C282.159 172.88 281.781 173.169 281.469 173.523C281.158 173.877 280.92 174.289 280.768 174.735Z"
      fill="#FAFAFA"
    />
    <path
      d="M321.244 124.402C321.626 125.464 322.097 126.493 322.649 127.477C323.115 128.506 323.669 129.493 324.306 130.426C323.923 129.364 323.453 128.336 322.9 127.351C322.436 126.321 321.882 125.335 321.244 124.402Z"
      fill="#E0E0E0"
    />
    <path
      d="M301.887 117.645C302.267 118.709 302.735 119.739 303.286 120.725C303.757 121.752 304.311 122.739 304.943 123.674C304.562 122.611 304.094 121.581 303.544 120.594C303.072 119.568 302.518 118.582 301.887 117.645Z"
      fill="#E0E0E0"
    />
    <path
      d="M314.8 142.78C315.13 143.889 315.549 144.97 316.055 146.011C316.467 147.097 316.971 148.147 317.561 149.148C317.229 148.039 316.809 146.959 316.306 145.917C315.892 144.831 315.388 143.782 314.8 142.78Z"
      fill="#E0E0E0"
    />
    <path
      d="M295.274 136.004C295.537 137.079 295.894 138.128 296.341 139.141C296.699 140.191 297.147 141.209 297.677 142.184C297.413 141.109 297.056 140.06 296.611 139.047C296.249 137.998 295.802 136.98 295.274 136.004Z"
      fill="#E0E0E0"
    />
    <path
      d="M309.128 161.082C309.788 163.09 310.628 165.035 311.638 166.892C310.978 164.884 310.138 162.939 309.128 161.082Z"
      fill="#E0E0E0"
    />
    <path
      d="M288.881 154.657C289.709 156.637 290.713 158.54 291.88 160.342C291.511 159.334 291.051 158.361 290.506 157.437C290.044 156.466 289.5 155.536 288.881 154.657Z"
      fill="#E0E0E0"
    />
    <path
      d="M302.333 179.724C302.743 180.77 303.24 181.779 303.82 182.742C304.316 183.749 304.898 184.713 305.558 185.622C304.652 183.568 303.573 181.594 302.333 179.724Z"
      fill="#E0E0E0"
    />
    <path
      d="M282.606 172.395C282.934 173.574 283.354 174.726 283.861 175.839C284.278 176.988 284.786 178.102 285.379 179.171C285.052 177.992 284.632 176.84 284.125 175.726C283.709 174.577 283.201 173.463 282.606 172.395Z"
      fill="#E0E0E0"
    />
    <path
      d="M275.397 184.592C275.397 184.667 281.427 186.794 288.918 189.348C296.41 191.902 302.515 193.91 302.54 193.834C302.565 193.759 296.51 191.632 289.012 189.078C281.514 186.525 275.422 184.504 275.397 184.592Z"
      fill="#E0E0E0"
    />
    <path
      d="M302.264 110.687C302.264 110.756 308.293 112.889 315.791 115.443C323.289 117.996 329.382 120.004 329.407 119.929C329.432 119.853 323.377 117.726 315.879 115.173C308.381 112.619 302.289 110.611 302.264 110.687Z"
      fill="#E0E0E0"
    />
    <path
      d="M315.447 118.993C315.481 119.002 315.518 119.002 315.553 118.993H315.591L315.315 118.906C315.315 118.949 315.315 119.012 315.415 119.037C315.515 119.062 315.566 119.037 315.584 118.993L315.309 118.906C315.309 118.906 315.309 118.937 315.309 118.943C315.327 118.961 315.348 118.975 315.372 118.984C315.396 118.993 315.421 118.996 315.447 118.993Z"
      fill="#E0E0E0"
    />
    <path
      d="M289.891 189.354C289.966 189.354 295.688 172.777 302.678 152.273C309.668 131.768 315.264 115.116 315.189 115.091C315.114 115.066 309.391 131.668 302.408 152.179C295.425 172.689 289.815 189.329 289.891 189.354Z"
      fill="#E0E0E0"
    />
    <path
      d="M272.523 41.8525L278.388 49.3142C278.495 49.4543 278.543 49.6306 278.522 49.8056C278.501 49.9806 278.412 50.1405 278.275 50.2513L270.735 56.1079C270.175 56.5448 269.534 56.867 268.849 57.0559C268.164 57.2449 267.448 57.2969 266.743 57.2091C266.038 57.1213 265.357 56.8953 264.74 56.544C264.122 56.1928 263.579 55.7232 263.143 55.1621C262.706 54.6011 262.384 53.9593 262.195 53.2736C262.006 52.588 261.954 51.8717 262.041 51.1659C262.129 50.46 262.355 49.7784 262.707 49.16C263.058 48.5415 263.528 47.9984 264.089 47.5616L271.629 41.705C271.77 41.6148 271.939 41.5799 272.104 41.6072C272.269 41.6344 272.418 41.7218 272.523 41.8525Z"
      fill="#F2F2F2"
    />
    <path
      d="M276.913 50.4244L271.082 42.9366C271.029 42.8671 270.99 42.7877 270.967 42.703C270.944 42.6183 270.938 42.5299 270.949 42.4429C270.96 42.3559 270.989 42.272 271.032 42.1959C271.076 42.1198 271.134 42.0531 271.204 41.9995L278.735 36.143C279.295 35.706 279.936 35.3838 280.621 35.1949C281.306 35.0059 282.022 34.9539 282.727 35.0417C283.432 35.1295 284.113 35.3555 284.731 35.7068C285.348 36.058 285.891 36.5276 286.327 37.0887C286.764 37.6498 287.086 38.2915 287.276 38.9772C287.465 39.6628 287.517 40.3791 287.429 41.0849C287.341 41.7908 287.115 42.4724 286.764 43.0908C286.412 43.7093 285.943 44.2524 285.381 44.6892L277.85 50.5285C277.712 50.6386 277.536 50.6894 277.36 50.6699C277.184 50.6504 277.024 50.5621 276.913 50.4244Z"
      fill="#DBDBDB"
    />
    <path
      d="M310.674 42.4074L303.894 39.9751C303.767 39.9317 303.629 39.9394 303.508 39.9966C303.387 40.0537 303.293 40.1558 303.246 40.2812L300.839 47.1155C300.659 47.6238 300.581 48.1627 300.609 48.7013C300.637 49.2398 300.772 49.7675 301.004 50.2541C301.237 50.7407 301.563 51.1768 301.964 51.5372C302.365 51.8977 302.833 52.1755 303.342 52.3548C303.851 52.535 304.39 52.6131 304.929 52.5846C305.468 52.5562 305.997 52.4218 306.484 52.1892C306.971 51.9566 307.407 51.6302 307.768 51.2288C308.129 50.8274 308.408 50.3588 308.588 49.8498L310.995 43.0155C311.026 42.8924 311.01 42.7622 310.951 42.6499C310.892 42.5376 310.793 42.4512 310.674 42.4074Z"
      fill="#F2F2F2"
    />
    <path
      d="M303.449 41.3035L310.239 43.7046C310.302 43.7265 310.369 43.7357 310.435 43.7319C310.502 43.728 310.567 43.7111 310.627 43.6821C310.687 43.6531 310.74 43.6126 310.785 43.5628C310.829 43.5131 310.863 43.4551 310.885 43.3922L313.294 36.5641C313.474 36.0558 313.552 35.5169 313.524 34.9784C313.496 34.4398 313.361 33.9121 313.129 33.4255C312.897 32.9389 312.57 32.5028 312.169 32.1424C311.768 31.7819 311.3 31.5041 310.791 31.3248C310.282 31.1447 309.743 31.0666 309.204 31.095C308.665 31.1234 308.137 31.2578 307.649 31.4904C307.162 31.723 306.726 32.0494 306.365 32.4508C306.004 32.8522 305.725 33.3208 305.546 33.8298L303.149 40.6537C303.103 40.7797 303.108 40.9188 303.164 41.0405C303.221 41.1623 303.323 41.2568 303.449 41.3035Z"
      fill="#DBDBDB"
    />
    <g filter="url(#filter0_f_1_6168)">
      <path
        d="M133.276 386.43L65.5261 409.517C64.8427 409.749 64.1201 409.844 63.3998 409.797C62.6795 409.75 61.9756 409.561 61.3282 409.242C60.6808 408.923 60.1027 408.479 59.6268 407.936C59.151 407.393 58.7867 406.762 58.5549 406.078L11.2964 267.351C11.0623 266.667 10.9653 265.944 11.011 265.223C11.0566 264.502 11.244 263.798 11.5623 263.149C11.8807 262.501 12.3238 261.921 12.8663 261.444C13.4088 260.967 14.0401 260.602 14.724 260.369L82.4743 237.293C83.8532 236.824 85.3622 236.921 86.6694 237.564C87.9766 238.207 88.9751 239.342 89.4454 240.721L136.704 379.459C136.938 380.142 137.035 380.864 136.989 381.584C136.943 382.305 136.756 383.009 136.437 383.656C136.119 384.304 135.676 384.882 135.133 385.358C134.591 385.834 133.96 386.199 133.276 386.43Z"
        fill="#EBEBEB"
      />
      <path
        d="M45.699 279.574C46.0858 280.705 46.1283 281.925 45.8213 283.081C45.5143 284.236 44.8715 285.274 43.9742 286.064C43.0769 286.854 41.9655 287.36 40.7805 287.519C39.5956 287.677 38.3903 287.48 37.3172 286.953C36.2441 286.426 35.3515 285.593 34.7521 284.558C34.1528 283.524 33.8737 282.335 33.9502 281.142C34.0267 279.949 34.4553 278.805 35.1818 277.856C35.9084 276.907 36.9002 276.194 38.0318 275.809C39.5478 275.292 41.2069 275.398 42.6446 276.104C44.0823 276.81 45.1809 278.058 45.699 279.574Z"
        fill="#FAFAFA"
      />
      <path
        d="M78.9202 268.257C79.3048 269.386 79.346 270.605 79.0384 271.757C78.7308 272.91 78.0883 273.946 77.1921 274.733C76.296 275.521 75.1864 276.025 74.0037 276.182C72.8211 276.339 71.6184 276.142 70.5477 275.615C69.4771 275.089 68.5866 274.257 67.9889 273.224C67.3912 272.192 67.113 271.005 67.1896 269.815C67.2662 268.624 67.6942 267.483 68.4193 266.535C69.1444 265.588 70.1342 264.877 71.2635 264.492C72.0134 264.236 72.8064 264.131 73.5971 264.182C74.3878 264.233 75.1607 264.439 75.8717 264.789C76.5828 265.138 77.2179 265.624 77.741 266.22C78.2641 266.815 78.6647 267.507 78.9202 268.257Z"
        fill="#FAFAFA"
      />
      <path
        d="M56.2137 310.465C56.5983 311.594 56.6394 312.812 56.3318 313.965C56.0243 315.117 55.3817 316.153 54.4856 316.941C53.5894 317.728 52.4799 318.232 51.2972 318.39C50.1145 318.547 48.9118 318.349 47.8412 317.823C46.7706 317.296 45.8801 316.464 45.2823 315.432C44.6846 314.399 44.4065 313.213 44.4831 312.022C44.5597 310.831 44.9876 309.69 45.7128 308.743C46.4379 307.795 47.4277 307.084 48.5569 306.699C49.3068 306.442 50.1001 306.336 50.8912 306.386C51.6823 306.436 52.4558 306.642 53.1671 306.992C53.8785 307.342 54.5138 307.829 55.0366 308.425C55.5594 309.02 55.9594 309.714 56.2137 310.465Z"
        fill="#FAFAFA"
      />
      <path
        d="M89.4454 299.148C89.83 300.278 89.8712 301.496 89.5636 302.648C89.256 303.801 88.6135 304.837 87.7174 305.624C86.8212 306.412 85.7117 306.916 84.529 307.073C83.3463 307.23 82.1436 307.033 81.073 306.507C80.0024 305.98 79.1119 305.148 78.5141 304.115C77.9164 303.083 77.6382 301.896 77.7148 300.706C77.7915 299.515 78.2194 298.374 78.9445 297.427C79.6696 296.479 80.6594 295.768 81.7887 295.383C82.5387 295.128 83.3316 295.022 84.1223 295.073C84.913 295.124 85.6859 295.33 86.397 295.68C87.108 296.029 87.7431 296.516 88.2662 297.111C88.7893 297.706 89.19 298.398 89.4454 299.148Z"
        fill="#FAFAFA"
      />
      <path
        d="M66.7391 341.365C67.1237 342.495 67.1649 343.713 66.8573 344.865C66.5497 346.018 65.9072 347.054 65.0111 347.841C64.1149 348.629 63.0054 349.133 61.8227 349.29C60.64 349.447 59.4373 349.25 58.3667 348.724C57.2961 348.197 56.4056 347.365 55.8078 346.333C55.2101 345.3 54.9319 344.113 55.0085 342.923C55.0852 341.732 55.5131 340.591 56.2382 339.644C56.9633 338.696 57.9531 337.985 59.0824 337.6C59.8323 337.345 60.6253 337.239 61.416 337.29C62.2067 337.341 62.9796 337.547 63.6907 337.897C64.4017 338.246 65.0368 338.733 65.5599 339.328C66.083 339.923 66.4837 340.615 66.7391 341.365Z"
        fill="#FAFAFA"
      />
      <path
        d="M99.971 330.049C100.356 331.179 100.397 332.397 100.089 333.549C99.7816 334.702 99.1391 335.738 98.243 336.525C97.3468 337.313 96.2372 337.817 95.0545 337.974C93.8718 338.131 92.6691 337.934 91.5985 337.408C90.5279 336.881 89.6374 336.049 89.0397 335.017C88.442 333.984 88.1638 332.797 88.2404 331.607C88.317 330.416 88.745 329.275 89.4701 328.328C90.1952 327.38 91.185 326.669 92.3143 326.284C93.0642 326.029 93.8572 325.923 94.6479 325.974C95.4386 326.025 96.2115 326.231 96.9225 326.581C97.6335 326.93 98.2687 327.417 98.7918 328.012C99.3148 328.607 99.7155 329.299 99.971 330.049Z"
        fill="#FAFAFA"
      />
      <path
        d="M110.496 360.94C110.881 362.069 110.922 363.287 110.614 364.44C110.307 365.593 109.664 366.628 108.768 367.416C107.872 368.203 106.762 368.708 105.58 368.865C104.397 369.022 103.194 368.825 102.124 368.298C101.053 367.772 100.163 366.94 99.5648 365.907C98.9671 364.874 98.689 363.688 98.7656 362.497C98.8422 361.307 99.2701 360.165 99.9952 359.218C100.72 358.271 101.71 357.56 102.839 357.175C103.589 356.919 104.382 356.814 105.173 356.865C105.964 356.915 106.737 357.122 107.448 357.471C108.159 357.821 108.794 358.307 109.317 358.902C109.84 359.497 110.241 360.19 110.496 360.94Z"
        fill="#FAFAFA"
      />
      <path
        d="M42.4612 276.336C41.8179 278.121 41.0277 279.85 40.0988 281.504C39.3164 283.234 38.3848 284.893 37.3146 286.461C37.9579 284.676 38.748 282.948 39.677 281.293C40.4574 279.562 41.3891 277.904 42.4612 276.336Z"
        fill="#E0E0E0"
      />
      <path
        d="M74.9969 264.978C74.3583 266.766 73.5716 268.498 72.6451 270.156C71.8549 271.882 70.9237 273.54 69.8608 275.113C70.5017 273.325 71.2883 271.593 72.2126 269.934C73.0057 268.21 73.9368 266.552 74.9969 264.978Z"
        fill="#E0E0E0"
      />
      <path
        d="M53.2924 307.226C52.7381 309.091 52.0327 310.908 51.1831 312.658C50.4901 314.484 49.6434 316.248 48.652 317.931C49.2102 316.067 49.9155 314.251 50.7613 312.5C51.457 310.675 52.3037 308.911 53.2924 307.226Z"
        fill="#E0E0E0"
      />
      <path
        d="M86.1128 295.837C85.6705 297.643 85.0706 299.408 84.3199 301.11C83.717 302.875 82.9655 304.586 82.0735 306.225C82.5176 304.419 83.1175 302.654 83.8664 300.952C84.4744 299.188 85.2257 297.478 86.1128 295.837Z"
        fill="#E0E0E0"
      />
      <path
        d="M62.8264 337.99C61.7168 341.366 60.3049 344.634 58.6078 347.756C59.7173 344.381 61.1293 341.112 62.8264 337.99Z"
        fill="#E0E0E0"
      />
      <path
        d="M96.8596 327.191C95.4664 330.519 93.7793 333.717 91.8184 336.746C92.4382 335.051 93.2113 333.417 94.1281 331.863C94.9042 330.231 95.818 328.668 96.8596 327.191Z"
        fill="#E0E0E0"
      />
      <path
        d="M107.406 357.006C106.855 358.987 106.149 360.923 105.297 362.796C104.595 364.727 103.742 366.599 102.745 368.396C103.296 366.414 104.001 364.478 104.854 362.606C105.553 360.674 106.406 358.801 107.406 357.006Z"
        fill="#E0E0E0"
      />
      <path
        d="M74.3641 253.282C74.3641 253.398 64.229 256.984 51.626 261.276C39.023 265.569 28.7824 268.944 28.7402 268.817C28.6981 268.691 38.8754 265.115 51.4783 260.823C64.0813 256.531 74.3219 253.156 74.3641 253.282Z"
        fill="#E0E0E0"
      />
      <path
        d="M52.2055 267.244C52.1469 267.26 52.0852 267.26 52.0266 267.244H51.9634L52.4265 267.097C52.4265 267.17 52.4265 267.276 52.2581 267.318C52.0897 267.36 52.0055 267.318 51.9739 267.244L52.437 267.097C52.437 267.097 52.437 267.149 52.437 267.16C52.4072 267.19 52.3709 267.214 52.3308 267.228C52.2908 267.243 52.2479 267.248 52.2055 267.244Z"
        fill="#E0E0E0"
      />
      <path
        d="M95.1617 385.512C95.0351 385.512 85.4168 357.649 73.6681 323.183C61.9193 288.717 52.5119 260.727 52.6385 260.685C52.765 260.642 62.3834 288.548 74.1215 323.025C85.8597 357.501 95.2882 385.47 95.1617 385.512Z"
        fill="#E0E0E0"
      />
    </g>
    <path
      d="M142.273 75.6394C143.5 77.4077 144.171 79.6272 143.853 82.2482C131.81 101.97 26.5918 115.744 20.8958 103.324C20.3424 101.778 20.1611 100.267 20.2815 98.8214C18.4102 79.2111 25.1048 46.2926 63.6689 36.6207C66.8278 35.5688 69.8078 35.0512 72.314 34.9337C116.666 28.5543 136.322 56.2672 142.273 75.6394Z"
      fill="#F2F2F2"
    />
    <path
      d="M129.912 71.3348C134.762 69.1406 144.925 73.4139 143.853 82.2484C132.146 97.5666 26.9093 111.58 20.8958 103.324C17.5468 93.9698 27.8247 85.886 36.1395 85.886C36.486 68.679 63.6245 72.8364 64.3175 72.8364C69.5142 68.6021 83.9265 62.1429 100.002 70.1804C114.414 61.3113 125.947 67.2545 129.912 71.3348Z"
      fill="#D9D9D9"
    />
    <path
      d="M143.853 82.2482C142.983 89.417 115.98 120.642 103.377 135.526L100.918 135.455M143.853 82.2482C144.925 73.4137 134.762 69.1404 129.912 71.3346M143.853 82.2482C131.81 101.97 26.5918 115.744 20.8958 103.324M143.853 82.2482C140.729 63.496 122.049 27.7801 72.314 34.9337M129.912 71.3346C125.365 83.8248 113.2 114.135 100.918 135.455M129.912 71.3346C125.947 67.2543 114.414 61.3111 100.002 70.1802M129.912 71.3346C113.497 40.1609 84.6738 34.0783 72.314 34.9337M100.918 135.455L98.1556 135.375M100.002 70.1802L98.1556 135.375M100.002 70.1802C83.9265 62.1427 69.5142 68.6019 64.3175 72.8362M100.002 70.1802C92.92 43.265 78.5925 35.4679 72.314 34.9337M98.1556 135.375L95.2542 135.291M95.2542 135.291C87.4826 117.822 70.415 80.8738 64.3175 72.8362M95.2542 135.291L90.8859 135.164M64.3175 72.8362C63.6245 72.8362 36.486 68.6788 36.1396 85.8858M64.3175 72.8362C61.4673 44.6714 68.4609 35.8326 72.314 34.9337M36.1396 85.8858L90.8859 135.164M36.1396 85.8858C27.8247 85.8858 17.5468 93.9696 20.8958 103.324M36.1396 85.8858C34.3673 46.5642 59.5174 35.5338 72.314 34.9337M90.8859 135.164L86.5177 135.038C66.7994 126.738 22.184 109.788 20.8958 103.324M20.8958 103.324C17.3124 83.5077 22.5793 42.0874 72.314 34.9337"
      stroke="#999999"
      stroke-width="0.413105"
    />
    <path
      d="M133.951 144.38L138.885 174.367C139.427 177.481 138.974 179.177 137.707 180.097C137.297 180.395 136.802 180.612 136.227 180.77C127.527 184.707 123.626 186.143 119.872 186.143L68.1533 187C58.4302 187 57.7931 179.592 55.2399 162.085C53.6446 151.146 53.1888 149.171 57.2149 146.285L74.0933 136.579C74.2251 136.493 74.3618 136.415 74.5032 136.343C76.2733 135.441 78.7656 135.529 81.1478 135.529L126.608 136.738C132.223 137.348 132.969 138.902 133.951 144.38Z"
      fill="#E2FDCE"
    />
    <path
      d="M74.5032 136.343C72.5524 137.337 71.4788 139.535 72.3966 144.38L76.7351 174.367C77.4912 178.886 79.0861 181.181 89.1374 181.181H131.075C134.069 181.181 136.353 181.081 137.707 180.097M74.5032 136.343C76.2733 135.441 78.7656 135.529 81.1478 135.529L126.608 136.738C132.223 137.348 132.969 138.902 133.951 144.38L138.885 174.367C139.427 177.481 138.974 179.177 137.707 180.097M74.5032 136.343L57.2149 146.285C53.1888 149.171 53.6446 151.146 55.2399 162.085C57.7931 179.592 58.4302 187 68.1533 187L119.872 186.143C123.833 186.143 127.956 184.545 137.707 180.097"
      stroke="#999999"
      stroke-width="0.413105"
    />
    <path
      d="M55.9692 167.171L55.0737 161.347L73.5031 152.438L135.133 151.995L136.328 158.781L74.4712 159.698L55.9692 167.171Z"
      fill="#F2F2F2"
      stroke="#999999"
      stroke-width="0.413105"
    />
    <ellipse
      cx="107.35"
      cy="155.412"
      rx="13.227"
      ry="11.1859"
      transform="rotate(-2.52789 107.35 155.412)"
      fill="#59C606"
    />
    <g clip-path="url(#clip1_1_6168)">
      <path
        d="M174.431 339.87V330.115C174.431 329.168 175.202 328.402 176.149 328.409L255.292 328.941C256.23 328.947 256.986 329.709 256.986 330.647V339.87C268.958 346.809 277.893 397.325 279.859 413.239C281.394 425.667 272.578 629.994 273.322 650.406C273.349 651.156 272.92 651.77 272.222 652.046C257.741 657.777 244.695 654.694 237.365 651.946C236.756 651.717 236.345 651.153 236.295 650.505L217.751 413.239L204.547 650.34C204.506 651.072 204.001 651.697 203.292 651.883C189.328 655.544 178.157 655.261 167.511 651.913C166.859 651.708 166.413 651.24 166.359 650.559C165.136 635.076 150.305 445.625 154.418 413.239C159.734 371.376 166.122 347.919 174.431 339.87Z"
        fill="#2B2B2B"
      />
      <path
        d="M174.431 339.87V330.115C174.431 329.168 175.202 328.402 176.149 328.409L255.292 328.941C256.23 328.947 256.986 329.709 256.986 330.647V339.87M174.431 339.87C166.122 347.919 159.734 371.376 154.418 413.239C150.305 445.625 165.136 635.076 166.359 650.559C166.413 651.24 166.859 651.708 167.511 651.913C178.157 655.261 189.328 655.544 203.292 651.883C204.001 651.697 204.506 651.072 204.547 650.34L217.751 413.239L236.295 650.505C236.345 651.153 236.756 651.717 237.365 651.946C244.695 654.694 257.741 657.777 272.222 652.046C272.92 651.77 273.349 651.156 273.322 650.406C272.578 629.994 281.394 425.667 279.859 413.239C277.893 397.325 268.958 346.809 256.986 339.87M174.431 339.87C182.304 341.728 198.352 344.043 217.751 343.865M256.986 339.87C246.704 341.982 236.496 343.121 226.874 343.598M217.751 343.865V389.567M217.751 343.865C220.719 343.838 223.766 343.753 226.874 343.598M217.751 396.895V389.567M217.751 389.567C219.627 390.068 224.077 390.15 226.874 386.477C229.67 382.805 228.039 356.361 226.874 343.598"
        stroke="black"
        stroke-width="0.5"
        stroke-linecap="round"
        stroke-linejoin="round"
      />
      <path
        d="M189.433 187.806C198.116 188.116 203.632 174.358 197.269 165.833H224.267C216.762 189.698 253.469 202.317 235.667 219.434H189.433V187.806Z"
        fill="white"
        stroke="black"
        stroke-width="0.5"
        stroke-linecap="round"
        stroke-linejoin="round"
      />
      <path
        d="M220.41 168.839C237.811 156.2 234.689 130.718 230.76 119.554C224.95 107.183 215.023 103.895 210.053 104.414C197.115 102.821 189.415 116.092 187.011 123.177C184.606 130.262 181.106 156.365 194.91 166.523C205.953 174.649 216.511 171.452 220.41 168.839Z"
        fill="white"
        stroke="black"
        stroke-width="0.5"
        stroke-linecap="round"
        stroke-linejoin="round"
      />
      <path
        d="M179.015 135.004C181.071 131.184 183.868 133.459 185.009 135.074C184.935 136.122 184.889 137.081 184.864 137.956C184.734 142.535 185.184 144.812 185.176 145.457C184.231 151.79 176.444 139.78 179.015 135.004Z"
        fill="white"
      />
      <path
        d="M239.291 132.151C236.937 128.432 234.507 130.557 233.586 132.084C233.688 133.66 233.749 135.14 233.778 136.508C233.883 141.289 233.612 144.702 233.421 146.02C237.052 149.715 242.233 136.799 239.291 132.151Z"
        fill="white"
      />
      <path
        d="M233.778 136.508C233.883 141.289 233.612 144.702 233.421 146.02C237.052 149.715 242.233 136.799 239.291 132.151C236.937 128.432 234.507 130.557 233.586 132.084C233.688 133.66 233.749 135.14 233.778 136.508ZM233.778 136.508C234.393 134.881 235.888 132.034 236.952 133.661M233.778 136.508C235.312 134.764 237.903 133.154 235.999 140.667M184.864 137.956C184.734 142.535 185.184 144.812 185.176 145.457C184.231 151.79 176.444 139.78 179.015 135.004C181.071 131.184 183.868 133.459 185.009 135.074C184.935 136.122 184.889 137.081 184.864 137.956ZM184.864 137.956C184.021 136.024 181.996 133.098 180.637 136.85M184.864 137.956C183.469 136.434 181.159 135.26 183.081 142.741"
        stroke="black"
        stroke-width="0.5"
        stroke-linecap="round"
        stroke-linejoin="round"
      />
      <path
        d="M203.973 158.568C206.275 160.165 212.097 161.758 216.969 155.355"
        stroke="black"
        stroke-width="0.5"
        stroke-linecap="round"
        stroke-linejoin="round"
      />
      <path
        d="M204.862 137.234C205.079 144.007 194.461 149.993 204.709 150.112"
        stroke="black"
        stroke-width="0.5"
        stroke-linecap="round"
        stroke-linejoin="round"
      />
      <path
        d="M196.563 94.6165C199.923 93.5077 208.412 91.77 215.494 93.6893C217.664 92.5029 222.345 91.0906 230.099 95.0075C239.791 99.9037 248.242 109.571 245.732 120.15C244.112 126.979 241.774 130.83 240.201 134.921C239.493 132.202 237.216 127.75 233.771 131.689C230.796 127.298 229.535 124.34 229.22 116.713C216.907 119.706 199.325 122.186 188.659 119.257C185.508 126.643 185.735 129.946 184.846 134.721L182.967 133.082C179.142 118.648 180.623 115.463 181.841 115.675C178.231 112.043 178.159 106.073 184.13 96.7588L187.383 92.0113C186.538 94.007 185.645 97.6558 188.832 96.2856C189.919 95.8218 190.92 93.5026 193.237 92.7396C193.57 92.5432 193.86 92.5125 194.038 92.5509C193.754 92.5927 193.488 92.657 193.237 92.7396C192.805 92.9953 192.302 93.5318 191.883 94.5619C191.142 96.3831 194.694 95.3571 196.563 94.6165Z"
        fill="#2B2B2B"
      />
      <path
        d="M229.344 158.766C232.045 152.369 235.223 147.841 236.304 146.163C234.898 147.525 233.659 146.643 233.214 146.127C232.588 149.801 230.901 154.883 229.344 158.766Z"
        fill="#2B2B2B"
      />
      <path
        d="M188.659 119.257C199.325 122.186 216.907 119.706 229.22 116.713C229.535 124.34 230.796 127.298 233.771 131.689C237.216 127.75 239.493 132.202 240.201 134.921C241.774 130.83 244.112 126.979 245.732 120.15C248.242 109.571 239.791 99.9037 230.099 95.0075C222.345 91.0906 217.664 92.5029 215.494 93.6893C208.412 91.77 199.923 93.5077 196.563 94.6165C194.694 95.3571 191.142 96.3831 191.883 94.5619C192.623 92.7407 193.628 92.4624 194.038 92.5509C191.135 92.9791 190.037 95.7716 188.832 96.2856C185.645 97.6558 186.538 94.007 187.383 92.0113L184.13 96.7588C178.159 106.073 178.231 112.043 181.841 115.675M188.659 119.257C185.82 118.478 183.47 117.315 181.841 115.675M188.659 119.257C187.187 118.876 183.763 117.625 181.841 115.675M188.659 119.257C185.508 126.643 185.735 129.946 184.846 134.721L182.967 133.082C179.142 118.648 180.623 115.463 181.841 115.675M236.304 146.163C235.223 147.841 232.045 152.369 229.344 158.766C230.901 154.883 232.588 149.801 233.214 146.127C233.659 146.643 234.898 147.525 236.304 146.163Z"
        stroke="black"
        stroke-width="0.5"
        stroke-linecap="round"
        stroke-linejoin="round"
      />
      <path
        d="M213.199 127.782C215.349 125.313 220.456 123.822 223.845 127.906M198.936 128.023C196.639 125.436 191.637 123.951 188.85 127.906"
        stroke="black"
        stroke-width="0.5"
        stroke-linecap="round"
        stroke-linejoin="round"
      />
      <path
        d="M214.855 141.29C214.934 143.308 215.662 144.918 216.48 144.887C217.298 144.855 217.897 143.193 217.817 141.175C217.738 139.157 217.01 137.547 216.192 137.579C215.374 137.61 214.775 139.272 214.855 141.29Z"
        fill="black"
      />
      <path
        d="M214.855 141.29C214.934 143.308 215.662 144.918 216.48 144.887C217.298 144.855 217.897 143.193 217.817 141.175C217.738 139.157 217.01 137.547 216.192 137.579C215.374 137.61 214.775 139.272 214.855 141.29Z"
        fill="black"
      />
      <path
        d="M214.855 141.29C214.934 143.308 215.662 144.918 216.48 144.887C217.298 144.855 217.897 143.193 217.817 141.175C217.738 139.157 217.01 137.547 216.192 137.579C215.374 137.61 214.775 139.272 214.855 141.29Z"
        fill="black"
      />
      <path
        d="M214.855 141.29C214.934 143.308 215.662 144.918 216.48 144.887C217.298 144.855 217.897 143.193 217.817 141.175C217.738 139.157 217.01 137.547 216.192 137.579C215.374 137.61 214.775 139.272 214.855 141.29Z"
        fill="black"
      />
      <path
        d="M195.033 141.29C195.113 143.308 195.84 144.918 196.658 144.887C197.476 144.855 198.075 143.193 197.996 141.175C197.916 139.157 197.189 137.547 196.371 137.579C195.553 137.61 194.954 139.272 195.033 141.29Z"
        fill="black"
      />
      <path
        d="M195.033 141.29C195.113 143.308 195.84 144.918 196.658 144.887C197.476 144.855 198.075 143.193 197.996 141.175C197.916 139.157 197.189 137.547 196.371 137.579C195.553 137.61 194.954 139.272 195.033 141.29Z"
        fill="black"
      />
      <path
        d="M195.033 141.29C195.113 143.308 195.84 144.918 196.658 144.887C197.476 144.855 198.075 143.193 197.996 141.175C197.916 139.157 197.189 137.547 196.371 137.579C195.553 137.61 194.954 139.272 195.033 141.29Z"
        fill="black"
      />
      <path
        d="M195.033 141.29C195.113 143.308 195.84 144.918 196.658 144.887C197.476 144.855 198.075 143.193 197.996 141.175C197.916 139.157 197.189 137.547 196.371 137.579C195.553 137.61 194.954 139.272 195.033 141.29Z"
        fill="black"
      />
      <path
        d="M229.996 181.246C215.861 195.672 196.925 188.416 195.605 181.246L171.613 325.306C199.848 337.859 247.442 330.536 267.71 325.306L229.996 181.246Z"
        fill="#FBD26A"
        stroke="black"
        stroke-width="0.5"
        stroke-linecap="round"
        stroke-linejoin="round"
      />
      <path
        d="M204.841 408.874C195.324 407.036 149.411 396.678 146.713 387.038C157.406 351.012 162.542 310.812 162.542 301C158.348 302.285 136.948 314.115 126.385 305.529C117.629 300.06 117.945 290.54 117.945 284.16C117.946 278.801 131.982 246.235 142.245 219.643C148.239 204.11 154.365 200.546 182.198 188.023C181.425 184.421 197.73 176.241 199.742 176.818C199.104 178.501 198.963 182.265 196.998 182.901C196.998 186.163 198.997 185.786 203.799 193.303C196.328 195.969 191.164 294.648 204.841 408.874Z"
        fill="white"
      />
      <path
        d="M221.177 193.303C220.049 192.138 219.75 191.321 220.027 190.923C220.104 188.226 224.91 186.115 226.171 182.053C224.074 179.555 223.989 176.945 223.847 175.843C224.455 175.843 242.614 180.186 242.614 185.481C266.382 193.406 275.028 195.53 282.062 211.181C294.588 239.052 302.833 277.65 302.833 283.009C302.834 289.389 300.888 302.578 292.131 308.047C288.738 310.434 279.5 308.461 275.306 307.176L292.131 387.038C288.324 399.289 252.816 406.654 232.504 408.874C237.119 405.515 246.296 346.76 241.819 292.399L239.2 290.495L241.289 286.169C237.51 243.102 228.762 201.132 221.177 193.303Z"
        fill="white"
      />
      <path
        d="M199.742 176.818C199.742 176.818 196.998 180.53 196.998 182.901M199.742 176.818C197.73 176.241 181.425 184.421 182.198 188.023M199.742 176.818C199.104 178.501 198.963 182.265 196.998 182.901M182.198 188.023C182.198 188.023 178.626 193.399 188.587 216.959C185.273 208.43 197.143 182.883 203.799 193.303M182.198 188.023C154.365 200.546 148.239 204.11 142.245 219.643C131.982 246.235 117.946 278.801 117.945 284.16C117.945 290.54 117.629 300.06 126.385 305.529C136.948 314.115 158.348 302.285 162.542 301M203.799 193.303C198.997 185.786 196.998 186.163 196.998 182.901M203.799 193.303C196.328 195.969 191.164 294.648 204.841 408.874C195.324 407.036 149.411 396.678 146.713 387.038C157.406 351.012 162.542 310.812 162.542 301M162.542 301L173.966 296.938M138.848 277.158L154.727 273.568M154.727 273.568C153.028 277.513 160.048 293.884 173.966 296.938M154.727 273.568V270.082C154.727 270.082 159.126 268.833 164.184 267.876M173.966 296.938L177.468 298.316L183.919 289.54L186.987 285.366L179.863 277.088L170.731 266.476C169.285 266.871 166.812 267.379 164.184 267.876M223.847 175.843C224.455 175.843 242.614 180.186 242.614 185.481M223.847 175.843C226.963 178.057 226.813 179.985 226.171 182.053M223.847 175.843C223.989 176.945 224.074 179.555 226.171 182.053M221.177 193.303C215.021 186.949 233.561 190.93 235.471 216.959C244.661 198.82 242.614 188.023 242.614 185.481M221.177 193.303C228.762 201.132 237.51 243.102 241.289 286.169M221.177 193.303C217.23 189.229 224.567 187.219 226.171 182.053M242.614 185.481C266.382 193.406 275.028 195.53 282.062 211.181C294.588 239.052 302.833 277.65 302.833 283.009C302.834 289.389 300.888 302.578 292.131 308.047C288.738 310.434 279.5 308.461 275.306 307.176M275.306 307.176C268.229 305.008 262.963 301.877 256.062 297.705M275.306 307.176L292.131 387.038C288.324 399.289 252.816 406.654 232.504 408.874C237.119 405.515 246.296 346.76 241.819 292.399M268.456 273.023L281.93 276.007M268.456 273.023H265.267M268.456 273.023C266.173 260.805 268.456 219.643 268.456 219.643M265.267 273.023C266.966 276.968 269.979 294.651 256.062 297.705M265.267 273.023V269.75C265.267 269.75 258.519 268.36 253.707 267.218C252.579 266.95 251.557 266.695 250.754 266.476L249.217 269.75L241.289 286.169M256.062 297.705L253.732 301.057L241.819 292.399M164.184 267.876C165.686 262.187 168.402 244.575 167.255 219.643M241.289 286.169L239.2 290.495L241.819 292.399"
        stroke="black"
        stroke-width="0.5"
        stroke-linecap="round"
        stroke-linejoin="round"
      />
      <path
        d="M171.88 267.453C174.281 266.146 176.28 264.454 178.277 262.541L183.448 250.814C183.28 249.086 183.337 245.704 184.909 246.003C185.179 245.929 185.448 245.87 185.72 245.824C187.365 240.85 188.01 235.995 190.031 236.593C191.884 236.618 194.778 236.808 197.361 237.3C198.449 237.062 200.95 236.73 202.241 237.3L202.732 239.655L203.223 244.061L204.184 251.53C204.185 251.534 204.185 251.537 204.185 251.541L204.789 262.059L199.823 264.652L190.835 268.62C190.016 270.167 182.701 280.133 182.701 280.133L171.88 267.453Z"
        fill="white"
      />
      <path
        d="M187.365 251.53C188.207 251.709 190.008 251.127 190.803 250.814C198.382 250.814 198.826 248.403 198.101 247.198C195.263 246.77 193.117 246.4 191.406 246.135M185.72 245.824C185.448 245.87 185.179 245.929 184.909 246.003C183.337 245.704 183.28 249.086 183.448 250.814L178.277 262.541C176.28 264.454 174.281 266.146 171.88 267.453L182.701 280.133C182.701 280.133 190.016 270.167 190.835 268.62L199.823 264.652L204.789 262.059L204.184 251.53M185.72 245.824C187.365 240.85 188.01 235.995 190.031 236.593C191.884 236.618 194.778 236.808 197.361 237.3M185.72 245.824C187.214 245.574 188.809 245.733 191.406 246.135M202.732 239.655L203.223 244.061M202.732 239.655C202.018 238.515 199.832 237.77 197.361 237.3M202.732 239.655L202.241 237.3C200.95 236.73 198.449 237.062 197.361 237.3M203.223 244.061C202.535 243.889 201.752 243.706 200.926 243.526M203.223 244.061L204.184 251.53M191.406 246.135L191.856 243.09C191.763 242.271 193.959 242.335 196.635 242.728M195.715 246.135C195.8 244.965 196.102 242.646 196.635 242.728M196.635 242.728C198.02 242.932 199.534 243.223 200.926 243.526M200.926 243.526C201 246.325 201.465 252.021 202.732 252.415C204 253.484 204.228 252.27 204.184 251.53M189.251 259.518C190.513 258.581 193.468 257.085 195.198 258.604M187.365 263.386C186.58 266.129 184.855 271.629 184.23 271.685"
        stroke="black"
        stroke-width="0.5"
        stroke-linecap="round"
        stroke-linejoin="round"
      />
      <path
        d="M202.763 237.328L204.771 255.727L229.741 259.431L229.741 251.411L229.741 235.479C229.863 232.922 228.061 232.499 227.144 232.607L205.285 233.514C202.506 233.514 202.579 236.044 202.763 237.328Z"
        fill="#2B2B2B"
        stroke="black"
        stroke-width="0.5"
        stroke-linecap="round"
        stroke-linejoin="round"
      />
      <path
        d="M209.715 235.075C205.251 235.229 204.354 236.358 204.559 239.556C204.779 243.601 205.726 243.804 209.759 243.736C213.793 243.669 215.304 242.561 215.026 239.055C214.916 236.085 214.289 234.916 209.715 235.075Z"
        fill="#2B2B2B"
        stroke="black"
        stroke-width="0.5"
        stroke-linecap="round"
        stroke-linejoin="round"
      />
      <ellipse
        cx="2.40982"
        cy="1.98433"
        rx="2.40982"
        ry="1.98433"
        transform="matrix(0.978956 -0.207427 0.297736 0.953552 204.536 236.292)"
        fill="white"
        stroke="black"
        stroke-width="0.5"
        stroke-linecap="round"
        stroke-linejoin="round"
      />
      <ellipse
        cx="2.40982"
        cy="1.98433"
        rx="2.40982"
        ry="1.98433"
        transform="matrix(0.978956 -0.207427 0.297736 0.953552 209.025 239.7)"
        fill="white"
        stroke="black"
        stroke-width="0.5"
        stroke-linecap="round"
        stroke-linejoin="round"
      />
      <ellipse
        cx="1.23556"
        cy="1.00278"
        rx="1.23556"
        ry="1.00278"
        transform="matrix(0.978956 -0.207427 0.297736 0.953552 210.909 236.178)"
        fill="white"
        stroke="black"
        stroke-width="0.5"
        stroke-linecap="round"
        stroke-linejoin="round"
      />
      <ellipse
        cx="0.737777"
        cy="0.615157"
        rx="0.737777"
        ry="0.615157"
        transform="matrix(0.978956 -0.207427 0.297736 0.953552 206.238 241.286)"
        fill="white"
        stroke="black"
        stroke-width="0.5"
        stroke-linecap="round"
        stroke-linejoin="round"
      />
      <path
        d="M246.164 268.89C248.163 270.226 249.417 268.89 249.417 268.89C248.234 271.837 242.956 283.439 241.317 285.987C241.317 285.987 238.875 282.234 237.843 282.128C230.744 281.393 224.16 279.093 223.531 277.864C222.954 276.739 206.128 271.444 208.195 267.148C204.288 266.386 201.814 265.844 199.29 264.631C195.377 262.75 196.574 259.857 199.29 260.17L204.124 260.515C202.173 260.102 200.719 259.745 200.147 259.48C195.938 257.536 197.722 254.742 200.653 255.113L209.149 255.731C211.015 255.434 222.877 257.1 229.577 258.12C228.958 256.21 221.22 255.534 216.64 254.282C212.408 253.126 211.811 249.12 213.721 249.12C214.225 249.209 230.027 250.372 232.212 251.088C234.397 251.803 245.013 268.121 246.164 268.89Z"
        fill="white"
      />
      <path
        d="M229.577 258.12C228.958 256.21 221.22 255.534 216.64 254.282C212.408 253.126 211.811 249.12 213.721 249.12C214.225 249.209 230.027 250.372 232.212 251.088C234.397 251.803 245.013 268.121 246.164 268.89C248.163 270.226 249.417 268.89 249.417 268.89C248.234 271.837 242.956 283.439 241.317 285.987C241.317 285.987 238.875 282.234 237.843 282.128C230.744 281.393 224.16 279.093 223.531 277.864C222.954 276.739 206.128 271.444 208.195 267.148M230.753 258.301C224.377 257.313 211.13 255.415 209.149 255.731L200.653 255.113C197.722 254.742 195.938 257.536 200.147 259.48C200.719 259.745 202.173 260.102 204.124 260.515M226.791 265.519C225.316 264.331 211.328 262.042 204.124 260.515M204.124 260.515L199.29 260.17C196.574 259.857 195.377 262.75 199.29 264.631C201.814 265.844 204.288 266.386 208.195 267.148M225.515 270.941C217.363 268.878 212.073 267.905 208.195 267.148"
        stroke="black"
        stroke-width="0.5"
        stroke-linecap="round"
        stroke-linejoin="round"
      />
    </g>
  </g>
  <defs>
    <filter
      id="filter0_f_1_6168"
      x="5"
      y="231"
      width="138"
      height="184.808"
      filterUnits="userSpaceOnUse"
      color-interpolation-filters="sRGB"
    >
      <feFlood flood-opacity="0" result="BackgroundImageFix" />
      <feBlend mode="normal" in="SourceGraphic" in2="BackgroundImageFix" result="shape" />
      <feGaussianBlur stdDeviation="3" result="effect1_foregroundBlur_1_6168" />
    </filter>
    <clipPath id="clip0_1_6168">
      <path
        d="M0 24C0 10.7452 10.7452 0 24 0H320C333.255 0 344 10.7452 344 24V336C344 349.255 333.255 360 320 360H24C10.7452 360 0 349.255 0 336V24Z"
        fill="white"
      />
    </clipPath>
    <clipPath id="clip1_1_6168">
      <rect width="184.818" height="338.833" fill="white" transform="translate(118 92)" />
    </clipPath>
  </defs>
</svg>