<svg
  width="344"
  height="360"
  viewBox="0 0 344 360"
  fill="none"
  xmlns="http://www.w3.org/2000/svg"
>
  <g clip-path="url(#clip0_1_7630)">
    <path
      d="M0 24C0 10.7452 10.7452 0 24 0H320C333.255 0 344 10.7452 344 24V336C344 349.255 333.255 360 320 360H24C10.7452 360 0 349.255 0 336V24Z"
      fill="#F5F5F5"
    />
    <path
      d="M303.075 244.877C305.214 231.829 296.37 219.516 283.322 217.377C270.273 215.238 257.961 224.082 255.822 237.131C253.683 250.18 262.527 262.492 275.575 264.631C288.624 266.77 300.936 257.926 303.075 244.877Z"
      fill="white"
      stroke="#3D3D3D"
      stroke-width="0.5"
      stroke-linecap="round"
      stroke-linejoin="round"
    />
    <path
      d="M293.19 243.404C293.007 243.667 292.824 243.937 292.633 244.2C289.047 249.169 283.52 253.805 279.425 254.719V254.656C275.45 253.765 270.098 249.352 266.512 244.534C266.313 244.271 266.122 244.001 265.94 243.738C262.489 238.792 261.033 233.6 264.874 231.453C272.682 227.096 279.425 236.439 279.425 236.439C279.425 236.439 286.184 227.167 293.977 231.517C297.714 233.6 296.434 238.578 293.19 243.404Z"
      fill="#E2FDCE"
      stroke="#3D3D3D"
      stroke-width="0.5"
      stroke-miterlimit="10"
    />
    <path
      d="M293.19 243.404C293.007 243.667 292.824 243.937 292.633 244.199H290.661L288.403 247.181L286.868 238.339L284.483 244.35H278.845L275.959 249.161L273.732 239.42L270.862 244.502H266.512C266.313 244.239 266.122 243.969 265.94 243.706H270.4L274.05 237.242L276.293 247.062L278.416 243.523H283.982L287.162 235.381L288.864 245.209L290.255 243.372L293.19 243.404Z"
      fill="white"
    />
    <path
      d="M296.499 56.1856L223.557 30L151.309 55.8387C142.083 60.1944 134.001 62.8027 134.001 71.3728V114.172C133.873 144.209 142.113 173.689 157.797 199.307C173.454 225.207 196.668 245.689 224.315 258C253.867 248.415 275.89 222.833 289.355 200.965C305.05 175.356 313.295 145.878 313.164 115.842V77.3731C313.112 65.1155 306.611 59.1408 296.499 56.1856Z"
      fill="#F5F5F5"
    />
    <path
      d="M224.315 233.176C198.9 221.857 182.39 203.624 171.725 186.356C159.315 166.09 152.797 142.767 152.902 119.003V89.0012C152.902 82.2042 157.001 75.8313 165.147 72.0281L223.621 50.1853V30L151.309 55.8387C143.728 59.1537 134.001 62.8027 134.001 71.3985V114.172C133.873 144.209 142.113 173.689 157.797 199.307C173.454 225.207 196.668 245.689 224.315 258V233.176Z"
      fill="#EBEBEB"
    />
    <path
      d="M224.315 258C229.263 256.381 234.057 254.326 238.641 251.858C249.893 245.472 260.12 237.429 268.977 227.998C277.012 219.34 284.086 209.836 290.075 199.654C305.983 173.867 314.02 143.998 313.202 113.709V78.3882C313.202 60.7983 304.208 59.5006 296.499 56.1856L223.557 30V50.1724L282.661 72.3878C290.807 76.2424 294.906 82.5511 294.906 89.3481V119.35C295.007 143.115 288.485 166.438 276.07 186.703C265.431 204.01 249.678 221.857 224.315 233.176V258Z"
      fill="#E0E0E0"
    />
    <path
      d="M228.331 81.0068H218.191C212.668 81.0068 208.191 85.484 208.191 91.0068V175.338C208.191 180.861 212.668 185.338 218.191 185.338H228.331C233.854 185.338 238.331 180.861 238.331 175.338V91.0068C238.331 85.484 233.854 81.0068 228.331 81.0068Z"
      fill="#59C606"
    />
    <path
      d="M275.427 138.242V128.102C275.427 122.579 270.949 118.102 265.427 118.102H181.096C175.573 118.102 171.096 122.579 171.096 128.102V138.242C171.096 143.765 175.573 148.242 181.096 148.242H265.427C270.949 148.242 275.427 143.765 275.427 138.242Z"
      fill="#59C606"
    />
    <path
      d="M186.342 244.472L193.089 235.048C193.562 232.272 193.846 227.402 196.611 222.733C198.504 219.536 199.958 213.283 201.13 212.386C202.282 212.047 204.521 214.384 201.972 222.863L202.171 226.292C231.376 218.03 232.591 225.493 228.105 226.096C224.569 226.571 219.048 228.072 215.341 228.704C215.778 228.668 216.181 228.638 216.535 228.615C223.486 227.627 223.586 233.291 219.034 233.953C222.038 234.085 221.911 237.975 219.535 239.092C222.431 240.367 219.139 243.943 215.525 244.849C210.122 246.204 203.629 247.097 200 245.512L198.253 249.184C198.253 249.184 191.876 245.512 186.342 244.472Z"
      fill="white"
    />
    <path
      d="M200.212 232.916C201.066 231.839 202.523 229.309 202.171 226.292M216.074 242.024C211.627 243.146 208.741 240.234 210.384 238.79C210.554 238.64 211.258 238.756 212.097 238.774M219.535 239.092C222.431 240.367 219.139 243.943 215.525 244.849C210.122 246.204 203.629 247.097 200 245.512C200 245.512 200 245.512 198.253 249.184C198.253 249.184 191.876 245.512 186.342 244.472L193.089 235.048C193.562 232.272 193.846 227.402 196.611 222.733C198.504 219.536 199.958 213.283 201.13 212.386C202.282 212.047 204.521 214.384 201.972 222.863L202.171 226.292M219.535 239.092C219.132 238.914 218.017 239.122 217.405 238.977C216.044 238.91 213.716 238.808 212.097 238.774M219.535 239.092C222.127 237.873 222.043 233.352 218.133 234.016M218.133 234.016C223.572 234.02 223.918 227.566 216.535 228.615C216.181 228.638 215.778 228.668 215.341 228.704M218.133 234.016C215.602 233.85 210.637 234.495 208.296 234.998M212.097 238.774C207.202 238.935 206.14 236.935 206.933 235.64C207.075 235.409 207.846 235.095 208.296 234.998M208.296 234.998C203.988 233.934 206.288 230.907 209.097 230.069C209.097 230.069 212.48 229.191 215.341 228.704M215.341 228.704C219.048 228.072 224.569 226.571 228.105 226.096C232.591 225.493 231.376 218.03 202.171 226.292"
      stroke="black"
      stroke-width="0.5"
    />
    <path
      d="M167.185 274.409L176.291 256.64L173.323 253.388C173.139 253.186 173.119 252.883 173.274 252.658C176.501 247.991 178.45 245.33 182.633 242.844C182.746 242.776 182.883 242.75 183.014 242.769C190.167 243.8 194.134 245.353 200.946 249.522C201.079 249.603 201.176 249.736 201.211 249.887C202.344 254.876 201.848 260.193 201.238 263.918C201.191 264.2 200.947 264.404 200.662 264.404H196.257C190.718 279.543 185.111 313.713 161.704 313.805C161.643 313.805 161.58 313.795 161.522 313.777L157.287 312.415C157.067 312.344 156.909 312.151 156.883 311.921L150.762 256.684C150.759 256.655 150.758 256.625 150.759 256.595L152.256 220.304C152.275 219.847 152.787 219.587 153.167 219.84L153.67 220.176C153.781 220.249 153.863 220.358 153.904 220.485L160.152 240.019C166.561 259.194 165.876 274.409 167.185 274.409Z"
      fill="white"
    />
    <path
      d="M160.009 239.595C160.057 239.736 160.105 239.878 160.152 240.019M167.185 274.409L176.291 256.64M167.185 274.409C165.417 279.086 162.935 288.073 163.717 290.579M167.185 274.409C165.876 274.409 166.561 259.194 160.152 240.019M176.291 256.64C183.574 261.8 188.045 263.099 196.257 264.404M176.291 256.64L173.323 253.388C173.139 253.186 173.119 252.883 173.274 252.658C176.501 247.991 178.45 245.33 182.633 242.844C182.746 242.776 182.883 242.75 183.014 242.769C190.167 243.8 194.134 245.353 200.946 249.522C201.079 249.603 201.176 249.736 201.211 249.887C202.344 254.876 201.848 260.193 201.238 263.918C201.191 264.2 200.947 264.404 200.662 264.404H196.257M196.257 264.404C190.718 279.543 185.111 313.713 161.704 313.805C161.643 313.805 161.58 313.795 161.522 313.777L157.287 312.415C157.067 312.344 156.909 312.151 156.883 311.921L150.762 256.684C150.759 256.655 150.758 256.625 150.759 256.595L152.256 220.304C152.275 219.847 152.787 219.587 153.167 219.84L153.67 220.176C153.781 220.249 153.863 220.358 153.904 220.485L160.152 240.019"
      stroke="black"
      stroke-width="0.5"
      stroke-linecap="round"
      stroke-linejoin="round"
    />
    <path
      d="M177.696 461.618C145.304 419.128 132.338 396.223 131.679 379.307L128.181 338.267H139.899L152.115 337.966L152.115 335.568V326.745C157.662 328.404 159.158 328.781 162.944 330.44C164.441 331.096 164.969 331.27 165.85 331.722L168.025 335.568L197.048 385.818C202.152 393.062 230.32 444.493 232.56 455.563C234.799 466.632 227.948 478.145 224.242 482.517L151.298 572.337C136.197 573.553 132.04 559.403 128.494 550.578C149.945 508.932 160.282 468.248 177.696 461.618Z"
      fill="#2B2B2B"
    />
    <path
      d="M131.679 379.307C132.338 396.223 145.304 419.128 177.696 461.618C160.282 468.248 149.945 508.932 128.494 550.578C132.04 559.403 136.197 573.553 151.298 572.337L224.242 482.517C227.948 478.145 234.799 466.632 232.56 455.563C230.32 444.493 202.152 393.062 197.048 385.818L168.025 335.568M131.679 379.307L128.181 338.267H139.899M131.679 379.307C133.615 378.722 141.017 375.685 141.656 372.234C142.295 368.783 140.751 348.151 139.899 338.267M152.115 335.568L152.115 337.966M162.944 330.44C164.441 331.096 164.969 331.27 165.85 331.722L168.025 335.568M162.944 330.44C159.158 328.781 157.662 328.404 152.115 326.745L152.115 337.966M162.944 330.44L164.441 335.568H168.025M152.115 337.966L139.899 338.267"
      stroke="black"
      stroke-width="0.5"
      stroke-linecap="round"
      stroke-linejoin="round"
    />
    <path
      d="M65.8652 345.375L70.2821 341.952V320.872L156.993 316.958L158.75 338.483H128.21C133.388 401.806 139.152 482.851 150.856 612.124C132.172 620.698 111.484 615.696 105.006 612.124C80.5036 481.133 67.353 409.418 65.8652 345.375Z"
      fill="#2B2B2B"
    />
    <path
      d="M70.2821 341.952L94.792 339.614L128.21 338.483M70.2821 341.952L65.8652 345.375C67.353 409.418 80.5036 481.133 105.006 612.124C111.484 615.696 132.172 620.698 150.856 612.124C139.152 482.851 133.388 401.806 128.21 338.483M70.2821 341.952V320.872L156.993 316.958L158.75 338.483H128.21"
      stroke="black"
      stroke-width="0.5"
      stroke-linecap="round"
      stroke-linejoin="round"
    />
    <path
      d="M75.1911 388.899C75.0086 391.341 69.6855 401.7 69.4327 397.101L68.6121 387.844L75.1911 388.899ZM75.1911 388.899C76.6921 382.068 79.0686 371.91 79.8968 360.824M79.8968 360.824C79.7871 353.169 78.6255 350.472 77.407 345.115C77.407 345.115 72.4914 345.913 65.8791 350.036L66.2285 354.397L79.8968 360.824Z"
      stroke="black"
      stroke-width="0.5"
      stroke-linecap="round"
      stroke-linejoin="round"
    />
    <path
      d="M79.1564 380.807C27.9063 332.346 14.6105 306.645 14.6105 276.03C27.5677 287.868 32.3667 288.188 42.2045 297.909L41.0047 302.505C55.9524 317.675 56.3614 335.087 79.2364 353.963C80.672 355.746 81.2757 369.626 79.1564 380.807Z"
      fill="white"
    />
    <path
      d="M37.8855 299.945C39.7789 301.174 39.1158 300.587 41.0047 302.505M41.0047 302.505C55.9524 317.675 56.3614 335.087 79.2364 353.963C80.672 355.746 81.2757 369.626 79.1564 380.807C27.9063 332.346 14.6105 306.645 14.6105 276.03C27.5677 287.868 32.3667 288.188 42.2045 297.909L41.0047 302.505Z"
      stroke="black"
      stroke-width="0.5"
      stroke-linecap="round"
      stroke-linejoin="round"
    />
    <path
      d="M91.8589 202.818C94.4639 194.082 93.9845 183.165 93.3685 178.586C100.281 187.008 109.894 187.087 119.428 183.115C117.345 189.279 119.246 202.628 121.218 205.446C127.202 208.123 128.874 211.61 128.962 213.019C126.85 227.04 122.332 242.463 120.338 248.423L91.8589 202.818Z"
      fill="white"
      stroke="black"
      stroke-width="0.5"
      stroke-linecap="round"
      stroke-linejoin="round"
    />
    <path
      d="M121.221 204.568C116.492 222.972 101.784 212.982 91.1868 202.731L86.4739 319.913L150.217 316.878C147.421 287.749 141.175 227.973 138.555 221.902C135.935 215.831 125.907 207.817 121.221 204.568Z"
      fill="#FBD26A"
      stroke="black"
      stroke-width="0.5"
      stroke-linecap="round"
      stroke-linejoin="round"
    />
    <path
      d="M92.2117 187.938L92.2431 187.939C93.0439 187.966 93.7073 188.583 93.7175 189.385C93.7417 191.29 93.5836 194.412 92.8581 197.929C95.0803 198.496 97.5066 199.095 100.15 199.726C101.766 200.313 104.962 205.879 104.821 223.439C102.05 262.268 101.491 340.809 108.17 350.291C111.185 354.573 112.457 378.395 116.663 386.926C117.3 388.218 116.931 391.063 115.569 391.532C100.399 396.755 95.3949 383.535 89.396 381.528C89.1859 381.458 88.9873 381.36 88.8158 381.22L81.7626 375.456C81.6859 375.393 81.6171 375.329 81.5617 375.247C79.7525 372.57 81.6784 358.055 79.1073 353.893C78.9973 353.715 78.8386 353.577 78.6511 353.484C75.1339 351.743 71.3343 355.063 64.4216 337.468C64.254 337.041 64.2834 336.551 64.4897 336.142C71.8803 321.489 63.0189 295.824 60.8036 270.149L42.2028 282.876C41.6471 283.257 41.3987 283.949 41.5876 284.595C44.1519 293.368 47.8774 306.53 52.5793 313.327L57.8345 309.775C58.6324 309.235 59.7237 309.544 60.1207 310.421L66.6297 324.81C66.8311 325.255 66.8166 325.759 66.5682 326.18C64.6484 329.433 55.5232 343.952 40.1281 353.87C39.583 354.222 38.8743 354.186 38.3606 353.79L16.4595 336.908C15.5628 336.217 15.6826 334.83 16.6845 334.302L24.3082 330.29C18.8407 319.04 7.97362 284.265 9.07824 271.358C9.10171 271.084 9.20252 270.839 9.36574 270.617C27.7152 245.707 43.8269 210.424 53.1308 202.743C54.7847 201.378 68.903 199.667 74.778 199.726C76.1404 198.176 79.1864 194.784 80.9379 190.859C81.0156 190.392 81.2482 190.122 81.2482 190.122C82.0685 187.593 88.7381 187.82 92.2117 187.938Z"
      fill="white"
    />
    <path
      d="M118.6 192.583C118.945 192.667 119.286 192.773 119.622 192.899L131.699 196.64C134.934 197.753 137.532 202.608 139.242 208.276L152.789 219.513C153.16 219.821 153.367 220.283 153.35 220.765L152.056 256.849L157.127 317.197C157.153 317.508 157.272 317.804 157.469 318.047L171.355 335.129C174.735 339.088 181.304 347.662 180.537 350.291L180.147 351.284C179.666 352.507 177.978 352.618 177.341 351.469L176.623 350.172C168.479 352.465 156.935 368.088 150.439 378.449C149.776 379.508 148.231 379.405 147.805 378.231C145.203 371.049 141.481 355.78 141.481 335.129C141.481 311.314 132.481 242.093 127.981 210.459C126.603 208.355 123.164 206.275 121.357 205.361C121.163 205.263 120.987 205.135 120.873 204.95C119.589 202.882 118.827 195.942 118.6 192.583Z"
      fill="white"
    />
    <path
      d="M100.15 199.726C96.9666 199.396 92.0238 203.745 95.9309 222.955C96.2225 224.388 94.6302 225.396 93.5619 224.396C84.4733 215.893 75.1546 201.421 74.778 199.726M100.15 199.726C101.766 200.313 104.962 205.879 104.821 223.439C102.05 262.268 101.491 340.809 108.17 350.291C111.185 354.573 112.457 378.395 116.663 386.926C117.3 388.218 116.931 391.063 115.569 391.532C100.399 396.755 95.3949 383.535 89.396 381.528C89.1859 381.458 88.9873 381.36 88.8158 381.22L81.7626 375.456C81.6859 375.393 81.6171 375.329 81.5617 375.247C79.7525 372.57 81.6784 358.055 79.1073 353.893C78.9973 353.715 78.8386 353.577 78.6511 353.484C75.1339 351.743 71.3343 355.063 64.4216 337.468C64.254 337.041 64.2834 336.551 64.4897 336.142C71.8803 321.489 63.0189 295.824 60.8036 270.149M100.15 199.726C97.5066 199.095 95.0803 198.496 92.8581 197.929M74.778 199.726C76.2249 198.08 79.5707 194.356 81.2482 190.122M74.778 199.726C68.903 199.667 54.7847 201.378 53.1308 202.743C43.8269 210.424 27.7152 245.707 9.36574 270.617C9.20252 270.839 9.10171 271.084 9.07824 271.358C7.97362 284.265 18.8407 319.04 24.3082 330.29M81.2482 190.122C82.0709 187.586 88.7785 187.821 92.2431 187.939C93.0439 187.966 93.7073 188.583 93.7175 189.385C93.7417 191.29 93.5836 194.412 92.8581 197.929M81.2482 190.122C81.2482 190.122 77.8251 194.09 92.8581 197.929M118.6 192.583C124.97 194.136 129.783 203.143 129.51 208.276M118.6 192.583L131.699 196.64C134.934 197.753 137.532 202.608 139.242 208.276M118.6 192.583C118.827 195.942 119.589 202.882 120.873 204.95C120.987 205.135 121.163 205.263 121.357 205.361C123.164 206.275 126.603 208.355 127.981 210.459M129.51 208.276C128.526 207.836 128.086 208.276 128.086 209.246C128.054 209.646 128.019 210.05 127.981 210.459M129.51 208.276C131.105 208.803 134.275 210.687 137.407 214.551C138.475 215.868 140.846 215.095 140.517 213.431C140.174 211.692 139.746 209.949 139.242 208.276M60.8036 270.149L42.2028 282.876C41.6471 283.257 41.3987 283.949 41.5876 284.595C44.1519 293.368 47.8774 306.53 52.5793 313.327M60.8036 270.149C58.7582 265.92 65.1145 234.698 61.5415 227.229M139.242 208.276L152.789 219.513C153.16 219.821 153.367 220.283 153.35 220.765L152.056 256.849L157.127 317.197C157.153 317.508 157.272 317.804 157.469 318.047L171.355 335.129C174.735 339.088 181.304 347.662 180.537 350.291M127.981 210.459C132.481 242.093 141.481 311.314 141.481 335.129C141.481 355.78 145.203 371.049 147.805 378.231C148.231 379.405 149.776 379.508 150.439 378.449C156.935 368.088 168.479 352.465 176.623 350.172M24.3082 330.29C41.2132 325.226 36.6447 325.517 52.5793 313.327M24.3082 330.29L16.6845 334.302C15.6826 334.83 15.5628 336.217 16.4595 336.908L38.3606 353.79C38.8743 354.186 39.583 354.222 40.1281 353.87C55.5232 343.952 64.6484 329.433 66.5682 326.18C66.8166 325.759 66.8311 325.255 66.6297 324.81L60.1207 310.421C59.7237 309.544 58.6324 309.235 57.8345 309.775L52.5793 313.327M180.537 350.291L180.147 351.284C179.666 352.507 177.978 352.618 177.341 351.469L176.623 350.172M180.537 350.291C179.367 349.778 178.047 349.772 176.623 350.172"
      stroke="black"
      stroke-width="0.5"
      stroke-linecap="round"
      stroke-linejoin="round"
    />
    <path
      d="M97.5422 184.391C84.3448 172.067 89.5003 151.027 93.8887 142.066C99.9623 132.28 108.547 130.515 112.627 131.445C123.544 131.401 128.612 143.287 129.9 149.463C131.187 155.639 131.475 177.859 118.977 184.993C108.979 190.7 100.521 186.97 97.5422 184.391Z"
      fill="white"
      stroke="black"
      stroke-width="0.5"
      stroke-linecap="round"
      stroke-linejoin="round"
    />
    <path
      d="M135.364 160.17C134.038 156.764 131.484 158.391 130.373 159.631C130.33 160.516 130.271 161.324 130.204 162.06C129.852 165.909 129.249 167.772 129.191 168.313C129.34 173.714 137.021 164.428 135.364 160.17Z"
      fill="white"
    />
    <path
      d="M85.5352 151.769C87.866 148.889 89.6726 150.911 90.2846 152.282C90.0417 153.592 89.8426 154.826 89.6804 155.97C89.1133 159.965 88.9953 162.851 89.0217 163.975C85.6317 166.708 82.6216 155.37 85.5352 151.769Z"
      fill="white"
    />
    <path
      d="M89.6804 155.97C89.1133 159.965 88.9953 162.851 89.0217 163.975C85.6317 166.708 82.6216 155.37 85.5352 151.769C87.866 148.889 89.6726 150.911 90.2846 152.282C90.0417 153.592 89.8426 154.826 89.6804 155.97ZM89.6804 155.97C89.3328 154.545 88.3757 152.011 87.3278 153.268M89.6804 155.97C88.5804 154.355 86.5878 152.748 87.4164 159.233M130.204 162.06C129.852 165.909 129.249 167.772 129.191 168.313C129.34 173.714 137.021 164.428 135.364 160.17C134.038 156.764 131.484 158.391 130.373 159.631C130.33 160.516 130.271 161.324 130.204 162.06ZM130.204 162.06C131.099 160.525 133.077 158.275 133.83 161.554M130.204 162.06C131.517 160.924 133.556 160.17 131.206 166.247"
      stroke="black"
      stroke-width="0.5"
      stroke-linecap="round"
      stroke-linejoin="round"
    />
    <path
      d="M111.406 174.658C109.332 175.766 104.331 176.52 100.924 170.67"
      stroke="black"
      stroke-width="0.5"
      stroke-linecap="round"
      stroke-linejoin="round"
    />
    <path
      d="M113.235 156.527C112.374 162.18 120.601 168.254 112.068 167.332"
      stroke="black"
      stroke-width="0.5"
      stroke-linecap="round"
      stroke-linejoin="round"
    />
    <path
      d="M124.824 124.581C122.142 123.317 115.258 121.014 109.177 121.916C107.492 120.706 103.741 119.056 96.9015 121.565C88.3515 124.701 80.353 131.958 81.3771 141.072C82.0382 146.955 83.5948 150.415 84.4922 153.999C85.354 151.792 87.6944 148.288 90.1626 151.932C93.0777 148.55 94.4228 146.197 95.4517 139.838C105.388 143.574 119.757 147.405 128.919 146.014C130.797 152.516 130.277 155.261 130.536 159.351L132.263 158.165C136.894 146.452 135.982 143.637 134.948 143.693C138.315 141.009 138.974 136.014 134.946 127.615L132.718 123.313C133.22 125.07 133.596 128.216 131.084 126.75C130.227 126.253 129.628 124.21 127.777 123.34C127.521 123.142 127.283 123.087 127.131 123.102C127.362 123.165 127.577 123.246 127.777 123.34C128.111 123.597 128.476 124.097 128.721 125.002C129.154 126.601 126.303 125.388 124.824 124.581Z"
      fill="#2B2B2B"
    />
    <path
      d="M91.1231 175.061C89.5198 169.432 87.333 165.321 86.6021 163.807C87.6345 165.088 88.7538 164.473 89.1751 164.085C89.3263 167.226 90.219 171.652 91.1231 175.061Z"
      fill="#2B2B2B"
    />
    <path
      d="M128.919 146.014C119.757 147.405 105.388 143.574 95.4517 139.838C94.4228 146.197 93.0777 148.55 90.1626 151.932C87.6944 148.288 85.354 151.792 84.4922 153.999C83.5948 150.415 82.0382 146.955 81.3771 141.072C80.353 131.958 88.3515 124.701 96.9015 121.565C103.741 119.056 107.492 120.706 109.177 121.916C115.258 121.014 122.142 123.317 124.824 124.581C126.303 125.388 129.154 126.601 128.721 125.002C128.288 123.402 127.48 123.069 127.131 123.102C129.501 123.75 130.134 126.199 131.084 126.75C133.596 128.216 133.22 125.07 132.718 123.313L134.946 127.615C138.974 136.014 138.315 141.009 134.948 143.693M128.919 146.014C131.359 145.644 133.429 144.904 134.948 143.693M128.919 146.014C130.181 145.841 133.154 145.135 134.948 143.693M128.919 146.014C130.797 152.516 130.277 155.261 130.536 159.351L132.263 158.165C136.894 146.452 135.982 143.637 134.948 143.693M86.6021 163.807C87.333 165.321 89.5198 169.432 91.1231 175.061C90.219 171.652 89.3263 167.226 89.1751 164.085C88.7538 164.473 87.6345 165.088 86.6021 163.807Z"
      stroke="black"
      stroke-width="0.5"
      stroke-linecap="round"
      stroke-linejoin="round"
    />
    <path
      d="M106.121 151.246C104.582 148.962 100.485 147.204 97.2571 150.288M115.719 152.282C117.889 150.344 122.197 149.598 124.117 153.19"
      stroke="black"
      stroke-width="0.5"
      stroke-linecap="round"
      stroke-linejoin="round"
    />
    <path
      d="M118.722 158.379C118.516 160.239 118.955 161.815 119.703 161.898C120.451 161.981 121.225 160.54 121.432 158.68C121.639 156.82 121.2 155.245 120.451 155.162C119.703 155.079 118.929 156.519 118.722 158.379Z"
      fill="black"
    />
    <path
      d="M118.722 158.379C118.516 160.239 118.955 161.815 119.703 161.898C120.451 161.981 121.225 160.54 121.432 158.68C121.639 156.82 121.2 155.245 120.451 155.162C119.703 155.079 118.929 156.519 118.722 158.379Z"
      fill="black"
    />
    <path
      d="M118.722 158.379C118.516 160.239 118.955 161.815 119.703 161.898C120.451 161.981 121.225 160.54 121.432 158.68C121.639 156.82 121.2 155.245 120.451 155.162C119.703 155.079 118.929 156.519 118.722 158.379Z"
      fill="black"
    />
    <path
      d="M118.722 158.379C118.516 160.239 118.955 161.815 119.703 161.898C120.451 161.981 121.225 160.54 121.432 158.68C121.639 156.82 121.2 155.245 120.451 155.162C119.703 155.079 118.929 156.519 118.722 158.379Z"
      fill="black"
    />
    <path
      d="M100.395 156.259C100.188 158.119 100.627 159.694 101.375 159.777C102.123 159.86 102.898 158.42 103.104 156.56C103.311 154.7 102.872 153.124 102.124 153.041C101.376 152.958 100.601 154.399 100.395 156.259Z"
      fill="black"
    />
    <path
      d="M100.395 156.259C100.188 158.119 100.627 159.694 101.375 159.777C102.123 159.86 102.898 158.42 103.104 156.56C103.311 154.7 102.872 153.124 102.124 153.041C101.376 152.958 100.601 154.399 100.395 156.259Z"
      fill="black"
    />
    <path
      d="M100.395 156.259C100.188 158.119 100.627 159.694 101.375 159.777C102.123 159.86 102.898 158.42 103.104 156.56C103.311 154.7 102.872 153.124 102.124 153.041C101.376 152.958 100.601 154.399 100.395 156.259Z"
      fill="black"
    />
    <path
      d="M100.395 156.259C100.188 158.119 100.627 159.694 101.375 159.777C102.123 159.86 102.898 158.42 103.104 156.56C103.311 154.7 102.872 153.124 102.124 153.041C101.376 152.958 100.601 154.399 100.395 156.259Z"
      fill="black"
    />
    <g filter="url(#filter0_f_1_7630)">
      <path
        d="M292.669 381.562C312.827 381.562 329.169 365.221 329.169 345.062C329.169 324.904 312.827 308.562 292.669 308.562C272.51 308.562 256.169 324.904 256.169 345.062C256.169 365.221 272.51 381.562 292.669 381.562Z"
        fill="white"
        stroke="#3D3D3D"
        stroke-width="0.5"
        stroke-linecap="round"
        stroke-linejoin="round"
      />
      <path
        d="M313.579 345.996V360.955C313.579 364.749 311.155 367.828 308.185 367.828H277.152C274.17 367.828 271.758 364.749 271.758 360.955V345.996C271.758 342.202 274.182 339.123 277.152 339.123H282.256V330.443H302.863V339.123H308.149C311.155 339.123 313.579 342.202 313.579 345.996Z"
        fill="white"
        stroke="#3D3D3D"
        stroke-width="0.5"
        stroke-linecap="round"
        stroke-linejoin="round"
      />
      <path
        d="M313.567 347.718H271.758V356.992H313.567V347.718Z"
        fill="#E2FDCE"
        stroke="#3D3D3D"
        stroke-width="0.5"
        stroke-miterlimit="10"
      />
      <path
        d="M285.104 320.285H300.427C302.156 320.285 303.815 320.972 305.038 322.195C306.261 323.418 306.949 325.077 306.949 326.807V333.583H278.57V326.807C278.57 325.949 278.74 325.1 279.068 324.308C279.397 323.516 279.878 322.797 280.485 322.191C281.092 321.585 281.812 321.105 282.605 320.778C283.397 320.451 284.247 320.284 285.104 320.285Z"
        fill="#E2FDCE"
        stroke="#3D3D3D"
        stroke-width="0.5"
        stroke-miterlimit="10"
      />
      <path
        d="M283.528 320.697V333.583"
        stroke="#3D3D3D"
        stroke-width="0.5"
        stroke-linecap="round"
        stroke-linejoin="round"
      />
      <path
        d="M290.232 320.285V333.583"
        stroke="#3D3D3D"
        stroke-width="0.5"
        stroke-linecap="round"
        stroke-linejoin="round"
      />
      <path
        d="M296.936 320.285V333.583"
        stroke="#3D3D3D"
        stroke-width="0.5"
        stroke-linecap="round"
        stroke-linejoin="round"
      />
      <path
        d="M303.639 321.036V333.582"
        stroke="#3D3D3D"
        stroke-width="0.5"
        stroke-linecap="round"
        stroke-linejoin="round"
      />
    </g>
    <path
      d="M74.6003 76.6031C81.1153 70.0881 81.1153 59.5252 74.6003 53.0102C68.0853 46.4952 57.5223 46.4952 51.0073 53.0102C44.4923 59.5252 44.4923 70.0881 51.0073 76.6031C57.5223 83.1181 68.0852 83.1181 74.6003 76.6031Z"
      fill="white"
      stroke="#3D3D3D"
      stroke-width="0.5"
      stroke-linecap="round"
      stroke-linejoin="round"
    />
    <path
      d="M76.68 62.2505C76.6798 63.3672 76.3297 64.4558 75.6787 65.3632C75.0277 66.2706 74.1087 66.9511 73.0509 67.309L65.5988 69.8189L56.5289 72.8829C55.1928 73.3221 53.7372 73.2155 52.4794 72.5862C51.2215 71.9568 50.2634 70.8559 49.8139 69.5232C49.3643 68.1905 49.4597 66.7342 50.0792 65.4715C50.6988 64.2089 51.7923 63.2423 53.1214 62.7824L61.3603 60.0121L69.6379 57.2418C70.4387 56.9724 71.2921 56.8971 72.1277 57.022C72.9633 57.1469 73.7573 57.4685 74.4444 57.9602C75.1314 58.452 75.6919 59.0999 76.0796 59.8506C76.4673 60.6012 76.6712 61.4333 76.6745 62.2782L76.68 62.2505Z"
      fill="white"
    />
    <path
      d="M76.68 62.2506C76.6798 63.3674 76.3297 64.456 75.6787 65.3634C75.0277 66.2707 74.1087 66.9512 73.0509 67.3092L65.5988 69.8191C65.4001 66.1478 63.897 62.6681 61.3603 60.0067L69.6379 57.2364C70.4387 56.9671 71.2921 56.8917 72.1277 57.0166C72.9633 57.1415 73.7573 57.4631 74.4444 57.9549C75.1314 58.4466 75.6918 59.0945 76.0796 59.8452C76.4673 60.5959 76.6712 61.4279 76.6745 62.2728L76.68 62.2506Z"
      fill="#E2FDCE"
    />
    <path
      d="M76.68 62.2505C76.6798 63.3672 76.3297 64.4558 75.6787 65.3632C75.0277 66.2706 74.1087 66.9511 73.0509 67.309L65.5988 69.8189L56.5289 72.8829C55.1928 73.3221 53.7372 73.2155 52.4794 72.5862C51.2215 71.9568 50.2634 70.8559 49.8139 69.5232C49.3643 68.1905 49.4597 66.7342 50.0792 65.4715C50.6988 64.2089 51.7923 63.2423 53.1214 62.7824L61.3603 60.0121L69.6379 57.2418C70.4387 56.9724 71.2921 56.8971 72.1277 57.022C72.9633 57.1469 73.7573 57.4685 74.4444 57.9602C75.1314 58.452 75.6919 59.0999 76.0796 59.8506C76.4673 60.6012 76.6712 61.4333 76.6745 62.2782L76.68 62.2505Z"
      stroke="#3D3D3D"
      stroke-width="0.5"
      stroke-linecap="round"
      stroke-linejoin="round"
    />
    <path
      d="M65.5988 69.8192C65.4292 66.1411 63.9219 62.6516 61.3603 60.0068"
      stroke="#3D3D3D"
      stroke-width="0.5"
      stroke-linecap="round"
      stroke-linejoin="round"
    />
    <path
      d="M74.8959 60.2617C75.2458 60.851 75.4224 61.5269 75.4057 62.212"
      stroke="white"
      stroke-width="0.5"
      stroke-linecap="round"
      stroke-linejoin="round"
    />
    <path
      d="M63.4657 60.8156L70.1144 58.5993C70.7107 58.3948 71.345 58.325 71.9716 58.395C72.5981 58.4649 73.2014 58.6728 73.738 59.0038"
      stroke="white"
      stroke-width="0.5"
      stroke-linecap="round"
      stroke-linejoin="round"
    />
    <path
      d="M291.218 81.5062C292.016 94.2847 303.245 103.983 316.299 103.168C329.353 102.353 339.289 91.3327 338.491 78.5541C337.693 65.7756 326.464 56.0773 313.409 56.8925C300.355 57.7077 290.42 68.7276 291.218 81.5062Z"
      fill="white"
      stroke="#3D3D3D"
      stroke-width="0.5"
      stroke-linecap="round"
      stroke-linejoin="round"
    />
    <path
      d="M325.673 77.6112C325.177 77.8659 323.96 76.5456 322.954 74.6953C321.948 72.845 321.53 71.0813 322.034 70.8261C322.539 70.5709 323.748 71.884 324.754 73.742C325.761 75.6 326.146 77.3503 325.673 77.6112Z"
      fill="white"
      stroke="#3D3D3D"
      stroke-width="0.5"
      stroke-linecap="round"
      stroke-linejoin="round"
    />
    <path
      d="M304.398 89.3927L300.543 82.6828L313.218 75.6581L321.978 70.8065L325.841 77.5159L317.294 82.2462L304.398 89.3927Z"
      fill="white"
      stroke="#3D3D3D"
      stroke-width="0.5"
      stroke-linecap="round"
      stroke-linejoin="round"
    />
    <path d="M319.365 72.2579L320.974 75.1738L319.365 72.2579Z" fill="#E2FDCE" />
    <path
      d="M319.365 72.2579L320.974 75.1738"
      stroke="#3D3D3D"
      stroke-width="0.5"
      stroke-linecap="round"
      stroke-linejoin="round"
    />
    <path d="M316.606 73.7416L318.214 76.6574L316.606 73.7416Z" fill="#E2FDCE" />
    <path
      d="M316.606 73.7416L318.214 76.6574"
      stroke="#3D3D3D"
      stroke-width="0.5"
      stroke-linecap="round"
      stroke-linejoin="round"
    />
    <path
      d="M302.02 85.2519L297.455 89.1242L303.019 86.987L302.02 85.2519Z"
      fill="white"
      stroke="#3D3D3D"
      stroke-width="0.5"
      stroke-linecap="round"
      stroke-linejoin="round"
    />
    <path
      d="M304.398 89.3927C302.639 87.8753 301.384 85.8774 300.793 83.6546L300.543 82.6828L313.218 75.6581L317.294 82.2462L304.398 89.3927Z"
      fill="#E2FDCE"
      stroke="#3D3D3D"
      stroke-width="0.5"
      stroke-miterlimit="10"
    />
    <path
      d="M310.819 77.1192L312.33 79.8638"
      stroke="#3D3D3D"
      stroke-width="0.5"
      stroke-linecap="round"
      stroke-linejoin="round"
    />
    <path d="M307.878 78.8612L309.346 81.5543L307.878 78.8612Z" fill="#E2FDCE" />
    <path
      d="M307.878 78.8612L309.346 81.5543"
      stroke="#3D3D3D"
      stroke-width="0.5"
      stroke-linecap="round"
      stroke-linejoin="round"
    />
    <path
      d="M323.32 73.1295L328.216 70.6252L329.32 72.2843L324.373 74.9615L323.32 73.1295Z"
      fill="white"
      stroke="#3D3D3D"
      stroke-width="0.5"
      stroke-linecap="round"
      stroke-linejoin="round"
    />
    <path
      d="M330.196 76.4723L331.341 75.8763L326.55 66.9183L325.405 67.5143C324.916 67.7609 325.605 69.9627 326.926 72.4414C328.247 74.92 329.715 76.7184 330.196 76.4723Z"
      fill="white"
      stroke="#3D3D3D"
      stroke-width="0.5"
      stroke-linecap="round"
      stroke-linejoin="round"
    />
    <path
      d="M331.341 75.8763C331.822 75.6303 331.141 73.4203 329.82 70.9493C328.499 68.4783 327.031 66.6723 326.55 66.9183C326.069 67.1644 326.751 69.3744 328.079 71.8449C329.408 74.3154 330.86 76.1224 331.341 75.8763Z"
      fill="white"
      stroke="#3D3D3D"
      stroke-width="0.5"
      stroke-linecap="round"
      stroke-linejoin="round"
    />
  </g>
  <defs>
    <filter
      id="filter0_f_1_7630"
      x="251.919"
      y="304.312"
      width="81.5"
      height="81.5"
      filterUnits="userSpaceOnUse"
      color-interpolation-filters="sRGB"
    >
      <feFlood flood-opacity="0" result="BackgroundImageFix" />
      <feBlend mode="normal" in="SourceGraphic" in2="BackgroundImageFix" result="shape" />
      <feGaussianBlur stdDeviation="2" result="effect1_foregroundBlur_1_7630" />
    </filter>
    <clipPath id="clip0_1_7630">
      <path
        d="M0 24C0 10.7452 10.7452 0 24 0H320C333.255 0 344 10.7452 344 24V336C344 349.255 333.255 360 320 360H24C10.7452 360 0 349.255 0 336V24Z"
        fill="white"
      />
    </clipPath>
  </defs>
</svg>