<svg
  width="344"
  height="360"
  viewBox="0 0 344 360"
  fill="none"
  xmlns="http://www.w3.org/2000/svg"
>
  <g clip-path="url(#clip0_1_6769)">
    <path
      d="M0 24C0 10.7452 10.7452 0 24 0H320C333.255 0 344 10.7452 344 24V336C344 349.255 333.255 360 320 360H24C10.7452 360 0 349.255 0 336V24Z"
      fill="#F2F2F2"
    />
    <path
      d="M91.2285 150.642L35.3819 184.054C31.7974 186.198 30.6301 190.843 32.7746 194.427L103.592 312.797C105.737 316.382 110.381 317.549 113.966 315.405L169.812 281.993C173.397 279.849 174.564 275.204 172.42 271.62L101.602 153.25C99.4573 149.665 94.813 148.498 91.2285 150.642Z"
      fill="#F5F5F5"
    />
    <path
      d="M156.854 275.137C156.904 275.249 147.969 280.724 136.876 287.358C125.783 293.993 116.732 299.283 116.663 299.178C116.595 299.074 125.543 293.605 136.641 286.957C147.739 280.309 156.785 275.033 156.854 275.137Z"
      fill="#E0E0E0"
    />
    <path
      d="M88.6953 166.327C88.7589 166.445 79.8102 171.914 68.7174 178.549C57.6246 185.183 48.5686 190.486 48.505 190.369C48.4415 190.251 57.385 184.796 68.483 178.147C79.581 171.499 88.6266 166.223 88.6953 166.327Z"
      fill="#E0E0E0"
    />
    <path
      d="M135.333 287.729C135.215 287.792 120.405 263.225 102.251 232.875C84.0969 202.526 69.4522 177.851 69.5564 177.782C69.6607 177.714 84.4763 202.268 102.638 232.636C120.801 263.004 135.437 287.66 135.333 287.729Z"
      fill="#E0E0E0"
    />
    <path
      d="M65.1351 208.591L60.9998 202.037L67.1498 198.182C67.5794 197.911 68.0585 197.727 68.5595 197.641C69.0605 197.555 69.5735 197.568 70.0692 197.681C70.5648 197.794 71.0334 198.003 71.4479 198.297C71.8624 198.592 72.2147 198.965 72.4847 199.395C73.0322 200.263 73.2134 201.312 72.9886 202.313C72.7637 203.315 72.1511 204.186 71.2851 204.736L65.1351 208.591Z"
      fill="#EBEBEB"
    />
    <path
      d="M62.1073 201.343L66.229 207.891L60.0791 211.746C59.2147 212.308 58.1626 212.504 57.1539 212.291C56.1452 212.078 55.2623 211.473 54.6993 210.609C54.4277 210.18 54.2436 209.701 54.1576 209.2C54.0716 208.699 54.0853 208.186 54.198 207.69C54.3107 207.194 54.5202 206.726 54.8144 206.311C55.1086 205.897 55.4818 205.544 55.9125 205.274L62.1073 201.343Z"
      fill="#E0E0E0"
    />
    <path
      d="M97.2868 188.828L93.1515 182.275L99.3015 178.42C100.172 177.872 101.224 177.692 102.227 177.917C103.23 178.143 104.103 178.757 104.655 179.624C105.2 180.496 105.377 181.548 105.149 182.55C104.921 183.552 104.305 184.423 103.437 184.973L97.2868 188.828Z"
      fill="#EBEBEB"
    />
    <path
      d="M94.2446 181.575L98.38 188.128L92.23 191.983C91.8003 192.255 91.3213 192.439 90.8203 192.525C90.3193 192.611 89.8062 192.597 89.3106 192.484C88.8149 192.372 88.3464 192.162 87.9319 191.868C87.5174 191.574 87.165 191.201 86.895 190.77C86.6234 190.34 86.4394 189.861 86.3533 189.36C86.2673 188.859 86.2811 188.346 86.3938 187.851C86.5065 187.355 86.716 186.886 87.0102 186.472C87.3044 186.057 87.6775 185.705 88.1082 185.435L94.2446 181.575Z"
      fill="#E0E0E0"
    />
    <path
      d="M76.456 226.868L72.3207 220.315L78.4707 216.46C79.3411 215.912 80.3929 215.732 81.3961 215.958C82.3994 216.183 83.2724 216.797 83.8244 217.665C84.369 218.536 84.5465 219.588 84.3182 220.59C84.09 221.592 83.4744 222.463 82.606 223.013L76.456 226.868Z"
      fill="#EBEBEB"
    />
    <path
      d="M73.4085 219.629L77.549 226.169L71.3991 230.024C70.9694 230.296 70.4903 230.48 69.9893 230.566C69.4884 230.652 68.9753 230.638 68.4797 230.525C67.984 230.413 67.5155 230.203 67.1009 229.909C66.6864 229.615 66.3341 229.242 66.0641 228.811C65.7925 228.381 65.6084 227.902 65.5224 227.401C65.4364 226.9 65.4501 226.387 65.5628 225.891C65.6756 225.396 65.885 224.927 66.1792 224.513C66.4734 224.098 66.8466 223.746 67.2773 223.476L73.4085 219.629Z"
      fill="#E0E0E0"
    />
    <path
      d="M109.312 206.646L105.19 200.098L111.34 196.243C112.208 195.695 113.257 195.514 114.258 195.739C115.259 195.964 116.13 196.576 116.68 197.442C116.953 197.873 117.139 198.353 117.226 198.855C117.313 199.357 117.3 199.872 117.188 200.369C117.076 200.867 116.867 201.337 116.573 201.753C116.28 202.17 115.906 202.524 115.475 202.796L109.312 206.646Z"
      fill="#EBEBEB"
    />
    <path
      d="M106.3 199.358L110.441 205.898L104.291 209.753C103.861 210.025 103.382 210.209 102.881 210.295C102.38 210.381 101.867 210.367 101.371 210.254C100.876 210.142 100.407 209.932 99.9927 209.638C99.5782 209.344 99.2258 208.971 98.9558 208.54C98.4083 207.672 98.2271 206.623 98.452 205.622C98.6769 204.621 99.2895 203.75 100.155 203.2L106.3 199.358Z"
      fill="#E0E0E0"
    />
    <path
      d="M87.7728 245.114L83.6375 238.56L89.7874 234.705C90.2171 234.434 90.6962 234.25 91.1972 234.164C91.6982 234.078 92.2112 234.091 92.7069 234.204C93.2025 234.317 93.671 234.526 94.0856 234.82C94.5001 235.115 94.8524 235.488 95.1224 235.918C95.6699 236.786 95.8511 237.835 95.6262 238.836C95.4014 239.837 94.7888 240.708 93.9228 241.259L87.7728 245.114Z"
      fill="#EBEBEB"
    />
    <path
      d="M84.7559 237.918L88.8912 244.471L82.7412 248.326C82.3122 248.599 81.8334 248.785 81.3324 248.872C80.8314 248.96 80.3181 248.947 79.8219 248.836C79.3257 248.724 78.8564 248.516 78.441 248.223C78.0255 247.929 77.6721 247.557 77.4011 247.126C76.8648 246.264 76.6885 245.226 76.9099 244.235C77.1313 243.244 77.7328 242.379 78.5851 241.827L84.7559 237.918Z"
      fill="#E0E0E0"
    />
    <path
      d="M121.352 224.47L117.211 217.93L123.361 214.075C123.791 213.804 124.27 213.62 124.771 213.534C125.272 213.448 125.785 213.461 126.281 213.574C126.776 213.687 127.245 213.896 127.659 214.19C128.074 214.485 128.426 214.858 128.696 215.288C129.244 216.156 129.425 217.205 129.2 218.206C128.975 219.207 128.363 220.078 127.497 220.629L121.352 224.47Z"
      fill="#EBEBEB"
    />
    <path
      d="M118.318 217.236L122.453 223.789L116.303 227.644C115.875 227.922 115.396 228.112 114.893 228.203C114.391 228.295 113.876 228.286 113.377 228.178C112.878 228.07 112.405 227.864 111.986 227.573C111.567 227.281 111.209 226.91 110.934 226.48C110.387 225.61 110.206 224.558 110.432 223.555C110.658 222.552 111.271 221.679 112.139 221.127L118.318 217.236Z"
      fill="#E0E0E0"
    />
    <path
      d="M98.8852 265.225L94.7447 258.685L100.895 254.83C101.324 254.559 101.803 254.374 102.304 254.288C102.805 254.202 103.318 254.216 103.814 254.329C104.31 254.442 104.778 254.651 105.193 254.945C105.607 255.239 105.96 255.613 106.23 256.043C106.501 256.473 106.685 256.952 106.771 257.453C106.857 257.954 106.844 258.467 106.731 258.963C106.618 259.458 106.409 259.927 106.114 260.341C105.82 260.756 105.447 261.108 105.016 261.378L98.8852 265.225Z"
      fill="#EBEBEB"
    />
    <path
      d="M95.8386 257.986L99.9739 264.54L93.824 268.395C92.9511 268.937 91.8994 269.111 90.8984 268.88C89.8973 268.649 89.0282 268.032 88.4807 267.163C87.9361 266.291 87.7585 265.239 87.9868 264.237C88.2151 263.235 88.8307 262.364 89.6991 261.814L95.8386 257.986Z"
      fill="#E0E0E0"
    />
    <path
      d="M132.23 244.18L128.095 237.626L134.244 233.771C134.674 233.498 135.152 233.313 135.653 233.225C136.154 233.138 136.668 233.15 137.164 233.262C137.66 233.373 138.129 233.582 138.545 233.875C138.96 234.168 139.314 234.541 139.585 234.971C139.856 235.401 140.04 235.88 140.126 236.381C140.212 236.882 140.199 237.395 140.086 237.89C139.973 238.386 139.764 238.855 139.47 239.269C139.175 239.684 138.802 240.036 138.371 240.306L132.23 244.18Z"
      fill="#EBEBEB"
    />
    <path
      d="M129.201 236.932L133.323 243.48L127.173 247.335C126.301 247.88 125.249 248.057 124.247 247.829C123.245 247.601 122.374 246.985 121.824 246.117C121.552 245.687 121.368 245.208 121.282 244.707C121.196 244.206 121.21 243.693 121.323 243.197C121.436 242.702 121.645 242.233 121.939 241.819C122.233 241.404 122.607 241.052 123.037 240.782L129.201 236.932Z"
      fill="#E0E0E0"
    />
    <path
      d="M112.696 284.508L108.545 277.995L114.695 274.14C115.567 273.596 116.619 273.418 117.621 273.647C118.623 273.875 119.494 274.49 120.044 275.359C120.315 275.788 120.499 276.268 120.585 276.769C120.671 277.27 120.658 277.783 120.545 278.278C120.432 278.774 120.223 279.242 119.929 279.657C119.634 280.071 119.261 280.424 118.831 280.694L112.696 284.508Z"
      fill="#EBEBEB"
    />
    <path
      d="M109.655 277.255L113.763 283.798L107.613 287.653C106.748 288.2 105.702 288.383 104.704 288.161C103.705 287.94 102.834 287.333 102.281 286.472C102.009 286.043 101.825 285.564 101.739 285.063C101.653 284.562 101.667 284.049 101.78 283.553C101.892 283.057 102.102 282.589 102.396 282.174C102.69 281.76 103.063 281.407 103.494 281.137L109.655 277.255Z"
      fill="#E0E0E0"
    />
    <path
      d="M144.423 264.473L140.287 257.92L146.437 254.065C146.866 253.792 147.345 253.606 147.846 253.519C148.347 253.431 148.861 253.444 149.357 253.555C149.853 253.667 150.322 253.875 150.738 254.168C151.153 254.462 151.507 254.834 151.778 255.264C152.049 255.694 152.233 256.173 152.319 256.674C152.405 257.175 152.392 257.688 152.279 258.184C152.166 258.68 151.957 259.148 151.662 259.563C151.368 259.977 150.995 260.329 150.564 260.599L144.423 264.473Z"
      fill="#EBEBEB"
    />
    <path
      d="M141.381 257.221L145.516 263.774L139.366 267.629C138.494 268.174 137.443 268.351 136.441 268.123C135.438 267.895 134.567 267.279 134.018 266.411C133.746 265.981 133.562 265.502 133.476 265.001C133.39 264.5 133.404 263.987 133.516 263.491C133.629 262.996 133.839 262.527 134.133 262.113C134.427 261.698 134.8 261.346 135.231 261.076L141.381 257.221Z"
      fill="#E0E0E0"
    />
    <g clip-path="url(#clip1_1_6769)">
      <path
        d="M212.484 178C166.929 178 130 141.071 130 95.516C130 49.9613 166.929 13.032 212.484 13.032C258.039 13.032 294.968 49.9613 294.968 95.516C294.968 141.071 258.039 178 212.484 178Z"
        fill="#EBEBEB"
      />
      <path
        d="M179.126 170.151C138.867 153.763 119.516 107.841 135.904 67.5816C152.293 27.3224 198.215 7.97139 238.474 24.3599C278.734 40.7484 298.085 86.6705 281.696 126.93C265.308 167.189 219.385 186.54 179.126 170.151Z"
        fill="#DBDBDB"
      />
      <path
        d="M180.949 165.554C143.235 150.186 125.119 107.155 140.487 69.4406C155.855 31.7265 198.886 13.6112 236.601 28.9791C274.315 44.3469 292.43 87.3783 277.062 125.092C261.694 162.806 218.663 180.922 180.949 165.554Z"
        fill="white"
      />
      <path
        opacity="0.5"
        d="M136.695 81.6459C170.297 101.987 225.457 135.365 256.305 153.655C265.05 146.32 271.937 137.03 276.453 126.556L174.461 32.0273C155.178 42.1817 141.34 60.3442 136.695 81.6459Z"
        fill="#EBEBEB"
      />
      <path
        opacity="0.5"
        d="M135.093 99.8726C135.349 108.073 137.015 116.177 139.962 123.833L231.928 167.333C235.932 165.988 239.84 164.322 243.556 162.336C215.751 146.288 165.012 117.074 135.093 99.8726Z"
        fill="#EBEBEB"
      />
      <path d="M208.063 28.9202H209.473V40.0996H208.063V28.9202Z" fill="#C7C7C7" />
      <path
        d="M242.332 37.7072L243.581 38.428L237.991 48.1096L236.743 47.3889L242.332 37.7072Z"
        fill="#C7C7C7"
      />
      <path
        d="M267.728 62.4376L268.433 63.6582L258.751 69.2479L258.046 68.0273L267.728 62.4376Z"
        fill="#C7C7C7"
      />
      <path
        d="M258.69 125.307L268.372 130.897L267.667 132.118L257.986 126.528L258.69 125.307Z"
        fill="#C7C7C7"
      />
      <path
        d="M237.994 146.523L243.579 156.208L242.33 156.928L236.746 147.244L237.994 146.523Z"
        fill="#C7C7C7"
      />
      <path d="M208.063 154.488H209.473V165.667H208.063V154.488Z" fill="#C7C7C7" />
      <path
        d="M175.633 147.911L176.883 148.629L171.296 158.35L170.046 157.631L175.633 147.911Z"
        fill="#C7C7C7"
      />
      <path
        d="M158.952 125.265L159.657 126.485L149.975 132.075L149.271 130.854L158.952 125.265Z"
        fill="#C7C7C7"
      />
      <path d="M140.379 96.573H151.558V97.9824H140.379V96.573Z" fill="#C7C7C7" />
      <path
        d="M149.907 62.5104L159.589 68.1001L158.884 69.3207L149.202 63.731L149.907 62.5104Z"
        fill="#C7C7C7"
      />
      <path
        d="M175.26 37.688L180.844 47.3726L179.596 48.0926L174.011 38.4081L175.26 37.688Z"
        fill="#C7C7C7"
      />
      <path
        d="M207.711 33.9492L205.277 102.275L212.26 102.179L209.601 33.9492H207.711Z"
        fill="#59C606"
      />
      <path
        d="M165.14 73.4775L211.107 102.819L214.438 96.6691L166.069 71.8118L165.14 73.4775Z"
        fill="#59C606"
      />
      <path
        d="M206.398 97.2779C206.398 98.5912 207.423 99.6483 208.736 99.6803C208.736 99.6803 208.736 99.6803 208.768 99.6803C210.082 99.8405 211.267 98.8795 211.427 97.5662C211.587 96.2528 210.626 95.0676 209.313 94.9075C209.121 94.9075 208.928 94.9075 208.768 94.9075C207.455 94.9075 206.398 95.9645 206.398 97.2779Z"
        fill="#C7C7C7"
      />
    </g>
    <path
      d="M299.154 359.114H197.296V372.324H244.919L249.913 401.868L250.625 405.871C249.649 418.249 248.576 471.226 249.913 539.944V638.819C269.072 654.83 285.456 643.214 291.542 638.819L296.456 539.944C305.799 500.646 323.966 442.995 315.676 399.592L299.154 359.114Z"
      fill="#2B2B2B"
    />
    <path
      d="M299.154 359.114H197.296V372.324C197.296 372.324 207.493 372.324 244.919 372.324M299.154 359.114L315.676 399.592C323.966 442.995 305.799 500.646 296.456 539.944L291.542 638.819C285.456 643.214 269.072 654.83 249.913 638.819V539.944C248.576 471.226 249.649 418.249 250.625 405.871L249.913 401.868L244.919 372.324M299.154 359.114V371.481C299.154 371.481 256.979 371.439 244.919 372.324"
      stroke="black"
      stroke-width="0.5"
      stroke-linecap="round"
      stroke-linejoin="round"
    />
    <path
      d="M271.162 219.036C261.685 216.759 261.147 204.347 262.063 198.254C253.685 203.911 242.242 200.984 238.494 198.254C238.494 211.292 235.39 218.797 228.119 218.797C246.773 246.498 264.806 231.452 271.162 219.036Z"
      fill="white"
      stroke="black"
      stroke-width="0.5"
      stroke-linecap="round"
      stroke-linejoin="round"
    />
    <path
      d="M271.8 218.474C265.204 226.105 247.718 240.837 228.243 218.474C217.081 222.297 193.123 231.212 186.58 236.287C180.038 241.363 174.194 282.151 174.194 282.151C187.096 293.44 194.147 293.538 199.523 294.015L201.309 359.342H294.576L305.888 246.373L301.168 294.027C305.888 294.027 323.15 288.055 325.356 282.151C321.167 271.957 320.607 243.364 311.311 232.302C308.499 228.994 296.66 221.598 271.8 218.474Z"
      fill="#FBD26A"
      stroke="black"
      stroke-width="0.5"
      stroke-linecap="round"
      stroke-linejoin="round"
    />
    <path
      d="M264.807 209.398C264.592 208.842 263.74 208.402 262.902 208.398C262.757 208.397 262.56 208.313 262.482 208.434C262.356 208.628 262.662 209.508 263.81 212.299C262.34 214.37 259.144 217.497 252.947 222.047C260.759 246.33 258.404 298.289 264.74 328.02C268.222 350.246 282.253 419.25 279.391 448.769C279.307 449.639 280.149 450.298 280.976 450.016L322.417 435.857C322.977 435.666 323.308 435.09 323.192 434.51L307.839 357.679C307.824 357.485 303.952 334.261 299.617 288.303L302.217 313.891C305.673 335.41 310.559 347.276 320.058 368.384L316.285 374.145C316.242 374.21 316.191 374.27 316.141 374.33C315.783 374.751 315.675 375.33 315.88 375.849C317.054 378.814 321.172 388.281 327.639 393.157C328.002 393.432 328.473 393.512 328.914 393.399C338.636 390.901 346.95 389.13 355.754 382.17C356.045 381.94 356.242 381.611 356.304 381.245C356.727 378.71 358.29 368.2 356.385 361.382C356.286 361.029 356.053 360.733 355.744 360.538C355.687 360.502 355.624 360.475 355.559 360.453L347.162 357.622C340.717 321.931 322.966 248.754 314.709 235.671C307.134 223.669 283.649 218.656 272.659 217.65C270.345 215.118 265.197 209.805 264.807 209.398Z"
      fill="white"
    />
    <path
      d="M237.465 208.763C237.045 208.832 236.252 209.08 236.075 209.398L228.07 217.65C194.12 226.135 182.591 237.568 181.07 242.225C172.503 267.52 173.422 287.68 171.701 287.68L159.811 264.479L163.465 260.476C163.835 260.071 163.875 259.462 163.563 259.01C159.492 253.128 156.951 249.717 151.655 246.54C151.427 246.403 151.154 246.351 150.891 246.389C141.693 247.728 136.527 249.748 127.767 255.096C127.5 255.26 127.305 255.525 127.238 255.83C125.84 262.143 126.421 268.836 127.185 273.637C127.275 274.204 127.766 274.617 128.34 274.617H133.744C140.985 294.409 148.315 339.116 178.98 339.116C191.605 339.116 199.054 324.374 199.054 324.374C199.054 324.374 195.61 350.863 193.701 359.622L181.235 429.805C181.138 430.347 181.431 430.885 181.939 431.098L221.353 447.653C222.177 447.998 223.075 447.346 223.008 446.455C221.899 431.696 223.435 407.209 225.388 399.046C230.309 378.474 225.284 350.104 230.177 341.2C241.953 313.469 234.181 248.351 245.888 222.047C240.034 216.783 237.344 213.492 236.381 211.513L237.608 209.014C237.687 208.852 237.643 208.734 237.465 208.763Z"
      fill="white"
    />
    <path
      d="M252.947 222.047L263.756 234.535C264.257 235.113 265.164 235.07 265.58 234.428C267.94 230.789 271.684 223.877 272.659 217.65M252.947 222.047C260.759 246.33 258.404 298.289 264.74 328.02C268.222 350.246 282.253 419.25 279.391 448.769C279.307 449.639 280.149 450.298 280.976 450.016L322.417 435.857C322.977 435.666 323.308 435.09 323.192 434.51L307.828 357.622C308.081 359.007 304.097 335.791 299.617 288.303M252.947 222.047C259.144 217.497 262.34 214.37 263.81 212.299M272.659 217.65C270.345 215.118 265.197 209.805 264.807 209.398M272.659 217.65C283.649 218.656 307.134 223.669 314.709 235.671C322.966 248.754 340.717 321.931 347.162 357.622M264.807 209.398C264.592 208.842 263.74 208.402 262.902 208.398C262.757 208.397 262.56 208.313 262.482 208.434C262.356 208.628 262.662 209.508 263.81 212.299M264.807 209.398C265.017 209.944 264.825 210.87 263.81 212.299M245.888 222.047L235.284 234.388C234.749 235.011 233.761 234.909 233.388 234.178C231.321 230.125 228.251 222.919 228.07 217.65M245.888 222.047C234.181 248.351 241.953 313.469 230.177 341.2C225.284 350.104 230.309 378.474 225.388 399.046C223.435 407.209 221.899 431.696 223.008 446.455C223.075 447.346 222.177 447.998 221.353 447.653L181.939 431.098C181.431 430.885 181.138 430.347 181.235 429.805L193.701 359.622C195.61 350.863 199.054 324.374 199.054 324.374M245.888 222.047C240.034 216.783 237.344 213.492 236.381 211.513M228.07 217.65L236.075 209.398M228.07 217.65C194.12 226.135 182.591 237.568 181.07 242.225C172.503 267.52 173.422 287.68 171.701 287.68M236.075 209.398C236.252 209.08 237.045 208.832 237.465 208.763C237.643 208.734 237.687 208.852 237.608 209.014L236.381 211.513M236.075 209.398C235.846 209.811 235.881 210.485 236.381 211.513M199.054 324.374C199.054 324.374 204.257 265.784 206.74 251.471C203.297 280.511 201.74 296.391 199.054 324.374ZM199.054 324.374C199.054 324.374 191.605 339.116 178.98 339.116C148.315 339.116 140.985 294.409 133.744 274.617M171.701 287.68L159.811 264.479M171.701 287.68C174.01 293.785 177.249 305.52 176.229 308.792M159.811 264.479C150.303 271.217 144.465 272.913 133.744 274.617M159.811 264.479L163.465 260.476C163.835 260.071 163.875 259.462 163.563 259.01C159.492 253.128 156.951 249.717 151.655 246.54C151.427 246.403 151.154 246.351 150.891 246.389C141.693 247.728 136.527 249.748 127.767 255.096C127.5 255.26 127.305 255.525 127.238 255.83C125.84 262.143 126.421 268.836 127.185 273.637C127.275 274.204 127.766 274.617 128.34 274.617H133.744M347.162 357.622L355.559 360.453C355.624 360.475 355.687 360.502 355.744 360.538C356.053 360.733 356.286 361.029 356.385 361.382C358.29 368.2 356.727 378.71 356.304 381.245C356.242 381.611 356.045 381.94 355.754 382.17C346.95 389.13 338.636 390.901 328.914 393.399C328.473 393.512 328.002 393.432 327.639 393.157C321.172 388.281 317.054 378.814 315.88 375.849C315.675 375.33 315.783 374.751 316.141 374.33C316.191 374.27 316.242 374.21 316.285 374.145L320.058 368.384M347.162 357.622C340.702 357.622 324.35 363.476 320.058 368.384M320.058 368.384C310.559 347.276 305.673 335.41 302.217 313.891L299.617 288.303M299.617 288.303L297.106 251.835"
      stroke="black"
      stroke-width="0.5"
      stroke-linecap="round"
      stroke-linejoin="round"
    />
    <path
      d="M260.594 199.642C277.309 187.103 273.993 162.257 270.057 151.401C264.286 139.388 254.629 136.291 249.82 136.854C237.265 135.446 229.957 148.492 227.708 155.437C225.459 162.382 223.181 186.807 235.859 197.671C245.975 206.34 256.847 202.239 260.594 199.642Z"
      fill="white"
      stroke="black"
      stroke-width="0.5"
      stroke-linecap="round"
      stroke-linejoin="round"
    />
    <path
      d="M245.435 187.707C247.683 189.336 253.342 190.919 257.99 184.217"
      stroke="black"
      stroke-width="0.5"
      stroke-linecap="round"
      stroke-linejoin="round"
    />
    <path
      d="M220.087 167.075C222.035 163.321 224.771 165.511 225.896 167.075C225.835 168.099 225.802 169.036 225.788 169.89C225.714 174.363 226.177 176.581 226.177 177.211C225.333 183.405 217.65 171.767 220.087 167.075Z"
      fill="white"
    />
    <path
      d="M278.458 163.602C276.134 159.998 273.804 162.101 272.93 163.602C273.046 165.139 273.122 166.584 273.167 167.92C273.323 172.586 273.1 175.922 272.93 177.211C276.49 180.777 281.362 168.107 278.458 163.602Z"
      fill="white"
    />
    <path
      d="M273.167 167.92C273.323 172.586 273.1 175.922 272.93 177.211C276.49 180.777 281.362 168.107 278.458 163.602C276.134 159.998 273.804 162.101 272.93 163.602C273.046 165.139 273.122 166.584 273.167 167.92ZM273.167 167.92C273.744 166.324 275.16 163.527 276.209 165.104M273.167 167.92C274.633 166.199 277.125 164.597 275.366 171.955M225.788 169.89C225.714 174.363 226.177 176.581 226.177 177.211C225.333 183.405 217.65 171.767 220.087 167.075C222.035 163.321 224.771 165.511 225.896 167.075C225.835 168.099 225.802 169.036 225.788 169.89ZM225.788 169.89C224.949 168.013 222.954 165.179 221.679 168.858M225.788 169.89C224.418 168.42 222.167 167.3 224.115 174.583"
      stroke="black"
      stroke-width="0.5"
      stroke-linecap="round"
      stroke-linejoin="round"
    />
    <path
      d="M244.643 165.568C244.932 172.592 234.712 178.932 244.643 178.932"
      stroke="black"
      stroke-width="0.5"
      stroke-linecap="round"
      stroke-linejoin="round"
    />
    <path
      d="M236.635 127.44C239.878 126.319 248.084 124.525 254.968 126.319C257.057 125.135 261.577 123.703 269.134 127.44C278.581 132.11 286.882 141.453 284.571 151.812C283.079 158.498 280.858 162.285 279.38 166.297C278.663 163.65 276.406 159.329 273.114 163.214C270.18 158.961 268.925 156.087 268.531 148.643C256.636 151.706 239.628 154.328 229.26 151.59C226.291 158.837 226.549 162.059 225.743 166.732L223.903 165.153C220.031 151.103 221.429 147.977 222.613 148.17C219.073 144.664 218.935 138.835 224.613 129.673L227.711 125C226.915 126.959 226.091 130.532 229.163 129.157C230.211 128.692 231.155 126.416 233.392 125.645C233.711 125.449 233.992 125.416 234.165 125.451C233.891 125.495 233.634 125.561 233.392 125.645C232.976 125.899 232.494 126.429 232.1 127.44C231.403 129.226 234.833 128.184 236.635 127.44Z"
      fill="#2B2B2B"
    />
    <path
      d="M269.134 189.704C271.679 183.427 274.705 178.969 275.734 177.319C274.387 178.664 273.176 177.817 272.74 177.319C272.175 180.913 270.598 185.894 269.134 189.704Z"
      fill="#2B2B2B"
    />
    <path
      d="M229.26 151.59C239.628 154.328 256.636 151.706 268.531 148.643C268.925 156.087 270.18 158.961 273.114 163.214C276.406 159.329 278.663 163.65 279.38 166.297C280.858 162.285 283.079 158.498 284.571 151.812C286.882 141.453 278.581 132.11 269.134 127.44C261.577 123.703 257.057 125.135 254.968 126.319C248.084 124.525 239.878 126.319 236.635 127.44C234.833 128.184 231.403 129.226 232.1 127.44C232.797 125.653 233.767 125.37 234.165 125.451C231.358 125.903 230.325 128.642 229.163 129.157C226.091 130.532 226.915 126.959 227.711 125L224.613 129.673C218.935 138.835 219.073 144.664 222.613 148.17M229.26 151.59C226.5 150.861 224.21 149.752 222.613 148.17M229.26 151.59C227.829 151.234 224.497 150.051 222.613 148.17M229.26 151.59C226.291 158.837 226.549 162.059 225.743 166.732L223.903 165.153C220.031 151.103 221.429 147.977 222.613 148.17M275.734 177.319C274.705 178.969 271.679 183.427 269.134 189.704C270.598 185.894 272.175 180.913 272.74 177.319C273.176 177.817 274.387 178.664 275.734 177.319Z"
      stroke="black"
      stroke-width="0.5"
      stroke-linecap="round"
      stroke-linejoin="round"
    />
    <path
      d="M253.479 160.051C255.534 157.463 260.465 155.854 263.796 160.051M242.308 160.051C240.053 157.394 235.189 155.913 232.534 160.051"
      stroke="black"
      stroke-width="0.5"
      stroke-linecap="round"
      stroke-linejoin="round"
    />
    <path
      d="M239.743 167.788C239.743 169.902 239.094 171.616 238.294 171.616C237.493 171.616 236.845 169.902 236.845 167.788C236.845 165.673 237.493 163.959 238.294 163.959C239.094 163.959 239.743 165.673 239.743 167.788Z"
      fill="black"
    />
    <path
      d="M239.743 167.788C239.743 169.902 239.094 171.616 238.294 171.616C237.493 171.616 236.845 169.902 236.845 167.788C236.845 165.673 237.493 163.959 238.294 163.959C239.094 163.959 239.743 165.673 239.743 167.788Z"
      fill="black"
    />
    <path
      d="M239.743 167.788C239.743 169.902 239.094 171.616 238.294 171.616C237.493 171.616 236.845 169.902 236.845 167.788C236.845 165.673 237.493 163.959 238.294 163.959C239.094 163.959 239.743 165.673 239.743 167.788Z"
      fill="black"
    />
    <path
      d="M239.743 167.788C239.743 169.902 239.094 171.616 238.294 171.616C237.493 171.616 236.845 169.902 236.845 167.788C236.845 165.673 237.493 163.959 238.294 163.959C239.094 163.959 239.743 165.673 239.743 167.788Z"
      fill="black"
    />
    <path
      d="M260.148 167.788C260.148 169.902 259.499 171.616 258.699 171.616C257.898 171.616 257.249 169.902 257.249 167.788C257.249 165.673 257.898 163.959 258.699 163.959C259.499 163.959 260.148 165.673 260.148 167.788Z"
      fill="black"
    />
    <path
      d="M260.148 167.788C260.148 169.902 259.499 171.616 258.699 171.616C257.898 171.616 257.249 169.902 257.249 167.788C257.249 165.673 257.898 163.959 258.699 163.959C259.499 163.959 260.148 165.673 260.148 167.788Z"
      fill="black"
    />
    <path
      d="M260.148 167.788C260.148 169.902 259.499 171.616 258.699 171.616C257.898 171.616 257.249 169.902 257.249 167.788C257.249 165.673 257.898 163.959 258.699 163.959C259.499 163.959 260.148 165.673 260.148 167.788Z"
      fill="black"
    />
    <path
      d="M260.148 167.788C260.148 169.902 259.499 171.616 258.699 171.616C257.898 171.616 257.249 169.902 257.249 167.788C257.249 165.673 257.898 163.959 258.699 163.959C259.499 163.959 260.148 165.673 260.148 167.788Z"
      fill="black"
    />
    <path
      d="M144.22 247.432L136.692 236.916C136.165 233.82 135.848 228.386 132.763 223.176C130.65 219.609 129.028 212.633 127.721 211.632C126.436 211.254 123.938 213.861 126.781 223.322L126.559 227.148C93.9744 217.929 92.6188 226.256 97.6238 226.929C101.569 227.459 107.729 229.134 111.866 229.838C111.377 229.798 110.928 229.765 110.532 229.739C102.777 228.637 102.666 234.956 107.744 235.695C104.393 235.843 104.535 240.183 107.186 241.429C103.955 242.851 107.627 246.841 111.66 247.852C117.688 249.364 124.933 250.36 128.982 248.592L130.931 252.689C130.931 252.689 138.046 248.592 144.22 247.432Z"
      fill="white"
    />
    <path
      d="M128.744 234.538C127.792 233.337 126.166 230.513 126.559 227.148M111.047 244.7C116.009 245.952 119.229 242.703 117.396 241.092C117.206 240.925 116.421 241.054 115.484 241.074M107.186 241.429C103.955 242.851 107.627 246.841 111.66 247.852C117.688 249.364 124.933 250.36 128.982 248.592C128.982 248.592 128.982 248.592 130.931 252.689C130.931 252.689 138.046 248.592 144.22 247.432L136.692 236.916C136.165 233.82 135.848 228.386 132.763 223.176C130.65 219.609 129.028 212.633 127.721 211.632C126.436 211.254 123.938 213.861 126.781 223.322L126.559 227.148M107.186 241.429C107.635 241.231 108.88 241.463 109.562 241.301C111.081 241.225 113.678 241.112 115.484 241.074M107.186 241.429C104.293 240.069 104.388 235.025 108.75 235.766M108.75 235.766C102.681 235.77 102.295 228.569 110.532 229.739C110.928 229.765 111.377 229.798 111.866 229.838M108.75 235.766C111.574 235.58 117.113 236.3 119.725 236.861M115.484 241.074C120.947 241.254 122.131 239.023 121.246 237.577C121.088 237.32 120.227 236.969 119.725 236.861M119.725 236.861C124.532 235.674 121.966 232.297 118.831 231.362C118.831 231.362 115.057 230.382 111.866 229.838M111.866 229.838C107.729 229.134 101.569 227.459 97.6238 226.929C92.6188 226.256 93.9744 217.929 126.559 227.148"
      stroke="black"
      stroke-width="0.5"
    />
    <path
      d="M56.3602 82.6999L63.8071 92.1737C63.9428 92.3516 64.0038 92.5755 63.9771 92.7977C63.9503 93.0199 63.838 93.2229 63.6639 93.3635L54.0909 100.799C53.3794 101.354 52.5655 101.763 51.6958 102.003C50.8261 102.243 49.9176 102.309 49.0224 102.198C48.1271 102.086 47.2626 101.799 46.4783 101.353C45.694 100.907 45.0054 100.311 44.4517 99.5986C43.8967 98.8862 43.4874 98.0715 43.2473 97.2009C43.0073 96.3303 42.9411 95.4209 43.0526 94.5247C43.1641 93.6286 43.4511 92.7631 43.8972 91.9779C44.3433 91.1927 44.9398 90.5031 45.6525 89.9485L55.2255 82.5126C55.4044 82.3981 55.6193 82.3538 55.8288 82.3884C56.0383 82.423 56.2276 82.534 56.3602 82.6999Z"
      fill="#F2F2F2"
    />
    <path
      d="M61.9344 93.5834L54.5316 84.0765C54.4636 83.9882 54.4136 83.8875 54.3846 83.7799C54.3555 83.6724 54.3479 83.5601 54.3623 83.4497C54.3766 83.3392 54.4125 83.2326 54.468 83.136C54.5235 83.0394 54.5976 82.9547 54.6858 82.8867L64.2478 75.4509C64.9593 74.8961 65.7731 74.487 66.6428 74.2471C67.5126 74.0072 68.421 73.9411 69.3163 74.0526C70.2116 74.1642 71.0761 74.4511 71.8604 74.8971C72.6446 75.343 73.3333 75.9393 73.8869 76.6516C74.442 77.364 74.8512 78.1787 75.0913 79.0493C75.3314 79.9199 75.3975 80.8293 75.286 81.7255C75.1745 82.6217 74.8875 83.4871 74.4414 84.2723C73.9953 85.0575 73.3989 85.7471 72.6861 86.3017L63.1242 93.7156C62.9487 93.8554 62.725 93.9199 62.502 93.8952C62.279 93.8704 62.0749 93.7583 61.9344 93.5834Z"
      fill="#DBDBDB"
    />
    <g filter="url(#filter0_f_1_6769)">
      <path
        d="M77.4697 327.846L57.6638 352.81C57.3027 353.278 57.1389 353.87 57.2072 354.458C57.2755 355.046 57.5705 355.584 58.0296 355.958L83.2738 375.738C85.15 377.213 87.2986 378.305 89.5968 378.95C91.8951 379.595 94.2978 379.781 96.6675 379.496C99.0373 379.212 101.328 378.464 103.407 377.294C105.487 376.124 107.316 374.556 108.788 372.679C110.264 370.801 111.356 368.652 112.001 366.352C112.646 364.053 112.831 361.649 112.546 359.277C112.26 356.906 111.511 354.614 110.339 352.532C109.168 350.45 107.597 348.619 105.718 347.144L80.4736 327.364C80.0017 327.059 79.4336 326.939 78.8789 327.028C78.3242 327.117 77.8222 327.408 77.4697 327.846Z"
        fill="#F2F2F2"
      />
      <path
        d="M62.6122 356.561L82.3019 331.509C82.4828 331.277 82.616 331.011 82.694 330.727C82.7721 330.443 82.7934 330.146 82.7567 329.854C82.72 329.561 82.6262 329.279 82.4804 329.023C82.3346 328.767 82.1397 328.542 81.9069 328.361L56.6919 308.581C54.8158 307.105 52.6671 306.014 50.3689 305.369C48.0706 304.724 45.6678 304.538 43.2981 304.822C40.9283 305.107 38.638 305.855 36.5583 307.025C34.4785 308.195 32.6501 309.763 31.1776 311.64C29.7012 313.517 28.6095 315.667 27.9648 317.967C27.32 320.266 27.135 322.67 27.4201 325.041C27.7052 327.413 28.4549 329.705 29.6265 331.787C30.798 333.869 32.3684 335.7 34.2479 337.175L59.4632 356.897C59.9259 357.268 60.517 357.442 61.1072 357.379C61.6974 357.316 62.2385 357.022 62.6122 356.561Z"
        fill="#DBDBDB"
      />
    </g>
  </g>
  <defs>
    <filter
      id="filter0_f_1_6769"
      x="23.648"
      y="301.051"
      width="92.6697"
      height="82.2169"
      filterUnits="userSpaceOnUse"
      color-interpolation-filters="sRGB"
    >
      <feFlood flood-opacity="0" result="BackgroundImageFix" />
      <feBlend mode="normal" in="SourceGraphic" in2="BackgroundImageFix" result="shape" />
      <feGaussianBlur stdDeviation="1.82108" result="effect1_foregroundBlur_1_6769" />
    </filter>
    <clipPath id="clip0_1_6769">
      <path
        d="M0 24C0 10.7452 10.7452 0 24 0H320C333.255 0 344 10.7452 344 24V336C344 349.255 333.255 360 320 360H24C10.7452 360 0 349.255 0 336V24Z"
        fill="white"
      />
    </clipPath>
    <clipPath id="clip1_1_6769">
      <rect width="165" height="165" fill="white" transform="matrix(-1 0 0 1 295 13)" />
    </clipPath>
  </defs>
</svg>