<svg
  width="344"
  height="360"
  viewBox="0 0 344 360"
  fill="none"
  xmlns="http://www.w3.org/2000/svg"
>
  <g clip-path="url(#clip0_1_6868)">
    <path
      d="M0 24C0 10.7452 10.7452 0 24 0H320C333.255 0 344 10.7452 344 24V336C344 349.255 333.255 360 320 360H24C10.7452 360 0 349.255 0 336V24Z"
      fill="#F5F5F5"
    />
    <path
      d="M116.33 313.368H25C25 313.368 25 307.536 37.5578 306.392C37.5578 306.392 49.0412 280.885 66.5803 284.318C77.5055 286.411 83.0868 301.445 83.0868 301.445C83.0868 301.445 91.3401 289.641 97.9399 291.929C104.54 294.217 108.461 306.775 108.461 306.775C108.461 306.775 115.298 310.075 116.33 313.368Z"
      fill="#F2F2F2"
    />
    <path
      d="M228.983 323.172L138.241 340.541C133.005 341.536 127.587 340.413 123.179 337.417C118.77 334.422 115.73 329.799 114.726 324.565L71.0752 97.0852C70.0709 91.8471 71.1869 86.4245 74.1781 82.0087C77.1692 77.5929 81.7909 74.5449 87.0278 73.5345L177.769 56.1575C183.006 55.1663 188.422 56.2923 192.831 59.2886C197.239 62.2849 200.279 66.9069 201.285 72.1414L244.95 299.61C245.955 304.852 244.838 310.278 241.844 314.696C238.85 319.114 234.224 322.163 228.983 323.172Z"
      fill="#CCCCCC"
    />
    <path
      d="M179.152 64.0379L161.553 67.4023C160.982 67.525 160.44 67.759 159.96 68.091C159.479 68.423 159.069 68.8464 158.752 69.3371C158.434 69.8277 158.217 70.376 158.112 70.9507C158.007 71.5253 158.016 72.115 158.139 72.6861L158.765 75.8729C158.888 76.444 158.897 77.0338 158.792 77.6084C158.687 78.183 158.469 78.7314 158.152 79.222C157.835 79.7127 157.425 80.1361 156.944 80.4681C156.463 80.8 155.922 81.0341 155.351 81.1568L121.058 87.7241C119.895 87.9183 118.702 87.6433 117.741 86.9594C116.78 86.2754 116.129 85.2384 115.932 84.0756L115.306 80.8888C115.109 79.7247 114.457 78.6867 113.494 78.0029C112.531 77.319 111.337 77.0453 110.172 77.2418L103.995 78.4542L88.5966 81.403C84.9242 82.1085 81.6821 84.2431 79.5825 87.3376C77.4829 90.4321 76.6976 94.2335 77.3991 97.9067L120.005 319.934C120.71 323.605 122.843 326.845 125.936 328.943C129.029 331.042 132.828 331.827 136.499 331.125L227.059 313.784C228.877 313.436 230.609 312.733 232.155 311.716C233.701 310.698 235.032 309.386 236.071 307.855C237.11 306.323 237.838 304.602 238.212 302.789C238.586 300.976 238.599 299.107 238.25 297.29L195.643 75.2542C195.3 73.4334 194.601 71.6983 193.585 70.1484C192.57 68.5985 191.259 67.2643 189.726 66.2223C188.194 65.1803 186.472 64.4509 184.657 64.0761C182.843 63.7012 180.972 63.6882 179.152 64.0379Z"
      fill="white"
    />
    <mask
      id="mask0_1_6868"
      style="mask-type: alpha"
      maskUnits="userSpaceOnUse"
      x="77"
      y="63"
      width="162"
      height="269"
    >
      <path
        d="M179.152 64.0379L161.553 67.4023C160.982 67.525 160.44 67.759 159.96 68.091C159.479 68.423 159.068 68.8464 158.751 69.3371C158.434 69.8277 158.217 70.376 158.112 70.9507C158.007 71.5253 158.016 72.115 158.139 72.6861L158.765 75.8729C158.887 76.444 158.897 77.0338 158.792 77.6084C158.686 78.183 158.469 78.7314 158.152 79.222C157.835 79.7127 157.425 80.1361 156.944 80.4681C156.463 80.8 155.922 81.0341 155.351 81.1568L121.058 87.7241C119.894 87.9183 118.702 87.6433 117.741 86.9594C116.78 86.2754 116.129 85.2384 115.932 84.0756L115.306 80.8888C115.108 79.7247 114.457 78.6867 113.494 78.0029C112.531 77.319 111.337 77.0453 110.172 77.2418L103.995 78.4542L88.5965 81.403C84.9241 82.1085 81.682 84.2431 79.5824 87.3376C77.4828 90.4321 76.6975 94.2335 77.399 97.9067L120.005 319.934C120.71 323.605 122.843 326.845 125.936 328.943C129.029 331.042 132.828 331.827 136.499 331.125L227.059 313.784C228.877 313.436 230.609 312.733 232.155 311.716C233.701 310.698 235.032 309.386 236.071 307.855C237.11 306.323 237.838 304.602 238.211 302.789C238.585 300.976 238.599 299.107 238.25 297.29L195.643 75.2542C195.3 73.4334 194.601 71.6983 193.585 70.1484C192.57 68.5985 191.258 67.2643 189.726 66.2223C188.194 65.1803 186.472 64.4509 184.657 64.0761C182.842 63.7012 180.972 63.6882 179.152 64.0379Z"
        fill="white"
      />
    </mask>
    <g mask="url(#mask0_1_6868)">
      <g clip-path="url(#clip1_1_6868)">
        <path
          d="M123.003 295.885L123.769 285.473C123.843 284.462 124.726 283.706 125.736 283.787L210.167 290.566C211.167 290.646 211.915 291.518 211.841 292.519L211.118 302.363C223.352 310.709 228.923 365.329 229.773 382.468C230.436 395.854 204.992 613.249 204.184 635.093C204.154 635.897 203.648 636.518 202.881 636.758C186.975 641.738 173.293 637.424 165.685 633.915C165.052 633.624 164.659 632.989 164.655 632.293L163.483 377.594L130.783 629.626C130.682 630.403 130.094 631.032 129.323 631.174C114.13 633.986 102.23 632.807 91.1297 628.398C90.4496 628.128 90.0102 627.594 90.0062 626.862C89.9156 610.241 88.9532 406.868 95.8844 372.624C104.844 328.359 113.503 303.824 123.003 295.885Z"
          fill="#2B2B2B"
        />
        <path
          d="M123.003 295.885L123.769 285.473C123.843 284.462 124.726 283.706 125.736 283.787L210.167 290.566C211.167 290.646 211.915 291.518 211.841 292.519L211.118 302.363M123.003 295.885C113.503 303.824 104.844 328.359 95.8844 372.624C88.9532 406.868 89.9156 610.241 90.0062 626.862C90.0102 627.594 90.4496 628.128 91.1297 628.398C102.23 632.807 114.13 633.986 129.323 631.174C130.094 631.032 130.682 630.403 130.783 629.626L163.483 377.594L164.655 632.293C164.659 632.989 165.052 633.624 165.685 633.915C173.293 637.424 186.975 641.738 202.881 636.758C203.648 636.518 204.154 635.897 204.184 635.093C204.992 613.249 230.436 395.854 229.773 382.468C228.923 365.329 223.352 310.709 211.118 302.363M123.003 295.885C131.26 298.486 148.207 302.216 168.927 303.549M211.118 302.363C199.977 303.811 188.992 304.225 178.685 303.98M168.927 303.549L165.341 352.329M168.927 303.549C172.097 303.753 175.355 303.901 178.685 303.98M164.766 360.15L165.341 352.329M165.341 352.329C167.303 353.01 172.047 353.447 175.32 349.746C178.593 346.046 178.927 317.694 178.685 303.98"
          stroke="black"
          stroke-width="0.730242"
          stroke-linecap="round"
          stroke-linejoin="round"
        />
        <path
          d="M150.949 134.758C160.192 135.771 167.159 121.519 161.036 111.921L189.852 114.039C179.969 138.922 218.158 155.271 197.814 172.144L148.467 168.516L150.949 134.758Z"
          fill="white"
          stroke="black"
          stroke-width="0.730242"
          stroke-linecap="round"
          stroke-linejoin="round"
        />
        <path
          d="M185.5 116.944C205.064 104.82 203.733 77.3768 200.415 65.1531C195.185 51.4931 184.847 47.205 179.502 47.3686C165.817 44.6534 156.557 58.2136 153.435 65.5868C150.312 72.96 144.528 100.547 158.465 112.471C169.614 122.011 181.134 119.428 185.5 116.944Z"
          fill="white"
          stroke="black"
          stroke-width="0.730242"
          stroke-linecap="round"
          stroke-linejoin="round"
        />
        <path
          d="M143.973 77.5829C146.468 73.6662 149.274 76.3143 150.365 78.1279C150.204 79.2405 150.079 80.2605 149.984 81.1925C149.486 86.0692 149.788 88.5347 149.729 89.2231C148.223 95.9082 140.854 82.4788 143.973 77.5829Z"
          fill="white"
        />
        <path
          d="M208.531 79.2674C206.311 75.1138 203.551 77.191 202.448 78.7487C202.433 80.4381 202.382 82.0228 202.306 83.4854C202.042 88.5964 201.486 92.2178 201.179 93.6096C204.764 97.8382 211.307 84.4593 208.531 79.2674Z"
          fill="white"
        />
        <path
          d="M202.306 83.4854C202.042 88.5964 201.486 92.2178 201.179 93.6096C204.764 97.8382 211.307 84.4593 208.531 79.2674C206.311 75.1138 203.551 77.191 202.448 78.7487C202.433 80.4381 202.382 82.0228 202.306 83.4854ZM202.306 83.4854C203.09 81.7972 204.909 78.8759 205.917 80.6962M202.306 83.4854C204.08 81.744 206.972 80.2287 204.35 88.0988M149.984 81.1925C149.486 86.0692 149.788 88.5347 149.729 89.2231C148.223 95.9082 140.854 82.4788 143.973 77.5829C146.468 73.6662 149.274 76.3143 150.365 78.1279C150.204 79.2405 150.079 80.2605 149.984 81.1925ZM149.984 81.1925C149.236 79.064 147.305 75.7816 145.559 79.6796M149.984 81.1925C148.614 79.4583 146.241 78.024 147.706 86.16"
          stroke="black"
          stroke-width="0.730242"
          stroke-linecap="round"
          stroke-linejoin="round"
        />
        <path
          d="M168.762 104.693C171.094 106.578 177.182 108.735 182.885 102.283"
          stroke="black"
          stroke-width="1.09536"
          stroke-linecap="round"
          stroke-linejoin="round"
        />
        <path
          d="M171.385 81.9919C171.085 89.2374 159.282 94.7936 170.211 95.7254"
          stroke="black"
          stroke-width="1.09536"
          stroke-linecap="round"
          stroke-linejoin="round"
        />
        <path
          d="M165.872 35.8526C169.544 34.9328 178.742 33.7443 186.15 36.3486C188.56 35.2526 193.667 34.1126 201.635 38.9017C211.595 44.8881 219.858 55.8702 216.348 66.9646C214.083 74.1259 211.286 78.0531 209.285 82.2955C208.743 79.3382 206.662 74.4071 202.676 78.3415C199.845 73.4217 198.732 70.1654 198.993 61.9994C185.617 64.2281 166.656 65.4956 155.502 61.5328C151.559 69.1681 151.542 72.7114 150.219 77.7383L148.342 75.8414C145.391 60.1351 147.222 56.8525 148.506 57.1744C144.937 53.0138 145.329 46.6359 152.433 37.1635L156.278 32.3516C155.22 34.4154 153.98 38.2398 157.488 37.0274C158.685 36.6177 159.936 34.2209 162.469 33.5884C162.839 33.4048 163.151 33.3948 163.338 33.4498C163.033 33.4722 162.744 33.5199 162.469 33.5884C161.988 33.8274 161.408 34.3605 160.88 35.4271C159.946 37.3128 163.819 36.4965 165.872 35.8526Z"
          fill="#2B2B2B"
        />
        <path
          d="M195.826 106.895C199.211 100.279 202.958 95.695 204.244 93.9895C202.636 95.332 201.382 94.2935 200.949 93.7085C199.992 97.5809 197.792 102.872 195.826 106.895Z"
          fill="#2B2B2B"
        />
        <path
          d="M155.502 61.5328C166.656 65.4956 185.617 64.2281 198.993 61.9994C198.732 70.1654 199.845 73.4217 202.676 78.3415C206.662 74.4071 208.743 79.3382 209.285 82.2955C211.286 78.0531 214.083 74.1259 216.348 66.9646C219.858 55.8702 211.595 44.8881 201.635 38.9017C193.667 34.1126 188.56 35.2526 186.15 36.3486C178.742 33.7443 169.544 34.9328 165.872 35.8526C163.819 36.4965 159.946 37.3128 160.88 35.4271C161.814 33.5413 162.908 33.3232 163.338 33.4498C160.207 33.679 158.815 36.5733 157.488 37.0274C153.98 38.2398 155.22 34.4154 156.278 32.3516L152.433 37.1635C145.329 46.6359 144.937 53.0138 148.506 57.1744M155.502 61.5328C152.532 60.4776 150.116 59.0517 148.506 57.1744M155.502 61.5328C153.961 61.0098 150.404 59.4059 148.506 57.1744M155.502 61.5328C151.559 69.1681 151.542 72.7114 150.219 77.7383L148.342 75.8414C145.391 60.1351 147.222 56.8525 148.506 57.1744M204.244 93.9895C202.958 95.695 199.211 100.279 195.826 106.895C197.792 102.872 199.992 97.5809 200.949 93.7085C201.382 94.2935 202.636 95.332 204.244 93.9895Z"
          stroke="black"
          stroke-width="0.730242"
          stroke-linecap="round"
          stroke-linejoin="round"
        />
        <path
          d="M181.025 72.5573C183.514 70.0899 189.082 68.8996 192.379 73.525M165.783 71.6954C163.535 68.7536 158.312 66.7754 155.027 70.7785"
          stroke="black"
          stroke-width="1.09536"
          stroke-linecap="round"
          stroke-linejoin="round"
        />
        <path
          d="M181.733 87.1049C181.659 89.2651 182.309 91.041 183.185 91.0713C184.061 91.1017 184.83 89.3751 184.904 87.2149C184.977 85.0547 184.327 83.2788 183.452 83.2485C182.576 83.2181 181.806 84.9447 181.733 87.1049Z"
          fill="black"
        />
        <path
          d="M181.733 87.1049C181.659 89.2651 182.309 91.041 183.185 91.0713C184.061 91.1017 184.83 89.3751 184.904 87.2149C184.977 85.0547 184.327 83.2788 183.452 83.2485C182.576 83.2181 181.806 84.9447 181.733 87.1049Z"
          fill="black"
        />
        <path
          d="M181.733 87.1049C181.659 89.2651 182.309 91.041 183.185 91.0713C184.061 91.1017 184.83 89.3751 184.904 87.2149C184.977 85.0547 184.327 83.2788 183.452 83.2485C182.576 83.2181 181.806 84.9447 181.733 87.1049Z"
          fill="black"
        />
        <path
          d="M181.733 87.1049C181.659 89.2651 182.309 91.041 183.185 91.0713C184.061 91.1017 184.83 89.3751 184.904 87.2149C184.977 85.0547 184.327 83.2788 183.452 83.2485C182.576 83.2181 181.806 84.9447 181.733 87.1049Z"
          fill="black"
        />
        <path
          d="M160.576 85.5494C160.503 87.7097 161.153 89.4855 162.029 89.5159C162.904 89.5462 163.674 87.8197 163.747 85.6594C163.821 83.4992 163.171 81.7234 162.295 81.693C161.42 81.6626 160.65 83.3892 160.576 85.5494Z"
          fill="black"
        />
        <path
          d="M160.576 85.5494C160.503 87.7097 161.153 89.4855 162.029 89.5159C162.904 89.5462 163.674 87.8197 163.747 85.6594C163.821 83.4992 163.171 81.7234 162.295 81.693C161.42 81.6626 160.65 83.3892 160.576 85.5494Z"
          fill="black"
        />
        <path
          d="M160.576 85.5494C160.503 87.7097 161.153 89.4855 162.029 89.5159C162.904 89.5462 163.674 87.8197 163.747 85.6594C163.821 83.4992 163.171 81.7234 162.295 81.693C161.42 81.6626 160.65 83.3892 160.576 85.5494Z"
          fill="black"
        />
        <path
          d="M160.576 85.5494C160.503 87.7097 161.153 89.4855 162.029 89.5159C162.904 89.5462 163.674 87.8197 163.747 85.6594C163.821 83.4992 163.171 81.7234 162.295 81.693C161.42 81.6626 160.65 83.3892 160.576 85.5494Z"
          fill="black"
        />
        <path
          d="M194.758 130.939C178.539 145.228 158.897 135.998 158.051 128.24L121.138 280.119C150.289 295.733 201.663 291.652 223.706 287.66L194.758 130.939Z"
          fill="#FBD26A"
          stroke="black"
          stroke-width="0.730242"
          stroke-linecap="round"
          stroke-linejoin="round"
        />
        <path
          d="M150.045 371.922C140.032 369.213 91.8402 354.555 89.7173 344.054C103.957 306.441 112.594 263.937 113.364 253.465C108.786 254.507 85.0167 265.454 74.4168 255.461C65.4995 248.937 66.5841 238.801 67.0853 231.991C67.5062 226.271 85.0433 192.614 98.0845 165.036C105.701 148.928 112.519 145.604 143.209 134.422C142.667 130.517 160.712 123.065 162.814 123.84C162.001 125.585 161.555 129.592 159.408 130.117C159.152 133.598 161.315 133.352 165.851 141.753C157.668 144.012 144.411 248.931 150.045 371.922Z"
          fill="white"
        />
        <path
          d="M184.399 143.116C183.286 141.785 183.031 140.889 183.358 140.486C183.652 137.613 188.947 135.737 190.612 131.501C188.57 128.67 188.683 125.878 188.619 124.69C189.267 124.738 208.309 130.799 207.893 136.449C232.64 146.774 241.701 149.72 247.981 166.977C259.163 197.707 264.934 239.552 264.514 245.271C264.014 252.081 260.902 266.005 251.127 271.156C247.318 273.437 237.613 270.606 233.236 268.905L244.928 355.466C239.903 368.243 201.425 373.318 179.572 374.093C184.761 370.87 199.167 308.878 198.654 250.505L196.008 248.268L198.577 243.815C197.924 197.55 191.88 152.068 184.399 143.116Z"
          fill="white"
        />
        <path
          d="M162.814 123.84C162.814 123.84 159.594 127.585 159.408 130.117M162.814 123.84C160.712 123.065 142.667 130.517 143.209 134.422M162.814 123.84C162.001 125.585 161.555 129.592 159.408 130.117M143.209 134.422C143.209 134.422 138.974 139.879 147.758 165.807C144.89 156.444 159.564 130.108 165.851 141.753M143.209 134.422C112.519 145.604 105.701 148.928 98.0845 165.036C85.0433 192.614 67.5062 226.271 67.0853 231.991C66.5841 238.801 65.4995 248.937 74.4168 255.461C85.0167 265.454 108.786 254.507 113.364 253.465M165.851 141.753C161.315 133.352 159.152 133.598 159.408 130.117M165.851 141.753C157.668 144.012 144.411 248.931 150.045 371.922C140.032 369.213 91.8402 354.555 89.7173 344.054C103.957 306.441 112.594 263.937 113.364 253.465M113.364 253.465L125.875 250.025M89.9453 226.157L107.175 223.572M107.175 223.572C105.052 227.649 111.261 245.673 125.875 250.025M107.175 223.572L107.449 219.851C107.449 219.851 112.242 218.863 117.715 218.239M125.875 250.025L129.505 251.771L137.08 242.91L140.682 238.696L133.728 229.301L124.813 217.258C123.239 217.566 120.559 217.914 117.715 218.239M188.619 124.69C189.267 124.738 208.309 130.799 207.893 136.449M188.619 124.69C191.77 127.298 191.46 129.343 190.612 131.501M188.619 124.69C188.683 125.878 188.57 128.67 190.612 131.501M184.399 143.116C178.327 135.851 197.803 141.555 197.799 169.487C209.032 150.848 207.694 139.163 207.893 136.449M184.399 143.116C191.88 152.068 197.924 197.55 198.577 243.815M184.399 143.116C180.506 138.458 188.494 136.888 190.612 131.501M207.893 136.449C232.64 146.774 241.701 149.72 247.981 166.977C259.163 197.707 264.934 239.552 264.514 245.271C264.014 252.081 260.902 266.005 251.127 271.156C247.318 273.437 237.613 270.606 233.236 268.905M233.236 268.905C225.854 266.037 220.479 262.281 213.44 257.287M233.236 268.905L244.928 355.466C239.903 368.243 201.425 373.318 179.572 374.093C184.761 370.87 199.167 308.878 198.654 250.505M228.606 231.915L242.753 236.157M228.606 231.915L225.201 231.665M228.606 231.915C227.128 218.695 232.795 174.94 232.795 174.94M225.201 231.665C226.706 236.009 228.534 255.119 213.44 257.287M225.201 231.665L225.458 228.171C225.458 228.171 218.365 226.158 213.319 224.561C212.136 224.187 211.066 223.835 210.225 223.538L208.328 226.912L198.577 243.815M213.44 257.287L210.69 260.682L198.654 250.505M117.715 218.239C119.765 212.284 124.047 193.7 124.779 166.998M198.577 243.815L196.008 248.268L198.654 250.505"
          stroke="black"
          stroke-width="0.730242"
          stroke-linecap="round"
          stroke-linejoin="round"
        />
        <path
          d="M125.963 218.391C128.628 217.185 130.895 215.535 133.176 213.65L139.616 201.54C139.572 199.682 139.898 196.077 141.553 196.519C141.847 196.461 142.139 196.419 142.433 196.392C144.578 191.211 145.648 186.08 147.758 186.877C149.734 187.049 152.808 187.48 155.526 188.207C156.707 188.039 159.402 187.88 160.735 188.59L161.075 191.142L161.253 195.884L161.693 203.931C161.693 203.935 161.693 203.939 161.692 203.943L161.512 215.216L156.008 217.594L146.103 221.124C145.107 222.711 136.518 232.774 136.518 232.774L125.963 218.391Z"
          fill="white"
        />
        <path
          d="M143.74 202.611C144.625 202.868 146.593 202.389 147.466 202.117C155.555 202.712 156.219 200.173 155.539 198.83C152.544 198.151 150.283 197.587 148.477 197.17M142.433 196.392C142.139 196.419 141.847 196.461 141.553 196.519C139.898 196.077 139.572 199.682 139.616 201.54L133.176 213.65C130.895 215.535 128.628 217.185 125.963 218.391L136.518 232.774C136.518 232.774 145.107 222.711 146.103 221.124L156.008 217.594L161.512 215.216L161.693 203.931M142.433 196.392C144.578 191.211 145.648 186.08 147.758 186.877C149.734 187.049 152.808 187.48 155.526 188.207M142.433 196.392C144.047 196.242 145.737 196.537 148.477 197.17M161.075 191.142L161.253 195.884M161.075 191.142C160.402 189.869 158.127 188.902 155.526 188.207M161.075 191.142L160.735 188.59C159.402 187.88 156.707 188.039 155.526 188.207M161.253 195.884C160.532 195.646 159.711 195.389 158.843 195.132M161.253 195.884L161.693 203.931M148.477 197.17L149.196 193.955C149.162 193.074 151.5 193.314 154.326 193.944M153.076 197.508C153.258 196.266 153.763 193.814 154.326 193.944M154.326 193.944C155.788 194.27 157.381 194.7 158.843 195.132M158.843 195.132C158.703 198.126 158.751 204.242 160.073 204.762C161.342 206.002 161.682 204.725 161.693 203.931M145.127 211.285C146.547 210.383 149.819 209.019 151.546 210.776M142.81 215.266C141.757 218.131 139.484 223.866 138.812 223.877"
          stroke="black"
          stroke-width="0.730242"
          stroke-linecap="round"
          stroke-linejoin="round"
        />
        <path
          d="M161.29 188.661L161.99 208.456L188.35 214.369L188.979 205.809L190.23 188.804C190.561 186.084 188.67 185.491 187.683 185.535L164.281 184.788C161.315 184.57 161.195 187.275 161.29 188.661Z"
          fill="#2B2B2B"
          stroke="black"
          stroke-width="0.730242"
          stroke-linecap="round"
          stroke-linejoin="round"
        />
        <path
          d="M168.887 186.802C164.11 186.616 163.063 187.751 163.031 191.181C162.95 195.514 163.944 195.805 168.254 196.05C172.565 196.294 174.264 195.231 174.243 191.467C174.359 188.289 173.781 186.992 168.887 186.802Z"
          fill="#2B2B2B"
          stroke="black"
          stroke-width="0.730242"
          stroke-linecap="round"
          stroke-linejoin="round"
        />
        <ellipse
          cx="2.57904"
          cy="2.12368"
          rx="2.57904"
          ry="2.12368"
          transform="matrix(0.991531 -0.135086 0.227015 0.972817 163.264 187.694)"
          fill="white"
          stroke="black"
          stroke-width="0.730242"
          stroke-linecap="round"
          stroke-linejoin="round"
        />
        <ellipse
          cx="2.57904"
          cy="2.12368"
          rx="2.57904"
          ry="2.12368"
          transform="matrix(0.991531 -0.135086 0.227015 0.972817 167.787 191.684)"
          fill="white"
          stroke="black"
          stroke-width="0.730242"
          stroke-linecap="round"
          stroke-linejoin="round"
        />
        <ellipse
          cx="1.32233"
          cy="1.0732"
          rx="1.32233"
          ry="1.0732"
          transform="matrix(0.991531 -0.135086 0.227015 0.972817 170.074 188.073)"
          fill="white"
          stroke="black"
          stroke-width="0.730242"
          stroke-linecap="round"
          stroke-linejoin="round"
        />
        <ellipse
          cx="0.789585"
          cy="0.658355"
          rx="0.789585"
          ry="0.658355"
          transform="matrix(0.991531 -0.135086 0.227015 0.972817 164.688 193.158)"
          fill="white"
          stroke="black"
          stroke-width="0.730242"
          stroke-linecap="round"
          stroke-linejoin="round"
        />
        <path
          d="M205.137 225.754C207.166 227.337 208.608 226.009 208.608 226.009C207.115 229.062 200.571 241.031 198.622 243.622C198.622 243.622 196.309 239.425 195.217 239.23C187.697 237.889 180.851 234.917 180.275 233.557C179.748 232.31 162.204 225.338 164.748 220.915C160.637 219.795 158.039 219.023 155.441 217.53C151.412 215.215 152.917 212.222 155.791 212.768L160.923 213.517C158.873 212.922 157.349 212.427 156.76 212.1C152.42 209.694 154.542 206.852 157.642 207.478L166.662 208.805C168.677 208.633 181.207 211.343 188.278 212.958C187.767 210.87 179.562 209.541 174.771 207.846C170.345 206.279 170.022 201.957 172.061 202.106C172.592 202.242 189.366 204.723 191.643 205.658C193.919 206.593 203.969 224.843 205.137 225.754Z"
          fill="white"
        />
        <path
          d="M188.278 212.958C187.767 210.87 179.562 209.541 174.771 207.846C170.345 206.279 170.022 201.957 172.061 202.106C172.592 202.242 189.366 204.723 191.643 205.658C193.919 206.593 203.969 224.843 205.137 225.754C207.166 227.337 208.608 226.009 208.608 226.009C207.115 229.062 200.571 241.031 198.622 243.622C198.622 243.622 196.309 239.425 195.217 239.23C187.697 237.889 180.851 234.917 180.275 233.557C179.748 232.31 162.204 225.338 164.748 220.915M189.519 213.243C182.791 211.687 168.801 208.623 166.662 208.805L157.642 207.478C154.542 206.852 152.42 209.694 156.76 212.1C157.349 212.427 158.873 212.922 160.923 213.517M184.724 220.636C183.243 219.252 168.492 215.711 160.923 213.517M160.923 213.517L155.791 212.768C152.917 212.222 151.412 215.215 155.441 217.53C158.039 219.023 160.637 219.795 164.748 220.915M182.937 226.323C174.397 223.482 168.828 222.027 164.748 220.915"
          stroke="black"
          stroke-width="0.730242"
          stroke-linecap="round"
          stroke-linejoin="round"
        />
      </g>
    </g>
    <g clip-path="url(#clip2_1_6868)">
      <path
        d="M267.33 150.368H176C176 150.368 176 144.536 188.558 143.392C188.558 143.392 200.041 117.885 217.58 121.318C228.506 123.411 234.087 138.445 234.087 138.445C234.087 138.445 242.34 126.641 248.94 128.929C255.54 131.217 259.461 143.775 259.461 143.775C259.461 143.775 266.298 147.075 267.33 150.368Z"
        fill="#F2F2F2"
      />
      <path
        d="M123.003 295.885L123.769 285.473C123.843 284.463 124.726 283.706 125.736 283.787L210.167 290.566C211.167 290.646 211.915 291.519 211.842 292.519L211.118 302.364C223.352 310.71 228.923 365.329 229.773 382.469C230.436 395.854 204.992 613.249 204.184 635.094C204.154 635.897 203.648 636.518 202.881 636.758C186.975 641.738 173.293 637.424 165.685 633.915C165.053 633.624 164.659 632.99 164.655 632.293L163.483 377.595L130.783 629.626C130.682 630.404 130.094 631.032 129.323 631.175C114.13 633.986 102.23 632.807 91.1298 628.398C90.4497 628.128 90.0103 627.594 90.0063 626.863C89.9157 610.241 88.9533 406.868 95.8844 372.625C104.844 328.359 113.503 303.824 123.003 295.885Z"
        fill="#2B2B2B"
      />
      <path
        d="M123.003 295.885L123.769 285.473C123.843 284.463 124.726 283.706 125.736 283.787L210.167 290.566C211.167 290.646 211.915 291.519 211.842 292.519L211.118 302.364M123.003 295.885C113.503 303.824 104.844 328.359 95.8844 372.625C88.9533 406.868 89.9157 610.241 90.0063 626.863C90.0103 627.594 90.4497 628.128 91.1298 628.398C102.23 632.807 114.13 633.986 129.323 631.175C130.094 631.032 130.682 630.404 130.783 629.626L163.483 377.595L164.655 632.293C164.659 632.99 165.053 633.624 165.685 633.916C173.293 637.424 186.975 641.738 202.881 636.758C203.648 636.518 204.154 635.897 204.184 635.094C204.992 613.249 230.436 395.854 229.773 382.469C228.923 365.329 223.352 310.71 211.118 302.364M123.003 295.885C131.26 298.486 148.207 302.216 168.927 303.549M211.118 302.364C199.977 303.811 188.992 304.225 178.685 303.98M168.927 303.549L165.341 352.329M168.927 303.549C172.097 303.753 175.356 303.901 178.685 303.98M164.766 360.15L165.341 352.329M165.341 352.329C167.303 353.01 172.047 353.447 175.32 349.747C178.593 346.046 178.927 317.694 178.685 303.98"
        stroke="black"
        stroke-width="0.730242"
        stroke-linecap="round"
        stroke-linejoin="round"
      />
      <path
        d="M150.949 134.759C160.192 135.771 167.159 121.519 161.036 111.921L189.853 114.04C179.969 138.923 218.158 155.271 197.814 172.144L148.467 168.516L150.949 134.759Z"
        fill="white"
        stroke="black"
        stroke-width="0.730242"
        stroke-linecap="round"
        stroke-linejoin="round"
      />
      <path
        d="M185.501 116.945C205.065 104.82 203.733 77.3771 200.415 65.1534C195.185 51.4933 184.847 47.2052 179.502 47.3689C165.817 44.6536 156.558 58.2139 153.435 65.587C150.312 72.9602 144.528 100.547 158.465 112.472C169.614 122.011 181.134 119.429 185.501 116.945Z"
        fill="white"
        stroke="black"
        stroke-width="0.730242"
        stroke-linecap="round"
        stroke-linejoin="round"
      />
      <path
        d="M143.973 77.5832C146.468 73.6665 149.274 76.3145 150.365 78.1282C150.204 79.2407 150.079 80.2608 149.984 81.1927C149.486 86.0695 149.788 88.535 149.729 89.2233C148.223 95.9085 140.854 82.479 143.973 77.5832Z"
        fill="white"
      />
      <path
        d="M208.531 79.2676C206.311 75.114 203.551 77.1912 202.448 78.749C202.433 80.4383 202.382 82.023 202.306 83.4857C202.042 88.5967 201.486 92.218 201.179 93.6098C204.764 97.8384 211.307 84.4596 208.531 79.2676Z"
        fill="white"
      />
      <path
        d="M202.306 83.4857C202.042 88.5967 201.486 92.218 201.179 93.6098C204.764 97.8384 211.307 84.4596 208.531 79.2676C206.311 75.114 203.551 77.1912 202.448 78.749C202.433 80.4383 202.382 82.023 202.306 83.4857ZM202.306 83.4857C203.09 81.7975 204.909 78.8762 205.917 80.6965M202.306 83.4857C204.08 81.7443 206.972 80.229 204.35 88.099M149.984 81.1927C149.486 86.0695 149.788 88.535 149.729 89.2233C148.223 95.9085 140.854 82.479 143.973 77.5832C146.468 73.6665 149.274 76.3146 150.365 78.1282C150.204 79.2407 150.079 80.2608 149.984 81.1927ZM149.984 81.1927C149.236 79.0643 147.305 75.7819 145.559 79.6799M149.984 81.1927C148.614 79.4586 146.241 78.0243 147.706 86.1602"
        stroke="black"
        stroke-width="0.730242"
        stroke-linecap="round"
        stroke-linejoin="round"
      />
      <path
        d="M168.762 104.693C171.094 106.578 177.182 108.735 182.885 102.284"
        stroke="black"
        stroke-width="1.09536"
        stroke-linecap="round"
        stroke-linejoin="round"
      />
      <path
        d="M171.385 81.9922C171.085 89.2376 159.282 94.7938 170.211 95.7256"
        stroke="black"
        stroke-width="1.09536"
        stroke-linecap="round"
        stroke-linejoin="round"
      />
      <path
        d="M165.872 35.8529C169.545 34.9331 178.742 33.7445 186.151 36.3489C188.56 35.2528 193.667 34.1129 201.635 38.902C211.595 44.8884 219.858 55.8704 216.348 66.9648C214.083 74.1262 211.286 78.0534 209.285 82.2957C208.743 79.3384 206.662 74.4074 202.676 78.3417C199.845 73.422 198.732 70.1656 198.993 61.9997C185.617 64.2283 166.656 65.4959 155.502 61.533C151.559 69.1684 151.542 72.7116 150.219 77.7385L148.342 75.8416C145.392 60.1354 147.222 56.8527 148.506 57.1747C144.938 53.014 145.329 46.6361 152.434 37.1638L156.279 32.3518C155.22 34.4156 153.98 38.2401 157.489 37.0276C158.686 36.6179 159.936 34.2211 162.47 33.5886C162.839 33.4051 163.152 33.395 163.339 33.45C163.033 33.4724 162.744 33.5202 162.47 33.5886C161.988 33.8276 161.408 34.3607 160.88 35.4273C159.947 37.313 163.819 36.4967 165.872 35.8529Z"
        fill="#2B2B2B"
      />
      <path
        d="M195.826 106.895C199.211 100.279 202.958 95.6952 204.244 93.9898C202.637 95.3322 201.383 94.2938 200.949 93.7088C199.992 97.5812 197.792 102.872 195.826 106.895Z"
        fill="#2B2B2B"
      />
      <path
        d="M155.502 61.533C166.656 65.4959 185.617 64.2283 198.993 61.9997C198.732 70.1656 199.845 73.422 202.676 78.3417C206.662 74.4074 208.743 79.3384 209.285 82.2957C211.286 78.0534 214.083 74.1262 216.348 66.9648C219.858 55.8704 211.595 44.8884 201.635 38.902C193.667 34.1129 188.56 35.2528 186.151 36.3489C178.742 33.7445 169.545 34.9331 165.872 35.8529C163.819 36.4967 159.947 37.313 160.88 35.4273C161.814 33.5416 162.908 33.3234 163.339 33.45C160.207 33.6793 158.815 36.5736 157.489 37.0276C153.98 38.2401 155.22 34.4156 156.279 32.3518L152.434 37.1638C145.329 46.6361 144.938 53.014 148.506 57.1747M155.502 61.533C152.532 60.4779 150.116 59.052 148.506 57.1747M155.502 61.533C153.961 61.01 150.404 59.4061 148.506 57.1747M155.502 61.533C151.559 69.1684 151.542 72.7116 150.219 77.7385L148.342 75.8416C145.392 60.1354 147.222 56.8527 148.506 57.1747M204.244 93.9898C202.958 95.6952 199.211 100.279 195.826 106.895C197.792 102.872 199.992 97.5812 200.949 93.7088C201.383 94.2937 202.637 95.3322 204.244 93.9898Z"
        stroke="black"
        stroke-width="0.730242"
        stroke-linecap="round"
        stroke-linejoin="round"
      />
      <path
        d="M181.026 72.5575C183.514 70.0902 189.082 68.8999 192.379 73.5253M165.784 71.6957C163.535 68.7539 158.312 66.7757 155.027 70.7787"
        stroke="black"
        stroke-width="1.09536"
        stroke-linecap="round"
        stroke-linejoin="round"
      />
      <path
        d="M181.733 87.1051C181.659 89.2654 182.309 91.0412 183.185 91.0716C184.061 91.102 184.83 89.3754 184.904 87.2152C184.978 85.0549 184.327 83.2791 183.452 83.2487C182.576 83.2183 181.806 84.9449 181.733 87.1051Z"
        fill="black"
      />
      <path
        d="M181.733 87.1051C181.659 89.2654 182.309 91.0412 183.185 91.0716C184.061 91.102 184.83 89.3754 184.904 87.2152C184.978 85.0549 184.327 83.2791 183.452 83.2487C182.576 83.2183 181.806 84.9449 181.733 87.1051Z"
        fill="black"
      />
      <path
        d="M181.733 87.1051C181.659 89.2654 182.309 91.0412 183.185 91.0716C184.061 91.102 184.83 89.3754 184.904 87.2152C184.978 85.0549 184.327 83.2791 183.452 83.2487C182.576 83.2183 181.806 84.9449 181.733 87.1051Z"
        fill="black"
      />
      <path
        d="M181.733 87.1051C181.659 89.2654 182.309 91.0412 183.185 91.0716C184.061 91.102 184.83 89.3754 184.904 87.2152C184.978 85.0549 184.327 83.2791 183.452 83.2487C182.576 83.2183 181.806 84.9449 181.733 87.1051Z"
        fill="black"
      />
      <path
        d="M160.576 85.5497C160.503 87.7099 161.153 89.4857 162.029 89.5161C162.904 89.5465 163.674 87.8199 163.747 85.6597C163.821 83.4994 163.171 81.7236 162.295 81.6932C161.42 81.6629 160.65 83.3894 160.576 85.5497Z"
        fill="black"
      />
      <path
        d="M160.576 85.5497C160.503 87.7099 161.153 89.4857 162.029 89.5161C162.904 89.5465 163.674 87.8199 163.747 85.6597C163.821 83.4994 163.171 81.7236 162.295 81.6932C161.42 81.6629 160.65 83.3894 160.576 85.5497Z"
        fill="black"
      />
      <path
        d="M160.576 85.5497C160.503 87.7099 161.153 89.4857 162.029 89.5161C162.904 89.5465 163.674 87.8199 163.747 85.6597C163.821 83.4994 163.171 81.7236 162.295 81.6932C161.42 81.6629 160.65 83.3894 160.576 85.5497Z"
        fill="black"
      />
      <path
        d="M160.576 85.5497C160.503 87.7099 161.153 89.4857 162.029 89.5161C162.904 89.5465 163.674 87.8199 163.747 85.6597C163.821 83.4994 163.171 81.7236 162.295 81.6932C161.42 81.6629 160.65 83.3894 160.576 85.5497Z"
        fill="black"
      />
      <path
        d="M194.758 130.939C178.539 145.228 158.897 135.998 158.051 128.241L121.138 280.119C150.29 295.733 201.663 291.653 223.706 287.66L194.758 130.939Z"
        fill="#FBD26A"
        stroke="black"
        stroke-width="0.730242"
        stroke-linecap="round"
        stroke-linejoin="round"
      />
      <path
        d="M150.045 371.922C140.032 369.214 91.8402 354.555 89.7174 344.055C103.957 306.441 112.594 263.937 113.364 253.465C108.786 254.507 85.0167 265.454 74.4169 255.462C65.4996 248.937 66.5842 238.801 67.0854 231.991C67.5063 226.272 85.0434 192.614 98.0845 165.036C105.702 148.928 112.519 145.604 143.209 134.422C142.667 130.517 160.712 123.065 162.814 123.84C162.001 125.586 161.555 129.592 159.408 130.117C159.152 133.598 161.315 133.352 165.851 141.753C157.668 144.012 144.411 248.931 150.045 371.922Z"
        fill="white"
      />
      <path
        d="M184.399 143.117C183.286 141.785 183.032 140.889 183.358 140.486C183.652 137.613 188.947 135.737 190.612 131.501C188.57 128.67 188.683 125.878 188.619 124.69C189.267 124.738 208.309 130.799 207.894 136.45C232.64 146.774 241.701 149.72 247.981 166.977C259.164 197.708 264.934 239.552 264.514 245.272C264.014 252.082 260.903 266.006 251.127 271.156C247.318 273.437 237.613 270.606 233.236 268.906L244.928 355.466C239.903 368.243 201.425 373.318 179.572 374.093C184.761 370.87 199.167 308.878 198.654 250.505L196.008 248.268L198.578 243.815C197.924 197.55 191.88 152.068 184.399 143.117Z"
        fill="white"
      />
      <path
        d="M162.814 123.84C162.814 123.84 159.594 127.586 159.408 130.117M162.814 123.84C160.712 123.065 142.667 130.517 143.209 134.422M162.814 123.84C162.001 125.586 161.555 129.592 159.408 130.117M143.209 134.422C143.209 134.422 138.975 139.879 147.758 165.808C144.89 156.445 159.564 130.108 165.851 141.753M143.209 134.422C112.519 145.604 105.702 148.928 98.0845 165.036C85.0434 192.614 67.5063 226.272 67.0854 231.991C66.5842 238.801 65.4996 248.937 74.4169 255.462C85.0167 265.454 108.786 254.507 113.364 253.465M165.851 141.753C161.315 133.352 159.152 133.598 159.408 130.117M165.851 141.753C157.668 144.012 144.411 248.931 150.045 371.922C140.032 369.214 91.8402 354.555 89.7174 344.055C103.957 306.441 112.594 263.937 113.364 253.465M113.364 253.465L125.876 250.026M89.9454 226.158L107.176 223.572M107.176 223.572C105.052 227.649 111.261 245.674 125.876 250.026M107.176 223.572L107.449 219.851C107.449 219.851 112.243 218.863 117.715 218.239M125.876 250.026L129.505 251.772L137.08 242.91L140.682 238.696L133.728 229.302L124.814 217.258C123.239 217.567 120.56 217.915 117.715 218.239M188.619 124.69C189.267 124.738 208.309 130.799 207.893 136.45M188.619 124.69C191.771 127.298 191.46 129.344 190.612 131.501M188.619 124.69C188.683 125.878 188.57 128.67 190.612 131.501M184.399 143.117C178.327 135.851 197.803 141.556 197.799 169.487C209.032 150.848 207.694 139.163 207.893 136.45M184.399 143.117C191.88 152.068 197.924 197.55 198.578 243.815M184.399 143.117C180.506 138.459 188.494 136.889 190.612 131.501M207.893 136.45C232.64 146.774 241.701 149.72 247.981 166.977C259.164 197.708 264.934 239.552 264.514 245.272C264.014 252.082 260.903 266.006 251.127 271.156C247.318 273.437 237.613 270.606 233.236 268.906M233.236 268.906C225.854 266.037 220.479 262.281 213.44 257.287M233.236 268.906L244.928 355.466C239.903 368.243 201.425 373.318 179.572 374.093C184.761 370.87 199.167 308.878 198.654 250.505M228.606 231.915L242.753 236.158M228.606 231.915L225.201 231.665M228.606 231.915C227.128 218.695 232.795 174.94 232.795 174.94M225.201 231.665C226.706 236.009 228.534 255.119 213.44 257.287M225.201 231.665L225.458 228.172C225.458 228.172 218.365 226.159 213.319 224.562C212.136 224.187 211.066 223.835 210.225 223.538L208.328 226.912L198.578 243.815M213.44 257.287L210.69 260.682L198.654 250.505M117.715 218.239C119.765 212.285 124.047 193.7 124.779 166.998M198.578 243.815L196.008 248.268L198.654 250.505"
        stroke="black"
        stroke-width="0.730242"
        stroke-linecap="round"
        stroke-linejoin="round"
      />
      <path
        d="M125.963 218.391C128.628 217.185 130.895 215.535 133.176 213.651L139.616 201.54C139.572 199.682 139.898 196.077 141.553 196.519C141.847 196.462 142.139 196.419 142.433 196.392C144.578 191.211 145.648 186.081 147.758 186.877C149.734 187.05 152.808 187.48 155.526 188.207C156.707 188.039 159.402 187.881 160.735 188.59L161.075 191.142L161.253 195.884L161.693 203.931C161.693 203.935 161.693 203.939 161.692 203.943L161.512 215.216L156.008 217.595L146.103 221.124C145.107 222.711 136.518 232.774 136.518 232.774L125.963 218.391Z"
        fill="white"
      />
      <path
        d="M143.74 202.611C144.625 202.868 146.593 202.389 147.466 202.117C155.555 202.712 156.219 200.173 155.539 198.83C152.544 198.151 150.283 197.587 148.477 197.17M142.433 196.392C142.139 196.419 141.847 196.462 141.553 196.519C139.898 196.077 139.572 199.682 139.616 201.54L133.176 213.651C130.895 215.535 128.628 217.185 125.963 218.391L136.518 232.774C136.518 232.774 145.107 222.711 146.103 221.124L156.008 217.595L161.512 215.216L161.693 203.931M142.433 196.392C144.578 191.211 145.648 186.081 147.758 186.877C149.734 187.05 152.808 187.48 155.526 188.207M142.433 196.392C144.047 196.242 145.737 196.537 148.477 197.17M161.075 191.142L161.253 195.884M161.075 191.142C160.402 189.87 158.127 188.903 155.526 188.207M161.075 191.142L160.735 188.59C159.402 187.881 156.707 188.039 155.526 188.207M161.253 195.884C160.532 195.647 159.711 195.389 158.843 195.133M161.253 195.884L161.693 203.931M148.477 197.17L149.196 193.955C149.162 193.074 151.5 193.315 154.326 193.944M153.076 197.508C153.258 196.266 153.763 193.815 154.326 193.944M154.326 193.944C155.788 194.27 157.381 194.7 158.843 195.133M158.843 195.133C158.703 198.126 158.751 204.242 160.073 204.762C161.342 206.002 161.682 204.725 161.693 203.931M145.127 211.285C146.547 210.384 149.819 209.019 151.546 210.776M142.81 215.266C141.757 218.132 139.484 223.866 138.812 223.877"
        stroke="black"
        stroke-width="0.730242"
        stroke-linecap="round"
        stroke-linejoin="round"
      />
      <path
        d="M161.29 188.661L161.99 208.456L188.35 214.37L188.979 205.809L190.23 188.805C190.561 186.084 188.67 185.492 187.683 185.535L164.281 184.788C161.315 184.57 161.195 187.276 161.29 188.661Z"
        fill="#2B2B2B"
        stroke="black"
        stroke-width="0.730242"
        stroke-linecap="round"
        stroke-linejoin="round"
      />
      <path
        d="M168.887 186.802C164.11 186.616 163.063 187.751 163.031 191.181C162.95 195.515 163.944 195.806 168.254 196.05C172.565 196.295 174.264 195.231 174.243 191.467C174.359 188.289 173.781 186.992 168.887 186.802Z"
        fill="#2B2B2B"
        stroke="black"
        stroke-width="0.730242"
        stroke-linecap="round"
        stroke-linejoin="round"
      />
      <ellipse
        cx="2.57904"
        cy="2.12368"
        rx="2.57904"
        ry="2.12368"
        transform="matrix(0.991531 -0.135086 0.227015 0.972817 163.264 187.694)"
        fill="white"
        stroke="black"
        stroke-width="0.730242"
        stroke-linecap="round"
        stroke-linejoin="round"
      />
      <ellipse
        cx="2.57904"
        cy="2.12368"
        rx="2.57904"
        ry="2.12368"
        transform="matrix(0.991531 -0.135086 0.227015 0.972817 167.787 191.684)"
        fill="white"
        stroke="black"
        stroke-width="0.730242"
        stroke-linecap="round"
        stroke-linejoin="round"
      />
      <ellipse
        cx="1.32233"
        cy="1.0732"
        rx="1.32233"
        ry="1.0732"
        transform="matrix(0.991531 -0.135086 0.227015 0.972817 170.074 188.073)"
        fill="white"
        stroke="black"
        stroke-width="0.730242"
        stroke-linecap="round"
        stroke-linejoin="round"
      />
      <ellipse
        cx="0.789585"
        cy="0.658355"
        rx="0.789585"
        ry="0.658355"
        transform="matrix(0.991531 -0.135086 0.227015 0.972817 164.688 193.159)"
        fill="white"
        stroke="black"
        stroke-width="0.730242"
        stroke-linecap="round"
        stroke-linejoin="round"
      />
      <path
        d="M205.137 225.754C207.166 227.337 208.609 226.009 208.609 226.009C207.115 229.062 200.571 241.032 198.622 243.623C198.622 243.623 196.31 239.425 195.217 239.23C187.697 237.89 180.851 234.917 180.275 233.557C179.748 232.31 162.204 225.338 164.748 220.916C160.637 219.795 158.039 219.023 155.441 217.53C151.412 215.215 152.917 212.222 155.791 212.768L160.923 213.517C158.873 212.922 157.35 212.427 156.76 212.1C152.42 209.694 154.543 206.852 157.643 207.479L166.662 208.805C168.677 208.634 181.207 211.343 188.278 212.958C187.767 210.87 179.562 209.541 174.771 207.846C170.345 206.279 170.023 201.957 172.061 202.107C172.592 202.242 189.366 204.723 191.643 205.658C193.919 206.594 203.969 224.843 205.137 225.754Z"
        fill="white"
      />
      <path
        d="M188.278 212.958C187.767 210.87 179.562 209.541 174.771 207.846C170.345 206.279 170.023 201.957 172.061 202.107C172.592 202.242 189.366 204.723 191.643 205.658C193.919 206.594 203.969 224.843 205.137 225.754C207.166 227.337 208.609 226.009 208.609 226.009C207.115 229.062 200.571 241.032 198.622 243.623C198.622 243.623 196.31 239.425 195.217 239.23C187.697 237.89 180.851 234.917 180.275 233.557C179.748 232.31 162.204 225.338 164.748 220.916M189.519 213.243C182.791 211.688 168.801 208.623 166.662 208.805L157.643 207.479C154.543 206.852 152.42 209.694 156.76 212.1C157.35 212.427 158.873 212.922 160.923 213.517M184.724 220.636C183.243 219.252 168.492 215.711 160.923 213.517M160.923 213.517L155.791 212.768C152.917 212.222 151.412 215.215 155.441 217.53C158.039 219.023 160.637 219.795 164.748 220.916M182.937 226.324C174.398 223.482 168.828 222.027 164.748 220.916"
        stroke="black"
        stroke-width="0.730242"
        stroke-linecap="round"
        stroke-linejoin="round"
      />
    </g>
    <mask
      id="mask1_1_6868"
      style="mask-type: alpha"
      maskUnits="userSpaceOnUse"
      x="256"
      y="64"
      width="62"
      height="62"
    >
      <circle cx="287" cy="95" r="31" fill="#D9D9D9" />
    </mask>
    <g mask="url(#mask1_1_6868)">
      <rect x="242" y="54" width="86.5989" height="83.9747" fill="#59C606" />
      <path
        d="M273.289 130.185C279.323 128.742 279.666 120.875 279.083 117.012C284.417 120.598 290.524 117.814 292.911 116.083C292.911 124.348 297.83 128.563 300.29 129.638C288.702 145.292 277.461 136.525 273.289 130.185Z"
        fill="white"
        stroke="black"
        stroke-width="0.740704"
      />
      <path
        d="M278.864 116.903C269.113 109.601 271.048 95.1313 273.344 88.8092C276.711 81.813 282.344 80.0093 285.15 80.3372C292.474 79.5174 296.737 87.1148 298.049 91.1595C299.361 95.2042 301.165 110.071 293.294 115.756C286.997 120.303 281.051 118.416 278.864 116.903Z"
        fill="white"
        stroke="black"
        stroke-width="0.740704"
      />
      <path
        d="M268.206 97.9368C269.343 95.7505 270.939 97.0259 271.594 97.9368C271.559 98.5332 271.54 99.0788 271.532 99.5766C271.489 102.181 271.758 103.473 271.758 103.84C271.267 107.447 266.785 100.67 268.206 97.9368Z"
        fill="white"
      />
      <path
        d="M302.258 95.9145C300.902 93.8156 299.543 95.04 299.033 95.9145C299.101 96.8096 299.145 97.6509 299.171 98.4288C299.262 101.147 299.132 103.089 299.033 103.84C301.11 105.917 303.952 98.5381 302.258 95.9145Z"
        fill="white"
      />
      <path
        d="M299.171 98.4288C299.262 101.147 299.132 103.089 299.033 103.84C301.11 105.917 303.952 98.5381 302.258 95.9145C300.902 93.8156 299.543 95.04 299.033 95.9145C299.101 96.8096 299.145 97.6509 299.171 98.4288ZM299.171 98.4288C299.507 97.4996 300.334 95.8708 300.946 96.789M299.171 98.4288C300.026 97.4267 301.48 96.4939 300.454 100.779M271.532 99.5766C271.489 102.181 271.758 103.473 271.758 103.84C271.267 107.447 266.785 100.67 268.206 97.9368C269.343 95.7505 270.939 97.0259 271.594 97.9368C271.559 98.5332 271.54 99.0788 271.532 99.5766ZM271.532 99.5766C271.042 98.4834 269.878 96.8328 269.135 98.9753M271.532 99.5766C270.733 98.7203 269.419 98.068 270.556 102.309"
        stroke="black"
        stroke-width="0.740704"
      />
      <path
        d="M298.377 93.2912C295.844 94.0564 289.861 93.5317 286.188 85.3112C284.749 86.0582 282.012 88.2518 282.581 91.0502C283.203 94.1135 279.969 89.339 280.367 87.2604C279.139 89.4507 277.836 92.8986 280.231 93.2912C278.955 93.6192 276.568 92.4823 277.224 85.3112C275.566 86.7505 272.578 90.0227 273.89 91.5968C273.44 91.5617 272.877 91.4185 272.36 91.1159L271.54 97.4452L270.392 96.68C269.763 95.6763 269.421 94.6446 269.28 93.6353C266.989 93.7598 264.728 91.9992 267.386 84.2727C268.26 81.9953 271.595 76.8829 277.935 74.6529C279.83 73.997 284.625 72.9476 288.648 73.997C289.869 73.3047 293.414 72.4666 297.83 74.6529C303.351 77.3858 305.537 81.977 306.794 87.0602C306.321 88.0441 304.881 91.4875 302.914 97.3906C302.494 95.8419 301.175 93.3131 299.251 95.5868L298.377 93.2912Z"
        fill="black"
      />
      <path
        d="M300.782 103.731C300.263 104.565 299.018 106.803 297.731 109.764C297.502 110.383 297.285 110.884 297.12 111.219C297.323 110.718 297.527 110.232 297.731 109.764C298.285 108.264 298.909 106.069 299.033 103.84C299.288 104.132 299.995 104.518 300.782 103.731Z"
        fill="black"
      />
      <path
        d="M271.212 86.5683C269.536 88.8093 267.113 93.2912 270.829 93.2912C268.315 94.2568 264.106 93.805 267.386 84.2727C268.26 81.9953 271.595 76.8829 277.935 74.6529C279.83 73.997 284.625 72.9476 288.648 73.997C289.869 73.3047 293.414 72.4666 297.83 74.6529C303.351 77.3858 305.537 81.977 306.794 87.0602C306.321 88.0441 304.881 91.4875 302.914 97.3906C302.494 95.8419 301.175 93.3131 299.251 95.5868L298.377 93.2912C295.844 94.0564 289.861 93.5317 286.188 85.3112C284.749 86.0582 282.012 88.2518 282.581 91.0502C283.291 94.5483 278.973 87.8254 280.777 86.5683C279.484 88.6271 277.563 92.854 280.231 93.2912C278.955 93.6192 276.568 92.4823 277.224 85.3112C275.566 86.7505 272.578 90.0227 273.89 91.5968C273.44 91.5617 272.877 91.4185 272.36 91.1159M271.212 86.5683C269.9 88.2809 267.9 92.7009 270.392 96.68L271.54 97.4452L272.36 91.1159M271.212 86.5683C270.381 89.1218 271.266 90.4756 272.36 91.1159M300.782 103.731C300.181 104.696 298.606 107.546 297.12 111.219C297.685 110.071 298.858 106.988 299.033 103.84C299.288 104.132 299.995 104.518 300.782 103.731Z"
        stroke="black"
        stroke-width="0.740704"
      />
      <path
        d="M282.526 110.235C283.838 111.128 287.139 111.995 289.85 108.322"
        stroke="black"
        stroke-width="0.740704"
      />
      <path
        d="M283.346 97.937C283.514 101.787 277.553 105.261 283.346 105.261"
        stroke="black"
        stroke-width="0.740704"
      />
      <path
        d="M278.317 97.5549C278.317 98.5812 277.975 99.4133 277.552 99.4133C277.13 99.4133 276.787 98.5812 276.787 97.5549C276.787 96.5286 277.13 95.6965 277.552 95.6965C277.975 95.6965 278.317 96.5286 278.317 97.5549Z"
        fill="black"
      />
      <path
        d="M278.317 97.5549C278.317 98.5812 277.975 99.4133 277.552 99.4133C277.13 99.4133 276.787 98.5812 276.787 97.5549C276.787 96.5286 277.13 95.6965 277.552 95.6965C277.975 95.6965 278.317 96.5286 278.317 97.5549Z"
        fill="black"
      />
      <path
        d="M278.317 97.5549C278.317 98.5812 277.975 99.4133 277.552 99.4133C277.13 99.4133 276.787 98.5812 276.787 97.5549C276.787 96.5286 277.13 95.6965 277.552 95.6965C277.975 95.6965 278.317 96.5286 278.317 97.5549Z"
        fill="black"
      />
      <path
        d="M278.317 97.5549C278.317 98.5812 277.975 99.4133 277.552 99.4133C277.13 99.4133 276.787 98.5812 276.787 97.5549C276.787 96.5286 277.13 95.6965 277.552 95.6965C277.975 95.6965 278.317 96.5286 278.317 97.5549Z"
        fill="black"
      />
      <path
        d="M290.124 97.5549C290.124 98.5812 289.781 99.4133 289.358 99.4133C288.936 99.4133 288.593 98.5812 288.593 97.5549C288.593 96.5286 288.936 95.6965 289.358 95.6965C289.781 95.6965 290.124 96.5286 290.124 97.5549Z"
        fill="black"
      />
      <path
        d="M290.124 97.5549C290.124 98.5812 289.781 99.4133 289.358 99.4133C288.936 99.4133 288.593 98.5812 288.593 97.5549C288.593 96.5286 288.936 95.6965 289.358 95.6965C289.781 95.6965 290.124 96.5286 290.124 97.5549Z"
        fill="black"
      />
      <path
        d="M290.124 97.5549C290.124 98.5812 289.781 99.4133 289.358 99.4133C288.936 99.4133 288.593 98.5812 288.593 97.5549C288.593 96.5286 288.936 95.6965 289.358 95.6965C289.781 95.6965 290.124 96.5286 290.124 97.5549Z"
        fill="black"
      />
      <path
        d="M290.124 97.5549C290.124 98.5812 289.781 99.4133 289.358 99.4133C288.936 99.4133 288.593 98.5812 288.593 97.5549C288.593 96.5286 288.936 95.6965 289.358 95.6965C289.781 95.6965 290.124 96.5286 290.124 97.5549Z"
        fill="black"
      />
      <path
        d="M286.626 94.5482C287.318 93.364 289.37 91.4874 292.037 93.4551M280.067 94.1656C279.192 93.2911 276.919 91.9356 274.82 93.5097"
        stroke="black"
        stroke-width="0.740704"
      />
      <path
        d="M292.638 116.576C286.429 120.336 281.925 118.871 279.411 117.505C279.629 118.992 279.502 121.185 279.411 122.096C283.565 123.976 289.978 119.199 292.638 116.576Z"
        fill="#E6E6E6"
      />
    </g>
    <mask
      id="mask2_1_6868"
      style="mask-type: alpha"
      maskUnits="userSpaceOnUse"
      x="26"
      y="40"
      width="64"
      height="64"
    >
      <circle
        cx="58"
        cy="71.9999"
        r="31"
        transform="rotate(-5.91342 58 71.9999)"
        fill="#D9D9D9"
      />
    </mask>
    <g mask="url(#mask2_1_6868)">
      <path
        d="M9.01541 35.8542L95.1535 26.9323L103.805 110.46L17.667 119.382L9.01541 35.8542Z"
        fill="#59C606"
      />
      <path
        d="M47.496 103.302C50.2604 99.4 50.2078 92.4439 49.8359 89.4536C54.4873 92.2523 60.0365 90.9133 62.2297 89.894C62.2599 97.3836 68.1561 100.324 71.1004 100.857C76.7283 102.287 82.6797 100.932 84.9518 100.075C80.6559 101.787 78.9682 110.387 78.6614 114.473C65.768 115.957 59.3658 121.628 57.7764 124.278C51.5937 120.37 42.5741 120.416 38.8372 120.927C37.5631 111.857 35.9767 109.44 35.1403 109.286C35.0557 109.296 34.9707 109.305 34.8852 109.315C34.9595 109.28 35.045 109.268 35.1403 109.286C42.3526 108.432 46.3774 104.953 47.496 103.302Z"
        fill="white"
        stroke="black"
        stroke-width="0.46349"
      />
      <path
        d="M90.8599 68.9422C91.9295 79.2691 81.5015 85.2108 76.2093 86.3026C72.8154 87.7258 48.1853 88.367 39.4952 84.0949C19.8606 75.8306 26.0217 61.7199 28.2428 58.2341C35.6178 46.6598 55.4139 48.8711 59.0733 49.0758C70.8841 49.7365 89.3454 54.3201 90.8599 68.9422Z"
        fill="#CCCCCC"
      />
      <path
        d="M75.3671 76.3714L76.2093 86.3026M76.2093 86.3026C81.5015 85.2108 91.9295 79.2691 90.8599 68.9422C89.3454 54.3201 70.8841 49.7365 59.0733 49.0758C55.4139 48.8711 35.6178 46.6598 28.2428 58.2341C26.0217 61.7199 19.8606 75.8306 39.4952 84.0949C48.1853 88.367 72.8154 87.7258 76.2093 86.3026Z"
        stroke="black"
        stroke-width="0.46349"
      />
      <path
        d="M47.6045 103.011C50.29 98.7071 50.115 92.1582 49.6917 89.4217C54.4652 92.3196 60.045 91.0054 62.2382 89.9861C62.7625 102.606 76.6064 102.291 83.4628 100.555C72.6692 94.8701 77.9195 77.1786 72.9024 65.6296C68.8886 56.3905 60.6193 56.5108 56.9863 57.7258C49.6684 55.455 43.9809 60.3781 41.4333 66.3734C38.8856 72.3687 40.0947 79.0927 40.794 90.3433C41.3535 99.3438 38.0956 106.222 36.1013 108.712C39.0137 108.488 44.919 107.315 47.6045 103.011Z"
        fill="black"
        stroke="black"
        stroke-width="0.46349"
      />
      <path
        d="M56.6558 91.1792C44.8951 91.3091 44.2232 79.3116 45.4705 71.9283C46.7178 64.545 51.2001 60.4513 57.6225 60.8094C65.6868 61.2591 67.6902 66.6447 68.3673 70.5764C69.3407 77.9217 68.1992 91.0518 56.6558 91.1792Z"
        fill="white"
        stroke="black"
        stroke-width="0.46349"
      />
      <path
        d="M41.7109 75.8035C42.1124 72.4814 44.4657 73.6076 44.9365 75.0034C44.9408 75.7385 44.9517 76.3641 44.9683 76.9106C45.0376 79.2031 45.2066 80.1033 45.4127 81.8504C44.4686 83.5325 41.2091 79.956 41.7109 75.8035Z"
        fill="white"
      />
      <path
        d="M72.5365 76.9442C71.7629 74.1539 69.6842 75.0495 68.7416 75.8461C68.5372 78.5513 67.877 81.7447 67.5724 83.0033C68.2022 85.035 73.5035 80.432 72.5365 76.9442Z"
        fill="white"
      />
      <path
        d="M44.9683 76.9106C45.0376 79.2031 45.2066 80.1033 45.4127 81.8504C44.4686 83.5325 41.2091 79.956 41.7109 75.8035C42.1124 72.4814 44.4657 73.6076 44.9365 75.0034C44.9408 75.7385 44.9517 76.3641 44.9683 76.9106ZM44.9683 76.9106C44.6524 76.0269 43.8665 74.4805 43.2498 75.3645M44.9683 76.9106C44.2571 75.9591 43.1245 75.1445 44.2836 79.4977M71.1534 77.0874C70.3176 75.4965 69.1381 77.1253 68.6528 78.1386C69.809 77.3043 71.4983 76.8187 69.0062 81.5501M68.7416 75.8461C69.6842 75.0495 71.7629 74.1539 72.5365 76.9442C73.5035 80.432 68.2022 85.035 67.5724 83.0033C67.877 81.7447 68.5372 78.5513 68.7416 75.8461Z"
        stroke="black"
        stroke-width="0.46349"
      />
      <path
        d="M68.3667 73.819C60.0206 69.5391 49.7879 70.6487 45.7109 71.9253C46.6673 67.6635 49.9079 60.2607 58.7248 61.2579C66.9629 62.1897 68.5316 70.4624 68.3667 73.819Z"
        fill="#E6E6E6"
      />
      <path
        d="M48.8243 67.0903L45.5293 71.7185C46.1107 67.8839 49.2126 60.3121 57.3382 60.6634C66.6784 61.2244 68.7182 69.1613 68.4554 73.0716L64.6349 71.2773L63.1369 67.6115L62.751 70.6337L59.4522 70.2764L58.9365 65.2973L57.8879 70.0191L53.8801 70.0148L54.0958 65.7987L52.7942 69.4283L48.4145 69.8819L48.8243 67.0903Z"
        fill="black"
        stroke="black"
        stroke-width="0.46349"
      />
      <path
        d="M75.2756 75.2077C75.2411 74.8448 75.1884 74.4423 75.1127 74.009C74.1449 68.8494 65.4329 59.6474 55.7975 60.6454C52.7086 60.9653 42.6808 63.9737 39.9964 72.9881C39.8801 67.0668 42.4335 57.1369 54.8191 55.2483C61.1812 54.5893 73.8462 57.0875 75.2581 74.9777C75.2974 75.3302 75.3597 76.1407 75.366 76.454C75.3514 76.1939 75.2943 75.4613 75.2756 75.2077Z"
        fill="#E6E6E6"
      />
      <path
        d="M75.1127 74.009C75.1884 74.4423 75.2411 74.8448 75.2757 75.2077M75.1127 74.009C75.1755 74.3439 75.2236 74.6676 75.2581 74.9777M75.1127 74.009C74.1449 68.8494 65.4329 59.6474 55.7975 60.6454C52.7086 60.9653 42.6808 63.9737 39.9964 72.9881C39.8801 67.0668 42.4335 57.1369 54.8191 55.2483C61.1812 54.5893 73.8462 57.0875 75.2581 74.9777M75.2757 75.2077C75.3025 75.4898 75.3588 76.2238 75.366 76.454M75.2757 75.2077C75.27 75.1308 75.2641 75.0541 75.2581 74.9777M75.2757 75.2077C75.2943 75.4613 75.3514 76.1939 75.366 76.454M75.366 76.454C75.3597 76.1407 75.2974 75.3302 75.2581 74.9777"
        stroke="black"
        stroke-width="0.46349"
      />
      <path
        d="M57.8467 76.3689C56.723 78.1162 60.1128 82.052 55.6565 80.4167M52.7906 83.789C53.4669 84.6198 55.7676 85.9875 59.5599 84.8119"
        stroke="black"
        stroke-width="0.46349"
      />
      <path
        d="M52.7017 76.2664C52.6975 77.2391 52.2376 78.0257 51.6745 78.0233C51.1113 78.0209 50.6582 77.2304 50.6623 76.2577C50.6665 75.285 51.1264 74.4984 51.6895 74.5008C52.2527 74.5032 52.7058 75.2937 52.7017 76.2664Z"
        fill="black"
      />
      <path
        d="M63.4754 76.8345C63.4713 77.8072 63.0114 78.5938 62.4483 78.5914C61.8851 78.589 61.4319 77.7985 61.4361 76.8258C61.4402 75.8531 61.9001 75.0665 62.4633 75.0689C63.0264 75.0713 63.4796 75.8618 63.4754 76.8345Z"
        fill="black"
      />
      <path
        d="M51.3516 74.8518C50.9595 74.8148 50.1755 74.5636 50.1767 73.8552M62.7157 75.6978C63.1088 75.7233 63.9227 75.5993 64.0336 74.8997"
        stroke="black"
        stroke-width="0.46349"
      />
      <path
        d="M48.926 72.1209C49.9279 71.1473 52.3481 69.8001 54.0132 72.1997M65.7304 74.0652C65.0403 72.8505 63.0927 70.881 60.8236 72.7201"
        stroke="black"
        stroke-width="0.46349"
      />
      <path
        d="M61.9738 90.3761C56.6674 92.2304 52.5689 91.3502 50.0871 89.8832C50.2401 92.4395 50.2218 94.4823 50.1609 95.0944C52.3447 96.0238 58.9291 92.3223 61.9738 90.3761Z"
        fill="#E6E6E6"
      />
    </g>
    <mask
      id="mask3_1_6868"
      style="mask-type: alpha"
      maskUnits="userSpaceOnUse"
      x="273"
      y="168"
      width="62"
      height="62"
    >
      <circle cx="304" cy="199" r="31" fill="#D9D9D9" />
    </mask>
    <g mask="url(#mask3_1_6868)">
      <path d="M259 158H345.599V241.975H259V158Z" fill="#59C606" />
      <path
        d="M290.148 197.641V212.715C290.131 214.999 290.86 217.225 292.223 219.056C293.587 220.888 295.51 222.224 297.703 222.863C298.564 223.104 299.455 223.225 300.35 223.223H306.223C307.673 223.217 309.102 222.877 310.4 222.23C311.698 221.583 312.83 220.647 313.709 219.494C314.675 218.25 315.333 216.794 315.628 215.247C315.752 214.617 315.814 213.977 315.812 213.335V197.641C315.826 182.941 290.148 182.941 290.148 197.641Z"
        fill="white"
        stroke="black"
        stroke-width="0.680555"
        stroke-linecap="round"
        stroke-linejoin="round"
      />
      <path
        d="M296.039 204.584C296.039 205.536 295.721 206.309 295.329 206.309C294.937 206.309 294.618 205.536 294.618 204.584C294.618 203.631 294.937 202.858 295.329 202.858C295.721 202.858 296.039 203.631 296.039 204.584Z"
        fill="black"
      />
      <path
        d="M296.039 204.584C296.039 205.536 295.721 206.309 295.329 206.309C294.937 206.309 294.618 205.536 294.618 204.584C294.618 203.631 294.937 202.858 295.329 202.858C295.721 202.858 296.039 203.631 296.039 204.584Z"
        fill="black"
      />
      <path
        d="M296.039 204.584C296.039 205.536 295.721 206.309 295.329 206.309C294.937 206.309 294.618 205.536 294.618 204.584C294.618 203.631 294.937 202.858 295.329 202.858C295.721 202.858 296.039 203.631 296.039 204.584Z"
        fill="black"
      />
      <path
        d="M296.039 204.584C296.039 205.536 295.721 206.309 295.329 206.309C294.937 206.309 294.618 205.536 294.618 204.584C294.618 203.631 294.937 202.858 295.329 202.858C295.721 202.858 296.039 203.631 296.039 204.584Z"
        fill="black"
      />
      <path
        d="M307.001 204.584C307.001 205.536 306.683 206.309 306.29 206.309C305.898 206.309 305.58 205.536 305.58 204.584C305.58 203.631 305.898 202.858 306.29 202.858C306.683 202.858 307.001 203.631 307.001 204.584Z"
        fill="black"
      />
      <path
        d="M307.001 204.584C307.001 205.536 306.683 206.309 306.29 206.309C305.898 206.309 305.58 205.536 305.58 204.584C305.58 203.631 305.898 202.858 306.29 202.858C306.683 202.858 307.001 203.631 307.001 204.584Z"
        fill="black"
      />
      <path
        d="M307.001 204.584C307.001 205.536 306.683 206.309 306.29 206.309C305.898 206.309 305.58 205.536 305.58 204.584C305.58 203.631 305.898 202.858 306.29 202.858C306.683 202.858 307.001 203.631 307.001 204.584Z"
        fill="black"
      />
      <path
        d="M307.001 204.584C307.001 205.536 306.683 206.309 306.29 206.309C305.898 206.309 305.58 205.536 305.58 204.584C305.58 203.631 305.898 202.858 306.29 202.858C306.683 202.858 307.001 203.631 307.001 204.584Z"
        fill="black"
      />
      <path
        d="M303.753 201.792C304.396 200.693 306.301 198.95 308.777 200.777M297.664 201.437C296.852 200.625 294.741 199.367 292.792 200.828"
        stroke="black"
        stroke-width="0.687707"
      />
      <path
        d="M298.5 230C298.5 234.539 315.02 233.699 316 229.5L315.5 229L313.736 219.521C313.621 219.664 313.512 219.8 313.389 219.936C313.29 220.061 313.183 220.179 313.069 220.29C313.032 220.334 312.991 220.375 312.947 220.413L312.654 220.705C312.531 220.832 312.399 220.95 312.26 221.059L311.946 221.311C311.77 221.447 311.586 221.576 311.402 221.699C311.218 221.821 310.892 222.019 310.619 222.162C310.483 222.23 310.347 222.304 310.204 222.359C310.061 222.413 309.939 222.488 309.796 222.549L309.374 222.713C308.786 222.919 308.18 223.067 307.564 223.155H307.298L306.917 223.189H306.699H300.391L299.71 226.354L298.5 230Z"
        fill="white"
        stroke="black"
        stroke-width="0.680555"
        stroke-miterlimit="10"
      />
      <path
        d="M305.826 213.6C303.042 214.964 299.898 215.414 296.843 214.886"
        stroke="black"
        stroke-width="0.680555"
        stroke-linecap="round"
        stroke-linejoin="round"
      />
      <path
        d="M288.608 194.292C286.88 199.403 288.132 205.215 290.153 210.034C290.963 203.909 290.704 197.933 291.235 195.824L291.004 195.606C295.448 197.648 302.083 198.498 311.094 196.702C312.081 200.486 313.639 203.46 315.858 205.549C316.069 214.77 315.858 217.799 313.374 220.344C320.397 219.201 328.38 202.241 320.649 194.292C318.689 183.077 310.073 178.252 290.997 180.566C288.084 180.92 285.505 182.383 284.321 185.438C283.314 188.004 284.661 191.645 288.608 194.292Z"
        fill="black"
      />
      <path
        d="M315.633 215.26H315.994C317.254 215.213 318.446 214.679 319.321 213.771C320.196 212.863 320.685 211.652 320.685 210.391C320.685 209.13 320.196 207.918 319.321 207.01C318.446 206.102 317.254 205.569 315.994 205.521H315.817V213.348C315.819 213.99 315.757 214.63 315.633 215.26Z"
        fill="white"
        stroke="black"
        stroke-width="0.680555"
        stroke-linecap="round"
        stroke-linejoin="round"
      />
      <path
        d="M319.097 210.837C318.042 209.755 317.056 209.265 315.831 209.585L319.097 210.837Z"
        fill="white"
      />
      <path
        d="M319.097 210.837C318.042 209.755 317.056 209.265 315.831 209.585"
        stroke="black"
        stroke-width="0.680555"
        stroke-linecap="round"
        stroke-linejoin="round"
      />
      <path
        d="M318.151 210.034C318.073 210.841 317.708 211.594 317.124 212.157"
        stroke="black"
        stroke-width="0.680555"
        stroke-linecap="round"
        stroke-linejoin="round"
      />
      <path
        opacity="0.15"
        d="M310.202 214.777C308.627 214.777 307.351 213.5 307.351 211.925C307.351 210.351 308.627 209.074 310.202 209.074C311.777 209.074 313.054 210.351 313.054 211.925C313.054 213.5 311.777 214.777 310.202 214.777Z"
        fill="black"
      />
      <path
        opacity="0.15"
        d="M292.052 212.279C290.477 212.279 289.2 211.003 289.2 209.428C289.2 207.853 290.477 206.576 292.052 206.576C293.627 206.576 294.903 207.853 294.903 209.428C294.903 211.003 293.627 212.279 292.052 212.279Z"
        fill="black"
      />
      <path
        opacity="0.15"
        d="M299.567 226.817C301.134 226.838 302.698 226.68 304.229 226.347C306.795 225.735 308.081 224.571 308.877 223.203L307.516 223.155H307.251L306.87 223.189H306.652H300.343L299.662 226.354L299.567 226.817Z"
        fill="black"
      />
    </g>
    <g filter="url(#filter0_f_1_6868)">
      <path
        d="M496.878 580.345L498.392 580.575L498.538 579.545C496.846 579.288 495.155 579.032 493.45 578.773L493.304 579.804C494.465 579.952 495.67 580.162 496.878 580.345ZM504.864 581.205C506.59 581.312 508.349 581.369 510.037 581.372L510.055 580.336C508.341 580.329 506.609 580.263 504.883 580.156L504.864 581.205ZM486.897 578.257L487.143 577.256C485.492 576.809 483.82 576.317 482.155 575.784L481.871 576.779C483.549 577.314 485.231 577.822 486.897 578.257ZM516.599 581.188C518.304 581.082 520.056 580.912 521.787 580.711L521.7 579.674C519.982 579.877 518.243 580.048 516.551 580.156L516.599 581.188ZM475.769 574.549L476.117 573.563C474.531 572.93 472.927 572.238 471.352 571.438L470.968 572.404C472.545 573.19 474.155 573.925 475.756 574.547L475.769 574.549ZM528.309 579.708C530.017 579.391 531.735 579.006 533.432 578.59L533.225 577.576C531.554 577.996 529.851 578.369 528.155 578.688L528.309 579.708ZM465.156 569.502L465.6 568.573C464.08 567.753 462.554 566.876 461.073 565.964L460.58 566.871C462.01 567.776 463.548 568.655 465.08 569.49L465.156 569.502ZM539.657 576.839C541.317 576.319 542.986 575.73 544.633 575.109L544.319 574.121C542.697 574.746 541.03 575.321 539.396 575.845L539.657 576.839ZM454.968 563.298L455.495 562.424C454.078 561.423 452.669 560.367 451.318 559.264L450.731 560.102C452.115 561.154 453.535 562.225 454.976 563.243L454.968 563.298ZM550.737 572.569C552.337 571.829 553.942 571.048 555.499 570.245L555.1 569.3C553.556 570.105 551.964 570.888 550.366 571.614L550.737 572.569ZM445.717 555.707L446.362 554.92C445.116 553.721 443.854 552.449 442.637 551.142L441.947 551.88C443.196 553.149 444.456 554.435 445.725 555.652L445.717 555.707ZM561.315 566.987C562.824 566.065 564.34 565.088 565.82 564.091L565.308 563.214C563.866 564.216 562.354 565.166 560.847 566.074L561.315 566.987ZM437.56 546.822L438.295 546.133C437.189 544.773 436.095 543.33 435.004 541.86L434.237 542.501C435.365 543.893 436.47 545.352 437.574 546.726L437.56 546.822ZM571.248 560.185C572.703 559.086 574.065 557.918 575.401 556.745L574.801 555.938C573.474 557.14 572.082 558.248 570.679 559.341L571.248 560.185ZM430.491 536.867L431.29 536.272C430.366 534.729 429.429 533.184 428.505 531.64L427.684 532.203C428.627 533.708 429.573 535.282 430.504 536.771L430.491 536.867ZM580.349 552.106C581.626 550.798 582.882 549.459 584.061 548.108L583.369 547.4C582.205 548.739 580.963 550.066 579.69 551.346L580.349 552.106ZM424.387 526.062L425.227 525.544C424.417 524.018 423.619 522.325 422.831 520.648L421.971 521.121C422.82 522.821 423.636 524.489 424.387 526.062ZM588.343 542.666C589.453 541.165 590.504 539.626 591.459 538.115L590.671 537.532C589.731 539.032 588.697 540.545 587.589 542.033L588.343 542.666ZM419.171 514.858L420.054 514.403C419.343 512.737 418.635 511.044 417.954 509.341L417.064 509.753C417.806 511.48 418.512 513.187 419.222 514.866L419.171 514.858ZM594.856 532.048C595.679 530.378 596.422 528.664 597.08 526.912L596.187 526.524C595.542 528.243 594.817 529.927 594.014 531.57L594.856 532.048ZM414.601 503.317L415.489 502.919C414.862 501.21 414.236 499.487 413.627 497.739L412.728 498.122C413.388 499.878 414.006 501.655 414.626 503.321L414.601 503.317ZM410.488 491.579L411.398 491.212C410.825 489.483 410.256 487.727 409.687 485.971L408.779 486.324L410.488 491.579ZM406.695 479.778L407.614 479.44L405.988 474.155L405.071 474.479C405.645 476.231 406.206 477.982 406.754 479.73L406.695 479.778ZM403.075 467.862L403.994 467.524L402.407 462.231L401.491 462.555L403.075 467.862ZM399.495 455.938L400.414 455.6L398.815 450.305L397.896 450.643L399.495 455.938ZM395.86 444.033L396.766 443.693C396.223 441.941 395.667 440.187 395.1 438.417L394.179 438.768C394.807 440.477 395.363 442.232 395.919 443.986L395.86 444.033ZM392.03 432.226L392.94 431.858C392.354 430.128 391.771 428.383 391.16 426.649L390.261 427.032C390.919 428.703 391.518 430.436 392.09 432.165L392.03 432.226ZM387.96 420.55L388.859 420.167C388.22 418.443 387.582 416.718 386.929 415.005L386.039 415.417C386.737 417.086 387.396 418.79 388.014 420.53L387.96 420.55ZM383.515 409.042L384.407 408.616C383.712 406.925 383.004 405.232 382.282 403.551L381.411 404.008C382.183 405.613 382.891 407.306 383.576 408.981L383.515 409.042ZM378.624 397.748L379.484 397.275C378.719 395.615 377.942 393.953 377.135 392.316L376.286 392.804C377.116 394.399 377.916 396.026 378.685 397.687L378.624 397.748ZM373.201 386.723L374.115 386.146C373.266 384.53 372.388 382.937 371.497 381.343L370.666 381.89C371.546 383.469 372.411 385.06 373.262 386.662L373.201 386.723ZM367.177 376.085L367.987 375.506C367.046 373.96 366.084 372.411 365.101 370.858L364.314 371.455C365.348 372.958 366.301 374.478 367.238 376.024L367.177 376.085ZM360.53 365.899L361.295 365.271C360.207 363.787 359.193 362.328 358.112 360.887L357.355 361.544C358.498 362.924 359.564 364.377 360.589 365.852L360.53 365.899ZM353.219 356.272L353.941 355.582C352.839 354.194 351.632 352.818 350.458 351.475L349.758 352.197C350.981 353.463 352.151 354.833 353.28 356.211L353.219 356.272ZM345.247 347.275L345.926 346.522C344.692 345.24 343.42 343.953 342.152 342.722L341.497 343.493C342.825 344.662 344.087 345.934 345.308 347.214L345.247 347.275ZM336.646 338.954L337.28 338.152C335.952 336.983 334.586 335.807 333.231 334.732L332.632 335.567C334.049 336.568 335.39 337.739 336.654 338.899L336.646 338.954Z"
        fill="#666666"
      />
      <path
        d="M328.635 331.199L329.198 330.344C328.506 329.818 327.802 329.29 327.082 328.774L326.531 329.631L328.635 331.199Z"
        fill="#666666"
      />
      <path
        d="M334.896 313.299L340.086 341.269L323.487 322.527L255.412 283.417L334.896 313.299Z"
        fill="#999999"
      />
      <path
        opacity="0.2"
        d="M334.896 313.299L340.086 341.269L323.487 322.527L255.412 283.417L334.896 313.299Z"
        fill="#999999"
      />
      <path
        d="M319.993 328.329L339.916 341.271L323.294 322.473L319.993 328.329Z"
        fill="#E6E6E6"
      />
      <path
        d="M323.533 322.677L255.322 283.416L305.696 354.872L323.533 322.677Z"
        fill="#F2F2F2"
      />
      <path
        d="M334.912 312.965L367.788 296.789L255.565 283.352L334.912 312.965Z"
        fill="#F2F2F2"
      />
    </g>
    <path
      d="M37.5679 201.523L36.9218 201.381C37.0823 200.28 37.2646 199.186 37.4538 198.089L38.0463 198.232C37.8601 199.318 37.6848 200.407 37.5204 201.501L37.5679 201.523ZM38.877 194.187L38.2906 194.022C38.5187 192.943 38.7585 191.857 39.0098 190.765L39.5863 190.945C39.296 192.019 39.0554 193.086 38.8295 194.165L38.877 194.187ZM40.6389 186.982L40.0685 186.78C40.3945 185.706 40.6826 184.661 41.0135 183.613L41.5848 183.834C41.2065 184.86 40.8865 185.912 40.5953 186.967L40.6389 186.982ZM42.8989 179.961L42.3405 179.714C42.6941 178.692 43.1112 177.655 43.5152 176.644L44.0675 176.913C43.6189 177.891 43.2227 178.917 42.8514 179.939L42.8989 179.961ZM45.6696 173.164L45.1234 172.873C45.575 171.884 46.0475 170.884 46.5287 169.918L47.0649 170.225C46.5362 171.169 46.0668 172.157 45.6221 173.142L45.6696 173.164ZM48.9422 166.626L48.412 166.297C48.9407 165.353 49.4903 164.398 50.0536 163.503L50.5708 163.858C49.9561 164.724 49.4204 165.671 48.9264 166.596L48.9422 166.626Z"
      fill="#666666"
    />
    <path
      d="M52.4576 160.276L51.9578 159.902C52.25 159.459 52.5492 159.012 52.8593 158.569L53.3521 158.946L52.4576 160.276Z"
      fill="#666666"
    />
    <path
      d="M45.1151 151.286L47.8321 168.361L53.5825 154.225L84.8761 117.861L45.1151 151.286Z"
      fill="#999999"
    />
    <path
      opacity="0.2"
      d="M45.1151 151.286L47.8321 168.361L53.5825 154.225L84.8761 117.861L45.1151 151.286Z"
      fill="#999999"
    />
    <path d="M56.8692 156.859L48.0063 168.361L53.7683 154.186L56.8692 156.859Z" fill="#E6E6E6" />
    <path d="M53.5515 154.357L84.9325 117.861L70.4199 169.112L53.5515 154.357Z" fill="#F2F2F2" />
    <path d="M45.0897 151.066L22.8191 148.5L84.7348 117.826L45.0897 151.066Z" fill="#F2F2F2" />
  </g>
  <defs>
    <filter
      id="filter0_f_1_6868"
      x="249.322"
      y="277.352"
      width="355.478"
      height="310.02"
      filterUnits="userSpaceOnUse"
      color-interpolation-filters="sRGB"
    >
      <feFlood flood-opacity="0" result="BackgroundImageFix" />
      <feBlend mode="normal" in="SourceGraphic" in2="BackgroundImageFix" result="shape" />
      <feGaussianBlur stdDeviation="3" result="effect1_foregroundBlur_1_6868" />
    </filter>
    <clipPath id="clip0_1_6868">
      <path
        d="M0 24C0 10.7452 10.7452 0 24 0H320C333.255 0 344 10.7452 344 24V336C344 349.255 333.255 360 320 360H24C10.7452 360 0 349.255 0 336V24Z"
        fill="white"
      />
    </clipPath>
    <clipPath id="clip1_1_6868">
      <rect
        width="201.923"
        height="347.308"
        fill="white"
        transform="translate(78.1082 26.592) rotate(4.20505)"
      />
    </clipPath>
    <clipPath id="clip2_1_6868">
      <rect
        width="201.923"
        height="243.462"
        fill="white"
        transform="translate(78.1082 26.5923) rotate(4.20505)"
      />
    </clipPath>
  </defs>
</svg>