<svg width="104" height="215" viewBox="0 0 104 215" fill="none" xmlns="http://www.w3.org/2000/svg">
<path fill-rule="evenodd" clip-rule="evenodd" d="M98.507 9.43253C97.7908 9.78679 97.0722 10.1461 96.3512 10.5104C96.1344 10.5115 95.9344 10.4516 95.7524 10.3308C92.8768 8.53345 89.9617 6.79685 87.0095 5.12098C86.2658 4.71749 85.5077 4.33819 84.734 3.98321C83.4561 3.18473 82.1794 2.38637 80.9015 1.5879C80.5422 1.48119 80.2236 1.54107 79.9434 1.76755C80.5278 0.245091 81.6057 -0.293853 83.177 0.150716C88.1976 2.9761 93.1882 5.85047 98.1477 8.77382C98.3465 8.95203 98.4663 9.17156 98.507 9.43253Z" fill="#20ECE6"/>
<path fill-rule="evenodd" clip-rule="evenodd" d="M96.351 10.5104C96.369 16.8433 96.3486 23.1908 96.2911 29.5531C96.2025 29.8444 96.0229 30.044 95.7522 30.1519C95.4504 30.1214 95.1713 30.0215 94.9138 29.8525C93.703 29.0881 92.4658 28.3895 91.2011 27.7566C90.8454 27.4394 90.4466 27.2198 90.0035 27.0979C89.5148 27.9959 88.9962 28.8742 88.4465 29.7328C88.4741 29.7805 88.5136 29.8004 88.5663 29.7926C88.3807 30.0208 88.1615 30.0608 87.9076 29.9124C87.2608 28.2105 86.662 26.4939 86.1111 24.7625C84.42 23.7676 82.7241 22.7896 81.0211 21.8283C80.5396 21.4676 80.2007 21.0086 80.0031 20.451C79.8653 17.3228 79.8055 14.1889 79.8234 11.0494C79.8246 7.95201 79.8653 4.85799 79.9432 1.76756C80.2234 1.54109 80.542 1.48121 80.9013 1.58792C82.1792 2.38639 83.4559 3.18475 84.7338 3.98322C85.5075 4.33821 86.2656 4.7175 87.0093 5.12099C89.9616 6.79687 92.8766 8.53347 95.7522 10.3308C95.9342 10.4516 96.1343 10.5115 96.351 10.5104Z" fill="#16D0CA"/>
<path fill-rule="evenodd" clip-rule="evenodd" d="M84.9733 7.63601C85.6991 7.61661 86.4177 7.67649 87.1291 7.81566C89.2477 8.77725 90.8645 10.2743 91.9796 12.3069C93.5257 14.9799 94.1653 17.8543 93.8958 20.93C93.7569 22.4293 93.0574 23.5671 91.7999 24.3433C90.8418 24.7424 89.8837 24.7424 88.9255 24.3433C86.456 22.9967 84.6787 21.0206 83.596 18.4149C82.281 15.6799 82.0019 12.8454 82.7576 9.91155C83.202 8.84827 83.9409 8.0898 84.9733 7.63601Z" fill="#FEFDFE"/>
<path fill-rule="evenodd" clip-rule="evenodd" d="M98.5066 9.43253C98.6611 9.59325 98.7617 9.7929 98.806 10.0314C98.8862 16.0595 98.8862 22.0878 98.806 28.1159C98.3724 29.7174 97.3544 30.3961 95.752 30.1519C96.0226 30.044 96.2023 29.8444 96.2909 29.5531C96.3484 23.1908 96.3687 16.8432 96.3508 10.5104C97.0718 10.1461 97.7904 9.78679 98.5066 9.43253Z" fill="#1BBEB9"/>
<path fill-rule="evenodd" clip-rule="evenodd" d="M91.7997 16.7382C91.8751 17.7051 91.7961 18.6233 91.5602 19.4928C90.838 19.1279 90.1194 18.7686 89.4044 18.4149C89.4439 19.2968 89.4044 20.1751 89.2846 21.0498C88.6427 20.6889 88.0031 20.3296 87.3684 19.9719C87.1971 19.7696 87.0977 19.5301 87.069 19.2533C87.0294 18.3751 86.9887 17.4967 86.9492 16.6185C86.9037 16.685 86.8438 16.7249 86.7695 16.7382C86.0222 16.3904 85.3036 15.9911 84.6138 15.5406C84.4569 14.5706 84.4569 13.6125 84.6138 12.6662C85.3443 13.0429 86.0629 13.442 86.7695 13.8639C86.8893 12.9892 86.9288 12.1109 86.8893 11.229C87.7169 11.5632 88.5157 11.9623 89.2846 12.4267C89.384 13.4223 89.4439 14.4204 89.4643 15.4208C90.232 15.8906 91.0104 16.3297 91.7997 16.7382Z" fill="#16D0CA"/>
<path fill-rule="evenodd" clip-rule="evenodd" d="M47.4865 44.5238C46.9631 44.1424 46.4038 43.823 45.8098 43.5657C45.7571 43.128 45.7163 42.6889 45.69 42.2482C49.762 41.7092 51.9777 39.3937 52.337 35.3018C52.3968 34.4244 52.4172 33.5462 52.3968 32.667C52.3226 30.9413 52.0423 29.2646 51.5585 27.6369C51.5022 26.2357 51.4016 24.8384 51.2591 23.4451C50.3177 20.4878 48.3021 18.8909 45.2109 18.6545C44.7786 21.4914 43.5413 23.9065 41.4982 25.9003C39.6182 27.3056 37.5024 28.0841 35.1506 28.2357C35.3819 29.0321 35.2621 29.7707 34.7913 30.4514C34.4465 30.6275 34.0872 30.7074 33.7135 30.6909C33.4938 30.3719 33.2543 30.0725 32.9949 29.7926C34.5208 28.4091 36.0777 27.0518 37.6657 25.7206C38.0221 25.1695 38.3814 24.6105 38.7436 24.0439C38.6612 23.8816 38.5414 23.7619 38.3843 23.6846C37.8169 23.8281 37.2579 24.0077 36.7076 24.2236C36.641 24.2694 36.6011 24.3293 36.5878 24.4032C36.5479 24.4032 36.5079 24.4032 36.4681 24.4032C34.6446 25.893 32.8482 27.41 31.0786 28.9543C29.5404 29.1342 28.5423 29.9725 28.0845 31.4694C27.3339 31.9797 26.6153 32.5385 25.9287 33.1461C26.028 32.6687 26.1279 32.1896 26.2281 31.7089C26.2583 29.2319 26.3382 26.7568 26.4677 24.2834C26.8174 21.4777 28.3144 19.5615 30.9589 18.5347C31.6188 16.8961 32.6966 15.5987 34.1925 14.6423C38.3427 12.4002 42.6943 11.9211 47.2469 13.2051C50.4806 14.1102 53.0951 15.8867 55.0916 18.5347C56.0162 19.8739 56.215 21.3111 55.6904 22.8463C55.1694 24.0475 54.6508 25.2452 54.1334 26.4392C53.6831 28.1792 53.7634 29.8958 54.373 31.5891C55.0508 33.0222 55.6089 34.4994 56.0497 36.0204C56.2736 39.088 54.9766 41.2039 52.1573 42.368C52.0831 41.8458 51.9034 41.3668 51.6184 40.9308C51.2794 42.1873 50.5417 43.1254 49.4027 43.7453C48.8003 44.1064 48.1619 44.3659 47.4865 44.5238Z" fill="#1C2E35"/>
<path fill-rule="evenodd" clip-rule="evenodd" d="M84.6145 12.6662C84.4576 13.6125 84.4576 14.5706 84.6145 15.5406C84.4564 15.0883 84.3762 14.5893 84.375 14.0435C84.4145 13.5444 84.4552 13.0455 84.4948 12.5464C84.5678 12.5613 84.6073 12.6012 84.6145 12.6662Z" fill="#ECB5E6"/>
<path fill-rule="evenodd" clip-rule="evenodd" d="M87.3684 19.9719C87.1863 19.9705 87.0474 19.8908 86.9492 19.7323C86.9252 18.725 86.8653 17.7269 86.7695 16.7382C86.8438 16.7249 86.9037 16.685 86.9492 16.6184C86.9887 17.4967 87.0294 18.375 87.0689 19.2533C87.0977 19.5301 87.1971 19.7696 87.3684 19.9719Z" fill="#DC89D7"/>
<path fill-rule="evenodd" clip-rule="evenodd" d="M91.8001 16.7382C91.9582 17.7174 91.9582 18.7154 91.8001 19.7323C91.6779 19.6898 91.5977 19.6099 91.5605 19.4928C91.7965 18.6233 91.8755 17.7051 91.8001 16.7382Z" fill="#DE93D8"/>
<path fill-rule="evenodd" clip-rule="evenodd" d="M51.5589 27.6368C51.1637 27.7307 50.7649 27.8505 50.3613 27.9961C49.8056 27.7925 49.2271 27.593 48.6247 27.3973C48.257 27.4615 47.9372 27.6213 47.6665 27.8764C47.4234 28.5748 47.6438 29.0139 48.3253 29.1938C48.5492 29.2734 48.7887 29.3532 49.0438 29.4333C48.9121 29.9054 48.8917 30.3845 48.984 30.8705C49.0906 31.3122 49.2702 31.7114 49.5229 32.0681C49.8654 32.1679 50.184 32.3276 50.481 32.5472C51.1146 32.6664 51.7541 32.7063 52.3973 32.667C52.4176 33.5462 52.3973 34.4244 52.3374 35.3018C51.9781 39.3937 49.7624 41.7091 45.6904 42.2482C42.591 42.532 39.7965 41.7736 37.3068 39.9727C36.9052 39.5512 36.526 39.112 36.1691 38.6552C36.6123 40.7369 37.8699 42.1142 39.9417 42.7871C41.8395 43.4486 43.7956 43.748 45.8102 43.6854C45.779 44.2571 45.979 44.6963 46.409 45.0028C46.3204 44.9871 46.2401 45.0071 46.1695 45.0627C46.3599 45.3144 46.5994 45.4941 46.8881 45.6016C47.2402 47.4246 47.3204 49.2609 47.1276 51.1108C44.0844 52.4345 41.0108 52.5142 37.9057 51.3504C37.3047 50.8093 36.7259 50.2503 36.1691 49.6736C35.8116 49.0975 35.3924 48.5785 34.9115 48.1167C34.7854 46.8024 34.7055 45.485 34.672 44.1644C34.5846 41.566 34.4449 38.9711 34.2528 36.3797C33.9201 36.7758 33.5009 37.0353 32.9953 37.1582C30.4417 37.4179 28.8049 36.3202 28.0849 33.8646C27.9925 33.3913 27.9526 32.9123 27.9652 32.4274C27.9533 32.0996 27.9933 31.7802 28.0849 31.4693C28.5428 29.9725 29.5408 29.1341 31.079 28.9542C31.3618 28.9751 31.6412 29.015 31.9174 29.074C32.2714 29.3059 32.6307 29.5454 32.9953 29.7926C33.2547 30.0725 33.4942 30.3719 33.7139 30.6908C34.0877 30.7074 34.447 30.6275 34.7918 30.4513C35.2626 29.7707 35.3823 29.0321 35.1511 28.2357C37.5028 28.084 39.6187 27.3056 41.4986 25.9002C43.5417 23.9065 44.779 21.4913 45.2114 18.6544C48.3025 18.8909 50.3181 20.4878 51.2595 23.445C51.402 24.8384 51.5026 26.2357 51.5589 27.6368Z" fill="#FEBDA7"/>
<path fill-rule="evenodd" clip-rule="evenodd" d="M48.4448 23.9241C49.6089 23.7326 50.2473 24.2117 50.3611 25.3613C49.5191 25.3008 48.6808 25.2009 47.846 25.0619C47.7657 24.7934 47.8256 24.5338 48.0256 24.2834C48.2077 24.204 48.3478 24.0842 48.4448 23.9241Z" fill="#203136"/>
<path fill-rule="evenodd" clip-rule="evenodd" d="M38.3844 23.6846C37.9673 24.2937 37.4084 24.7329 36.7077 25.002C36.7237 24.7874 36.6838 24.5879 36.5879 24.4032C36.6012 24.3293 36.6411 24.2694 36.7077 24.2235C37.258 24.0077 37.8169 23.8281 38.3844 23.6846Z" fill="#F8A5A4"/>
<path fill-rule="evenodd" clip-rule="evenodd" d="M38.385 23.6846C38.5421 23.7618 38.6619 23.8816 38.7443 24.0439C38.3821 24.6105 38.0228 25.1694 37.6664 25.7206C37.502 25.7394 37.3422 25.7194 37.1873 25.6607C37.0033 25.4563 36.8036 25.2766 36.5885 25.1218C36.5107 24.89 36.4708 24.6505 36.4688 24.4032C36.5086 24.4032 36.5486 24.4032 36.5885 24.4032C36.6844 24.5879 36.7243 24.7874 36.7083 25.002C37.409 24.7329 37.968 24.2937 38.385 23.6846Z" fill="#F98E90"/>
<path fill-rule="evenodd" clip-rule="evenodd" d="M36.5878 25.1218C36.8029 25.2766 37.0026 25.4563 37.1867 25.6607C37.3415 25.7194 37.5013 25.7394 37.6657 25.7206C36.0778 27.0518 34.5208 28.4091 32.9949 29.7926C32.6303 29.5454 32.271 29.3059 31.917 29.074C33.5454 27.8407 35.1024 26.5233 36.5878 25.1218Z" fill="#A752A2"/>
<path fill-rule="evenodd" clip-rule="evenodd" d="M36.4685 24.4032C36.4706 24.6505 36.5105 24.89 36.5883 25.1218C35.1029 26.5233 33.5459 27.8407 31.9175 29.074C31.6413 29.015 31.3619 28.9751 31.0791 28.9542C32.8486 27.41 34.6451 25.8929 36.4685 24.4032Z" fill="#CE67C9"/>
<path fill-rule="evenodd" clip-rule="evenodd" d="M91.2009 27.7566C91.0739 28.0489 90.9147 28.3285 90.7218 28.595C89.9996 28.9956 89.2811 29.3949 88.5661 29.7926C88.5134 29.8004 88.4738 29.7805 88.4463 29.7327C88.996 28.8741 89.5146 27.9959 90.0032 27.0979C90.4464 27.2198 90.8452 27.4393 91.2009 27.7566Z" fill="#1BBEB9"/>
<path fill-rule="evenodd" clip-rule="evenodd" d="M51.5589 27.6368C52.0427 29.2646 52.323 30.9413 52.3972 32.667C51.7541 32.7063 51.1145 32.6664 50.481 32.5472C50.184 32.3276 49.8654 32.1679 49.5228 32.0682C49.2701 31.7114 49.0905 31.3122 48.9839 30.8705C48.8917 30.3845 48.912 29.9054 49.0438 29.4333C48.7887 29.3532 48.5492 29.2734 48.3252 29.1938C48.7108 29.2294 49.0701 29.1495 49.4031 28.9543C49.7264 28.6341 50.0462 28.3147 50.3612 27.9961C50.7648 27.8505 51.1636 27.7307 51.5589 27.6368Z" fill="#FCA8A6"/>
<path fill-rule="evenodd" clip-rule="evenodd" d="M44.0137 27.1578C45.4461 28.7314 46.8234 30.3681 48.1456 32.0682C48.2031 32.1818 48.2234 32.3015 48.2055 32.4275C47.1803 32.6496 46.1814 32.969 45.2113 33.3856C44.761 31.3215 44.361 29.2456 44.0137 27.1578Z" fill="#FE9B7B"/>
<path fill-rule="evenodd" clip-rule="evenodd" d="M50.3607 27.9962C50.0457 28.3147 49.726 28.6342 49.4026 28.9543C49.0697 29.1495 48.7104 29.2294 48.3247 29.1938C47.6432 29.0139 47.4229 28.5749 47.666 27.8764C47.9367 27.6213 48.2564 27.4615 48.6241 27.3973C49.2265 27.593 49.805 27.7926 50.3607 27.9962Z" fill="#203037"/>
<path fill-rule="evenodd" clip-rule="evenodd" d="M40.7799 30.0321C40.1812 29.9546 39.6223 29.755 39.1032 29.4333C39.0633 29.3934 39.0233 29.3534 38.9834 29.3135C39.1154 29.2326 39.2351 29.1528 39.3427 29.074C39.6644 28.7811 40.0237 28.5215 40.4206 28.2955C41.1333 28.1524 41.6124 28.412 41.8578 29.074C41.7231 29.6478 41.3639 29.9672 40.7799 30.0321Z" fill="#203036"/>
<path fill-rule="evenodd" clip-rule="evenodd" d="M39.3432 29.074C39.2356 29.1528 39.1159 29.2326 38.9839 29.3135C39.0238 29.3534 39.0638 29.3934 39.1037 29.4333C39.6228 29.755 40.1817 29.9546 40.7804 30.0321C41.6727 31.7256 41.2934 33.043 39.6426 33.9844C38.6539 34.2933 37.7957 34.0937 37.0676 33.3856C36.9058 33.0627 36.6863 32.7831 36.4089 32.5472C36.0876 31.371 36.387 30.4129 37.3072 29.6728C37.9662 29.3999 38.6448 29.2002 39.3432 29.074Z" fill="#FEA9A7"/>
<path fill-rule="evenodd" clip-rule="evenodd" d="M28.0845 31.4693C27.9929 31.7802 27.9529 32.0997 27.9647 32.4275C27.4398 32.9919 26.9207 33.5509 26.4078 34.1042C26.3679 34.1042 26.3279 34.1042 26.288 34.1042C26.1012 33.8103 25.9814 33.491 25.9287 33.146C26.6153 32.5385 27.3339 31.9796 28.0845 31.4693Z" fill="#CF68C9"/>
<path fill-rule="evenodd" clip-rule="evenodd" d="M27.9652 32.4275C27.9526 32.9123 27.9925 33.3914 28.0849 33.8647C27.7278 34.1011 27.3685 34.3406 27.007 34.5833C26.7377 34.5138 26.5381 34.3542 26.4082 34.1042C26.9212 33.5509 27.4402 32.9919 27.9652 32.4275Z" fill="#AA53A3"/>
<path fill-rule="evenodd" clip-rule="evenodd" d="M25.8098 34.3437C25.7531 34.5121 25.6333 34.592 25.4505 34.5832C25.4106 34.4635 25.3307 34.3836 25.2109 34.3437C25.2501 33.3979 25.4497 33.3979 25.8098 34.3437Z" fill="#D36ECD"/>
<path fill-rule="evenodd" clip-rule="evenodd" d="M26.288 34.1042C26.3279 34.1042 26.3679 34.1042 26.4078 34.1042C26.5377 34.3541 26.7372 34.5138 27.0066 34.5832C26.9153 34.7942 26.7556 34.914 26.5275 34.9425C26.2081 34.8626 26.0086 34.6631 25.9287 34.3437C26.0233 34.2358 26.1431 34.1559 26.288 34.1042Z" fill="#BAB7B9"/>
<path fill-rule="evenodd" clip-rule="evenodd" d="M25.8095 34.3437C25.8494 34.3437 25.8894 34.3437 25.9293 34.3437C26.0091 34.6631 26.2087 34.8626 26.5281 34.9425C26.491 35.1394 26.3712 35.2591 26.1688 35.3018C25.8894 35.1021 25.6498 34.8626 25.4502 34.5832C25.6331 34.5919 25.7528 34.512 25.8095 34.3437Z" fill="#A756A2"/>
<path fill-rule="evenodd" clip-rule="evenodd" d="M28.0852 33.8647C28.8052 36.3202 30.4419 37.418 32.9955 37.1582C33.5012 37.0353 33.9204 36.7758 34.2531 36.3797C34.4452 38.9711 34.5848 41.5661 34.6723 44.1645C34.3898 44.4075 34.1103 44.647 33.8339 44.8831C32.0464 44.5583 30.5493 43.7199 29.3427 42.368C29.4565 42.8763 29.676 43.3553 30.0014 43.8052C27.3321 43.832 25.5156 42.5945 24.5521 40.0925C24.2584 38.8607 24.3582 37.663 24.8515 36.4995C25.2076 36.2233 25.527 35.9039 25.8096 35.5414C25.9925 35.5501 26.1123 35.4702 26.1689 35.3018C26.3713 35.2592 26.4911 35.1394 26.5282 34.9425C26.7562 34.914 26.916 34.7943 27.0073 34.5833C27.3687 34.3406 27.728 34.1011 28.0852 33.8647Z" fill="#1C2F35"/>
<path fill-rule="evenodd" clip-rule="evenodd" d="M25.2101 34.8227C25.2101 34.8626 25.2101 34.9026 25.2101 34.9425C24.6288 35.4909 24.0299 36.01 23.4136 36.4995C22.9442 36.0853 22.9442 35.6661 23.4136 35.2419C23.8727 34.8626 24.3319 34.4835 24.7909 34.1042C24.8628 34.3928 25.0024 34.6323 25.2101 34.8227Z" fill="#FD9191"/>
<path fill-rule="evenodd" clip-rule="evenodd" d="M25.2109 34.3437C25.3307 34.3835 25.4106 34.4634 25.4505 34.5832C25.6501 34.8626 25.8896 35.1021 26.1691 35.3018C26.1124 35.4702 25.9926 35.5501 25.8098 35.5413C25.5819 35.368 25.3822 35.1684 25.2109 34.9425C25.2109 34.9026 25.2109 34.8626 25.2109 34.8227C25.3132 34.6871 25.3132 34.5275 25.2109 34.3437Z" fill="#BEB5BB"/>
<path fill-rule="evenodd" clip-rule="evenodd" d="M25.2105 34.9425C25.3818 35.1684 25.5815 35.368 25.8094 35.5413C25.5267 35.9038 25.2073 36.2233 24.8512 36.4994C24.59 36.69 24.3106 36.8496 24.0129 36.9785C23.7421 36.9072 23.5425 36.7475 23.4141 36.4994C24.0304 36.01 24.6292 35.4909 25.2105 34.9425Z" fill="#D97474"/>
<path fill-rule="evenodd" clip-rule="evenodd" d="M44.2535 37.3378C43.9553 37.1893 43.736 36.9498 43.5948 36.6192C43.0831 36.1092 42.4643 35.8697 41.7384 35.9006C41.6219 35.6074 41.582 35.288 41.6186 34.9425C42.9486 35.2051 44.2666 35.5245 45.5709 35.9006C45.699 36.1027 45.6787 36.3023 45.511 36.4994C45.1984 36.9448 44.7792 37.2243 44.2535 37.3378Z" fill="#C76668"/>
<path fill-rule="evenodd" clip-rule="evenodd" d="M41.7383 35.9006C42.4642 35.8697 43.083 36.1093 43.5946 36.6192C43.7358 36.9498 43.9551 37.1893 44.2534 37.3378C43.3351 37.6098 42.5566 37.3703 41.9179 36.6192C41.8206 36.3874 41.7607 36.1478 41.7383 35.9006Z" fill="#FD8F8F"/>
<path fill-rule="evenodd" clip-rule="evenodd" d="M45.6903 42.2482C45.7166 42.6888 45.7574 43.128 45.8101 43.5656C45.8101 43.6055 45.8101 43.6455 45.8101 43.6854C43.7955 43.748 41.8394 43.4486 39.9416 42.7871C37.8697 42.1142 36.6122 40.7369 36.1689 38.6552C36.5258 39.112 36.905 39.5512 37.3067 39.9727C39.7964 41.7736 42.5909 42.532 45.6903 42.2482Z" fill="#FD9B7A"/>
<path fill-rule="evenodd" clip-rule="evenodd" d="M46.4095 45.0029C46.6538 45.2037 46.8933 45.4034 47.128 45.6017C47.0478 45.6017 46.9688 45.6017 46.8885 45.6017C46.5999 45.4941 46.3603 45.3145 46.1699 45.0627C46.2406 45.0072 46.3208 44.9872 46.4095 45.0029Z" fill="#FCF3F4"/>
<path fill-rule="evenodd" clip-rule="evenodd" d="M102.938 44.7633C102.938 44.883 102.938 45.0028 102.938 45.1226C101.001 45.5668 99.0851 46.0857 97.1892 46.6795C97.0826 46.5807 97.0431 46.4609 97.0694 46.3202C97.0694 46.2005 97.0694 46.0807 97.0694 45.9609C98.8755 45.454 100.692 44.935 102.519 44.404C102.715 44.4612 102.855 44.581 102.938 44.7633Z" fill="#D16ACB"/>
<path fill-rule="evenodd" clip-rule="evenodd" d="M102.938 44.7632C103.081 44.8071 103.161 44.9068 103.178 45.0626C102.023 48.2258 100.906 51.3995 99.8245 54.584C99.088 54.6831 98.3287 54.743 97.549 54.7636C97.3969 54.8006 97.258 54.8605 97.1298 54.9433C96.9909 55.5235 97.1705 55.9827 97.6687 56.3206C98.1131 56.5197 98.5526 56.6994 98.9862 56.8595C98.8987 57.0042 98.858 57.1638 98.8664 57.3386C97.3622 57.1569 95.8854 57.2965 94.4351 57.7578C93.8997 58.4702 94.059 59.0092 94.9141 59.3746C94.1393 59.4856 93.3812 59.6653 92.6386 59.9135C92.4362 60.1426 92.3763 60.4022 92.459 60.692C92.7009 61.0341 93.0003 61.3135 93.3572 61.5304C92.5644 61.7954 92.4242 62.2745 92.938 62.9676C93.9381 63.6326 95.0351 64.0718 96.2316 64.285C95.8807 65.5384 95.4806 66.776 95.0339 67.9977C94.3285 70.0142 93.6099 72.0303 92.8781 74.0458C87.5594 75.5649 82.2502 77.102 76.9494 78.6568C74.2774 79.4344 71.603 80.1929 68.9251 80.9323C68.8365 80.948 68.7562 80.928 68.6855 80.8725C71.6988 71.3723 74.6535 61.851 77.5482 52.3084C77.4667 52.067 77.3877 51.8275 77.3086 51.5899C77.444 51.7352 77.6033 51.855 77.7877 51.9491C79.8177 51.3355 81.8537 50.7366 83.8957 50.1527C83.9245 50.2242 83.9844 50.264 84.0754 50.2724C84.5197 50.0257 84.9784 49.946 85.4527 50.0329C85.279 50.2866 85.2 50.566 85.2132 50.8713C85.7677 50.7538 86.327 50.7338 86.8899 50.8114C87.012 50.937 87.0312 51.0768 86.9498 51.2306C86.03 51.6804 85.091 52.1196 84.1353 52.548C83.9053 52.9098 83.7856 53.309 83.776 53.7456C87.7258 52.6883 91.6781 51.6503 95.6327 50.6317C95.6771 50.1846 95.7573 49.7456 95.8723 49.3143C95.0998 49.2518 94.3608 49.3716 93.6566 49.6736C93.6422 49.281 93.7824 48.9417 94.0758 48.6556C94.5513 48.3309 95.0698 48.1114 95.6327 47.9969C95.713 47.6376 95.792 47.2783 95.8723 46.919C96.234 46.8946 96.5933 46.8547 96.9502 46.7992C96.9178 46.6077 96.9585 46.4481 97.0699 46.3202C97.0436 46.4609 97.0831 46.5807 97.1897 46.6795C99.0856 46.0857 101.002 45.5667 102.938 45.1225C102.938 45.0028 102.938 44.883 102.938 44.7632Z" fill="#9D4D99"/>
<path fill-rule="evenodd" clip-rule="evenodd" d="M97.0693 45.9609C97.0693 46.0807 97.0693 46.2005 97.0693 46.3202C96.958 46.4482 96.9172 46.6078 96.9496 46.7993C96.5927 46.8548 96.2334 46.8946 95.8717 46.9191C95.7914 47.2784 95.7124 47.6377 95.6322 47.997C95.0693 48.1115 94.5507 48.331 94.0752 48.6557C93.7818 48.9418 93.6417 49.2811 93.656 49.6737C94.3602 49.3716 95.0992 49.2519 95.8717 49.3144C95.7567 49.7457 95.6765 50.1847 95.6322 50.6318C91.6775 51.6504 87.7253 52.6884 83.7754 53.7457C83.785 53.309 83.9047 52.9099 84.1347 52.548C85.0904 52.1196 86.0294 51.6805 86.9492 51.2306C87.0306 51.0768 87.0114 50.9371 86.8893 50.8114C86.3264 50.7338 85.7671 50.7538 85.2126 50.8713C85.1994 50.566 85.2784 50.2866 85.4521 50.033C84.9778 49.946 84.5191 50.0258 84.0748 50.2725C83.9838 50.2641 83.9239 50.2242 83.8952 50.1527C83.9982 49.9227 84.0784 49.6831 84.1347 49.4341C84.403 49.1771 84.7227 48.9975 85.0928 48.8952C85.8725 48.745 86.6306 48.5254 87.3683 48.2365C88.0474 47.0574 89.0463 46.2789 90.3625 45.9011C91.4607 45.5842 92.5781 45.4644 93.7159 45.5418C94.165 45.6115 94.365 45.871 94.3147 46.3202C95.2142 46.0655 96.1328 45.9457 97.0693 45.9609Z" fill="#2B454E"/>
<path fill-rule="evenodd" clip-rule="evenodd" d="M48.6846 45.8411C49.9398 45.9664 51.1769 46.0862 52.3973 46.2004C52.2716 46.1826 52.1518 46.2025 52.038 46.2603C54.1795 49.1258 56.1963 52.1 58.0862 55.1828C60.7079 60.0638 60.7079 64.9341 58.0862 69.7942C58.0263 70.2316 58.006 70.6707 58.0263 71.1116C58.0263 71.391 58.0263 71.6706 58.0263 71.95C58.0263 73.8713 58.1269 75.7875 58.3257 77.6987C58.8515 80.4508 59.3497 83.2054 59.8228 85.9625C59.7713 86.3574 59.6515 86.7167 59.4635 87.0404C59.206 87.7137 58.8275 88.3126 58.3257 88.8369C57.9065 89.0964 57.5676 89.4357 57.3077 89.8549C56.1592 90.8888 54.8418 91.6473 53.3555 92.1304C52.7854 92.4306 52.2261 92.75 51.6788 93.0886C45.4222 94.8867 39.0748 95.2061 32.6361 94.0467C31.6262 93.7194 30.6082 93.42 29.5821 93.1484C29.4358 93.056 29.3161 92.9362 29.2228 92.7891C29.1207 92.9174 29.021 93.0372 28.9233 93.1484C28.7006 91.8916 28.4012 90.6541 28.0251 89.4357C26.5835 87.4554 25.1663 85.4594 23.7734 83.4475C24.6494 81.4147 25.4279 79.3387 26.1089 77.2197C26.4395 75.9095 26.4795 74.5921 26.2286 73.2674C25.5643 71.0102 24.8258 68.7746 24.013 66.5605C24.0822 66.2168 24.2818 66.0172 24.6118 65.9617C24.6247 65.6883 24.7245 65.4488 24.9112 65.2431C25.8606 64.1766 26.7787 63.0987 27.6658 62.0095C29.3831 57.6401 29.5828 53.2088 28.2646 48.7155C28.1249 48.4361 27.9852 48.1566 27.8455 47.8772C27.7467 47.771 27.6269 47.7312 27.4862 47.7574C28.8042 47.3283 30.1615 47.0089 31.5582 46.7993C31.6239 47.0868 31.7237 47.3664 31.8576 47.6376C32.6401 48.596 33.3389 49.5941 33.9535 50.6318C34.4312 53.7573 35.0699 56.8512 35.8697 59.9136C35.7877 60.2561 35.588 60.5156 35.2709 60.692C33.7146 62.8263 32.9361 65.2216 32.9355 67.878C33.0972 68.5846 33.2369 69.3032 33.3547 70.0337C33.3842 70.179 33.4641 70.2589 33.5942 70.2733C33.714 70.6724 33.8337 71.0717 33.9535 71.4709C33.292 70.757 32.6533 69.9985 32.0372 69.1954C31.8902 68.9773 31.6906 68.8575 31.4384 68.8361C31.6044 69.6473 31.9038 70.4057 32.3367 71.1116C32.839 71.6139 33.3379 72.1129 33.8337 72.6087C33.9833 72.6973 34.1031 72.6773 34.193 72.5488C34.8229 74.4163 35.5615 76.2527 36.4087 78.058C36.6234 78.3928 36.8829 78.6922 37.1872 78.9563C37.6124 79.2279 38.0116 79.5273 38.3848 79.8545C38.0769 80.1482 37.7176 80.3478 37.3069 80.4533C36.7768 79.9454 36.2779 79.9854 35.8099 80.5731C35.5903 81.631 36.0095 82.0502 37.0674 81.8306C37.3349 81.6344 37.4946 81.3749 37.5464 81.0521C38.1281 80.8109 38.6671 80.4915 39.1633 80.094C39.7086 80.3767 40.2874 80.5364 40.8999 80.5731C41.1664 81.1251 41.6054 81.3047 42.2173 81.112C42.8834 80.4937 42.8435 79.9349 42.0975 79.4353C41.5358 79.2593 41.1367 79.4389 40.8999 79.9743C40.4632 79.965 40.064 79.8453 39.7022 79.615C40.4126 78.9536 40.9116 78.1553 41.1993 77.2197C41.4061 75.6881 41.5858 74.171 41.7382 72.6686C41.7041 72.8827 41.744 73.0824 41.858 73.2674C43.5413 72.7813 44.7384 71.7433 45.451 70.1535C45.3911 70.0312 45.3108 70.0112 45.2114 70.0936C44.6713 70.7335 44.0329 71.2525 43.2952 71.6506C42.8192 71.9622 42.3003 72.1418 41.7382 72.1895C41.7382 71.1915 41.7382 70.1934 41.7382 69.1954C41.9774 67.616 41.7578 66.099 41.0795 64.6443C40.1939 63.1323 39.096 61.7948 37.786 60.6322C37.5084 60.3935 37.1891 60.2538 36.8279 60.213C36.2265 57.6798 35.7475 55.1249 35.3907 52.548C35.3719 52.3836 35.3919 52.2238 35.4506 52.0689C35.854 52.6413 36.353 53.1204 36.9476 53.5061C37.0537 53.6049 37.0936 53.7247 37.0674 53.8654C37.1934 53.8476 37.3131 53.8675 37.4267 53.9253C37.8885 54.2966 38.3277 54.6958 38.7441 55.123C41.088 56.687 43.5632 58.0044 46.1695 59.0752C46.5612 59.2334 46.96 59.3132 47.3672 59.3147C48.4319 55.6857 48.9912 51.993 49.0439 48.2365C49.9565 49.875 50.5745 51.6316 50.9003 53.5061C51.2608 55.5876 51.5195 57.6637 51.6788 59.7339C49.2272 61.0173 48.8679 62.7539 50.6009 64.9437C51.8261 65.6587 53.0632 65.6587 54.3136 64.9437C55.6166 63.5656 55.716 62.1085 54.613 60.5723C54.0597 60.0465 53.401 59.767 52.6369 59.7339C52.5494 55.7009 51.7314 51.8285 50.1817 48.1167C49.7805 47.2882 49.2811 46.5296 48.6846 45.8411Z" fill="#EBB4E6"/>
<path fill-rule="evenodd" clip-rule="evenodd" d="M33.5946 46.2005C33.6102 47.6888 33.7299 49.1659 33.9539 50.6318C33.3393 49.5941 32.6406 48.596 31.858 47.6377C31.7241 47.3664 31.6243 47.0869 31.5586 46.7993C32.2129 46.5282 32.8916 46.3285 33.5946 46.2005Z" fill="#E297DC"/>
<path fill-rule="evenodd" clip-rule="evenodd" d="M52.3974 46.2005C55.1664 46.4971 57.4623 47.6948 59.2839 49.7934C59.9917 50.7707 60.6708 51.7687 61.3199 52.7876C63.181 56.1906 64.9775 59.6239 66.7093 63.0874C66.9165 63.4608 67.0159 63.86 67.0087 64.285C64.8182 67.5897 61.8241 69.8652 58.0264 71.1116C58.006 70.6707 58.0264 70.2316 58.0862 69.7942C60.7079 64.9342 60.7079 60.0638 58.0862 55.1829C56.1963 52.1 54.1795 49.1259 52.0381 46.2603C52.1519 46.2025 52.2716 46.1826 52.3974 46.2005Z" fill="#E197DB"/>
<path fill-rule="evenodd" clip-rule="evenodd" d="M46.8886 45.6016C46.9689 45.6016 47.0479 45.6016 47.1282 45.6016C47.9977 46.3114 48.636 47.1896 49.0444 48.2365C48.9917 51.993 48.4324 55.6858 47.3677 59.3148C46.9605 59.3132 46.5617 59.2335 46.17 59.0752C43.5637 58.0044 41.0885 56.687 38.7446 55.123C38.3282 54.6958 37.889 54.2966 37.4272 53.9253C37.3136 53.8675 37.1939 53.8476 37.0679 53.8655C37.0941 53.7247 37.0542 53.605 36.9481 53.5062C36.3535 53.1204 35.8545 52.6413 35.4511 52.069C35.3924 52.2238 35.3724 52.3836 35.3912 52.548C35.2407 51.0851 35.0811 49.608 34.9121 48.1167C35.393 48.5785 35.8121 49.0975 36.1696 49.6737C36.7264 50.2503 37.3053 50.8093 37.9062 51.3504C39.9595 53.4168 42.3148 55.0735 44.9724 56.3206C45.4179 56.4757 45.8563 56.6155 46.2898 56.7398C46.6575 54.8773 46.9365 53.001 47.1282 51.1109C47.321 49.261 47.2407 47.4246 46.8886 45.6016Z" fill="#E297DC"/>
<path fill-rule="evenodd" clip-rule="evenodd" d="M27.4862 47.7574C27.627 47.7312 27.7467 47.771 27.8455 47.8772C27.9853 48.1566 28.125 48.4361 28.2647 48.7155C29.5829 53.2087 29.3832 57.6401 27.6659 62.0095C26.7788 63.0987 25.8607 64.1766 24.9113 65.2431C24.7246 65.4488 24.6248 65.6883 24.6119 65.9617C24.2819 66.0172 24.0823 66.2168 24.0131 66.5605C22.7367 67.9974 21.4992 69.4744 20.3003 70.9919C20.1153 71.1059 19.9156 71.1458 19.7015 71.1116C17.6009 71.1055 15.7646 70.4069 14.1923 69.0157C13.1604 68.1043 12.2622 67.0863 11.4976 65.9617C11.17 65.398 10.9505 64.7992 10.8389 64.1652C13.4418 59.944 16.2164 55.832 19.1626 51.8294C21.386 49.3704 24.1606 48.0131 27.4862 47.7574Z" fill="#E197DB"/>
<path fill-rule="evenodd" clip-rule="evenodd" d="M84.1352 49.4341C84.0789 49.6831 83.9987 49.9227 83.8957 50.1527C81.8537 50.7367 79.8177 51.3355 77.7877 51.9492C77.6032 51.8551 77.4439 51.7353 77.3086 51.5899C77.3086 51.51 77.3086 51.4303 77.3086 51.3504C79.547 50.6209 81.8225 49.9822 84.1352 49.4341Z" fill="#D16ACB"/>
<path fill-rule="evenodd" clip-rule="evenodd" d="M47.1282 51.1108C46.9366 53.0009 46.6575 54.8773 46.2898 56.7398C45.8563 56.6155 45.4179 56.4757 44.9724 56.3206C42.3148 55.0735 39.9595 53.4168 37.9062 51.3503C41.0114 52.5142 44.0849 52.4345 47.1282 51.1108Z" fill="#FEFDFD"/>
<path fill-rule="evenodd" clip-rule="evenodd" d="M99.8244 54.584C101.424 54.6635 102.583 55.4021 103.298 56.7996C103.262 57.0257 103.202 57.2454 103.118 57.4583C102.836 57.7823 102.617 58.1416 102.459 58.5362C103.038 59.6176 102.918 60.5957 102.1 61.4705C102.401 62.058 102.5 62.6768 102.399 63.3268C102.066 63.8027 101.606 64.0022 101.022 63.9257C101.109 64.6173 100.969 65.256 100.603 65.8419C99.7717 66.417 98.9141 66.936 98.0279 67.3989C98.1896 66.829 98.1692 66.2702 97.968 65.7221C97.4183 65.1992 96.8398 64.7202 96.2314 64.285C95.0349 64.0718 93.9379 63.6326 92.9378 62.9675C92.4241 62.2745 92.5642 61.7954 93.357 61.5304C93.0001 61.3135 92.7007 61.034 92.4588 60.692C92.3762 60.4022 92.436 60.1426 92.6384 59.9135C93.381 59.6653 94.1391 59.4856 94.914 59.3746C94.0589 59.0092 93.8996 58.4702 94.4349 57.7577C95.8853 57.2965 97.362 57.1569 98.8662 57.3386C99.2698 57.3929 99.6687 57.4727 100.064 57.5781C100.184 57.5382 100.303 57.4982 100.423 57.4583C100.034 57.0645 99.5549 56.865 98.986 56.8595C98.5524 56.6994 98.1129 56.5197 97.6686 56.3206C97.1704 55.9827 96.9907 55.5235 97.1296 54.9433C97.2578 54.8605 97.3967 54.8006 97.5488 54.7636C98.3285 54.743 99.0878 54.6831 99.8244 54.584Z" fill="#FEBDA7"/>
<path fill-rule="evenodd" clip-rule="evenodd" d="M45.8098 43.5656C46.4038 43.823 46.9631 44.1424 47.4865 44.5238C47.8889 44.9659 48.2889 45.4051 48.6842 45.8412C49.2806 46.5296 49.78 47.2882 50.1812 48.1167C51.731 51.8285 52.549 55.701 52.6364 59.734C52.3166 59.734 51.9981 59.734 51.6783 59.734C51.519 57.6637 51.2603 55.5877 50.8998 53.5062C50.5741 51.6316 49.9561 49.875 49.0435 48.2365C48.6351 47.1896 47.9967 46.3114 47.1272 45.6017C46.8925 45.4033 46.6529 45.2037 46.4086 45.0028C45.9787 44.6963 45.7786 44.2572 45.8098 43.6854C45.8098 43.6455 45.8098 43.6055 45.8098 43.5656Z" fill="#D269CB"/>
<path fill-rule="evenodd" clip-rule="evenodd" d="M34.6721 44.1645C34.7057 45.485 34.7856 46.8024 34.9117 48.1167C35.0807 49.6081 35.2403 51.0851 35.3907 52.5481C35.7475 55.1249 36.2266 57.6799 36.8279 60.213C37.1891 60.2539 37.5084 60.3935 37.786 60.6322C39.096 61.7949 40.1939 63.1323 41.0796 64.6444C41.7578 66.099 41.9775 67.6161 41.7383 69.1954C41.5386 69.1954 41.3391 69.1954 41.1395 69.1954C41.0656 69.1821 41.0057 69.1423 40.9598 69.0757C41.05 67.6933 40.8105 66.3759 40.2412 65.1234C39.4028 63.6462 38.3447 62.3488 37.0674 61.231C36.5549 60.9344 36.1357 61.0341 35.8099 61.5305C34.5647 63.4692 33.9259 65.5851 33.8937 67.878C34.1362 68.6757 34.2361 69.474 34.1931 70.2733C33.9934 70.2733 33.7939 70.2733 33.5943 70.2733C33.4642 70.2589 33.3843 70.1791 33.3547 70.0338C33.237 69.3032 33.0972 68.5846 32.9355 67.878C32.9361 65.2216 33.7146 62.8263 35.271 60.6921C35.5881 60.5157 35.7878 60.2561 35.8698 59.9136C35.07 56.8512 34.4313 53.7573 33.9536 50.6318C33.7296 49.1659 33.6098 47.6888 33.5943 46.2005C33.5634 45.7374 33.6431 45.2982 33.8338 44.8831C34.1102 44.647 34.3897 44.4075 34.6721 44.1645Z" fill="#D26ACC"/>
<path fill-rule="evenodd" clip-rule="evenodd" d="M98.9861 56.8596C99.555 56.8651 100.034 57.0646 100.423 57.4584C100.303 57.4983 100.184 57.5383 100.064 57.5781C99.6687 57.4727 99.2699 57.393 98.8663 57.3386C98.8579 57.1639 98.8986 57.0042 98.9861 56.8596Z" fill="#FC9B7D"/>
<path fill-rule="evenodd" clip-rule="evenodd" d="M95.5127 59.2549C96.2421 59.2117 96.9607 59.2715 97.6685 59.4345C98.6853 59.9229 99.6829 60.442 100.663 60.9915C100.374 61.0495 100.094 61.0095 99.8242 60.8717C98.3907 60.242 96.9535 59.7031 95.5127 59.2549Z" fill="#FD9C7E"/>
<path fill-rule="evenodd" clip-rule="evenodd" d="M41.1394 69.1954C41.1785 70.4147 41.1386 71.6123 41.0196 72.7883C41.0196 72.6686 41.0196 72.5488 41.0196 72.429C39.8234 72.5344 38.6257 72.5544 37.4266 72.4889C36.4822 72.3054 35.564 72.0459 34.672 71.7104C34.5106 71.2213 34.3509 70.7423 34.193 70.2733C34.236 69.4739 34.1361 68.6756 33.8936 67.8779C33.9258 65.585 34.5646 63.4691 35.8098 61.5304C36.1356 61.0341 36.5547 60.9343 37.0673 61.231C38.3446 62.3487 39.4026 63.6462 40.2411 65.1233C40.8104 66.3758 41.0499 67.6933 40.9597 69.0756C41.0056 69.1422 41.0655 69.1821 41.1394 69.1954Z" fill="#EBB4E6"/>
<path fill-rule="evenodd" clip-rule="evenodd" d="M51.6789 59.734C51.9986 59.734 52.3172 59.734 52.637 59.734C53.4011 59.767 54.0598 60.0466 54.6131 60.5723C55.7161 62.1085 55.6167 63.5656 54.3137 64.9438C53.0633 65.6588 51.8262 65.6588 50.601 64.9438C48.868 62.754 49.2273 61.0174 51.6789 59.734Z" fill="#385A64"/>
<path fill-rule="evenodd" clip-rule="evenodd" d="M52.0378 60.9316C53.7816 60.9386 54.3996 61.7769 53.8942 63.4467C53.245 64.3361 52.427 64.5157 51.439 63.9856C50.7743 63.2426 50.6749 62.4241 51.1396 61.5305C51.3994 61.2522 51.6989 61.0526 52.0378 60.9316Z" fill="#2A454E"/>
<path fill-rule="evenodd" clip-rule="evenodd" d="M94.0758 61.4106C96.1813 61.5178 98.0975 62.1765 99.8246 63.3868C99.5431 63.4071 99.2641 63.3672 98.9862 63.267C97.8137 62.81 96.6556 62.3309 95.513 61.8298C94.9956 61.7388 94.477 61.6589 93.9561 61.5903C94.0231 61.5444 94.0626 61.4845 94.0758 61.4106Z" fill="#FD9D7E"/>
<path fill-rule="evenodd" clip-rule="evenodd" d="M77.3088 51.3504C77.3088 51.4303 77.3088 51.51 77.3088 51.5899C77.3879 51.8275 77.4669 52.0671 77.5484 52.3085C74.6536 61.851 71.699 71.3724 68.6857 80.8725C68.7564 80.9281 68.8366 80.9481 68.9253 80.9324C68.5085 81.0039 68.2294 80.8044 68.0869 80.3336C69.2989 76.5619 70.4571 72.7694 71.5601 68.9559C73.4608 63.1559 75.2968 57.3273 77.0693 51.4701C77.1244 51.3746 77.2034 51.3347 77.3088 51.3504Z" fill="#894485"/>
<path fill-rule="evenodd" clip-rule="evenodd" d="M96.2318 64.285C96.8402 64.7203 97.4187 65.1993 97.9684 65.7222C98.1696 66.2703 98.19 66.8291 98.0283 67.3989C97.0594 67.7307 96.0618 67.9303 95.0342 67.9978C95.4809 66.776 95.8809 65.5385 96.2318 64.285Z" fill="#FD9A7A"/>
<path fill-rule="evenodd" clip-rule="evenodd" d="M67.0088 64.285C67.7381 65.7846 68.4974 67.2617 69.2843 68.7164C66.4303 70.1898 64.9728 72.5451 64.9129 75.7825C65.3835 73.7402 66.4423 72.0833 68.0867 70.8123C68.6999 70.4962 69.258 70.117 69.7634 69.6745C70.3742 69.4688 70.973 69.2293 71.5598 68.9559C70.4568 72.7695 69.2987 76.5619 68.0867 80.3336C68.2292 80.8044 68.5082 81.0039 68.925 80.9324C71.603 80.193 74.2773 79.4345 76.9493 78.6569C75.281 80.1713 73.4042 81.389 71.3203 82.3097C69.7682 82.9551 68.1717 83.1148 66.5297 82.7888C65.1416 82.16 64.0039 81.2219 63.1164 79.9743C61.3894 77.3107 59.6923 74.636 58.0264 71.95C58.0264 71.6706 58.0264 71.3911 58.0264 71.1117C61.8241 69.8653 64.8183 67.5897 67.0088 64.285Z" fill="#385A64"/>
<path fill-rule="evenodd" clip-rule="evenodd" d="M10.8384 64.1652C10.9501 64.7991 11.1696 65.398 11.4972 65.9617C12.2617 67.0863 13.16 68.1043 14.1919 69.0157C15.7642 70.4069 17.6005 71.1055 19.7011 71.1116C18.7765 72.2756 17.8983 73.4732 17.0662 74.7046C16.2236 75.3258 15.3053 75.8248 14.3116 76.2016C13.1696 76.4972 12.0118 76.6968 10.8384 76.8004C12.923 77.4935 14.9191 77.2939 16.8267 76.2016C17.1613 76.0178 17.4009 75.7582 17.5453 75.4231C19.0646 77.3425 20.5418 79.2986 21.9766 81.2916C18.4646 81.5927 15.9496 83.3493 14.4314 86.5613C11.569 84.0788 8.79441 81.4839 6.10772 78.7766C4.54382 76.9533 4.30429 74.9571 5.38913 72.7883C6.99901 69.7647 8.81537 66.8903 10.8384 64.1652Z" fill="#385A64"/>
<path fill-rule="evenodd" clip-rule="evenodd" d="M24.0128 66.5605C24.8256 68.7746 25.5641 71.0102 26.2285 73.2674C26.4794 74.5921 26.4394 75.9095 26.1087 77.2197C25.4277 79.3387 24.6492 81.4147 23.7733 83.4474C23.1744 82.7289 22.5756 82.0103 21.9768 81.2917C20.542 79.2987 19.0648 77.3425 17.5455 75.4232C17.4328 75.1511 17.2731 74.9115 17.0664 74.7046C17.8984 73.4733 18.7767 72.2756 19.7012 71.1116C19.9154 71.1458 20.115 71.1059 20.3001 70.9919C21.4989 69.4744 22.7365 67.9974 24.0128 66.5605Z" fill="#FEFEFE"/>
<path fill-rule="evenodd" clip-rule="evenodd" d="M69.2845 68.7164C69.4438 69.0358 69.6043 69.3551 69.7636 69.6745C69.2582 70.117 68.7001 70.4962 68.0869 70.8123C66.4425 72.0833 65.3838 73.7402 64.9131 75.7825C64.973 72.5451 66.4305 70.1898 69.2845 68.7164Z" fill="#2B454F"/>
<path fill-rule="evenodd" clip-rule="evenodd" d="M33.9535 71.471C34.0827 71.8185 34.1624 72.1778 34.1931 72.5488C34.1031 72.6774 33.9834 72.6974 33.8338 72.6087C33.338 72.1129 32.839 71.614 32.3367 71.1117C31.9039 70.4058 31.6045 69.6473 31.4385 68.8361C31.6907 68.8576 31.8902 68.9773 32.0373 69.1954C32.6534 69.9986 33.2921 70.757 33.9535 71.471Z" fill="#E29EDD"/>
<path fill-rule="evenodd" clip-rule="evenodd" d="M41.7384 72.6686C41.7384 72.509 41.7384 72.3492 41.7384 72.1896C42.3004 72.1419 42.8194 71.9623 43.2953 71.6506C44.0331 71.2525 44.6714 70.7336 45.2116 70.0937C45.311 70.0113 45.3912 70.0313 45.4511 70.1536C44.7385 71.7433 43.5414 72.7813 41.8581 73.2675C41.7441 73.0824 41.7042 72.8828 41.7384 72.6686Z" fill="#E39EDE"/>
<path fill-rule="evenodd" clip-rule="evenodd" d="M17.0667 74.7046C17.2734 74.9116 17.433 75.1511 17.5457 75.4232C17.4013 75.7583 17.1618 76.0178 16.8271 76.2017C14.9195 77.2939 12.9234 77.4936 10.8389 76.8005C12.0122 76.6969 13.17 76.4973 14.3121 76.2017C15.3058 75.8249 16.224 75.3258 17.0667 74.7046Z" fill="#2B454F"/>
<path fill-rule="evenodd" clip-rule="evenodd" d="M41.139 69.1954C41.3386 69.1954 41.5381 69.1954 41.7378 69.1954C41.7378 70.1935 41.7378 71.1916 41.7378 72.1896C41.7378 72.3492 41.7378 72.509 41.7378 72.6686C41.5853 74.1711 41.4057 75.6882 41.1988 77.2197C40.9112 78.1553 40.4121 78.9537 39.7018 79.615C40.0636 79.8453 40.4628 79.9651 40.8994 79.9743C40.8994 80.174 40.8994 80.3735 40.8994 80.5732C40.287 80.5365 39.7081 80.3767 39.1628 80.0941C38.6666 80.4916 38.1277 80.811 37.546 81.0522C37.5622 80.8062 37.4823 80.6066 37.3065 80.4534C37.7171 80.3479 38.0764 80.1482 38.3844 79.8546C38.0112 79.5274 37.612 79.228 37.1867 78.9563C36.8825 78.6922 36.623 78.3928 36.4082 78.0581C35.561 76.2527 34.8224 74.4164 34.1926 72.5489C34.1619 72.1778 34.0822 71.8185 33.953 71.471C33.8333 71.0718 33.7135 70.6725 33.5938 70.2733C33.7934 70.2733 33.9929 70.2733 34.1926 70.2733C34.3505 70.7423 34.5102 71.2214 34.6716 71.7105C34.787 72.2555 34.9467 72.7744 35.1507 73.2675C35.6396 74.8332 36.2584 76.3501 37.0071 77.8186C37.5409 78.444 38.1796 78.923 38.9233 79.2557C39.6127 78.8059 40.1316 78.2071 40.4803 77.4593C40.7775 76.1992 40.9572 74.9217 41.0192 73.6268C41.0192 73.3474 41.0192 73.0678 41.0192 72.7884C41.1382 71.6124 41.1781 70.4148 41.139 69.1954Z" fill="#3D5C67"/>
<path fill-rule="evenodd" clip-rule="evenodd" d="M35.1514 73.2674C36.3112 73.5309 37.4888 73.6906 38.6844 73.7465C39.4606 73.6582 40.2391 73.6184 41.0199 73.6267C40.9578 74.9216 40.7782 76.1992 40.4809 77.4592C40.1323 78.207 39.6133 78.8059 38.924 79.2557C38.1802 78.923 37.5415 78.4439 37.0077 77.8185C36.2591 76.3501 35.6402 74.8331 35.1514 73.2674Z" fill="#EAB4E6"/>
<path fill-rule="evenodd" clip-rule="evenodd" d="M34.6719 71.7104C35.5639 72.0459 36.482 72.3054 37.4265 72.4889C38.6256 72.5544 39.8232 72.5344 41.0194 72.429C41.0194 72.5488 41.0194 72.6686 41.0194 72.7883C41.0194 73.0677 41.0194 73.3473 41.0194 73.6267C40.2387 73.6183 39.4602 73.6582 38.684 73.7465C37.4884 73.6905 36.3107 73.5309 35.1509 73.2674C34.947 72.7743 34.7872 72.2554 34.6719 71.7104Z" fill="#E39DDE"/>
<path fill-rule="evenodd" clip-rule="evenodd" d="M40.9004 80.5731C40.9004 80.3735 40.9004 80.1739 40.9004 79.9743C41.1372 79.4389 41.5363 79.2593 42.098 79.4353C42.8441 79.9349 42.8839 80.4937 42.2178 81.1121C41.6059 81.3048 41.1669 81.1251 40.9004 80.5731Z" fill="#1E2F38"/>
<path fill-rule="evenodd" clip-rule="evenodd" d="M37.3066 80.4534C37.4824 80.6065 37.5623 80.8062 37.5461 81.0522C37.4943 81.375 37.3346 81.6345 37.0671 81.8307C36.0092 82.0502 35.59 81.631 35.8095 80.5731C36.2776 79.9854 36.7765 79.9454 37.3066 80.4534Z" fill="#203139"/>
<path fill-rule="evenodd" clip-rule="evenodd" d="M21.9769 81.2917C22.5757 82.0103 23.1745 82.7289 23.7733 83.4475C25.1662 85.4594 26.5834 87.4554 28.025 89.4357C28.4011 90.6541 28.7005 91.8916 28.9232 93.1485C29.0393 94.0241 29.0593 94.9023 28.9831 95.7833C28.7486 96.5016 28.2496 96.8809 27.4861 96.9211C27.0242 97.4426 26.5851 97.9816 26.1686 98.5379C25.6911 98.8225 25.1722 98.9622 24.6117 98.9571C24.0288 99.3481 23.43 99.7074 22.8152 100.035C22.1211 100.13 21.4423 100.07 20.7792 99.8553C20.3982 99.6048 20.0389 99.3253 19.7013 99.017C20.4955 99.1611 20.9945 98.8419 21.1984 98.0588C21.2583 97.3392 21.2383 96.6206 21.1385 95.9031C21.2106 95.1956 21.3304 94.4969 21.4978 93.8072C21.4985 93.5317 21.4386 93.2723 21.3181 93.0287C21.0757 92.7664 20.8562 92.487 20.6594 92.1903C20.1436 91.874 19.7045 91.4749 19.342 90.9927C19.219 90.8381 19.0993 90.8381 18.9827 90.9927C18.9674 90.8022 18.8875 90.6426 18.7432 90.5136C17.2973 89.1942 15.8601 87.8767 14.4316 86.5614C15.9498 83.3494 18.4649 81.5928 21.9769 81.2917Z" fill="#FEBDA8"/>
<path fill-rule="evenodd" clip-rule="evenodd" d="M59.4634 87.0404C60.6168 96.6268 61.036 106.248 60.721 115.904C60.4886 121.132 60.309 126.362 60.182 131.593C60.1198 131.939 60.0802 132.299 60.0623 132.671C60.1198 132.788 60.1988 132.888 60.3018 132.97C60.0838 133.265 60.0036 133.604 60.0623 133.988C60.0958 134.142 60.176 134.261 60.3018 134.348C60.091 134.473 60.012 134.673 60.0623 134.947C60.0623 135.226 60.0623 135.506 60.0623 135.785C60.0623 136.144 60.0623 136.503 60.0623 136.863C59.9748 138.242 59.8958 139.64 59.8227 141.055C59.7832 142.093 59.7425 143.13 59.703 144.168C59.6527 144.766 59.6132 145.365 59.5832 145.965C59.5832 146.045 59.5832 146.124 59.5832 146.204C59.5892 147.684 59.5497 149.16 59.4634 150.636C59.061 157.458 58.7413 164.284 58.5053 171.116C58.3221 173.305 58.2023 175.5 58.146 177.703C56.8693 178.552 55.4717 179.132 53.9542 179.439C52.6835 179.603 51.4056 179.663 50.1218 179.619C50.0427 179.727 49.9637 179.847 49.8822 179.978C49.7002 179.817 49.6199 179.657 49.6427 179.499C49.4103 179.571 49.1708 179.611 48.9241 179.619C48.5169 179.588 48.1576 179.468 47.8462 179.26C46.9216 178.977 46.0437 178.578 45.2114 178.062C45.0233 177.785 44.9239 177.466 44.912 177.104C44.7682 174.201 44.5084 171.326 44.1335 168.481C43.5942 161.13 42.9754 153.783 42.2771 146.444C42.1624 143.087 42.2223 139.734 42.4568 136.384C42.401 136.026 42.3611 135.666 42.337 135.306C42.419 129.775 42.5388 124.226 42.6963 118.658C43.9323 114.113 45.1299 109.562 46.2893 105.005C49.5361 104.312 52.0715 102.595 53.8944 99.8553C54.3111 99.1774 54.6501 98.4589 54.9124 97.6995C54.8728 97.6597 54.8321 97.6197 54.7926 97.5798C54.3363 98.2153 53.8177 98.7942 53.2356 99.3164C50.6056 101.238 47.651 102.296 44.373 102.49C43.4106 107.896 42.3527 113.286 41.1992 118.658C41.1395 119.096 41.1196 119.535 41.1394 119.976C38.161 134.796 35.3065 149.687 32.5761 164.648C32.3434 166.124 32.1239 167.602 31.9174 169.08C31.5523 170.445 31.2528 171.843 31.0192 173.271C30.54 176.146 30.0609 179.02 29.582 181.895C29.517 182.15 29.4172 182.389 29.2826 182.613C28.8815 182.788 28.4823 182.947 28.0849 183.092C27.9903 183.225 27.9304 183.384 27.9053 183.571C27.8489 183.362 27.769 183.163 27.6658 182.972C27.3042 183.159 26.9249 183.279 26.528 183.332C24.1772 183.4 21.9417 182.941 19.8211 181.954C19.5951 181.861 19.3955 181.881 19.2223 182.014C19.1254 182.229 19.0655 182.468 19.0427 182.733C18.9672 182.423 18.8274 182.142 18.6235 181.895C18.4964 182.208 18.5363 182.508 18.7432 182.793C18.6297 182.85 18.5099 182.871 18.3839 182.853C18.4033 183.096 18.3833 183.335 18.3241 183.571C18.2842 183.532 18.2442 183.491 18.2043 183.451C18.1546 182.931 18.1745 182.412 18.2642 181.895C18.2642 181.575 18.2642 181.256 18.2642 180.936C17.9755 180.886 17.756 180.727 17.6055 180.457C17.5456 173.271 17.5256 166.086 17.5456 158.9C17.6064 153.135 17.9458 147.387 18.5636 141.653C18.8288 139.514 19.2279 137.398 19.7612 135.306C20.5693 123.504 20.9087 111.687 20.7793 99.8553C21.4424 100.07 22.1211 100.13 22.8153 100.035C23.43 99.7074 24.0288 99.3481 24.6117 98.9571C25.1722 98.9622 25.6912 98.8225 26.1687 98.5379C26.5851 97.9816 27.0243 97.4426 27.4861 96.9211C28.2496 96.8809 28.7487 96.5016 28.9832 95.7833C29.0593 94.9023 29.0393 94.0241 28.9233 93.1485C29.0209 93.0372 29.1207 92.9174 29.2227 92.7892C29.316 92.9362 29.4358 93.056 29.582 93.1485C30.6081 93.42 31.6262 93.7194 32.636 94.0467C39.0747 95.2061 45.4222 94.8867 51.6787 93.0886C52.226 92.75 52.7853 92.4306 53.3554 92.1305C54.8417 91.6473 56.1591 90.8888 57.3077 89.8549C57.5676 89.4357 57.9065 89.0964 58.3257 88.8369C58.8275 88.3126 59.206 87.7137 59.4634 87.0404Z" fill="#EEC4EA"/>
<path fill-rule="evenodd" clip-rule="evenodd" d="M19.7014 99.017C18.6381 98.2555 17.9993 97.2375 17.7852 95.963C17.8052 95.7434 17.825 95.5238 17.845 95.3043C18.0132 95.0774 18.1528 94.8379 18.2642 94.5857C17.9477 93.7485 18.1672 93.1097 18.9229 92.6694C18.9827 92.1119 19.0027 91.5531 18.9828 90.9927C19.0993 90.8381 19.2191 90.8381 19.3421 90.9927C19.7046 91.4749 20.1437 91.8741 20.6595 92.1904C20.8563 92.487 21.0758 92.7664 21.3182 93.0287C21.4387 93.2723 21.4986 93.5317 21.4979 93.8072C21.3304 94.4969 21.2107 95.1956 21.1386 95.9031C21.2383 96.6206 21.2584 97.3392 21.1985 98.0589C20.9946 98.8419 20.4956 99.1612 19.7014 99.017Z" fill="#FE9B7B"/>
<path fill-rule="evenodd" clip-rule="evenodd" d="M42.3369 135.306C41.9179 130.198 41.5188 125.087 41.1392 119.976C41.1195 119.535 41.1393 119.096 41.1991 118.658C42.3526 113.286 43.4104 107.896 44.3729 102.49C47.6509 102.296 50.6055 101.238 53.2355 99.3163C53.8176 98.7942 54.3362 98.2152 54.7925 97.5798C54.832 97.6196 54.8727 97.6596 54.9122 97.6995C54.6499 98.4588 54.311 99.1774 53.8942 99.8553C52.0714 102.595 49.536 104.312 46.2891 105.005C45.1298 109.562 43.9321 114.113 42.6962 118.658C42.5387 124.226 42.4189 129.775 42.3369 135.306Z" fill="#E196DB"/>
<path fill-rule="evenodd" clip-rule="evenodd" d="M41.1389 119.976C41.5185 125.087 41.9176 130.198 42.3366 135.306C42.3606 135.666 42.4005 136.026 42.4563 136.384C42.2218 139.734 42.162 143.087 42.2767 146.444C42.9749 153.783 43.5937 161.13 44.1331 168.481C41.5186 168.58 38.8837 168.64 36.2285 168.66C34.7827 168.729 33.3456 168.869 31.917 169.08C32.1235 167.602 32.343 166.124 32.5757 164.648C35.3061 149.687 38.1606 134.796 41.1389 119.976Z" fill="#F9F9F9"/>
<path fill-rule="evenodd" clip-rule="evenodd" d="M45.2118 178.062C46.0441 178.578 46.922 178.977 47.8466 179.26C49.2934 180.727 50.7306 182.224 52.1582 183.751C54.884 185.951 57.7979 187.847 60.901 189.44C60.9154 189.991 60.7154 190.451 60.3022 190.817C59.8112 191.089 59.2914 191.269 58.7453 191.356C57.8063 191.221 56.8877 191 55.9907 190.697C55.1451 190.254 54.2672 189.915 53.3558 189.679C51.0563 187.97 48.5413 186.632 45.8106 185.667C45.4717 185.398 45.1124 185.158 44.7327 184.949C44.5674 184.796 44.4477 184.617 44.3734 184.41C44.2441 182.248 44.5243 180.132 45.2118 178.062Z" fill="#FBEFF9"/>
<path fill-rule="evenodd" clip-rule="evenodd" d="M58.1463 177.703C58.1571 177.823 58.1164 177.922 58.0266 178.002C58.2757 178.4 58.4757 178.819 58.6254 179.26C56.7355 179.538 54.8983 179.998 53.1162 180.637C52.6922 181.002 52.2527 181.341 51.7988 181.655C51.8167 181.529 51.7964 181.41 51.7389 181.296C51.0886 180.826 50.5496 180.267 50.1221 179.619C51.406 179.663 52.6839 179.603 53.9546 179.439C55.472 179.132 56.8696 178.552 58.1463 177.703Z" fill="#FBEEF9"/>
<path fill-rule="evenodd" clip-rule="evenodd" d="M59.2243 179.978C59.5704 180.31 59.8902 180.669 60.1824 181.056C58.0733 181.424 56.0768 182.123 54.1941 183.152C54.1259 183.271 54.0468 183.371 53.9546 183.451C53.9115 183.228 53.7917 183.048 53.5953 182.913C53.1881 182.698 52.8288 182.419 52.5174 182.074C52.2731 182.132 52.0336 182.232 51.7988 182.374C51.8934 182.219 52.0132 182.079 52.1581 181.954C53.3989 181.368 54.6768 180.848 55.9906 180.397C57.0505 180.141 58.1284 180.001 59.2243 179.978Z" fill="#FBEFF9"/>
<path fill-rule="evenodd" clip-rule="evenodd" d="M58.6247 179.26C58.7828 179.432 58.9828 179.512 59.2235 179.499C59.2235 179.659 59.2235 179.819 59.2235 179.978C58.1276 180.001 57.0498 180.141 55.9898 180.397C54.676 180.848 53.3981 181.368 52.1573 181.954C52.0124 182.079 51.8927 182.219 51.798 182.374C51.6388 182.374 51.4783 182.374 51.319 182.374C51.2459 181.969 51.4052 181.729 51.798 181.655C52.252 181.341 52.6915 181.002 53.1155 180.637C54.8976 179.997 56.7348 179.538 58.6247 179.26Z" fill="#FAF8FA"/>
<path fill-rule="evenodd" clip-rule="evenodd" d="M60.1818 181.056C60.3962 181.153 60.6357 181.213 60.9004 181.236C61.0058 181.399 61.0453 181.578 61.0201 181.775C59.9518 181.705 58.9147 181.845 57.9062 182.194C56.6547 182.641 55.457 183.18 54.3133 183.811C54.1432 184.055 53.9037 184.175 53.5947 184.17C53.5456 183.832 53.6654 183.593 53.954 183.451C54.0462 183.371 54.1253 183.271 54.1935 183.152C56.0762 182.123 58.0727 181.424 60.1818 181.056Z" fill="#FAF8FA"/>
<path fill-rule="evenodd" clip-rule="evenodd" d="M26.5278 183.332C26.6686 183.305 26.7883 183.345 26.8871 183.452C26.5993 184.14 26.4396 184.859 26.4081 185.607C25.6323 185.193 24.8339 184.813 24.0128 184.47C22.8174 184.29 21.6197 184.151 20.4198 184.05C19.7335 184.095 19.0548 184.175 18.3838 184.29C18.6171 184.214 18.8366 184.095 19.0425 183.931C19.1244 183.293 19.1843 182.654 19.2221 182.014C19.3953 181.881 19.595 181.861 19.821 181.954C21.9415 182.941 24.1771 183.4 26.5278 183.332Z" fill="#FBEFF9"/>
<path fill-rule="evenodd" clip-rule="evenodd" d="M61.0203 181.775C61.4371 182.163 61.8767 182.522 62.3378 182.853C61.5665 182.915 60.8072 183.055 60.0622 183.272C59.0203 183.672 57.9819 184.072 56.9483 184.47C56.7735 184.808 56.5339 185.068 56.2297 185.248C56.2561 185.107 56.2165 184.987 56.11 184.889C55.565 184.679 55.1267 184.34 54.7925 183.871C54.638 183.812 54.4776 183.792 54.3135 183.811C55.4572 183.18 56.6549 182.641 57.9064 182.194C58.9149 181.845 59.952 181.705 61.0203 181.775Z" fill="#FBEFF9"/>
<path fill-rule="evenodd" clip-rule="evenodd" d="M62.3377 182.853C62.6275 182.828 62.9066 182.868 63.176 182.972C63.2874 183.115 63.3269 183.274 63.2958 183.452C62.2287 183.442 61.1903 183.581 60.1819 183.871C60.0657 184.081 59.9256 184.141 59.7627 184.05C58.6118 184.514 57.5135 185.034 56.4692 185.607C56.2835 185.836 56.0644 185.876 55.8105 185.727C55.7087 185.369 55.8488 185.21 56.2296 185.248C56.5338 185.068 56.7734 184.808 56.9482 184.47C57.9818 184.072 59.0202 183.672 60.0621 183.272C60.8071 183.055 61.5664 182.915 62.3377 182.853Z" fill="#FAF8FA"/>
<path fill-rule="evenodd" clip-rule="evenodd" d="M63.2963 183.451C63.6772 183.702 64.0365 183.982 64.3742 184.29C64.3611 184.364 64.3215 184.424 64.2545 184.469C62.3131 184.782 60.5166 185.461 58.865 186.505C58.8087 186.713 58.689 186.853 58.5057 186.925C58.6471 186.782 58.6471 186.643 58.5057 186.505C57.9907 186.289 57.5117 186.008 57.0686 185.667C56.8733 185.608 56.6733 185.588 56.4697 185.607C57.5141 185.034 58.6123 184.514 59.7633 184.05C59.9262 184.141 60.0663 184.081 60.1825 183.871C61.1909 183.581 62.2292 183.442 63.2963 183.451Z" fill="#FBEFF9"/>
<path fill-rule="evenodd" clip-rule="evenodd" d="M26.4086 185.607C26.8518 185.652 27.0914 185.891 27.1272 186.326C26.8731 186.346 26.6336 186.307 26.4086 186.206C25.2228 185.678 23.9851 185.24 22.6959 184.889C21.4208 184.769 20.1433 184.729 18.8634 184.769C18.3823 184.848 18.2225 184.689 18.3843 184.29C19.0554 184.175 19.7341 184.095 20.4203 184.05C21.6202 184.151 22.8179 184.29 24.0133 184.469C24.8344 184.813 25.6329 185.193 26.4086 185.607Z" fill="#FAF8FA"/>
<path fill-rule="evenodd" clip-rule="evenodd" d="M18.8628 184.769C20.1427 184.729 21.4202 184.769 22.6953 184.889C23.9845 185.24 25.2222 185.678 26.408 186.206C26.2882 186.206 26.1685 186.206 26.0487 186.206C25.9949 186.848 25.915 187.488 25.8092 188.122C23.6426 187.091 21.3272 186.672 18.8628 186.865C18.612 187.026 18.3326 187.086 18.0244 187.044C18.2661 186.979 18.4856 186.859 18.6831 186.685C18.7825 186.049 18.8424 185.411 18.8628 184.769Z" fill="#FBEFF9"/>
<path fill-rule="evenodd" clip-rule="evenodd" d="M65.8112 184.889C66.2376 185.343 66.7166 185.741 67.2484 186.086C66.4843 186.134 65.725 186.234 64.9729 186.386C64.4998 186.677 63.98 186.877 63.4159 186.985C62.8422 187.361 62.2434 187.679 61.6194 187.943C61.5332 188.262 61.3332 188.442 61.0206 188.482C61.2302 188.327 61.2697 188.147 61.1404 187.943C60.611 187.726 60.0924 187.486 59.5834 187.224C59.199 187.298 58.8001 187.358 58.3858 187.404C58.3534 187.212 58.3941 187.053 58.5055 186.925C58.5055 187.044 58.5055 187.164 58.5055 187.284C60.1439 186.464 61.8602 185.764 63.6554 185.188C64.38 185.084 65.0986 184.984 65.8112 184.889Z" fill="#FBEFF9"/>
<path fill-rule="evenodd" clip-rule="evenodd" d="M64.3744 184.29C64.7684 184.369 65.1672 184.429 65.572 184.47C65.7481 184.555 65.8283 184.695 65.8115 184.889C65.0989 184.985 64.3803 185.084 63.6558 185.188C61.8605 185.764 60.1442 186.464 58.5059 187.284C58.5059 187.164 58.5059 187.044 58.5059 186.925C58.6891 186.853 58.8089 186.713 58.8652 186.506C60.5167 185.461 62.3132 184.782 64.2546 184.47C64.3217 184.424 64.3612 184.364 64.3744 184.29Z" fill="#FAF8FA"/>
<path fill-rule="evenodd" clip-rule="evenodd" d="M28.0846 183.092C28.0846 183.332 28.0846 183.571 28.0846 183.811C27.6359 185.712 27.1768 187.628 26.7073 189.56C26.4893 191.821 26.13 194.057 25.6294 196.266C25.49 197.044 25.0308 197.483 24.2521 197.584C23.7951 197.513 23.5955 197.234 23.6533 196.745C23.7731 196.745 23.8928 196.745 24.0126 196.745C24.1973 196.841 24.3968 196.881 24.6114 196.865C24.6114 196.665 24.6114 196.466 24.6114 196.266C24.4199 196.299 24.2603 196.258 24.1324 196.147C24.0612 195.368 24.181 194.61 24.4917 193.871C24.7907 194.155 25.15 194.275 25.5695 194.23C25.5695 194.03 25.5695 193.832 25.5695 193.632C25.2796 193.586 25.0002 193.507 24.7312 193.392C24.7488 192.706 24.8287 192.027 24.9707 191.356C25.1762 191.372 25.3759 191.411 25.5695 191.476C25.7292 191.476 25.889 191.476 26.0486 191.476C26.0665 191.35 26.0466 191.23 25.9887 191.117C25.7476 190.907 25.4881 190.748 25.2103 190.637C25.2841 190.029 25.4039 189.43 25.5695 188.841C25.872 188.978 26.1914 189.058 26.5277 189.081C26.5732 188.817 26.4933 188.618 26.2881 188.482C26.0994 188.405 25.9396 188.285 25.8091 188.122C25.9149 187.488 25.9948 186.848 26.0486 186.206C26.1684 186.206 26.2881 186.206 26.4079 186.206C26.6329 186.307 26.8725 186.346 27.1265 186.326C27.0907 185.891 26.8512 185.652 26.4079 185.607C26.4394 184.859 26.5992 184.14 26.887 183.452C26.7882 183.345 26.6684 183.305 26.5277 183.332C26.9246 183.279 27.3039 183.159 27.6654 182.972C27.7687 183.163 27.8486 183.362 27.905 183.571C27.9301 183.384 27.99 183.225 28.0846 183.092Z" fill="#EFC9EB"/>
<path fill-rule="evenodd" clip-rule="evenodd" d="M68.3261 186.685C68.9693 187.08 69.6483 187.419 70.3621 187.703C70.9442 188.09 71.4041 188.589 71.7394 189.2C71.9119 189.515 72.0113 189.855 72.0389 190.218C71.9526 190.93 71.7131 191.588 71.3203 192.194C71.1119 192.584 70.8316 192.922 70.4819 193.212C69.2471 193.89 67.9297 194.289 66.5297 194.41C61.4348 194.742 57.043 193.164 53.3555 189.679C54.2669 189.915 55.1448 190.254 55.9903 190.697C56.8873 191 57.8059 191.221 58.7449 191.356C59.291 191.269 59.8108 191.089 60.3019 190.817C60.715 190.451 60.9151 189.991 60.9007 189.44C61.6971 189.654 62.1355 189.375 62.2181 188.601C62.0983 188.601 61.9786 188.601 61.8588 188.601C63.799 187.317 65.9548 186.678 68.3261 186.685Z" fill="#F8E6F6"/>
<path fill-rule="evenodd" clip-rule="evenodd" d="M26.2883 188.482C26.4935 188.618 26.5733 188.817 26.5278 189.08C26.1915 189.058 25.8721 188.977 25.5697 188.841C25.4041 189.43 25.2843 190.029 25.2104 190.637C23.0463 189.691 20.7707 189.253 18.3838 189.32C18.45 188.724 18.49 188.125 18.5036 187.524C19.91 187.345 21.3073 187.405 22.6953 187.703C23.8615 188.065 25.0191 188.443 26.1685 188.841C26.2746 188.743 26.3145 188.623 26.2883 188.482Z" fill="#FBEFF9"/>
<path fill-rule="evenodd" clip-rule="evenodd" d="M25.8094 188.122C25.94 188.285 26.0997 188.405 26.2885 188.482C26.3147 188.623 26.2748 188.743 26.1687 188.841C25.0193 188.443 23.8617 188.065 22.6955 187.703C21.3075 187.405 19.9102 187.345 18.5037 187.524C18.2071 187.577 17.9676 187.497 17.7852 187.284C17.8277 187.162 17.9076 187.082 18.0247 187.045C18.3328 187.086 18.6123 187.027 18.863 186.865C21.3275 186.672 23.6429 187.091 25.8094 188.122Z" fill="#FAF9FA"/>
<path fill-rule="evenodd" clip-rule="evenodd" d="M47.8457 179.26C48.1571 179.468 48.5164 179.588 48.9236 179.619C49.1703 179.611 49.4098 179.571 49.6422 179.499C49.6194 179.657 49.6997 179.817 49.8817 179.978C49.9632 179.847 50.0422 179.727 50.1212 179.619C50.5488 180.267 51.0877 180.826 51.7381 181.296C51.7956 181.41 51.8159 181.529 51.798 181.655C51.4051 181.729 51.2458 181.969 51.3189 182.374C51.4782 182.374 51.6387 182.374 51.798 182.374C52.0327 182.232 52.2722 182.132 52.5165 182.074C52.8279 182.419 53.1872 182.698 53.5944 182.913C53.7909 183.048 53.9106 183.228 53.9537 183.452C53.6651 183.593 53.5453 183.832 53.5944 184.17C53.9034 184.175 54.143 184.055 54.313 183.811C54.4771 183.792 54.6376 183.812 54.7921 183.871C55.1262 184.34 55.5646 184.679 56.1095 184.889C56.2161 184.987 56.2556 185.107 56.2293 185.248C55.8484 185.21 55.7083 185.369 55.8101 185.727C56.064 185.876 56.2832 185.836 56.4688 185.607C56.6724 185.588 56.8724 185.608 57.0676 185.667C57.5108 186.008 57.9898 186.289 58.5048 186.506C58.6461 186.643 58.6461 186.782 58.5048 186.925C58.3934 187.053 58.3527 187.212 58.385 187.404C58.7994 187.358 59.1983 187.298 59.5827 187.224C60.0917 187.486 60.6103 187.726 61.1397 187.943C61.269 188.148 61.2295 188.327 61.0199 188.482C60.9325 188.627 60.8917 188.786 60.9001 188.961C61.2654 188.952 61.5852 188.833 61.8582 188.601C61.978 188.601 62.0978 188.601 62.2175 188.601C62.1349 189.375 61.6966 189.654 60.9001 189.44C57.797 187.847 54.8831 185.951 52.1573 183.751C50.7297 182.224 49.2925 180.727 47.8457 179.26Z" fill="#EFC9EB"/>
<path fill-rule="evenodd" clip-rule="evenodd" d="M67.2481 186.086C67.6073 186.086 67.9666 186.086 68.3259 186.086C68.3259 186.286 68.3259 186.485 68.3259 186.685C65.9546 186.678 63.7988 187.317 61.8586 188.601C61.5855 188.833 61.2658 188.952 60.9005 188.961C60.8921 188.786 60.9328 188.627 61.0203 188.482C61.3328 188.442 61.5328 188.262 61.6191 187.943C62.2431 187.679 62.8419 187.361 63.4156 186.985C63.9797 186.877 64.4994 186.677 64.9725 186.386C65.7246 186.234 66.4839 186.134 67.2481 186.086Z" fill="#FAF8FA"/>
<path fill-rule="evenodd" clip-rule="evenodd" d="M17.4258 186.086C17.3158 187.255 17.1362 188.412 16.8868 189.559C16.388 191.029 16.0487 192.545 15.8688 194.111C15.8219 194.965 16.1014 195.683 16.7072 196.266C16.5364 196.578 16.2969 196.836 15.9886 197.045C15.6331 197.065 15.2938 197.086 14.9706 197.105C14.6669 196.196 14.4872 195.277 14.4316 194.35C14.7562 192.425 15.4149 190.629 16.4078 188.961C16.7653 187.987 17.1046 187.029 17.4258 186.086Z" fill="#FBEEF9"/>
<path fill-rule="evenodd" clip-rule="evenodd" d="M44.3731 184.41C44.4473 184.617 44.5671 184.796 44.7324 184.949C45.112 185.158 45.4713 185.398 45.8103 185.667C48.5409 186.632 51.056 187.97 53.3555 189.679C57.043 193.164 61.4348 194.742 66.5297 194.41C67.9297 194.289 69.2471 193.89 70.4819 193.212C70.8316 192.923 71.1119 192.584 71.3203 192.194C71.4556 192.449 71.476 192.729 71.3802 193.033C71.076 193.856 70.4963 194.394 69.6436 194.65C64.5559 196.131 59.7653 195.452 55.2717 192.614C54.1938 191.695 53.1159 190.778 52.0381 189.859C51.1793 189.21 50.2619 188.651 49.2835 188.182C47.7313 187.771 46.2534 187.173 44.8521 186.386C44.2629 185.824 44.1036 185.165 44.3731 184.41Z" fill="#3B5C66"/>
<path fill-rule="evenodd" clip-rule="evenodd" d="M18.384 189.32C20.7709 189.253 23.0465 189.691 25.2106 190.637C25.4885 190.748 25.748 190.907 25.9891 191.116C26.047 191.23 26.0668 191.35 26.049 191.476C25.8893 191.476 25.7296 191.476 25.5699 191.476C25.3903 191.275 25.1707 191.115 24.9112 190.997C24.8313 191.077 24.7516 191.156 24.6717 191.236C24.4998 191.031 24.2802 190.891 24.013 190.817C21.9188 190.098 19.763 189.799 17.5457 189.919C17.391 189.794 17.391 189.654 17.5457 189.5C17.8355 189.465 18.115 189.405 18.384 189.32Z" fill="#FAF8FA"/>
<path fill-rule="evenodd" clip-rule="evenodd" d="M17.5459 189.919C19.7632 189.799 21.919 190.098 24.0132 190.817C24.2804 190.891 24.5001 191.031 24.6719 191.236C24.7518 191.156 24.8316 191.077 24.9115 190.997C25.171 191.115 25.3905 191.275 25.5702 191.476C25.3765 191.411 25.1769 191.372 24.9713 191.356C24.8293 192.027 24.7494 192.706 24.7318 193.392C22.5854 192.372 20.3098 191.893 17.9052 191.955C18.0317 191.322 18.1115 190.684 18.1447 190.039C17.9154 190.072 17.7158 190.033 17.5459 189.919Z" fill="#FBEFF9"/>
<path fill-rule="evenodd" clip-rule="evenodd" d="M28.0844 183.811C27.9252 185.085 27.7854 186.363 27.6653 187.643C27.6372 190.281 27.5774 192.915 27.4856 195.548C27.2644 196.269 27.0049 196.987 26.7071 197.704C26.4944 198.116 26.2349 198.495 25.9287 198.841C25.5581 198.919 25.1988 198.88 24.8508 198.722C24.6242 198.355 24.4245 197.977 24.252 197.584C25.0307 197.483 25.4898 197.044 25.6293 196.266C26.1299 194.057 26.4892 191.821 26.7071 189.56C27.1766 187.628 27.6357 185.711 28.0844 183.811Z" fill="#FBEEF9"/>
<path fill-rule="evenodd" clip-rule="evenodd" d="M18.2646 181.895C18.1749 182.412 18.155 182.931 18.2047 183.452C18.2446 183.491 18.2846 183.532 18.3245 183.571C18.3838 183.335 18.4038 183.096 18.3844 182.853C18.5104 182.871 18.6302 182.85 18.7437 182.793C18.5367 182.508 18.4969 182.208 18.6239 181.895C18.8279 182.142 18.9676 182.423 19.0431 182.733C19.066 182.468 19.1259 182.229 19.2227 182.014C19.1849 182.654 19.125 183.293 19.0431 183.931C18.8372 184.095 18.6177 184.214 18.3844 184.29C18.2226 184.689 18.3824 184.848 18.8635 184.769C18.8431 185.411 18.7832 186.049 18.6838 186.685C18.4863 186.859 18.2668 186.979 18.0251 187.044C17.908 187.082 17.8281 187.162 17.7856 187.284C17.968 187.497 18.2075 187.577 18.5042 187.524C18.4906 188.125 18.4506 188.724 18.3844 189.32C18.1154 189.405 17.8359 189.465 17.546 189.5C17.3914 189.654 17.3914 189.794 17.546 189.919C17.716 190.033 17.9155 190.072 18.1449 190.039C18.1117 190.684 18.0318 191.322 17.9053 191.955C17.6121 192.071 17.2927 192.112 16.9472 192.075C16.9472 192.234 16.9472 192.394 16.9472 192.554C17.1586 192.669 17.3981 192.708 17.6658 192.673C17.61 193.391 17.5701 194.109 17.546 194.829C17.0084 194.755 16.8088 194.955 16.9472 195.428C17.0751 195.539 17.2348 195.58 17.4263 195.548C17.462 196.045 17.2224 196.284 16.7077 196.266C16.1019 195.683 15.8224 194.965 15.8693 194.111C16.0492 192.545 16.3885 191.029 16.8873 189.56C17.1367 188.412 17.3163 187.255 17.4263 186.086C17.6375 184.66 17.9171 183.262 18.2646 181.895Z" fill="#EFC9EB"/>
<path fill-rule="evenodd" clip-rule="evenodd" d="M16.9463 192.554C19.5636 192.518 22.0787 192.956 24.4915 193.871C24.1808 194.61 24.0611 195.368 24.1322 196.147C23.0885 195.701 22.0306 195.302 20.9584 194.949C20.8387 194.988 20.7189 195.029 20.5991 195.069C19.5937 194.857 18.5757 194.778 17.5451 194.829C17.5692 194.109 17.6091 193.391 17.6649 192.673C17.3972 192.708 17.1577 192.669 16.9463 192.554Z" fill="#FBEFF9"/>
<path fill-rule="evenodd" clip-rule="evenodd" d="M17.9044 191.955C20.3091 191.893 22.5846 192.372 24.731 193.392C25 193.507 25.2794 193.586 25.5694 193.632C25.5694 193.832 25.5694 194.03 25.5694 194.23C25.1499 194.275 24.7906 194.155 24.4915 193.871C22.0787 192.956 19.5636 192.518 16.9463 192.554C16.9463 192.394 16.9463 192.234 16.9463 192.075C17.2918 192.112 17.6112 192.071 17.9044 191.955Z" fill="#FAF8FA"/>
<path fill-rule="evenodd" clip-rule="evenodd" d="M14.4315 194.35C14.487 195.277 14.6667 196.196 14.9704 197.105C15.2937 197.086 15.633 197.065 15.9884 197.045C16.2967 196.836 16.5362 196.578 16.707 196.266C17.2218 196.284 17.4613 196.045 17.4256 195.548C17.2341 195.58 17.0745 195.539 16.9466 195.428C18.2289 195.394 19.5063 195.454 20.779 195.608C21.9138 195.862 22.9917 196.24 24.0127 196.745C23.8929 196.745 23.7732 196.745 23.6534 196.745C23.5956 197.234 23.7952 197.513 24.2522 197.584C24.4248 197.977 24.6245 198.355 24.8511 198.722C25.1991 198.88 25.5584 198.919 25.9289 198.841C26.2352 198.495 26.4947 198.116 26.7074 197.704C27.0052 196.987 27.2647 196.269 27.4859 195.548C27.5058 196.427 27.4859 197.305 27.426 198.183C27.3806 198.486 27.2807 198.765 27.1266 199.021C26.7218 201.491 25.3644 203.188 23.0546 204.111C19.9404 204.42 17.4055 203.361 15.4495 200.937C14.2202 199.068 13.841 197.032 14.3117 194.829C14.4236 194.701 14.4636 194.542 14.4315 194.35Z" fill="#F7E2F5"/>
<path fill-rule="evenodd" clip-rule="evenodd" d="M17.5456 194.829C18.5762 194.778 19.5942 194.857 20.5997 195.069C20.7194 195.029 20.8392 194.989 20.959 194.949C22.0311 195.302 23.089 195.701 24.1327 196.147C24.2606 196.258 24.4203 196.299 24.6118 196.266C24.6118 196.466 24.6118 196.665 24.6118 196.865C24.3972 196.881 24.1976 196.841 24.013 196.745C22.992 196.24 21.9141 195.862 20.7793 195.608C19.5066 195.454 18.2291 195.395 16.9468 195.428C16.8084 194.955 17.008 194.755 17.5456 194.829Z" fill="#FAF8FA"/>
<path fill-rule="evenodd" clip-rule="evenodd" d="M14.3122 194.829C13.8415 197.032 14.2207 199.068 15.45 200.937C17.406 203.361 19.9409 204.42 23.0551 204.111C25.3648 203.188 26.7223 201.491 27.1271 199.021C27.2604 199.195 27.2804 199.393 27.187 199.62C26.9716 200.385 26.7321 201.144 26.4684 201.895C25.1977 204.856 22.982 205.913 19.8214 205.069C18.7812 204.729 17.7831 204.289 16.8273 203.752C15.5804 202.984 14.6821 201.927 14.1325 200.578C13.6882 198.628 13.7481 196.712 14.3122 194.829Z" fill="#3B5C65"/>
<path fill-rule="evenodd" clip-rule="evenodd" d="M17.4718 158.84C17.4518 166.026 17.4718 173.212 17.5317 180.397C17.6823 180.667 17.9018 180.826 18.1904 180.877C18.1904 181.196 18.1904 181.515 18.1904 181.835C17.8429 183.202 17.5633 184.6 17.3521 186.026C17.0309 186.969 16.6916 187.927 16.3341 188.901C15.3412 190.569 14.6825 192.366 14.3579 194.29C14.39 194.482 14.35 194.641 14.2382 194.769C13.6741 196.652 13.6142 198.568 14.0585 200.518C14.6081 201.867 15.5064 202.924 16.7533 203.692C17.7091 204.23 18.7072 204.669 19.7474 205.009C22.908 205.854 25.1236 204.796 26.3944 201.835C26.6581 201.085 26.8976 200.325 27.1129 199.56C27.2064 199.334 27.1864 199.135 27.0531 198.961C27.2072 198.705 27.3071 198.426 27.3525 198.123C27.4124 197.245 27.4322 196.367 27.4124 195.488C27.5041 192.855 27.564 190.221 27.592 187.583C27.7121 186.303 27.8519 185.025 28.0112 183.751C28.0112 183.511 28.0112 183.272 28.0112 183.032C28.4086 182.887 28.8077 182.728 29.2088 182.553C29.3435 182.329 29.4432 182.09 29.5083 181.835C29.9872 178.96 30.4663 176.086 30.9454 173.212C31.1791 171.783 31.4785 170.385 31.8437 169.02C33.2722 168.809 34.7094 168.669 36.1552 168.601C38.8104 168.58 41.4453 168.52 44.0597 168.421C44.4346 171.267 44.6945 174.141 44.8382 177.044C44.8502 177.406 44.9496 177.725 45.1376 178.002C44.4502 180.072 44.1699 182.188 44.2993 184.35C44.0298 185.105 44.1891 185.764 44.7783 186.326C46.1796 187.113 47.6575 187.712 49.2096 188.122C50.1881 188.591 51.1055 189.15 51.9642 189.799C53.0421 190.718 54.12 191.635 55.1979 192.554C59.6915 195.392 64.4821 196.071 69.5697 194.59C70.4225 194.335 71.0021 193.796 71.3063 192.973C71.4022 192.669 71.3818 192.39 71.2465 192.134C71.6393 191.528 71.8788 190.87 71.965 190.158C71.9375 189.795 71.8381 189.455 71.6656 189.14C71.3303 188.53 70.8704 188.03 70.2883 187.643C69.5745 187.359 68.8955 187.02 68.2523 186.625C68.2523 186.425 68.2523 186.226 68.2523 186.026C67.893 186.026 67.5337 186.026 67.1744 186.026C66.6427 185.682 66.1636 185.283 65.7373 184.829C65.754 184.635 65.6738 184.495 65.4977 184.41C65.0929 184.369 64.6941 184.309 64.3001 184.23C63.9623 183.922 63.603 183.642 63.2222 183.392C63.2533 183.214 63.2138 183.055 63.1024 182.913C62.8329 182.808 62.5539 182.768 62.2641 182.793C61.803 182.462 61.3634 182.103 60.9466 181.715C60.9718 181.518 60.9323 181.339 60.8269 181.176C60.5622 181.153 60.3227 181.093 60.1083 180.996C59.8161 180.609 59.4963 180.25 59.1502 179.918C59.1502 179.759 59.1502 179.599 59.1502 179.439C58.9094 179.453 58.7094 179.372 58.5513 179.2C58.4016 178.759 58.2016 178.34 57.9525 177.942C58.0423 177.862 58.0831 177.763 58.0723 177.643C58.1286 175.44 58.2483 173.245 58.4316 171.056C64.5169 172.681 69.947 175.536 74.7197 179.619C76.8682 181.703 78.5258 184.119 79.6899 186.865C80.9451 190.33 80.8648 193.763 79.4504 197.165C78.1725 199.878 76.4359 202.255 74.2406 204.291C70.032 207.827 65.281 210.423 59.9885 212.075C46.1892 216.165 32.456 215.965 18.7893 211.477C14.114 209.791 9.88231 207.357 6.09414 204.171C5.27231 203.269 4.45395 202.371 3.63895 201.476C-1.21298 194.972 -1.21298 188.465 3.63895 181.954C6.23031 179.031 9.24432 176.636 12.6812 174.768C14.2032 174.048 15.7202 173.329 17.2323 172.613C17.3122 168.002 17.392 163.411 17.4718 158.84Z" fill="#E1E0E1"/>
</svg>
