<svg width="223" height="216" viewBox="0 0 223 216" fill="none" xmlns="http://www.w3.org/2000/svg">
<path fill-rule="evenodd" clip-rule="evenodd" d="M0 0C74.3333 0 148.667 0 223 0C223 71.9009 223 143.802 223 215.702C148.667 215.702 74.3333 215.702 0 215.702C0 143.802 0 71.9009 0 0Z" fill="#FEFEFE"/>
<path fill-rule="evenodd" clip-rule="evenodd" d="M160.037 28.3417C159.237 28.3971 158.445 28.3407 157.661 28.172C156.323 26.4838 154.626 25.2958 152.569 24.6081C153.162 24.3644 153.388 24.025 153.248 23.5898C155.36 24.2504 156.831 25.608 157.661 27.6629C158.739 26.9752 159.871 26.8622 161.055 27.3235C160.17 27.6011 159.265 27.7708 158.34 27.8326C158.978 27.8998 159.544 28.0695 160.037 28.3417Z" fill="#AFC2D7"/>
<path fill-rule="evenodd" clip-rule="evenodd" d="M152.57 24.6081C154.627 25.2958 156.324 26.4838 157.662 28.1721C158.446 28.3407 159.238 28.3971 160.038 28.3418C160.812 28.7178 161.547 29.1706 162.244 29.6994C164.969 33.054 165.818 36.7876 164.79 40.9004C164.505 38.9691 164.109 37.0456 163.602 35.1302C162.935 34.0104 162.029 33.1055 160.886 32.4148C161.013 33.2362 161.465 33.9151 162.244 34.4514C162.524 35.7109 162.468 36.9556 162.074 38.185C161.8 37.5323 161.63 36.8534 161.565 36.1485C161.095 35.7917 160.756 35.3393 160.547 34.7908C158.908 33.7969 158.682 34.0233 159.868 35.4696C160.206 36.59 160.319 37.7213 160.207 38.8638C160.071 38.3981 159.901 37.9457 159.698 37.5061C158.898 36.9889 158.276 36.31 157.831 35.4696C158.278 37.1131 158.391 38.8102 158.171 40.5609C157.873 39.4717 157.42 38.4535 156.813 37.5061C155.782 36.587 154.764 35.6818 153.758 34.7908C149.292 36.6498 144.71 36.9325 140.012 35.6393C139.672 35.3566 139.333 35.0735 138.994 34.7908C139.107 34.6777 139.22 34.5644 139.333 34.4514C142.145 34.8369 144.974 34.8936 147.819 34.6211C149.221 34.2402 150.352 33.4484 151.213 32.2451C151.125 31.8171 150.898 31.4777 150.534 31.2268C148.852 30.5524 147.155 29.9299 145.443 29.36C147.356 28.9653 149.279 28.9086 151.213 29.1903C152.383 29.6893 153.458 30.3114 154.437 31.0571C154.658 30.4682 154.602 29.9024 154.268 29.36C153.204 28.6931 152.186 27.9579 151.213 27.1538C148.498 26.2316 145.783 25.7224 143.067 25.6264C143.156 26.1281 143.043 26.5805 142.727 26.9841C142.216 26.0911 141.99 26.2044 142.048 27.3235C141.138 27.3106 140.29 27.537 139.503 28.0023C138.423 27.5645 137.348 27.5645 136.278 28.0023C135.984 29.4703 135.927 30.9414 136.109 32.4148C135.684 32.779 135.231 32.779 134.751 32.4148C134.166 32.4525 134.11 32.6222 134.581 32.924C134.063 33.2664 133.498 33.4361 132.884 33.4331C132.783 34.1472 132.896 34.8261 133.223 35.4696C133.975 35.918 134.541 36.5402 134.921 37.3364C134.732 37.4664 134.619 37.6361 134.581 37.8456C133.788 37.3351 133.166 36.6562 132.714 35.809C131.473 33.1453 132.321 31.6745 135.26 31.3966C134.311 30.0171 134.424 28.7158 135.599 27.4932C137.153 26.5907 138.793 26.421 140.521 26.9841C141.143 25.9091 141.992 25.0606 143.067 24.4384C146.244 23.8169 149.411 23.8736 152.57 24.6081Z" fill="#23273A"/>
<path fill-rule="evenodd" clip-rule="evenodd" d="M86.7219 47.6887C85.5906 47.6887 84.459 47.6887 83.3277 47.6887C83.3277 47.5757 83.3277 47.4623 83.3277 47.3493C83.3144 46.9817 83.2011 46.6422 82.9882 46.331C81.5182 45.9461 80.0475 45.9461 78.5758 46.331C78.5028 45.7611 78.7292 45.4217 79.2546 45.3127C80.0465 45.3127 80.8387 45.3127 81.6306 45.3127C81.2735 43.2616 80.0288 42.4694 77.8969 42.9368C75.5074 41.9881 73.1314 40.9698 70.7691 39.882C70.2901 39.0626 69.6113 38.4968 68.7325 38.1849C68.5384 37.6849 68.2556 37.2321 67.884 36.8272C68.2142 40.5965 67.4224 44.1041 65.508 47.3493C62.5473 50.4237 59.4925 53.3655 56.3436 56.1742C56.1088 56.4923 56.1654 56.7183 56.5134 56.8531C55.2439 58.1201 54.1126 59.4778 53.1191 60.9261C53.3761 59.5063 53.8285 58.1486 54.4768 56.8531C56.7876 53.3546 59.729 50.4696 63.3018 48.1978C65.3943 46.572 66.5823 44.4788 66.8657 41.9185C65.858 44.286 64.3306 46.2658 62.2835 47.8584C60.7728 48.803 59.3587 49.878 58.0408 51.0829C57.9053 51.0055 57.849 50.8921 57.871 50.7435C58.1677 49.583 58.5635 48.4517 59.059 47.3493C59.1812 44.4655 59.634 41.6371 60.4167 38.8637C61.3756 35.5272 63.5818 33.8868 67.0354 33.9421C67.4828 32.9836 68.0486 32.135 68.7325 31.3964C76.0912 29.7574 81.3522 32.3597 84.5156 39.2031C85.4124 41.9983 86.1479 44.8267 86.7219 47.6887Z" fill="#2E344B"/>
<path fill-rule="evenodd" clip-rule="evenodd" d="M164.789 40.9004C164.388 42.9003 163.596 44.7104 162.413 46.3312C161.505 45.6754 160.486 45.5057 159.359 45.8221C157.078 47.7544 156.286 50.187 156.983 53.1196C156.814 54.5316 156.474 55.8893 155.964 57.1927C153.341 62.1859 149.155 64.6749 143.406 64.66C143.293 64.66 143.179 64.66 143.066 64.66C142.953 64.66 142.84 64.66 142.727 64.66C142.387 64.66 142.048 64.66 141.709 64.66C140.394 64.3429 139.15 63.8338 137.975 63.1326C135.461 60.1365 134.555 56.6856 135.26 52.7802C135.486 52.6672 135.712 52.5538 135.938 52.4408C136.802 52.3223 137.481 52.6051 137.975 53.2893C139.742 53.5469 141.496 53.4903 143.236 53.1196C145.011 53.6966 146.765 54.3191 148.497 54.9864C153.68 55.6296 155.943 53.4234 155.285 48.3677C155.285 48.2547 155.285 48.1413 155.285 48.0283C155.675 47.9295 155.902 47.6468 155.964 47.1797C155.252 45.7294 154.46 44.315 153.588 42.937C153.175 41.2612 152.836 39.5641 152.57 37.8456C151.455 38.404 150.323 38.8564 149.176 39.2033C145.566 39.5102 141.946 39.6232 138.314 39.5428C137.481 39.1623 136.576 38.8795 135.599 38.6942C135.236 38.405 134.896 38.1223 134.581 37.8456C134.618 37.6362 134.731 37.4665 134.92 37.3365C134.541 36.5402 133.975 35.9181 133.223 35.4697C132.895 34.8261 132.782 34.1473 132.884 33.4332C133.497 33.4362 134.063 33.2665 134.581 32.924C134.11 32.6223 134.166 32.4526 134.75 32.4149C135.231 32.7791 135.684 32.7791 136.108 32.4149C135.927 30.9415 135.983 29.4704 136.278 28.0024C137.348 27.5646 138.423 27.5646 139.502 28.0024C140.29 27.5371 141.138 27.3107 142.048 27.3236C141.99 26.2045 142.216 26.0911 142.727 26.9842C143.042 26.5806 143.155 26.1281 143.066 25.6265C145.783 25.7225 148.498 26.2317 151.212 27.1539C152.185 27.958 153.203 28.6931 154.267 29.3601C154.602 29.9025 154.658 30.4683 154.437 31.0572C153.457 30.3115 152.383 29.6893 151.212 29.1904C149.279 28.9087 147.356 28.9654 145.442 29.3601C147.155 29.93 148.852 30.5525 150.534 31.2269C150.898 31.4778 151.125 31.8172 151.212 32.2452C150.352 33.4484 149.22 34.2403 147.818 34.6211C144.973 34.8937 142.145 34.837 139.333 34.4514C139.22 34.5645 139.106 34.6778 138.993 34.7908C139.333 35.0736 139.672 35.3567 140.012 35.6394C144.709 36.9326 149.292 36.6499 153.758 34.7908C154.764 35.6818 155.782 36.5871 156.813 37.5062C157.42 38.4535 157.873 39.4718 158.171 40.561C158.391 38.8103 158.277 37.1132 157.831 35.4697C158.275 36.3101 158.898 36.9889 159.698 37.5062C159.901 37.9458 160.071 38.3982 160.207 38.8639C160.319 37.7214 160.206 36.5901 159.868 35.4697C158.681 34.0234 158.908 33.797 160.547 34.7908C160.755 35.3394 161.095 35.7918 161.565 36.1485C161.63 36.8535 161.8 37.5324 162.074 38.1851C162.467 36.9557 162.524 35.711 162.244 34.4514C161.465 33.9151 161.012 33.2363 160.886 32.4149C162.029 33.1056 162.934 34.0105 163.601 35.1303C164.109 37.0456 164.505 38.9691 164.789 40.9004Z" fill="#202130"/>
<path fill-rule="evenodd" clip-rule="evenodd" d="M69.0725 38.8638C69.412 39.3162 69.7514 39.769 70.0908 40.2215C69.7514 40.2215 69.412 40.2215 69.0725 40.2215C69.1214 41.5367 69.008 42.8377 68.7331 44.1248C68.7956 44.5918 69.022 44.8746 69.412 44.9734C68.877 45.1916 68.4242 45.531 68.0543 45.9916C67.87 45.9713 67.7569 45.8582 67.7148 45.6522C68.4293 43.3967 68.8821 41.1342 69.0725 38.8638Z" fill="#C99796"/>
<path fill-rule="evenodd" clip-rule="evenodd" d="M192.961 36.4878C193.212 36.4433 193.439 36.5 193.64 36.6575C190.597 40.0874 188.504 43.9907 187.361 48.3676C190.848 44.1984 195.091 41.087 200.089 39.0335C201.198 38.6218 202.33 38.5087 203.483 38.694C196.556 42.724 190.107 47.4196 184.136 52.78C184.193 52.8931 184.249 53.0064 184.306 53.1195C185.29 52.1222 186.478 51.5001 187.87 51.2526C191.384 51.0731 194.891 50.9601 198.392 50.9132C197.202 51.6783 195.957 52.3571 194.658 52.9498C190.446 53.4263 186.316 54.2749 182.27 55.4954C183.762 48.1323 187.326 41.7967 192.961 36.4878Z" fill="#FAFDFD"/>
<path fill-rule="evenodd" clip-rule="evenodd" d="M70.7695 39.8821C73.1319 40.9699 75.5079 41.9882 77.8974 42.9369C75.1752 42.6358 72.7993 41.6175 70.7695 39.8821Z" fill="#A6858D"/>
<path fill-rule="evenodd" clip-rule="evenodd" d="M68.7324 38.1848C69.6112 38.4967 70.29 39.0626 70.769 39.8819C72.7987 41.6174 75.1746 42.6356 77.8968 42.9367C80.0287 42.4693 81.2734 43.2615 81.6304 45.3127C80.8386 45.3127 80.0464 45.3127 79.2545 45.3127C79.7473 45.0405 80.3128 44.8707 80.9516 44.8035C78.3859 43.9041 75.7836 43.1122 73.1449 42.4276C71.9837 41.8509 70.9655 41.1157 70.0901 40.2213C69.7507 39.7689 69.4113 39.3161 69.0718 38.8637C68.9588 38.6373 68.8454 38.4112 68.7324 38.1848Z" fill="#53404C"/>
<path fill-rule="evenodd" clip-rule="evenodd" d="M153.588 42.9368C153.123 42.8159 152.784 42.5329 152.57 42.0882C152.391 41.1168 152.164 40.1549 151.891 39.2031C151.27 39.6882 150.591 39.8579 149.855 39.7123C150.081 39.5993 150.307 39.4859 150.533 39.3729C150.095 39.2065 149.642 39.1499 149.176 39.2031C150.323 38.8563 151.455 38.4038 152.57 37.8455C152.836 39.564 153.175 41.2611 153.588 42.9368Z" fill="#B27A7E"/>
<path fill-rule="evenodd" clip-rule="evenodd" d="M140.691 44.2943C140.041 44.1979 139.475 44.3109 138.994 44.6337C138.337 44.4131 137.658 44.3001 136.957 44.2943C136.957 44.1813 136.957 44.0679 136.957 43.9549C137.07 43.7285 137.183 43.5024 137.296 43.276C138.17 42.9179 139.075 42.8613 140.012 43.1063C140.461 43.3833 140.687 43.7794 140.691 44.2943Z" fill="#2C1D33"/>
<path fill-rule="evenodd" clip-rule="evenodd" d="M149.177 39.2035C149.643 39.1502 150.096 39.2068 150.535 39.3732C150.308 39.4862 150.082 39.5996 149.856 39.7126C150.592 39.8582 151.271 39.6885 151.892 39.2035C152.166 40.1552 152.392 41.1171 152.571 42.0885C152.785 42.5332 153.124 42.8163 153.589 42.9371C154.461 44.3151 155.253 45.7295 155.965 47.1799C155.903 47.6469 155.677 47.9296 155.287 48.0284C153.722 48.5501 152.138 49.0026 150.535 49.3861C150.044 46.4803 148.347 45.349 145.443 45.9919C144.886 45.9851 144.433 46.2115 144.086 46.6707C143.094 46.3629 142.076 46.2498 141.031 46.3313C141.142 45.6565 141.255 44.9777 141.37 44.2948C141.131 43.6041 140.905 42.9252 140.691 42.2582C142.488 42.1965 142.488 42.0268 140.691 41.7491C141.031 41.6361 141.37 41.5227 141.71 41.4097C140.846 41.039 139.941 40.8127 138.994 40.7309C138.568 40.5893 138.342 40.3066 138.315 39.8823C138.315 39.7693 138.315 39.6559 138.315 39.5429C141.947 39.6233 145.567 39.5103 149.177 39.2035Z" fill="#FAADA1"/>
<path fill-rule="evenodd" clip-rule="evenodd" d="M140.69 44.2945C140.431 44.5552 140.092 44.7249 139.672 44.8036C139.971 45.0439 140.197 45.327 140.351 45.6522C140.106 45.7941 139.936 46.0201 139.842 46.331C139.7 45.9047 139.417 45.6783 138.993 45.6522C138.993 45.3128 138.993 44.9733 138.993 44.6339C139.475 44.3111 140.04 44.1981 140.69 44.2945Z" fill="#805A5C"/>
<path fill-rule="evenodd" clip-rule="evenodd" d="M146.799 43.9551C148.683 43.575 150.041 44.2538 150.873 45.9917C150.703 46.1047 150.533 46.2181 150.363 46.3311C149.314 45.5603 148.126 45.1642 146.799 45.1431C146.398 44.7545 146.398 44.3584 146.799 43.9551Z" fill="#2F1F31"/>
<path fill-rule="evenodd" clip-rule="evenodd" d="M69.4114 44.9732C70.6723 44.947 71.9167 45.0601 73.145 45.3126C73.145 45.652 73.145 45.9914 73.145 46.3308C71.5735 46.0834 69.9894 45.97 68.3931 45.9914C68.2801 45.9914 68.1667 45.9914 68.0537 45.9914C68.4237 45.5308 68.8765 45.1914 69.4114 44.9732Z" fill="#39272D"/>
<path fill-rule="evenodd" clip-rule="evenodd" d="M136.957 43.9551C136.957 44.0681 136.957 44.1815 136.957 44.2945C136.13 44.4255 135.451 44.8216 134.92 45.4825C135.538 45.3209 136.104 45.3776 136.617 45.6522C135.855 45.9763 135.063 46.2027 134.241 46.331C134.267 47.2495 134.38 48.1547 134.581 49.0464C134.371 49.0087 134.202 48.8957 134.072 48.707C133.992 47.9385 133.822 47.203 133.562 46.5007C134.269 45.0555 135.4 44.2069 136.957 43.9551Z" fill="#4A586D"/>
<path fill-rule="evenodd" clip-rule="evenodd" d="M136.956 44.2944C137.657 44.3002 138.336 44.4132 138.993 44.6339C138.993 44.9733 138.993 45.3127 138.993 45.6521C138.744 46.0621 138.631 46.5146 138.654 47.0098C137.975 46.7834 137.296 46.5574 136.617 46.331C136.617 46.1046 136.617 45.8785 136.617 45.6521C136.103 45.3775 135.538 45.3208 134.92 45.4824C135.45 44.8216 136.129 44.4255 136.956 44.2944Z" fill="#DAB6B6"/>
<path fill-rule="evenodd" clip-rule="evenodd" d="M70.09 40.2217C70.9653 41.1161 71.9836 41.8512 73.1447 42.4279C75.7834 43.1125 78.3858 43.9044 80.9514 44.8039C80.3127 44.8711 79.7472 45.0408 79.2543 45.313C78.7289 45.422 78.5025 45.7614 78.5755 46.3313C80.0472 45.9464 81.5179 45.9464 82.988 46.3313C83.2008 46.6425 83.3142 46.9819 83.3274 47.3495C77.8983 47.7456 72.4676 47.7456 67.0352 47.3495C67.3837 46.7746 67.8365 46.3221 68.3928 45.9918C69.9891 45.9705 71.5732 46.0838 73.1447 46.3313C73.1447 45.9918 73.1447 45.6524 73.1447 45.313C71.9164 45.0605 70.6721 44.9474 69.4111 44.9736C69.0211 44.8748 68.7947 44.5921 68.7323 44.125C69.0072 42.8379 69.1206 41.5369 69.0717 40.2217C69.4111 40.2217 69.7505 40.2217 70.09 40.2217Z" fill="#F4AA9E"/>
<path fill-rule="evenodd" clip-rule="evenodd" d="M138.993 45.6523C139.417 45.6785 139.7 45.9049 139.841 46.3312C139.936 46.0203 140.105 45.7942 140.35 45.6523C140.35 45.7654 140.35 45.8787 140.35 45.9918C140.35 46.3312 140.35 46.6706 140.35 47.01C139.898 47.01 139.445 47.01 138.993 47.01C138.88 47.01 138.766 47.01 138.653 47.01C138.631 46.5148 138.744 46.0624 138.993 45.6523Z" fill="#201434"/>
<path fill-rule="evenodd" clip-rule="evenodd" d="M173.615 66.6963C173.748 66.1265 173.918 65.5606 174.124 64.9992C172.985 56.8881 174.626 49.4208 179.046 42.5974C179.159 42.7104 179.272 42.8238 179.385 42.9368C178.592 45.2592 177.97 47.6351 177.519 50.0647C177.417 54.4857 176.851 58.7851 175.821 62.9627C177.013 61.7367 178.427 60.8882 180.064 60.417C184.542 59.803 188.954 59.0112 193.302 58.0411C191.509 59.5084 189.473 60.5267 187.192 61.0959C182.813 61.4482 178.739 62.6929 174.973 64.8295C174.638 65.5651 174.185 66.1872 173.615 66.6963Z" fill="#F9FCFD"/>
<path fill-rule="evenodd" clip-rule="evenodd" d="M140.351 45.9917C141.814 46.5843 143.171 47.1501 144.424 47.6888C144.064 48.8252 144.008 49.9565 144.254 51.083C143.836 50.1326 143.609 49.1144 143.575 48.0282C142.733 47.4125 141.771 47.1865 140.69 47.3494C140.119 50.1822 138.422 51.2005 135.599 50.4042C135.599 50.2912 135.599 50.1778 135.599 50.0648C136.891 50.1791 138.135 50.0094 139.332 49.5556C139.847 48.9117 140.073 48.1762 140.011 47.3494C139.573 47.4298 139.233 47.3168 138.993 47.01C139.445 47.01 139.898 47.01 140.351 47.01C140.351 46.6705 140.351 46.3311 140.351 45.9917Z" fill="#925E5E"/>
<path fill-rule="evenodd" clip-rule="evenodd" d="M155.285 48.0281C155.285 48.1412 155.285 48.2545 155.285 48.3675C153.766 48.968 152.181 49.4771 150.533 49.8949C149.415 52.4084 147.605 53.0872 145.102 51.9315C148.518 52.8014 150.046 51.5001 149.684 48.0281C149.554 48.2168 149.385 48.3299 149.175 48.3675C149.033 48.1225 148.807 47.9528 148.496 47.8584C148.908 47.4827 148.795 47.313 148.157 47.3493C148.299 47.1042 148.525 46.9345 148.836 46.8402C147.539 46.1135 146.294 46.1701 145.102 47.0099C144.989 46.9532 144.876 46.8968 144.763 46.8402C145.062 46.5998 145.288 46.3168 145.442 45.9916C148.346 45.3487 150.043 46.48 150.533 49.3858C152.136 49.0023 153.72 48.5498 155.285 48.0281Z" fill="#7A4C4B"/>
<path fill-rule="evenodd" clip-rule="evenodd" d="M67.0352 47.6885C67.0352 47.5755 67.0352 47.4621 67.0352 47.3491C72.4676 47.7452 77.8983 47.7452 83.3274 47.3491C83.3274 47.4621 83.3274 47.5755 83.3274 47.6885C83.101 47.6885 82.988 47.8016 82.988 48.028C81.505 48.0168 80.0343 48.1298 78.5755 48.3674C78.4754 49.126 78.5887 49.8048 78.9149 50.4039C79.0303 51.4816 79.5961 52.2168 80.612 52.6102C82.2141 52.8535 83.7978 52.7968 85.3639 52.4404C85.3639 52.5535 85.3639 52.6668 85.3639 52.7799C80.8153 54.4644 78.326 52.8803 77.8966 48.028C76.9914 48.028 76.0865 48.028 75.1813 48.028C75.3276 49.6256 74.8751 50.9833 73.8236 52.101C74.3694 50.9161 74.7088 49.6714 74.8419 48.3674C73.9502 48.1664 73.045 48.0534 72.1265 48.028C70.4419 47.772 68.7448 47.659 67.0352 47.6885Z" fill="#7A4B4E"/>
<path fill-rule="evenodd" clip-rule="evenodd" d="M136.617 45.6521C136.617 45.8785 136.617 46.1045 136.617 46.3309C136.013 47.4697 135.674 48.7144 135.599 50.0646C135.599 50.1776 135.599 50.291 135.599 50.404C135.539 51.1239 135.653 51.8028 135.938 52.4405C135.712 52.5536 135.486 52.6669 135.259 52.78C135.391 51.4413 135.164 50.1966 134.581 49.0463C134.38 48.1547 134.267 47.2494 134.241 46.3309C135.063 46.2026 135.855 45.9762 136.617 45.6521Z" fill="#B9C3D5"/>
<path fill-rule="evenodd" clip-rule="evenodd" d="M138.314 39.8821C138.34 40.3064 138.566 40.5891 138.993 40.7306C139.939 40.8124 140.844 41.0388 141.708 41.4095C141.368 41.5225 141.029 41.6359 140.69 41.7489C142.487 42.0265 142.487 42.1963 140.69 42.258C140.903 42.925 141.13 43.6038 141.368 44.2946C141.253 44.9775 141.14 45.6563 141.029 46.3311C142.074 46.2496 143.092 46.3627 144.084 46.6705C144.431 46.2113 144.884 45.9849 145.442 45.9917C145.288 46.3168 145.062 46.5999 144.763 46.8402C144.876 46.8969 144.989 46.9533 145.102 47.0099C146.294 46.1702 147.539 46.1135 148.836 46.8402C148.525 46.9346 148.299 47.1043 148.157 47.3494C147.84 47.7119 147.727 48.1643 147.818 48.707C148.36 48.798 148.813 48.6846 149.175 48.3676C149.385 48.3299 149.554 48.2169 149.684 48.0282C150.046 51.5001 148.518 52.8015 145.102 51.9315C147.605 53.0873 149.415 52.4084 150.533 49.895C152.181 49.4772 153.766 48.9681 155.285 48.3676C155.942 53.4233 153.679 55.6295 148.496 54.9863C146.764 54.319 145.01 53.6965 143.235 53.1195C141.495 53.4902 139.742 53.5469 137.974 53.2892C137.48 52.605 136.802 52.3222 135.938 52.4407C135.652 51.8029 135.539 51.1241 135.598 50.4042C138.422 51.2004 140.119 50.1822 140.69 47.3494C141.771 47.1864 142.733 47.4125 143.575 48.0282C143.609 49.1143 143.835 50.1326 144.254 51.083C144.007 49.9565 144.064 48.8252 144.423 47.6888C143.171 47.1501 141.813 46.5843 140.35 45.9917C140.35 45.8786 140.35 45.7653 140.35 45.6522C140.196 45.3271 139.97 45.044 139.671 44.8037C140.091 44.7249 140.431 44.5552 140.69 44.2946C140.686 43.7797 140.46 43.3836 140.011 43.1066C139.074 42.8615 138.169 42.9182 137.295 43.2763C137.234 41.9912 137.574 40.86 138.314 39.8821Z" fill="#F4AFA4"/>
<path fill-rule="evenodd" clip-rule="evenodd" d="M148.158 47.3493C148.796 47.313 148.909 47.4827 148.497 47.8584C148.808 47.9528 149.034 48.1225 149.176 48.3675C148.814 48.6846 148.361 48.7979 147.818 48.707C147.728 48.1642 147.841 47.7118 148.158 47.3493Z" fill="#1E1638"/>
<path fill-rule="evenodd" clip-rule="evenodd" d="M66.6963 48.0281C66.6963 47.8017 66.8093 47.6887 67.0357 47.6887C68.7454 47.6591 70.4425 47.7722 72.127 48.0281C72.2489 48.6631 72.5883 49.1723 73.1453 49.5555C72.6375 49.7276 72.2414 49.5579 71.9573 49.0464C71.863 49.3573 71.6933 49.5833 71.4482 49.7252C71.4482 49.2727 71.4482 48.82 71.4482 48.3675C70.7982 48.2711 70.2327 48.3841 69.7511 48.7069C69.1096 48.638 68.6004 48.8641 68.2237 49.3858C68.1317 48.6027 68.5275 48.2066 69.4117 48.1978C68.5136 48.0291 67.6083 47.9724 66.6963 48.0281Z" fill="#BDA7B4"/>
<path fill-rule="evenodd" clip-rule="evenodd" d="M173.614 66.6963C173.569 66.9471 173.626 67.1735 173.783 67.3751C175.285 65.9933 177.039 65.0318 179.044 64.49C182.741 63.9096 186.362 63.1174 189.906 62.1141C187.721 63.9989 185.232 65.3566 182.439 66.1872C178.124 66.2435 174.504 67.7709 171.577 70.7693C171.445 67.184 170.823 63.6765 169.71 60.2473C169.405 55.5191 170.197 50.9933 172.086 46.6704C172.155 51.9467 172.438 57.2078 172.935 62.4535C172.824 64.2168 172.767 65.9706 172.765 67.7146C173.054 67.351 173.337 67.0116 173.614 66.6963Z" fill="#FBFDFD"/>
<path fill-rule="evenodd" clip-rule="evenodd" d="M68.733 38.1848C68.846 38.4112 68.9594 38.6373 69.0724 38.8637C68.882 41.1341 68.4292 43.3967 67.7147 45.6521C67.7568 45.8581 67.8698 45.9712 68.0541 45.9915C68.1672 45.9915 68.2805 45.9915 68.3935 45.9915C67.8372 46.3218 67.3844 46.7742 67.0359 47.3492C67.0359 47.4622 67.0359 47.5756 67.0359 47.6886C66.8095 47.6886 66.6964 47.8017 66.6964 48.0281C66.357 48.1411 66.1306 48.3675 66.0176 48.7069C65.2162 49.2819 64.5374 49.9607 63.9811 50.7434C63.6416 50.8565 63.4153 51.0829 63.3022 51.4223C62.2561 52.0577 61.3509 52.8495 60.5869 53.7982C59.0354 54.5579 57.6777 55.5761 56.5138 56.853C56.1659 56.7183 56.1092 56.4922 56.3441 56.1742C59.4929 53.3655 62.5477 50.4237 65.5085 47.3492C67.4228 44.104 68.2147 40.5964 67.8844 36.8271C68.2561 37.2321 68.5388 37.6849 68.733 38.1848Z" fill="#5C5B71"/>
<path fill-rule="evenodd" clip-rule="evenodd" d="M82.9897 48.0283C83.3291 48.0283 83.6685 48.0283 84.008 48.0283C83.9852 48.5236 84.0983 48.976 84.3474 49.386C83.6489 48.8996 82.8566 48.6732 81.9714 48.7072C82.0624 49.2499 81.949 49.7024 81.632 50.0649C81.3632 49.4685 80.9107 49.0157 80.2743 48.7072C80.0035 48.8623 79.8904 49.0887 79.9349 49.386C79.4825 49.6124 79.143 49.9518 78.9166 50.4043C78.5905 49.8052 78.4771 49.1264 78.5772 48.3678C80.0361 48.1302 81.5068 48.0171 82.9897 48.0283Z" fill="#C5B1BC"/>
<path fill-rule="evenodd" clip-rule="evenodd" d="M136.617 46.3311C137.296 46.5574 137.975 46.7835 138.653 47.0099C138.766 47.0099 138.88 47.0099 138.993 47.0099C139.233 47.3167 139.573 47.4298 140.011 47.3493C140.073 48.1762 139.847 48.9117 139.332 49.5556C138.135 50.0094 136.891 50.1791 135.599 50.0647C135.673 48.7145 136.013 47.4698 136.617 46.3311Z" fill="#F8B0A3"/>
<path fill-rule="evenodd" clip-rule="evenodd" d="M82.9893 48.0281C82.9893 47.8017 83.1023 47.6887 83.3287 47.6887C84.46 47.6887 85.5916 47.6887 86.7229 47.6887C86.7789 48.7131 86.7222 49.7314 86.5532 50.7435C86.4775 51.5517 86.0814 52.1172 85.3652 52.4406C85.1222 51.3891 84.7828 50.3708 84.3469 49.3858C84.0978 48.9758 83.9848 48.5234 84.0075 48.0281C83.6681 48.0281 83.3287 48.0281 82.9893 48.0281Z" fill="#858695"/>
<path fill-rule="evenodd" clip-rule="evenodd" d="M81.6304 50.0645C81.2566 50.4372 80.8042 50.4938 80.2727 50.2342C80.0174 50.0064 79.9041 49.7237 79.9332 49.3856C79.8888 49.0883 80.0018 48.8619 80.2727 48.7068C80.9091 49.0153 81.3615 49.4681 81.6304 50.0645Z" fill="#574D76"/>
<path fill-rule="evenodd" clip-rule="evenodd" d="M161.735 49.3856C161.046 50.411 160.367 51.4293 159.698 52.4404C158.916 52.6078 158.124 52.7208 157.322 52.7798C157.395 50.7151 158.074 48.8483 159.359 47.1794C161.393 46.5545 162.185 47.29 161.735 49.3856Z" fill="#F8A898"/>
<path fill-rule="evenodd" clip-rule="evenodd" d="M66.6965 48.0283C67.6085 47.9726 68.5137 48.0293 69.4119 48.198C68.5277 48.2068 68.1319 48.6029 68.2239 49.3859C68.6006 48.8643 69.1098 48.6382 69.7513 48.7071C69.6691 50.4069 70.2349 50.7463 71.4484 49.7254C71.6934 49.5835 71.8632 49.3574 71.9575 49.0465C72.2416 49.558 72.6377 49.7277 73.1455 49.5557C72.5885 49.1724 72.2491 48.6633 72.1272 48.0283C73.0457 48.0537 73.9509 48.1667 74.8426 48.3677C74.7095 49.6717 74.3701 50.9164 73.8243 52.1013C71.7063 52.9278 69.5568 52.9845 67.3753 52.271C66.7603 50.9398 66.5339 49.5254 66.6965 48.0283Z" fill="#F8C8C1"/>
<path fill-rule="evenodd" clip-rule="evenodd" d="M71.4471 49.7252C70.2337 50.7462 69.6679 50.4067 69.75 48.7069C70.2316 48.3841 70.7971 48.2711 71.4471 48.3675C71.4471 48.82 71.4471 49.2727 71.4471 49.7252Z" fill="#8D839D"/>
<path fill-rule="evenodd" clip-rule="evenodd" d="M66.6959 48.0281C66.5333 49.5253 66.7597 50.9396 67.3747 52.2708C69.5562 52.9843 71.7058 52.9276 73.8238 52.1011C73.2892 52.9297 72.4973 53.3254 71.4478 53.2891C67.6555 54.0569 65.845 52.5295 66.0171 48.7069C66.1301 48.3675 66.3565 48.1411 66.6959 48.0281Z" fill="#794D50"/>
<path fill-rule="evenodd" clip-rule="evenodd" d="M84.3458 49.3858C84.7816 50.3708 85.121 51.389 85.364 52.4406C83.798 52.797 82.2142 52.8536 80.6121 52.6103C79.5963 52.2169 79.0304 51.4817 78.915 50.404C79.1414 49.9516 79.4809 49.6122 79.9333 49.3858C79.9041 49.7238 80.0175 50.0066 80.2727 50.2343C80.8043 50.494 81.2567 50.4373 81.6304 50.0646C81.9474 49.7021 82.0608 49.2497 81.9698 48.7069C82.855 48.673 83.6473 48.8994 84.3458 49.3858Z" fill="#F8CBC5"/>
<path fill-rule="evenodd" clip-rule="evenodd" d="M63.9806 50.7437C63.9806 51.8749 63.9806 53.0066 63.9806 54.1379C63.5502 53.3216 63.3238 52.4163 63.3018 51.4225C63.4148 51.0831 63.6412 50.8567 63.9806 50.7437Z" fill="#71443D"/>
<path fill-rule="evenodd" clip-rule="evenodd" d="M85.365 52.78C85.697 52.8855 85.9234 53.1119 86.0438 53.4588C85.7587 53.878 85.4193 54.2174 85.0256 54.4771C84.4489 59.0362 82.073 62.204 77.8977 63.9809C77.4385 65.5035 77.5519 66.9743 78.2372 68.3934C78.4863 68.8034 78.5993 69.2558 78.5766 69.7511C78.0522 69.5033 77.7694 69.0508 77.728 68.3934C77.6231 68.8231 77.4534 69.2192 77.2189 69.5813C76.8455 69.728 76.6191 69.5583 76.54 69.0722C77.1381 67.5519 77.2511 65.9679 76.8795 64.3203C75.2173 64.2443 73.6332 63.8482 72.1276 63.1323C70.5547 62.2851 69.197 61.2102 68.0545 59.9078C67.7918 58.7032 67.3393 57.5719 66.6968 56.5136C66.8098 56.2872 66.9232 56.0612 67.0362 55.8348C66.709 54.64 66.2566 53.5087 65.6786 52.4406C66.2647 51.0482 65.869 50.5955 64.4906 51.0829C64.4291 52.1673 64.2594 53.1856 63.9814 54.1377C63.9814 53.0064 63.9814 51.8747 63.9814 50.7434C64.5378 49.9607 65.2166 49.2819 66.018 48.7069C65.8459 52.5295 67.6564 54.0569 71.4487 53.2891C72.4982 53.3254 73.2901 52.9297 73.8247 52.1011C74.8762 50.9834 75.3286 49.6257 75.1824 48.0281C76.0876 48.0281 76.9925 48.0281 77.8977 48.0281C78.3271 52.8804 80.8164 54.4645 85.365 52.78Z" fill="#FAADA0"/>
<path fill-rule="evenodd" clip-rule="evenodd" d="M159.019 53.1193C158.5 54.2221 158.048 55.3534 157.661 56.5135C157.339 56.0319 157.226 55.4664 157.322 54.8164C157.096 53.4587 157.661 52.8929 159.019 53.1193Z" fill="#1E1334"/>
<path fill-rule="evenodd" clip-rule="evenodd" d="M183.796 38.5242C184.008 38.6657 184.121 38.8921 184.135 39.203C183.615 42.1183 183.332 45.0601 183.287 48.028C182.409 51.3428 181.278 54.5106 179.893 57.5318C180.006 57.6448 180.119 57.7582 180.232 57.8712C180.711 57.4344 181.22 57.0383 181.759 56.6832C185.596 55.3812 189.556 54.7024 193.639 54.6467C195.171 54.2479 196.642 53.7954 198.052 53.289C196.422 54.6891 194.612 55.8204 192.621 56.6832C188.903 57.2789 185.169 57.8447 181.42 58.3803C180.602 58.9176 179.696 59.2571 178.705 59.3986C178.268 59.8772 177.872 60.3863 177.517 60.926C178.969 53.3084 181.062 45.8411 183.796 38.5242Z" fill="#FAFDFD"/>
<path fill-rule="evenodd" clip-rule="evenodd" d="M85.0243 54.4773C85.6311 54.3806 86.197 54.4936 86.7214 54.8167C87.6191 56.28 88.7508 57.5246 90.1156 58.5504C92.7091 63.4523 93.1619 68.5436 91.4733 73.8243C91.3181 74.0952 91.0918 74.2082 90.7944 74.1638C87.893 73.2779 85.1777 72.0335 82.6483 70.4301C82.4423 70.4722 82.3292 70.5852 82.3089 70.7695C82.1959 70.7695 82.0825 70.7695 81.9695 70.7695C81.2465 70.2173 80.5676 69.5951 79.9329 68.9027C79.4153 68.5602 78.8495 68.3905 78.2358 68.3936C77.5505 66.9745 77.4372 65.5038 77.8964 63.9811C82.0716 62.2042 84.4476 59.0364 85.0243 54.4773Z" fill="#1F2130"/>
<path fill-rule="evenodd" clip-rule="evenodd" d="M89.0986 52.1013C92.1242 55.4093 95.3487 58.5771 98.7721 61.6051C99.5986 62.7707 100.277 64.015 100.809 65.3388C101.339 67.8882 100.83 70.1511 99.2813 72.1272C99.4266 70.7749 99.5396 69.4173 99.6207 68.0541C99.3373 64.4916 97.7532 61.6065 94.8688 59.3989C91.5988 57.9957 89.6753 55.5634 89.0986 52.1013Z" fill="#BBCCE2"/>
<path fill-rule="evenodd" clip-rule="evenodd" d="M79.9329 57.8714C79.9329 57.7583 79.9329 57.645 79.9329 57.5319C79.9431 57.1935 79.7734 56.9671 79.4238 56.8531C77.0153 57.1837 74.6956 57.2967 72.4656 57.1925C72.2393 57.1925 72.1262 57.3055 72.1262 57.5319C71.8194 57.2913 71.7064 56.9519 71.7868 56.5137C74.6152 56.5137 77.4439 56.5137 80.2723 56.5137C80.3633 57.0564 80.2499 57.5089 79.9329 57.8714Z" fill="#B86575"/>
<path fill-rule="evenodd" clip-rule="evenodd" d="M157.322 54.8169C157.226 55.4669 157.339 56.0324 157.661 56.514C157.515 56.9247 157.288 57.2641 156.983 57.5323C156.879 56.553 156.992 55.6478 157.322 54.8169Z" fill="#71515E"/>
<path fill-rule="evenodd" clip-rule="evenodd" d="M60.5871 53.7983C61.4597 55.1112 62.7041 55.677 64.3207 55.4954C64.7223 57.3164 65.5708 58.9005 66.8664 60.2474C67.1389 62.7116 66.9692 65.1442 66.3572 67.5449C66.1685 67.8881 65.9425 68.1708 65.6784 68.3935C64.9198 68.6406 64.2976 69.093 63.8116 69.7512C61.8025 72.0986 60.6146 74.814 60.2477 77.8973C59.9632 77.7812 59.8499 77.5551 59.9082 77.2184C59.9928 75.6364 60.4452 74.1657 61.2659 72.806C61.1529 72.6929 61.0395 72.5796 60.9265 72.4665C57.4288 74.5377 53.6951 76.0084 49.7256 76.879C49.7256 75.5213 49.7256 74.1636 49.7256 72.806C50.1855 68.6188 51.3168 64.6588 53.1198 60.9262C54.1133 59.4779 55.2446 58.1202 56.514 56.8531C57.6779 55.5762 59.0356 54.558 60.5871 53.7983Z" fill="#1F2130"/>
<path fill-rule="evenodd" clip-rule="evenodd" d="M138.994 55.8347C141.098 56.7135 143.191 56.7135 145.273 55.8347C145.33 55.9477 145.386 56.0611 145.443 56.1741C143.56 57.7589 141.523 57.9286 139.333 56.6833C139.078 56.4555 138.965 56.1728 138.994 55.8347Z" fill="#D6D6DD"/>
<path fill-rule="evenodd" clip-rule="evenodd" d="M79.9331 57.5319C77.7527 58.1676 75.4897 58.394 73.1447 58.2107C72.9183 57.8713 72.6922 57.5319 72.4658 57.1924C74.6958 57.2967 77.0154 57.1836 79.424 56.853C79.7736 56.9671 79.9433 57.1935 79.9331 57.5319Z" fill="#F8EEF1"/>
<path fill-rule="evenodd" clip-rule="evenodd" d="M54.477 56.853C49.9362 62.1599 48.1824 68.2695 49.216 75.1818C49.2791 74.321 49.4488 73.5291 49.7251 72.8058C49.7251 74.1635 49.7251 75.5212 49.7251 76.8789C49.3151 77.128 48.8626 77.241 48.3674 77.2183C46.3512 73.0373 46.1248 68.7382 47.6886 64.3203C48.8575 61.4508 50.3282 58.7354 52.101 56.1742C54.0422 54.345 55.9657 52.5349 57.8712 50.7434C57.8491 50.8921 57.9055 51.0055 58.0409 51.0828C59.3589 49.8779 60.7729 48.8029 62.2837 47.8583C64.3307 46.2658 65.8581 44.2859 66.8659 41.9185C66.5825 44.4787 65.3945 46.5719 63.302 48.1978C59.7292 50.4695 56.7878 53.3546 54.477 56.853Z" fill="#5A617C"/>
<path fill-rule="evenodd" clip-rule="evenodd" d="M86.7215 47.6887C87.0019 51.9152 88.586 55.5922 91.4734 58.7199C90.9656 58.892 90.5695 58.7223 90.2854 58.2108C90.15 58.2882 90.0937 58.4015 90.1157 58.5502C88.7509 57.5245 87.6193 56.2798 86.7215 54.8166C86.1971 54.4934 85.6313 54.3804 85.0244 54.4772C85.4181 54.2175 85.7576 53.8781 86.0427 53.4589C85.9222 53.112 85.6958 52.8856 85.3638 52.78C85.3638 52.667 85.3638 52.5537 85.3638 52.4406C86.08 52.1172 86.4761 51.5517 86.5518 50.7435C86.7208 49.7314 86.7775 48.7131 86.7215 47.6887Z" fill="#2E3149"/>
<path fill-rule="evenodd" clip-rule="evenodd" d="M79.9339 57.532C79.9339 57.645 79.9339 57.7584 79.9339 57.8714C78.4663 59.4606 76.6558 59.9697 74.5032 59.3988C73.8858 59.1476 73.4333 58.7515 73.1455 58.2108C75.4906 58.3941 77.7535 58.1677 79.9339 57.532Z" fill="#5A3836"/>
<path fill-rule="evenodd" clip-rule="evenodd" d="M89.0977 52.1013C89.6744 55.5634 91.5979 57.9957 94.8679 59.3988C97.7523 61.6064 99.3364 64.4915 99.6198 68.0541C99.5387 69.4172 99.4256 70.7749 99.2804 72.1271C98.5204 73.5323 97.6719 74.89 96.7347 76.2002C96.507 76.4554 96.2242 76.5688 95.8862 76.5396C96.5222 75.0326 97.2578 73.5619 98.0924 72.1271C99.1548 67.509 97.9668 63.6056 94.5285 60.4171C94.3021 60.1907 94.076 60.1907 93.8496 60.4171C97.273 64.1687 98.2346 68.5245 96.7347 73.4848C96.4221 74.4474 96.026 75.3523 95.5467 76.2002C93.8608 75.6951 92.2767 75.0163 90.7948 74.1637C91.0922 74.2081 91.3186 74.0951 91.4737 73.8242C93.1623 68.5435 92.7095 63.4522 90.116 58.5503C90.0939 58.4016 90.1503 58.2882 90.2857 58.2108C90.5698 58.7224 90.9659 58.8921 91.4737 58.72C88.5862 55.5922 87.0021 51.9153 86.7218 47.6888C86.1478 44.8268 85.4123 41.9984 84.5155 39.2032C81.3521 32.3598 76.0911 29.7575 68.7324 31.3965C69.1027 30.4027 69.7816 29.6675 70.769 29.1903C73.7345 28.8105 76.5629 29.2629 79.2545 30.548C82.609 33.0095 84.9286 36.234 86.2126 40.2215C87.423 44.1327 88.3846 48.0923 89.0977 52.1013Z" fill="#585F79"/>
<path fill-rule="evenodd" clip-rule="evenodd" d="M72.4664 57.1924C72.6928 57.5318 72.9188 57.8712 73.1452 58.2106C73.433 58.7513 73.8855 59.1475 74.5029 59.3986C76.6555 59.9695 78.466 59.4604 79.9337 57.8712C79.4459 59.8799 78.1446 60.7848 76.0303 60.5866C73.9863 60.5231 72.6853 59.5049 72.127 57.5318C72.127 57.3054 72.24 57.1924 72.4664 57.1924Z" fill="#B74164"/>
<path fill-rule="evenodd" clip-rule="evenodd" d="M52.1007 56.1743C50.3279 58.7356 48.8572 61.451 47.6882 64.3204C47.4475 64.0136 47.1081 63.9006 46.6699 63.981C47.8956 60.9612 49.7057 58.3588 52.1007 56.1743Z" fill="#B1C1D8"/>
<path fill-rule="evenodd" clip-rule="evenodd" d="M156.305 67.7148C155.736 68.2894 155.284 68.9682 154.947 69.7513C154.085 70.3283 153.18 70.8374 152.232 71.2787C150.159 73.267 148.009 75.1338 145.783 76.8791C145.48 76.6721 145.141 76.5591 144.764 76.5397C144.116 74.6749 143.777 72.7518 143.746 70.7696C143.746 69.5249 143.746 68.2806 143.746 67.0359C146.061 67.0862 148.323 66.8031 150.535 66.1874C151.533 64.8799 152.777 63.8616 154.268 63.1326C154.091 62.9422 153.978 62.7158 153.929 62.4537C154.394 61.6666 154.62 60.8181 154.608 59.9081C154.947 59.9081 155.286 59.9081 155.626 59.9081C155.739 59.0028 155.852 58.0979 155.965 57.1927C156.175 57.155 156.344 57.042 156.474 56.8533C156.715 60.4813 156.658 64.102 156.305 67.7148Z" fill="#FBB0A1"/>
<path fill-rule="evenodd" clip-rule="evenodd" d="M162.414 46.3313C162.56 47.4775 162.334 48.4958 161.735 49.3861C162.185 47.2905 161.394 46.555 159.359 47.1798C158.074 48.8488 157.395 50.7156 157.323 52.7803C158.124 52.7212 158.916 52.6082 159.698 52.4409C159.472 52.6673 159.246 52.8933 159.02 53.1197C157.662 52.8933 157.096 53.4591 157.323 54.8168C156.992 55.6477 156.879 56.553 156.983 57.5322C157.061 60.9373 156.948 64.3315 156.644 67.7148C156.531 67.7148 156.417 67.7148 156.304 67.7148C156.658 64.102 156.715 60.4814 156.474 56.8533C156.344 57.0421 156.174 57.1551 155.965 57.1928C156.475 55.8894 156.814 54.5317 156.983 53.1197C156.287 50.1871 157.079 47.7545 159.359 45.8221C160.487 45.5058 161.505 45.6755 162.414 46.3313Z" fill="#E7AFAA"/>
<path fill-rule="evenodd" clip-rule="evenodd" d="M155.964 57.1926C155.851 58.0979 155.737 59.0028 155.624 59.908C155.285 59.908 154.945 59.908 154.606 59.908C154.619 60.818 154.393 61.6665 153.927 62.4537C153.976 62.7157 154.089 62.9421 154.267 63.1325C152.776 63.8616 151.531 64.8798 150.533 66.1873C148.322 66.803 146.059 67.0861 143.745 67.0359C143.45 66.2834 143.337 65.4915 143.405 64.6599C149.154 64.6748 153.34 62.1859 155.964 57.1926Z" fill="#F1A195"/>
<path fill-rule="evenodd" clip-rule="evenodd" d="M78.5763 69.7513C79.9933 73.4333 80.7852 77.28 80.9522 81.2916C78.3577 84.5898 74.9635 85.7777 70.7696 84.8555C69.4085 84.3997 68.2205 83.6645 67.2056 82.6493C67.0702 82.7267 67.0139 82.84 67.0359 82.9887C66.5594 81.127 66.1633 79.2038 65.8479 77.2185C65.7271 74.2075 65.6704 71.2658 65.6782 68.3936C65.9423 68.1709 66.1684 67.8882 66.3571 67.545C66.9691 65.1443 67.1388 62.7117 66.8662 60.2475C65.5706 58.9006 64.7221 57.3166 64.3206 55.4956C62.7039 55.6771 61.4596 55.1113 60.5869 53.7984C61.351 52.8498 62.2562 52.0579 63.3023 51.4225C63.3243 52.4163 63.5507 53.3216 63.9811 54.1379C64.2591 53.1858 64.4288 52.1675 64.4903 51.0831C65.8687 50.5957 66.2644 51.0485 65.6782 52.4408C66.2563 53.5089 66.7087 54.6402 67.0359 55.835C66.9229 56.0614 66.8095 56.2874 66.6965 56.5138C67.339 57.5721 67.7915 58.7034 68.0542 59.908C69.1967 61.2104 70.5544 62.2853 72.1272 63.1325C73.6329 63.8484 75.217 64.2445 76.8792 64.3205C77.2508 65.9681 77.1378 67.5522 76.5397 69.0724C76.6188 69.5585 76.8452 69.7282 77.2186 69.5816C77.4531 69.2194 77.6228 68.8233 77.7277 68.3936C77.7691 69.051 78.0519 69.5035 78.5763 69.7513Z" fill="#F5A092"/>
<path fill-rule="evenodd" clip-rule="evenodd" d="M143.067 64.6597C143.18 64.6597 143.293 64.6597 143.406 64.6597C143.338 65.4913 143.451 66.2831 143.746 67.0356C143.746 68.2803 143.746 69.5246 143.746 70.7693C143.485 70.5103 143.315 70.1709 143.237 69.751C143.067 68.0576 143.011 66.3605 143.067 64.6597Z" fill="#CCB6B4"/>
<path fill-rule="evenodd" clip-rule="evenodd" d="M36.827 95.2078C37.2452 97.3435 37.2452 97.9089 36.827 96.9049C35.7236 94.677 34.6486 92.414 33.6025 90.1165C32.8534 87.7565 32.1746 85.3806 31.566 82.9886C28.3992 82.8322 25.5141 81.8703 22.9107 80.1036C20.1692 80.3194 19.151 79.1315 19.856 76.5396C22.6256 75.6296 23.8136 76.6479 23.4199 79.5944C25.5307 81.334 27.963 82.0128 30.7174 81.631C30.7208 79.6674 30.4381 77.7442 29.8689 75.8608C28.6565 75.3282 27.6382 74.5364 26.8141 73.4848C25.5267 72.0946 24.4517 70.5672 23.5896 68.9027C21.1624 68.3073 20.5969 66.9496 21.8925 64.8296C24.9948 64.5187 25.7867 65.7633 24.2684 68.5632C25.6611 70.9728 27.4149 73.066 29.5295 74.8425C29.3078 72.1414 29.0814 69.426 28.8506 66.6964C26.4414 64.8265 24.688 62.4506 23.5896 59.5686C21.8202 58.6202 21.4808 57.3189 22.5713 55.6652C25.806 55.1988 26.6546 56.3868 25.117 59.2291C25.2181 62.0032 26.4625 64.1531 28.8506 65.6781C28.9654 62.5517 29.2481 59.4403 29.6992 56.3441C29.6425 55.4955 29.5862 54.6469 29.5295 53.7984C29.0553 53.552 28.7722 53.1559 28.6809 52.6104C29.0044 50.4405 30.136 49.875 32.0751 50.9133C33.2699 52.754 32.8174 53.942 30.7174 54.4772C30.0963 58.1868 29.9266 61.9204 30.2083 65.6781C32.6695 63.8371 34.4233 61.4612 35.4693 58.5503C33.8418 57.2245 33.7285 55.8105 35.1299 54.3075C36.7201 53.9135 37.7384 54.4793 38.1847 56.0046C36.7031 58.033 35.4018 60.2393 34.2814 62.6234C33.0367 64.0941 31.679 65.4518 30.2083 66.6964C29.9714 69.4213 30.0277 72.1367 30.378 74.8425C31.5205 74.4651 32.4821 73.7862 33.2631 72.806C34.4039 71.5505 35.4222 70.1928 36.3179 68.7329C36.6149 68.2669 36.7846 67.7578 36.827 67.2055C36.2161 66.0977 36.0464 64.9097 36.3179 63.6416C37.5724 62.6488 38.7037 62.7618 39.7121 63.981C40.1965 65.7063 39.574 66.8379 37.8453 67.3753C36.3807 70.7583 34.1178 73.4736 31.0569 75.5214C31.0922 79.2852 31.884 82.9058 33.4328 86.3829C35.4497 85.1005 37.0904 83.4034 38.3544 81.2915C38.5045 80.3395 38.3347 79.4342 37.8453 78.5762C37.9196 78.0881 38.0893 77.6356 38.3544 77.2185C39.5971 76.2321 40.7283 76.3451 41.7486 77.5579C42.1454 79.5965 41.2969 80.7278 39.203 80.9521C38.4393 82.3668 37.5907 83.7245 36.6573 85.0252C35.4564 85.7736 34.4945 86.7352 33.7722 87.9103C34.7124 90.3636 35.7307 92.7962 36.827 95.2078Z" fill="#F7FCFD"/>
<path fill-rule="evenodd" clip-rule="evenodd" d="M54.4772 56.853C53.8289 58.1486 53.3764 59.5063 53.1195 60.9261C51.3165 64.6587 50.1852 68.6187 49.7253 72.8058C49.449 73.5292 49.2793 74.321 49.2161 75.1818C48.1826 68.2695 49.9364 62.1599 54.4772 56.853Z" fill="#C8DAED"/>
<path fill-rule="evenodd" clip-rule="evenodd" d="M158.341 63.6416C159.359 64.3204 160.377 64.9993 161.396 65.6781C162.943 67.2989 164.244 69.109 165.299 71.1089C165.703 72.8966 165.873 74.7071 165.808 76.5396C165.582 75.5214 165.356 74.5031 165.129 73.4848C164.532 69.9484 162.721 67.233 159.699 65.3387C159.001 64.9793 158.548 64.4138 158.341 63.6416Z" fill="#252836"/>
<path fill-rule="evenodd" clip-rule="evenodd" d="M158.34 63.6416C158.547 64.4137 159 64.9792 159.698 65.3387C159.793 71.2724 157.757 76.3638 153.588 80.6126C152.555 81.5783 151.424 82.3705 150.194 82.9886C149.595 81.9296 149.142 80.7983 148.836 79.5944C148.681 79.3235 148.455 79.2105 148.157 79.255C147.478 78.3497 146.686 77.5578 145.781 76.879C148.008 75.1337 150.157 73.2669 152.23 71.2785C153.179 70.8373 154.084 70.3282 154.946 69.7511C155.282 68.9681 155.735 68.2893 156.303 67.7146C156.416 67.7146 156.53 67.7146 156.643 67.7146C156.888 67.5727 157.058 67.3467 157.152 67.0358C157.265 65.5651 157.378 64.094 157.491 62.6233C157.846 62.9196 158.129 63.259 158.34 63.6416Z" fill="#84C9DA"/>
<path fill-rule="evenodd" clip-rule="evenodd" d="M142.725 64.6597C142.838 64.6597 142.952 64.6597 143.065 64.6597C143.009 66.3605 143.065 68.0576 143.235 69.751C143.313 70.1709 143.483 70.5103 143.744 70.7693C143.775 72.7515 144.114 74.6746 144.762 76.5394C143.431 76.8659 142.3 77.5448 141.368 78.576C141.158 78.6136 140.989 78.7267 140.859 78.9154C140.689 80.2683 140.633 81.626 140.689 82.9884C140.41 81.9223 140.241 80.7907 140.18 79.5942C139.646 80.0979 139.193 80.6637 138.822 81.2913C138.292 79.5202 138.179 77.7101 138.483 75.8606C138.596 74.9553 138.709 74.0504 138.822 73.1452C139.971 70.2513 141.272 67.4226 142.725 64.6597Z" fill="#84C9DA"/>
<path fill-rule="evenodd" clip-rule="evenodd" d="M95.8871 76.5396C95.6607 76.5396 95.5477 76.4266 95.5477 76.2002C96.027 75.3523 96.4231 74.4474 96.7357 73.4848C98.2356 68.5245 97.274 64.1687 93.8506 60.4171C94.077 60.1907 94.303 60.1907 94.5294 60.4171C97.9678 63.6056 99.1557 67.509 98.0934 72.1272C97.2587 73.5619 96.5232 75.0326 95.8871 76.5396Z" fill="#C6D5EB"/>
<path fill-rule="evenodd" clip-rule="evenodd" d="M46.6703 63.981C46.4463 65.2752 46.0505 66.5195 45.4823 67.7146C45.1704 70.5152 45.3968 73.2305 46.1612 75.8607C44.0575 71.8039 44.2272 67.8439 46.6703 63.981Z" fill="#A6B9CE"/>
<path fill-rule="evenodd" clip-rule="evenodd" d="M82.3109 70.7691C82.3313 70.5848 82.4443 70.4718 82.6504 70.4297C85.1797 72.0331 87.8951 73.2774 90.7965 74.1633C92.2784 75.016 93.8625 75.6948 95.5484 76.1999C95.5484 76.4262 95.6614 76.5393 95.8878 76.5393C96.9061 77.3311 97.8113 78.2364 98.6032 79.2547C99.3421 81.1459 99.7949 83.0691 99.9609 85.0248C100.166 86.5369 100.618 88.008 101.319 89.4373C98.9528 92.3156 96.6335 95.2574 94.3604 98.2623C93.0798 104.271 91.7784 110.267 90.4571 116.252C89.6391 116.395 89.0169 116.847 88.5902 117.609C87.5957 120.092 87.0866 122.694 87.0628 125.416C87.0014 126.626 87.2275 127.757 87.7417 128.81C86.5347 134.203 85.5164 139.634 84.6869 145.102C85.5025 145.085 86.2944 145.198 87.0628 145.442C89.5413 146.702 92.1437 147.664 94.8695 148.327C95.1845 148.459 95.4109 148.685 95.5484 149.006C97.3249 155.195 98.3432 161.474 98.6032 167.844C94.41 169.88 89.9975 170.389 85.3657 169.371C84.5674 169.29 83.8886 169.007 83.3292 168.523C83.3669 168.313 83.4799 168.143 83.6686 168.013C79.918 166.337 78.1075 163.452 78.2379 159.358C80.3294 159.814 81.0082 159.079 80.2744 157.152C79.4174 156.848 78.6819 157.018 78.0682 157.661C76.774 145.527 76.2081 133.421 76.3711 121.343C76.184 116.807 77.0889 112.507 79.0864 108.445C81.308 104.415 83.7973 100.569 86.5537 96.9046C87.3089 95.6212 87.8744 94.2635 88.2508 92.8315C88.4202 94.7516 88.4769 96.6751 88.4205 98.6017C88.4148 100.665 88.1887 102.702 87.7417 104.711C85.8895 105.143 85.0409 106.274 85.196 108.105C86.5537 109.916 87.9114 109.916 89.2691 108.105C89.4955 107.427 89.4955 106.748 89.2691 106.069C88.7664 105.739 88.4833 105.287 88.4205 104.711C90.3495 93.7191 88.9351 83.197 84.1778 73.1451C83.7124 72.2062 83.0903 71.4143 82.3109 70.7691Z" fill="#FBFCFC"/>
<path fill-rule="evenodd" clip-rule="evenodd" d="M59.909 77.2185C59.796 77.2185 59.6826 77.2185 59.5696 77.2185C59.3602 77.1808 59.1905 77.0678 59.0605 76.879C58.5809 77.9519 58.015 78.9702 57.3633 79.9338C57.1964 80.2899 57.2527 80.6293 57.5331 80.9521C57.3067 81.4045 57.0806 81.8573 56.8542 82.3098C57.732 82.6424 58.6372 82.7554 59.5696 82.6492C59.6826 83.328 59.796 84.0069 59.909 84.6857C59.2302 84.6857 58.5513 84.6857 57.8725 84.6857C57.9594 85.5129 58.1858 86.3051 58.5513 87.0617C58.215 87.4571 57.8755 87.8532 57.5331 88.2497C57.996 89.345 58.5052 90.4199 59.0605 91.4742C61.1452 94.3735 63.2384 96.9755 65.3398 99.2809C65.3398 100.865 65.3398 102.449 65.3398 104.033C62.2755 104.722 60.6914 106.646 60.5879 109.803C60.1741 113.527 59.8347 117.26 59.5696 121.004C57.0799 115.036 54.5343 109.04 51.9326 103.014C51.2972 98.097 50.392 93.232 49.2172 88.4194C48.4817 86.7223 47.7465 85.0252 47.011 83.328C46.8406 82.9815 46.6145 82.9248 46.3321 83.1583C49.6357 91.1008 50.654 99.3036 49.3869 107.766C48.3497 110.821 47.2751 113.875 46.1624 116.931C45.9948 117.485 45.9384 118.051 45.9927 118.628C45.9367 119.652 45.9934 120.671 46.1624 121.683C46.6797 122.497 47.1888 123.288 47.6898 124.059C48.9345 125.643 50.1788 127.226 51.4235 128.811C51.2487 130.308 51.9275 131.1 53.46 131.186C54.4942 132.22 55.3991 133.351 56.1754 134.581C55.4076 135.262 55.5773 135.375 56.6845 134.92C57.587 135.45 57.9831 136.242 57.8725 137.296C55.3998 138.026 53.4763 139.497 52.1023 141.709C50.3485 141.058 48.6514 140.209 47.011 139.163C43.0279 135.861 39.8034 131.958 37.3375 127.453C35.8413 123.752 35.2758 119.905 35.6404 115.913C36.5215 110.036 37.8792 104.266 39.7134 98.602C41.7286 93.0654 43.7084 87.5213 45.6533 81.9704C45.4001 81.5508 45.2871 81.098 45.3139 80.6127C44.8614 80.6127 44.4086 80.6127 43.9562 80.6127C43.9562 80.1602 43.9562 79.7074 43.9562 79.255C45.4269 78.5761 46.898 77.8973 48.3687 77.2185C48.8639 77.2412 49.3163 77.1282 49.7264 76.879C53.6959 76.0084 57.4295 74.5377 60.9273 72.4666C61.0403 72.5796 61.1537 72.6929 61.2667 72.806C60.446 74.1657 59.9935 75.6364 59.909 77.2185Z" fill="#FDFDFE"/>
<path fill-rule="evenodd" clip-rule="evenodd" d="M131.526 73.8243C129.308 79.5938 128.402 85.59 128.811 91.8136C124.846 92.2141 122.413 94.364 121.513 98.2626C120.857 102.535 121.649 106.495 123.889 110.142C124.468 110.778 125.09 111.344 125.756 111.84C125.756 111.953 125.756 112.066 125.756 112.179C125.608 112.157 125.494 112.213 125.417 112.349C125.691 112.453 125.917 112.623 126.096 112.858C125.705 114.189 125.422 115.547 125.247 116.931C125 124.351 124.604 131.762 124.059 139.163C124.074 139.762 124.187 140.328 124.399 140.86C124.088 140.987 123.805 141.157 123.55 141.369C123.483 142.008 123.313 142.573 123.041 143.066C123.041 142.614 123.041 142.161 123.041 141.709C119.017 143.664 115.057 145.7 111.161 147.818C112.346 142.912 113.59 138.047 114.895 133.223C115.098 131.897 115.551 130.653 116.252 129.489C116.761 127.683 117.383 125.873 118.119 124.059C118.289 121.685 118.345 119.309 118.289 116.931C118.863 107.58 119.598 98.1897 120.495 88.7588C121.424 86.424 122.216 84.048 122.871 81.631C123.417 80.6443 124.039 79.7394 124.738 78.9156C126.522 76.7151 128.672 74.905 131.187 73.4849C131.393 73.527 131.506 73.64 131.526 73.8243Z" fill="#F7FAFA"/>
<path fill-rule="evenodd" clip-rule="evenodd" d="M165.129 73.4849C165.355 74.5031 165.581 75.5214 165.808 76.5397C165.888 76.9779 165.775 77.3173 165.468 77.5579C165.527 77.2212 165.413 76.9952 165.129 76.8791C165.129 75.7478 165.129 74.6162 165.129 73.4849Z" fill="#A09FA6"/>
<path fill-rule="evenodd" clip-rule="evenodd" d="M124.737 78.9154C124.038 79.7392 123.416 80.6441 122.87 81.6308C122.215 84.0478 121.423 86.4238 120.494 88.7587C119.597 98.1895 118.862 107.58 118.288 116.931C115.705 116.4 114.969 117.305 116.082 119.646C116.251 122.925 116.308 126.206 116.251 129.489C115.55 130.652 115.097 131.897 114.894 133.223C111.724 133.279 108.556 133.223 105.39 133.053C104.715 132.605 104.319 131.983 104.202 131.186C104.032 129.947 103.976 128.702 104.032 127.453C105.864 124.993 107.504 122.391 108.954 119.646C109.402 116.578 109.006 113.636 107.766 110.821C108.166 110.312 108.731 109.973 109.463 109.803C109.648 109.371 109.761 108.918 109.802 108.445C109.494 106.982 109.042 105.567 108.445 104.202C108.897 103.071 109.35 101.939 109.802 100.808C109.132 99.8455 108.68 98.7706 108.445 97.5836C108.73 96.2813 109.408 95.2067 110.481 94.3591C108.521 93.1901 106.654 91.8891 104.881 90.4558C104.56 90.7147 104.39 91.0542 104.371 91.474C104.901 92.2849 105.353 93.1335 105.729 94.0197C105.605 94.7871 105.379 95.5223 105.05 96.2259C104.895 96.4968 104.669 96.6098 104.371 96.5654C104.141 94.8608 103.462 93.3897 102.335 92.1529C102.518 91.604 102.631 91.0382 102.674 90.4558C102.493 89.7953 102.04 89.4558 101.317 89.4375C100.616 88.0082 100.164 86.5371 99.959 85.025C100.019 84.0672 100.246 83.1619 100.638 82.3096C99.9987 80.9747 99.8857 79.617 100.298 78.2366C107.993 76.9166 115.687 76.9166 123.379 78.2366C124.001 78.2654 124.454 78.4918 124.737 78.9154Z" fill="#429B92"/>
<path fill-rule="evenodd" clip-rule="evenodd" d="M100.299 78.2368C99.8859 79.6172 99.999 80.9749 100.638 82.3099C100.246 83.1622 100.02 84.0674 99.9592 85.0252C99.7933 83.0695 99.3405 81.1463 98.6016 79.2551C98.9362 78.6075 99.5017 78.268 100.299 78.2368Z" fill="#B7E6E8"/>
<path fill-rule="evenodd" clip-rule="evenodd" d="M81.9697 70.7693C82.0828 70.7693 82.1961 70.7693 82.3091 70.7693C83.0885 71.4145 83.7106 72.2064 84.176 73.1452C88.9333 83.1972 90.3477 93.7193 88.4187 104.711C88.1146 105.053 87.8886 105.053 87.7399 104.711C88.1869 102.702 88.413 100.666 88.4187 98.6019C88.9513 91.0742 87.8767 83.7199 85.1942 76.5395C84.2873 74.4972 83.2123 72.5737 81.9697 70.7693Z" fill="#2F3339"/>
<path fill-rule="evenodd" clip-rule="evenodd" d="M65.6789 68.3936C65.6711 71.2658 65.7278 74.2075 65.8486 77.2186C66.164 79.2038 66.5601 81.127 67.0366 82.9887C67.599 85.2985 68.3346 87.5614 69.2429 89.7772C71.4739 93.8998 73.6238 98.0859 75.6919 102.336C76.2295 103.668 76.682 105.026 77.0496 106.409C77.6643 102.267 78.5695 98.1941 79.7649 94.1896C80.4723 89.917 80.8684 85.6175 80.9529 81.2916C80.7859 77.28 79.994 73.4333 78.577 69.7513C78.5997 69.2561 78.4867 68.8036 78.2375 68.3936C78.8512 68.3905 79.417 68.5603 79.9346 68.9027C80.5694 69.5951 81.2482 70.2173 81.9712 70.7695C83.2138 72.5739 84.2887 74.4974 85.1957 76.5397C87.8781 83.7202 88.9527 91.0744 88.4202 98.6021C88.4765 96.6756 88.4198 94.7521 88.2505 92.832C87.8741 94.264 87.3086 95.6217 86.5534 96.905C83.7969 100.569 81.3076 104.416 79.0861 108.445C77.0886 112.508 76.1837 116.807 76.3707 121.343C76.2078 133.422 76.7736 145.528 78.0678 157.661C78.6815 157.018 79.417 156.848 80.2741 157.152C81.0079 159.08 80.3291 159.815 78.2375 159.359C78.1072 163.453 79.9177 166.338 83.6683 168.014C83.4796 168.144 83.3665 168.314 83.3289 168.523C81.6596 168.027 80.0755 167.349 78.577 166.486C77.8981 165.75 77.2756 164.958 76.7101 164.11C75.4675 146.695 75.2415 129.272 76.0313 111.84C73.8685 106.964 70.7003 102.891 66.5275 99.6204C66.4661 100.705 66.2963 101.723 66.0184 102.675C66.0747 101.087 66.018 99.5033 65.8486 97.9233C64.2853 93.2325 62.5882 88.5936 60.7573 84.007C60.3368 81.9925 60.1671 79.956 60.2482 77.8974C60.6151 74.8141 61.8031 72.0987 63.8121 69.7513C64.2982 69.0931 64.9203 68.6407 65.6789 68.3936Z" fill="#EEF2F5"/>
<path fill-rule="evenodd" clip-rule="evenodd" d="M198.051 87.0615C197.712 87.2879 197.373 87.5139 197.033 87.7403C196.831 87.6606 196.718 87.4908 196.694 87.2312C197.217 86.201 197.387 85.1261 197.203 84.0067C194.379 81.6331 192.512 78.6913 191.602 75.1817C191.245 75.2323 190.906 75.1759 190.584 75.012C189.588 73.9785 189.361 72.7905 189.905 71.4481C190.394 71.257 190.903 71.1436 191.433 71.1087C193.71 71.4851 194.163 72.6164 192.79 74.5029C193.078 78.1282 194.719 81.0697 197.712 83.3278C198.581 80.6705 198.977 77.9551 198.9 75.1817C196.27 72.7464 194.629 69.8049 193.978 66.3568C193.113 66.3361 192.604 65.8836 192.451 64.9991C192.545 62.1452 193.733 61.5794 196.015 63.302C196.64 64.6488 196.3 65.6671 194.997 66.3568C194.619 66.7719 194.562 67.2243 194.827 67.7144C195.914 70.125 197.329 72.2746 199.07 74.1635C199.8 70.4553 199.913 66.7216 199.409 62.9625C198.963 62.6866 198.567 62.3472 198.221 61.9443C197.794 59.5306 198.756 58.6254 201.106 59.2289C202.464 60.4736 202.464 61.7179 201.106 62.9625C200.767 66.576 200.654 70.1966 200.767 73.824C201.842 73.769 202.521 73.2036 202.803 72.1269C203.953 71.7128 204.689 70.921 205.01 69.751C204.697 68.4296 204.583 67.0719 204.67 65.6779C205.679 64.4587 206.81 64.3457 208.064 65.3385C208.707 67.3367 208.028 68.581 206.028 69.0721C205.043 72.0916 203.12 74.2415 200.258 75.5211C199.807 78.2311 199.184 80.8898 198.391 83.4975C198.869 83.6045 199.321 83.4914 199.749 83.1581C201.181 81.7254 202.595 80.3114 203.991 78.9154C204.256 78.4982 204.426 78.0458 204.5 77.5577C203.934 76.3812 204.047 75.3063 204.84 74.3332C206.514 73.7623 207.646 74.2714 208.234 75.8606C207.942 77.5471 206.923 78.3957 205.179 78.4062C203.503 81.2139 201.184 83.3071 198.221 84.6855C198.053 85.4696 197.996 86.2615 198.051 87.0615Z" fill="#F7FBFC"/>
<path fill-rule="evenodd" clip-rule="evenodd" d="M141.708 64.6597C142.048 64.6597 142.387 64.6597 142.727 64.6597C141.273 67.4226 139.972 70.2513 138.823 73.1452C138.71 74.0504 138.597 74.9553 138.484 75.8606C138.18 77.7101 138.293 79.5202 138.823 81.2913C139.194 80.6637 139.647 80.0979 140.181 79.5942C140.242 80.7907 140.411 81.9223 140.69 82.9884C140.66 83.8886 140.886 84.6805 141.369 85.3644C141.314 86.0524 141.371 86.7312 141.539 87.4009C142.106 89.114 142.671 90.8111 143.236 92.4922C144.348 90.5338 145.649 88.7236 147.139 87.0615C148.153 85.7167 149.172 84.359 150.194 82.9884C151.424 82.3703 152.556 81.5781 153.588 80.6125C157.757 76.3636 159.793 71.2723 159.698 65.3385C162.721 67.2328 164.531 69.9482 165.128 73.4846C165.128 74.6159 165.128 75.7476 165.128 76.8788C163.513 82.1042 160.91 86.7431 157.322 90.7951C156.907 90.6159 156.512 90.3895 156.134 90.1163C155.967 90.4723 156.023 90.8118 156.304 91.1346C154.401 92.6854 152.817 94.4955 151.552 96.5653C151.016 96.8362 150.451 97.0059 149.855 97.0744C150.229 97.4583 150.116 97.7414 149.515 97.923C149.244 98.4586 149.075 99.0241 149.006 99.6201C145.422 103.953 142.255 108.592 139.502 113.536C139.276 113.876 139.276 114.215 139.502 114.555C139.963 114.261 140.36 113.922 140.69 113.536C140.329 117.051 139.933 120.558 139.502 124.058C139.239 146.52 139.409 168.978 140.011 191.434C139.955 193.979 139.898 196.525 139.842 199.071C139.701 199.226 139.531 199.339 139.332 199.41C138.37 172.038 138.086 144.658 138.484 117.27C139.192 113.108 139.701 108.922 140.011 104.711C140.204 103.522 139.808 102.617 138.823 101.996C138.258 100.751 137.692 99.5071 137.126 98.2624C136.969 98.464 136.912 98.6904 136.956 98.9413C136.352 97.5007 135.729 96.03 135.09 94.5288C133.642 92.758 131.775 91.8531 129.489 91.8134C129.085 86.1043 129.821 80.5606 131.695 75.1817C133.409 71.7152 135.955 69.1129 139.332 67.375C140.375 66.6728 141.167 65.7675 141.708 64.6597Z" fill="#F0F5F7"/>
<path fill-rule="evenodd" clip-rule="evenodd" d="M148.157 79.255C148.455 79.2106 148.681 79.3236 148.836 79.5944C149.142 80.7984 149.595 81.9297 150.194 82.9887C149.172 84.3592 148.153 85.7169 147.139 87.0617C147.183 85.5791 147.07 84.1081 146.8 82.6492C147.068 81.5828 147.634 80.6775 148.497 79.9339C148.374 79.702 148.261 79.4756 148.157 79.255Z" fill="#47B7C8"/>
<path fill-rule="evenodd" clip-rule="evenodd" d="M141.369 78.5762C142.144 80.8235 142.144 83.0861 141.369 85.3646C140.886 84.6807 140.659 83.8888 140.69 82.9887C140.634 81.6262 140.69 80.2685 140.86 78.9156C140.99 78.7269 141.159 78.6138 141.369 78.5762Z" fill="#4AABBA"/>
<path fill-rule="evenodd" clip-rule="evenodd" d="M36.1478 96.9049C36.2913 97.1645 36.4047 97.4473 36.4872 97.7534C35.1254 101.891 33.8811 106.021 32.7535 110.142C32.1131 109.712 31.7736 109.09 31.7353 108.275C33.1401 104.222 33.4229 100.092 32.5838 95.8866C32.4708 95.7736 32.3574 95.6602 32.2444 95.5472C32.1877 95.8866 32.1314 96.226 32.0747 96.5654C32.7281 100.399 32.3887 104.133 31.0564 107.766C26.63 101.585 21.4254 96.0977 15.443 91.3044C15.0578 91.0502 14.7184 91.1065 14.4248 91.4741C18.9893 95.0764 23.1754 99.0931 26.9834 103.524C22.9806 103.583 19.0772 102.96 15.2733 101.657C15.1036 101.77 14.9339 101.883 14.7642 101.996C18.9157 103.537 23.2151 104.385 27.6622 104.542C29.2083 106.427 30.6223 108.407 31.905 110.482C32.1327 110.737 32.4155 110.85 32.7535 110.821C29.8196 119.039 30.6115 126.845 35.1295 134.241C35.7374 135.689 35.8508 137.16 35.4689 138.654C30.0792 126.875 23.1211 116.127 14.5945 106.409C13.8223 104.972 12.9738 103.615 12.0488 102.336C12.0488 97.5837 12.0488 92.8318 12.0488 88.0799C14.677 84.369 18.1842 83.2941 22.5709 84.8554C24.6509 85.7253 26.5744 86.857 28.3411 88.2496C31.3001 90.8431 33.9022 93.7282 36.1478 96.9049Z" fill="#78B9B3"/>
<path fill-rule="evenodd" clip-rule="evenodd" d="M144.763 76.5396C145.14 76.5589 145.479 76.6719 145.781 76.879C146.687 77.5578 147.479 78.3497 148.157 79.2549C148.261 79.4755 148.374 79.7019 148.497 79.9338C147.634 80.6774 147.068 81.5827 146.8 82.6491C147.07 84.108 147.183 85.579 147.139 87.0616C145.649 88.7238 144.348 90.5339 143.236 92.4924C142.671 90.8112 142.105 89.1141 141.539 87.401C141.371 86.7314 141.314 86.0525 141.369 85.3645C142.145 83.086 142.145 80.8234 141.369 78.5761C142.301 77.5449 143.433 76.8661 144.763 76.5396Z" fill="#23293A"/>
<path fill-rule="evenodd" clip-rule="evenodd" d="M191.603 92.8319C191.603 93.0583 191.49 93.1714 191.263 93.1714C189.849 91.7662 188.944 90.0691 188.548 88.08C187.88 88.1612 187.258 88.0481 186.681 87.7406C186.187 86.7678 186.074 85.7496 186.342 84.6858C188.061 83.6007 189.249 83.9968 189.906 85.8738C189.153 88.4425 189.719 90.7618 191.603 92.8319Z" fill="#F9FDFD"/>
<path fill-rule="evenodd" clip-rule="evenodd" d="M80.9522 81.2915C80.8677 85.6174 80.4716 89.9169 79.7642 94.1895C78.5688 98.194 77.6635 102.267 77.0488 106.409C76.6812 105.026 76.2288 103.668 75.6912 102.336C73.6231 98.0857 71.4732 93.8997 69.2421 89.777C68.3339 87.5613 67.5983 85.2984 67.0359 82.9886C67.0138 82.8399 67.0702 82.7266 67.2056 82.6492C68.2205 83.6644 69.4085 84.3996 70.7695 84.8554C74.9634 85.7776 78.3577 84.5897 80.9522 81.2915Z" fill="#C03C6C"/>
<path fill-rule="evenodd" clip-rule="evenodd" d="M165.128 76.8789C165.413 76.995 165.526 77.221 165.468 77.5577C164.795 80.2134 163.721 82.7024 162.243 85.025C160.101 88.2387 157.781 91.2935 155.285 94.1894C155.82 92.975 156.499 91.8437 157.322 90.7952C160.91 86.7432 163.512 82.1043 165.128 76.8789Z" fill="#272731"/>
<path fill-rule="evenodd" clip-rule="evenodd" d="M168.185 140.351C167.354 140.39 166.675 140.729 166.148 141.369C166.02 140.641 165.906 139.905 165.809 139.163C166.79 129.286 167.469 119.386 167.845 109.464C167.517 103.356 167.347 97.2462 167.336 91.1349C167.944 87.4484 169.414 84.1672 171.748 81.2916C172.033 80.7801 172.429 80.6104 172.936 80.7825C170.021 84.8077 168.946 89.2765 169.712 94.1897C170.409 96.9784 171.314 99.6937 172.427 102.336C175.055 106.152 177.431 110.112 179.555 114.216C180.105 115.867 180.784 117.451 181.592 118.967C181.76 119.866 181.817 120.771 181.761 121.683C184.985 120.674 188.152 120.844 191.265 122.192C192.252 123.261 193.157 124.393 193.981 125.586C193.754 125.813 193.528 125.813 193.302 125.586C192.097 124.088 190.513 123.296 188.55 123.21C186.111 122.875 183.735 123.101 181.422 123.889C179.856 125.453 178.555 127.207 177.519 129.15C174.052 132.503 170.714 135.954 167.506 139.502C167.805 139.743 168.031 140.026 168.185 140.351Z" fill="#F0F5F8"/>
<path fill-rule="evenodd" clip-rule="evenodd" d="M59.5679 77.2183C59.4091 79.874 59.6918 82.4763 60.4165 85.025C61.5671 88.1185 62.8118 91.1733 64.1501 94.1894C64.7074 95.8533 65.1035 97.5504 65.3381 99.2807C63.2367 96.9754 61.1435 94.3734 59.0588 91.474C58.5035 90.4198 57.9944 89.3448 57.5314 88.2495C57.8739 87.8531 58.2133 87.457 58.5496 87.0616C58.1841 86.305 57.9577 85.5128 57.8708 84.6856C58.5496 84.6856 59.2285 84.6856 59.9073 84.6856C59.7943 84.0068 59.6809 83.3279 59.5679 82.6491C58.6355 82.7553 57.7303 82.6423 56.8525 82.3097C57.0789 81.8572 57.305 81.4044 57.5314 80.952C57.251 80.6292 57.1947 80.2898 57.3617 79.9337C58.0134 78.9701 58.5792 77.9518 59.0588 76.8789C59.1888 77.0676 59.3585 77.1807 59.5679 77.2183Z" fill="#E8EEF1"/>
<path fill-rule="evenodd" clip-rule="evenodd" d="M59.5685 121.004C59.5122 122.592 59.5688 124.175 59.7382 125.755C60.0152 126.205 60.4113 126.431 60.9262 126.434C61.1526 126.661 61.3786 126.887 61.605 127.113C61.3203 129.206 61.0939 131.355 60.9262 133.562C60.9435 134.105 61.0565 134.614 61.2656 135.09C59.8075 136.671 59.468 138.425 60.2473 140.351C59.6062 139.976 59.0407 139.523 58.5502 138.993C58.5869 138.309 58.3608 137.744 57.8714 137.296C57.982 136.241 57.5859 135.449 56.6834 134.92C55.5762 135.375 55.4065 135.262 56.1743 134.58C55.398 133.351 54.4931 132.22 53.4589 131.186C51.9264 131.1 51.2476 130.308 51.4224 128.81C51.9807 129.143 52.4335 129.595 52.7801 130.168C53.4491 124.884 53.1096 119.679 51.7618 114.555C51.217 113.022 50.8209 111.438 50.5738 109.803C50.323 108.992 49.9272 108.313 49.3858 107.766C50.6529 99.3033 49.6346 91.1005 46.3311 83.158C46.6135 82.9245 46.8395 82.9812 47.0099 83.3278C47.7454 85.0249 48.4806 86.722 49.2161 88.4191C50.3909 93.2317 51.2961 98.0967 51.9315 103.014C54.5332 109.04 57.0788 115.036 59.5685 121.004Z" fill="#EFF4F7"/>
<path fill-rule="evenodd" clip-rule="evenodd" d="M59.5692 77.2185C59.6822 77.2185 59.7956 77.2185 59.9086 77.2185C59.8503 77.5552 59.9636 77.7813 60.2481 77.8973C60.1669 79.9559 60.3367 81.9925 60.7572 84.0069C62.588 88.5935 64.2851 93.2324 65.8485 97.9232C66.0179 99.5032 66.0746 101.087 66.0182 102.675C65.8356 103.224 65.7226 103.79 65.6788 104.372C65.4524 104.372 65.3394 104.259 65.3394 104.033C65.3394 102.449 65.3394 100.865 65.3394 99.2809C65.1048 97.5505 64.7087 95.8534 64.1514 94.1896C62.8131 91.1735 61.5684 88.1187 60.4178 85.0252C59.6931 82.4765 59.4104 79.8741 59.5692 77.2185Z" fill="#34383E"/>
<path fill-rule="evenodd" clip-rule="evenodd" d="M102.336 92.1531C103.463 93.3899 104.142 94.861 104.373 96.5656C104.957 97.4738 105.352 98.4921 105.561 99.6204C106.254 103.402 106.989 107.135 107.767 110.821C109.008 113.636 109.404 116.578 108.955 119.646C107.506 122.391 105.865 124.993 104.033 127.453C103.073 129.653 101.376 130.785 98.9421 130.847C99.2469 129.84 99.6993 128.878 100.3 127.962C99.978 127.798 99.6386 127.742 99.2815 127.792C99.5096 127.532 99.7923 127.306 100.13 127.114C100.457 125.016 100.288 122.979 99.6209 121.004C99.5079 120.778 99.3945 120.551 99.2815 120.325C98.4961 118.024 98.0433 115.649 97.9238 113.197C99.288 106.157 100.759 99.1418 102.336 92.1531Z" fill="#F8FAFA"/>
<path fill-rule="evenodd" clip-rule="evenodd" d="M139.333 67.3753C135.955 69.1131 133.409 71.7155 131.696 75.182C129.821 80.5608 129.086 86.1046 129.489 91.8137C131.775 91.8534 133.642 92.7583 135.09 94.529C135.73 96.0303 136.352 97.501 136.957 98.9415C137.074 102.016 136.904 105.071 136.448 108.106C135.995 109.011 135.542 109.916 135.09 110.821C134.534 111.58 133.798 112.032 132.884 112.179C132.997 111.953 133.11 111.727 133.223 111.5C134.902 110.387 135.863 108.803 136.108 106.748C137.088 102.729 136.635 98.8825 134.75 95.2079C132.708 92.595 130.05 91.7465 126.774 92.6622C124.343 93.6153 122.816 95.3688 122.192 97.9233C121.51 102.326 122.301 106.399 124.568 110.142C125.101 110.965 125.836 111.417 126.774 111.5C126.533 111.807 126.194 111.92 125.756 111.84C125.089 111.344 124.467 110.778 123.889 110.142C121.649 106.495 120.857 102.535 121.513 98.2627C122.413 94.3641 124.845 92.2142 128.811 91.8137C128.402 85.59 129.307 79.5938 131.526 73.8243C133.263 70.6738 135.809 68.4112 139.163 67.0359C139.298 67.1133 139.355 67.2266 139.333 67.3753Z" fill="#272636"/>
<path fill-rule="evenodd" clip-rule="evenodd" d="M195.337 106.069C195.337 105.843 195.337 105.617 195.337 105.39C199.444 100.208 204.083 95.5128 209.253 91.3043C209.536 91.0708 209.762 91.1274 209.932 91.474C205.591 95.1927 201.518 99.2094 197.713 103.523C201.604 103.525 205.394 102.903 209.083 101.657C209.366 101.77 209.649 101.883 209.932 101.996C205.763 103.425 201.463 104.274 197.034 104.542C196.497 105.138 195.931 105.648 195.337 106.069Z" fill="#4A9C91"/>
<path fill-rule="evenodd" clip-rule="evenodd" d="M78.5759 166.486C76.5183 169.099 73.8029 170.457 70.4298 170.559C65.6779 170.559 60.926 170.559 56.1741 170.559C56.6611 165.019 57.1136 159.475 57.5318 153.928C56.1741 153.928 54.8164 153.928 53.4587 153.928C53.0663 152.471 52.7269 151 52.4404 149.515C53.2561 149.533 54.0479 149.42 54.8164 149.176C58.8263 148.704 62.6166 147.573 66.187 145.782C66.4134 145.442 66.4134 145.103 66.187 144.763C64.4692 142.917 62.4893 141.446 60.2471 140.351C59.4678 138.425 59.8072 136.671 61.2654 135.09C61.0563 134.615 60.9433 134.106 60.926 133.563C61.0936 131.356 61.32 129.206 61.6048 127.114C61.9442 127.114 62.2837 127.114 62.6231 127.114C62.5352 125.902 61.8563 125.45 60.5865 125.756C60.3608 124.573 60.2475 123.329 60.2471 122.022C60.4389 118.285 60.6653 114.552 60.926 110.821C61.0247 108.025 62.3824 106.102 64.999 105.051C66.3143 105.404 67.2759 106.196 67.8841 107.427C68.3308 110.578 68.5005 113.746 68.3932 116.931C68.4109 119.992 68.2975 123.047 68.0538 126.095C67.3658 126.04 66.687 126.097 66.0173 126.265C65.5414 126.72 65.6545 127.004 66.3567 127.114C67.0586 126.955 67.7375 126.729 68.3932 126.435C68.73 124.981 68.8433 123.51 68.7327 122.022C69.1267 117.216 69.1831 112.351 68.9024 107.427C68.3094 105.871 67.2345 104.853 65.6779 104.372C65.7217 103.79 65.8347 103.224 66.0173 102.675C66.2953 101.723 66.465 100.705 66.5264 99.6204C70.6993 102.891 73.8674 106.964 76.0302 111.84C75.2404 129.272 75.4665 146.695 76.7091 164.11C77.2746 164.958 77.8971 165.75 78.5759 166.486Z" fill="#FDFDFD"/>
<path fill-rule="evenodd" clip-rule="evenodd" d="M107.765 110.821C106.987 107.135 106.252 103.401 105.559 99.62C105.351 98.4917 104.955 97.4734 104.371 96.5652C104.668 96.6096 104.895 96.4966 105.05 96.2257C105.379 95.5221 105.605 94.7869 105.729 94.0195C105.353 93.1333 104.9 92.2847 104.371 91.4738C104.39 91.054 104.56 90.7145 104.88 90.4556C106.653 91.8889 108.52 93.1899 110.481 94.3589C109.408 95.2065 108.729 96.2811 108.444 97.5834C108.679 98.7704 109.132 99.8453 109.802 100.808C109.349 101.939 108.897 103.071 108.444 104.202C109.041 105.567 109.494 106.981 109.802 108.445C109.761 108.918 109.648 109.371 109.462 109.803C108.731 109.973 108.165 110.312 107.765 110.821Z" fill="#B6E5EA"/>
<path fill-rule="evenodd" clip-rule="evenodd" d="M157.321 90.7953C156.498 91.8438 155.82 92.9751 155.285 94.1895C154.26 95.1623 153.411 96.2939 152.739 97.5837C151.965 99.5001 151.343 101.424 150.872 103.354C150.869 102.612 150.529 102.329 149.854 102.505C147.101 106.445 144.046 110.122 140.69 113.537C140.359 113.922 139.963 114.261 139.502 114.555C139.275 114.215 139.275 113.876 139.502 113.537C142.254 108.592 145.422 103.953 149.006 99.6203C149.074 99.0242 149.244 98.4588 149.515 97.9232C150.116 97.7416 150.229 97.4585 149.854 97.0746C150.45 97.006 151.016 96.8363 151.551 96.5655C152.817 94.4957 154.4 92.6855 156.303 91.1347C156.023 90.8119 155.966 90.4725 156.133 90.1165C156.511 90.3897 156.907 90.6161 157.321 90.7953Z" fill="#E0EDEE"/>
<path fill-rule="evenodd" clip-rule="evenodd" d="M102.675 90.4561C102.631 91.0385 102.518 91.6043 102.336 92.1532C100.759 99.1419 99.2875 106.157 97.9234 113.197C97.7078 112.148 97.5945 111.073 97.5839 109.973C96.6403 109.881 95.9052 110.278 95.3777 111.161C95.1805 112.413 95.2368 113.658 95.5474 114.894C95.4625 116.037 95.1231 117.056 94.5291 117.949C93.9633 117.949 93.3978 117.949 92.832 117.949C93.8567 111.7 95.0447 105.477 96.396 99.281C98.4427 96.2782 100.536 93.3364 102.675 90.4561Z" fill="#212230"/>
<path fill-rule="evenodd" clip-rule="evenodd" d="M212.647 87.7404C212.755 92.7451 212.642 97.7234 212.308 102.675C211.582 103.898 210.846 105.143 210.102 106.409C206.918 110.157 203.863 114.004 200.937 117.949C200.807 117.76 200.638 117.647 200.428 117.609C198.917 113.681 197.22 109.835 195.337 106.069C195.931 105.648 196.497 105.138 197.034 104.542C201.464 104.274 205.763 103.425 209.932 101.996C209.649 101.883 209.366 101.77 209.084 101.657C205.394 102.903 201.604 103.525 197.713 103.523C201.518 99.2094 205.591 95.1927 209.932 91.474C209.762 91.1275 209.536 91.0708 209.253 91.3043C204.083 95.5128 199.444 100.208 195.337 105.39C193.441 102.165 191.631 98.8839 189.906 95.5471C190.269 94.709 190.722 93.9172 191.264 93.1711C191.49 93.1711 191.603 93.0581 191.603 92.8317C193.405 91.1441 195.215 89.447 197.034 87.7404C197.374 87.514 197.713 87.2879 198.052 87.0615C203.162 83.2169 208.027 83.4433 212.647 87.7404Z" fill="#79B9B3"/>
<path fill-rule="evenodd" clip-rule="evenodd" d="M65.3388 104.033C65.3388 104.259 65.4518 104.372 65.6782 104.372C67.2348 104.853 68.3098 105.871 68.9027 107.427C69.1834 112.351 69.1271 117.216 68.733 122.022C68.842 120.259 68.7286 118.562 68.3936 116.931C68.5009 113.746 68.3312 110.577 67.8845 107.427C67.2762 106.196 66.3147 105.404 64.9994 105.051C62.3828 106.101 61.0251 108.025 60.9263 110.821C61.0068 110.383 60.8938 110.044 60.5869 109.803C60.6904 106.646 62.2745 104.722 65.3388 104.033Z" fill="#63626F"/>
<path fill-rule="evenodd" clip-rule="evenodd" d="M101.318 89.4377C102.041 89.4561 102.494 89.7955 102.675 90.456C100.536 93.3363 98.4426 96.2781 96.3959 99.281C95.0447 105.477 93.8567 111.7 92.832 117.949C93.3978 117.949 93.9633 117.949 94.5291 117.949C93.2322 118.196 91.8745 118.196 90.4561 117.949C90.4561 117.383 90.4561 116.818 90.4561 116.252C91.7774 110.268 93.0788 104.271 94.3594 98.2627C96.6325 95.2578 98.9518 92.316 101.318 89.4377Z" fill="#5D6179"/>
<path fill-rule="evenodd" clip-rule="evenodd" d="M155.285 94.1895C153.643 96.6849 152.455 99.4003 151.722 102.336C151.499 105.059 151.555 107.774 151.891 110.482C151.95 110.818 151.836 111.044 151.552 111.161C151.049 108.589 150.823 105.987 150.873 103.354C151.343 101.424 151.965 99.5 152.74 97.5837C153.412 96.2939 154.26 95.1622 155.285 94.1895Z" fill="#2B2B39"/>
<path fill-rule="evenodd" clip-rule="evenodd" d="M87.7404 104.711C87.8891 105.053 88.1151 105.053 88.4192 104.711C88.482 105.287 88.7651 105.74 89.2678 106.069C89.4942 106.748 89.4942 107.427 89.2678 108.106C87.9101 109.916 86.5524 109.916 85.1947 108.106C85.0396 106.274 85.8882 105.143 87.7404 104.711Z" fill="#767585"/>
<path fill-rule="evenodd" clip-rule="evenodd" d="M32.7545 110.142C32.7545 110.369 32.7545 110.595 32.7545 110.821C32.4165 110.85 32.1337 110.737 31.906 110.482C30.6233 108.407 29.2093 106.427 27.6632 104.542C23.2161 104.385 18.9167 103.537 14.7652 101.996C14.9349 101.883 15.1046 101.77 15.2743 101.657C19.0782 102.96 22.9816 103.583 26.9844 103.524C23.1764 99.0932 18.9903 95.0765 14.4258 91.4742C14.7194 91.1066 15.0588 91.0502 15.444 91.3045C21.4264 96.0978 26.631 101.585 31.0574 107.766C32.3897 104.133 32.7291 100.399 32.0757 96.5655C32.1324 96.2261 32.1887 95.8867 32.2454 95.5472C32.3584 95.6603 32.4718 95.7736 32.5848 95.8867C33.4239 100.092 33.1411 104.222 31.7363 108.276C31.7746 109.09 32.1141 109.712 32.7545 110.142Z" fill="#4A9C92"/>
<path fill-rule="evenodd" clip-rule="evenodd" d="M126.774 111.5C127.679 111.5 128.584 111.5 129.489 111.5C129.489 111.839 129.489 112.179 129.489 112.518C128.234 112.501 126.99 112.387 125.756 112.179C125.756 112.066 125.756 111.952 125.756 111.839C126.194 111.92 126.533 111.807 126.774 111.5Z" fill="#55595D"/>
<path fill-rule="evenodd" clip-rule="evenodd" d="M133.224 111.5C133.111 111.726 132.997 111.952 132.884 112.179C132.285 112.505 131.606 112.618 130.848 112.518C130.848 112.179 130.848 111.839 130.848 111.5C131.64 111.5 132.432 111.5 133.224 111.5Z" fill="#4F5554"/>
<path fill-rule="evenodd" clip-rule="evenodd" d="M151.892 110.482C152.198 110.722 152.311 111.062 152.231 111.5C155.005 111.735 155.967 113.206 155.116 115.912C153.097 118.235 151.23 118.122 149.516 115.573C150.191 115.906 150.87 116.245 151.552 116.591C152.125 116.503 152.634 116.277 153.08 115.912C153.571 113.238 152.496 112.333 149.855 113.197C150.208 112.303 150.774 111.624 151.552 111.161C151.837 111.044 151.95 110.818 151.892 110.482Z" fill="#6B7A80"/>
<path fill-rule="evenodd" clip-rule="evenodd" d="M149.516 115.573C149.414 114.704 149.527 113.912 149.855 113.197C152.496 112.333 153.571 113.238 153.08 115.912C152.634 116.276 152.125 116.503 151.553 116.591C150.87 116.245 150.191 115.906 149.516 115.573Z" fill="#4D5E62"/>
<path fill-rule="evenodd" clip-rule="evenodd" d="M97.9231 113.197C98.0426 115.648 98.4954 118.024 99.2808 120.325C99.0517 122.534 98.4862 124.683 97.5837 126.774C97.4706 127.113 97.2443 127.34 96.9048 127.453C96.226 127.453 95.5471 127.453 94.8683 127.453C94.9593 127.995 94.8459 128.448 94.5289 128.81C93.3932 129.43 92.1485 129.656 90.7952 129.489C89.8724 129.01 88.8541 128.783 87.7404 128.81C87.2262 127.758 87.0002 126.626 87.0616 125.416C87.0854 122.694 87.5945 120.092 88.589 117.61C89.0157 116.847 89.6378 116.395 90.4558 116.252C90.4558 116.818 90.4558 117.383 90.4558 117.949C91.8743 118.195 93.2319 118.195 94.5289 117.949C95.1229 117.055 95.4623 116.037 95.5471 114.894C95.2366 113.657 95.1802 112.413 95.3774 111.161C95.9049 110.277 96.6401 109.881 97.5837 109.973C97.5942 111.073 97.7076 112.148 97.9231 113.197Z" fill="#FAAE9F"/>
<path fill-rule="evenodd" clip-rule="evenodd" d="M118.288 116.931C118.345 119.309 118.288 121.685 118.119 124.058C117.382 125.873 116.76 127.683 116.252 129.489C116.308 126.206 116.252 122.925 116.082 119.646C114.97 117.305 115.705 116.4 118.288 116.931Z" fill="#B5E5E9"/>
<path fill-rule="evenodd" clip-rule="evenodd" d="M51.7615 114.555C53.1094 119.68 53.4488 124.884 52.7798 130.168C52.4333 129.595 51.9805 129.143 51.4221 128.811C50.1775 127.227 48.9331 125.643 47.6885 124.059C47.7323 123.476 47.8453 122.91 48.0279 122.362C48.665 120.52 49.4005 118.71 50.2341 116.931C50.5824 116.001 51.0915 115.209 51.7615 114.555Z" fill="#388B87"/>
<path fill-rule="evenodd" clip-rule="evenodd" d="M45.9916 118.628C46.6012 119.599 47.0536 120.674 47.3493 121.852C47.4633 122.202 47.6897 122.372 48.0281 122.362C47.8455 122.91 47.7325 123.476 47.6887 124.059C47.1877 123.289 46.6786 122.497 46.1613 121.683C45.9923 120.671 45.9356 119.652 45.9916 118.628Z" fill="#92C1C3"/>
<path fill-rule="evenodd" clip-rule="evenodd" d="M60.5862 109.803C60.893 110.044 61.0061 110.383 60.9256 110.821C60.665 114.551 60.4386 118.285 60.2468 122.022C60.2471 123.329 60.3605 124.573 60.5862 125.756C60.7281 126.001 60.9541 126.171 61.2651 126.265C61.1877 126.4 61.0743 126.457 60.9256 126.435C60.4107 126.431 60.0146 126.205 59.7377 125.756C59.5683 124.176 59.5116 122.592 59.5679 121.004C59.833 117.26 60.1725 113.527 60.5862 109.803Z" fill="#3B3D44"/>
<path fill-rule="evenodd" clip-rule="evenodd" d="M99.6206 121.004C100.287 122.979 100.457 125.015 100.13 127.113C99.7921 127.305 99.5093 127.532 99.2812 127.792C98.4126 127.895 97.6204 127.781 96.9053 127.453C97.2447 127.34 97.4711 127.113 97.5841 126.774C98.2541 126.119 98.7633 125.328 99.1115 124.398C99.1723 123.201 99.342 122.07 99.6206 121.004Z" fill="#BC466C"/>
<path fill-rule="evenodd" clip-rule="evenodd" d="M68.3928 116.931C68.7279 118.562 68.8412 120.259 68.7323 122.022C68.8429 123.51 68.7296 124.981 68.3928 126.434C67.7371 126.728 67.0582 126.955 66.3563 127.113C65.6541 127.003 65.541 126.72 66.0169 126.265C66.6866 126.097 67.3654 126.04 68.0534 126.095C68.2971 123.046 68.4105 119.992 68.3928 116.931Z" fill="#414148"/>
<path fill-rule="evenodd" clip-rule="evenodd" d="M99.2801 120.325C99.3931 120.551 99.5065 120.777 99.6195 121.004C99.3409 122.07 99.1712 123.202 99.1104 124.398C98.7622 125.328 98.253 126.12 97.583 126.774C98.4855 124.683 99.051 122.534 99.2801 120.325Z" fill="#EE868C"/>
<path fill-rule="evenodd" clip-rule="evenodd" d="M60.5869 125.756C61.8567 125.45 62.5355 125.902 62.6234 127.114C62.284 127.114 61.9446 127.114 61.6052 127.114C61.3788 126.887 61.1527 126.661 60.9263 126.435C61.075 126.457 61.1884 126.4 61.2658 126.265C60.9548 126.171 60.7288 126.001 60.5869 125.756Z" fill="#808089"/>
<path fill-rule="evenodd" clip-rule="evenodd" d="M96.9054 127.453C97.6205 127.781 98.4128 127.895 99.2813 127.792C99.6384 127.742 99.9778 127.798 100.3 127.962C99.6992 128.878 99.2467 129.84 98.9419 130.847C101.376 130.785 103.073 129.653 104.033 127.453C103.977 128.703 104.034 129.947 104.203 131.187C104.32 131.983 104.716 132.606 105.391 133.053C108.557 133.223 111.725 133.279 114.895 133.223C113.59 138.047 112.346 142.912 111.161 147.818C109.487 149.111 107.677 150.242 105.73 151.212C105.341 157.094 105.001 162.977 104.712 168.862C104.313 172.42 104.087 176.041 104.033 179.724C104.033 180.29 104.033 180.855 104.033 181.421C103.265 181.177 102.473 181.064 101.657 181.081C101.768 177.626 101.655 174.232 101.318 170.899C101.42 169.443 101.194 168.085 100.639 166.826C102.207 165.777 102.717 164.306 102.166 162.413C99.952 152.604 97.463 142.874 94.6991 133.223C94.5712 132.734 94.2884 132.394 93.8506 132.205C94.077 131.073 94.303 129.942 94.5294 128.811C94.8464 128.448 94.9598 127.996 94.8689 127.453C95.5477 127.453 96.2265 127.453 96.9054 127.453Z" fill="#B9E5EB"/>
<path fill-rule="evenodd" clip-rule="evenodd" d="M93.85 132.205C94.2878 132.394 94.5705 132.734 94.6985 133.223C97.4624 142.874 99.9514 152.604 102.166 162.413C102.716 164.306 102.207 165.777 100.638 166.826C100.056 167.343 99.3771 167.683 98.6019 167.844C98.3419 161.475 97.3236 155.195 95.5471 149.006C95.4096 148.685 95.1832 148.459 94.8682 148.327C92.1423 147.664 89.54 146.703 87.0615 145.442C87.2879 144.99 87.514 144.537 87.7404 144.085C89.8689 140.167 91.9054 136.207 93.85 132.205Z" fill="#F0F5F7"/>
<path fill-rule="evenodd" clip-rule="evenodd" d="M94.5292 128.811C94.3028 129.942 94.0768 131.073 93.8504 132.205C91.9058 136.207 89.8693 140.167 87.7408 144.085C87.529 143.943 87.416 143.717 87.4014 143.406C88.0446 141.532 88.4407 139.609 88.5893 137.636C89.0924 134.813 89.8279 132.097 90.7956 129.489C92.1489 129.656 93.3935 129.43 94.5292 128.811Z" fill="#202331"/>
<path fill-rule="evenodd" clip-rule="evenodd" d="M87.7394 128.811C88.853 128.784 89.8713 129.01 90.7942 129.49C89.8265 132.097 89.0909 134.813 88.5879 137.636C88.4393 139.609 88.0431 141.533 87.3999 143.406C87.4145 143.717 87.5276 143.943 87.7394 144.085C87.513 144.537 87.2869 144.99 87.0605 145.442C86.2921 145.198 85.5002 145.085 84.6846 145.103C85.5141 139.634 86.5324 134.204 87.7394 128.811Z" fill="#5C6079"/>
<path fill-rule="evenodd" clip-rule="evenodd" d="M58.5499 138.993C59.0404 139.524 59.6058 139.976 60.247 140.351C62.4892 141.446 64.4691 142.917 66.1869 144.763C66.4133 145.103 66.4133 145.442 66.1869 145.782C62.6165 147.573 58.8262 148.704 54.8162 149.176C54.2504 148.271 53.685 147.366 53.1191 146.46C53.6015 143.008 55.4116 140.518 58.5499 138.993Z" fill="#FBAFA0"/>
<path fill-rule="evenodd" clip-rule="evenodd" d="M212.648 129.829C212.648 130.847 212.648 131.865 212.648 132.883C206.79 135.472 201.246 138.583 196.016 142.218C197.26 141.884 198.505 141.431 199.75 140.86C200.711 140.803 201.673 140.747 202.635 140.69C205.956 141.213 209.293 141.553 212.648 141.708C212.648 142.274 212.648 142.84 212.648 143.406C211.417 143.687 210.173 143.97 208.914 144.254C204.615 144.367 200.315 144.48 196.016 144.594C194.567 144.681 193.209 145.077 191.943 145.781C191.83 145.725 191.717 145.668 191.604 145.612C193.501 144.031 194.858 142.051 195.677 139.672C197.132 137.818 198.66 136.008 200.259 134.241C200.88 132.998 201.502 131.754 202.126 130.508C203.754 129.049 205.338 127.522 206.877 125.925C208.326 124.686 209.91 123.781 211.629 123.21C206.853 127.333 203.232 132.142 200.768 137.635C204.288 134.338 208.248 131.736 212.648 129.829Z" fill="#489B95"/>
<path fill-rule="evenodd" clip-rule="evenodd" d="M33.093 145.782C31.5486 145.278 29.9645 144.882 28.3411 144.594C24.155 144.481 19.9686 144.367 15.7825 144.254C14.4777 144.174 13.2331 143.891 12.0488 143.406C12.0488 142.84 12.0488 142.274 12.0488 141.709C15.4892 141.319 18.9401 140.979 22.4012 140.69C24.6146 140.873 26.7078 141.382 28.6805 142.218C23.4242 138.572 17.8804 135.461 12.0488 132.884C12.0488 131.865 12.0488 130.847 12.0488 129.829C16.2936 131.781 20.1403 134.327 23.5892 137.466C23.8716 137.699 24.0976 137.643 24.268 137.296C22.5607 134.853 20.9203 132.364 19.3464 129.829C17.3774 127.52 15.2842 125.314 13.0671 123.21C14.2435 123.572 15.3748 124.138 16.4613 124.907C22.7912 130.219 27.7128 136.611 31.2261 144.085C32.0163 144.48 32.6388 145.045 33.093 145.782Z" fill="#499B96"/>
<path fill-rule="evenodd" clip-rule="evenodd" d="M57.8709 137.296C58.3604 137.744 58.5864 138.309 58.5498 138.993C55.4115 140.518 53.6013 143.007 53.119 146.46C50.794 145.36 50.4545 143.776 52.1007 141.708C53.4747 139.497 55.3982 138.026 57.8709 137.296Z" fill="#BE406B"/>
<path fill-rule="evenodd" clip-rule="evenodd" d="M173.954 147.818C173.338 147.269 172.886 146.59 172.597 145.781C175.416 144.031 178.244 142.278 181.082 140.52C181.365 140.287 181.591 140.344 181.761 140.69C179.412 142.549 177.036 144.416 174.633 146.291C174.112 146.667 173.885 147.176 173.954 147.818Z" fill="#E2EFEE"/>
<path fill-rule="evenodd" clip-rule="evenodd" d="M165.468 143.066C168.228 144.731 170.378 146.994 171.917 149.855C171.697 150.511 171.584 151.19 171.578 151.891C169.834 151.962 168.137 151.735 166.486 151.212C164.935 150.865 163.408 150.413 161.904 149.855C161.366 149.57 161.083 149.118 161.056 148.497C162.204 146.428 163.675 144.618 165.468 143.066Z" fill="#FAAE9F"/>
<path fill-rule="evenodd" clip-rule="evenodd" d="M122.702 144.084C122.558 150.537 122.332 156.986 122.023 163.431C121.595 165.967 121.368 168.569 121.344 171.238C121.344 171.351 121.344 171.464 121.344 171.578C121.005 171.804 120.665 172.03 120.326 172.256C118.96 172.149 117.602 172.092 116.253 172.087C115.486 172.669 114.751 173.291 114.047 173.953C113.879 174.508 113.823 175.074 113.877 175.651C113.099 175.564 112.364 175.677 111.671 175.99C111.066 177.279 110.783 178.637 110.822 180.063C110.37 180.289 110.03 180.629 109.804 181.081C108.679 181.865 107.547 182.657 106.41 183.457C106.2 173.094 106.483 162.685 107.258 152.23C112.339 149.293 117.43 146.352 122.532 143.406C122.69 143.607 122.746 143.834 122.702 144.084Z" fill="#1F2130"/>
<path fill-rule="evenodd" clip-rule="evenodd" d="M168.183 140.351C169.92 141.972 171.391 143.782 172.596 145.782C172.884 146.59 173.337 147.269 173.953 147.818C174.066 148.271 174.18 148.723 174.293 149.176C173.749 150.528 172.957 150.754 171.917 149.855C170.377 146.994 168.228 144.731 165.468 143.066C165.431 142.383 165.657 141.817 166.147 141.369C166.674 140.729 167.353 140.39 168.183 140.351Z" fill="#88C9D9"/>
<path fill-rule="evenodd" clip-rule="evenodd" d="M182.1 148.497C182.141 151.622 181.914 154.677 181.421 157.661C181.129 159.809 180.903 162.016 180.742 164.28C180.745 164.859 180.858 165.368 181.081 165.807C182.213 165.807 183.344 165.807 184.476 165.807C184.624 165.785 184.738 165.842 184.815 165.977C184.452 166.266 184.112 166.549 183.797 166.826C182.959 167.103 182.054 167.273 181.081 167.335C180.764 168.143 180.651 168.991 180.742 169.88C180.742 170.333 180.742 170.786 180.742 171.238C180.317 172.356 180.317 173.487 180.742 174.632C181.39 174.344 182.069 174.231 182.779 174.293C180.165 175.991 177.449 177.575 174.632 179.045C174.519 178.592 174.406 178.14 174.293 177.687C174.612 169.427 174.952 161.167 175.311 152.909C172.586 152.681 169.871 152.342 167.165 151.891C166.913 151.66 166.687 151.433 166.486 151.212C168.137 151.735 169.834 151.962 171.578 151.891C171.583 151.19 171.696 150.511 171.917 149.855C172.958 150.754 173.75 150.528 174.293 149.176C174.886 149.678 175.282 150.357 175.481 151.212C177.69 150.343 179.896 149.438 182.1 148.497Z" fill="#EDF4F7"/>
<path fill-rule="evenodd" clip-rule="evenodd" d="M43.9552 79.2549C43.9552 79.7073 43.9552 80.1601 43.9552 80.6126C44.4076 80.6126 44.8604 80.6126 45.3129 80.6126C45.286 81.0979 45.3991 81.5507 45.6523 81.9703C43.7074 87.5212 41.7275 93.0653 39.7124 98.6019C37.8782 104.266 36.5205 110.036 35.6393 115.912C35.2748 119.905 35.8403 123.752 37.3364 127.453C39.8023 131.958 43.0269 135.861 47.01 139.163C48.6504 140.209 50.3475 141.058 52.1013 141.708C50.4551 143.776 50.7945 145.36 53.1196 146.46C53.6854 147.366 54.2508 148.27 54.8167 149.176C54.0482 149.42 53.2563 149.533 52.4407 149.515C52.7272 151 53.0666 152.47 53.459 153.928C54.8167 153.928 56.1743 153.928 57.532 153.928C57.1139 159.475 56.6614 165.019 56.1743 170.559C60.9262 170.559 65.6782 170.559 70.4301 170.559C64.1243 171.114 57.7883 170.944 51.4224 170.05C50.0264 169.647 48.7817 169.025 47.6888 168.183C46.4998 166.985 46.047 165.514 46.3311 163.771C46.4441 163.544 46.5575 163.318 46.6705 163.092C47.3687 157.559 48.274 152.072 49.3859 146.63C46.6705 144.707 43.9552 142.783 41.2398 140.86C39.2487 138.587 37.2122 136.381 35.1302 134.241C30.6122 126.845 29.8203 119.038 32.7543 110.821C32.7543 110.595 32.7543 110.369 32.7543 110.142C33.8818 106.021 35.1261 101.891 36.4879 97.7534C36.4054 97.4472 36.292 97.1645 36.1485 96.9048C36.3749 96.9048 36.6009 96.9048 36.8273 96.9048C37.2455 97.9088 37.2455 97.3433 36.8273 95.2077C37.2516 95.1816 37.5343 94.9552 37.6759 94.5289C39.3536 89.1986 41.4468 84.1073 43.9552 79.2549Z" fill="#EEF4F6"/>
<path fill-rule="evenodd" clip-rule="evenodd" d="M35.4689 138.654C35.8508 137.16 35.7374 135.689 35.1295 134.241C37.2115 136.381 39.248 138.587 41.2391 140.86C43.9545 142.784 46.6698 144.707 49.3852 146.63C48.2733 152.072 47.368 157.559 46.6698 163.092C46.1128 162.514 45.7734 161.779 45.6516 160.886C44.6126 160.195 43.481 159.8 42.2574 159.698C41.8018 159.259 41.236 158.976 40.5602 158.85C37.4987 158.741 34.4439 158.572 31.3959 158.34C28.0834 157.742 25.0286 156.441 22.2315 154.437C22.3445 154.38 22.4579 154.324 22.5709 154.267C23.2898 154.758 24.0817 154.985 24.9468 154.946C25.5605 154.943 26.1263 155.113 26.644 155.455C31.5527 155.506 36.4176 155.846 41.2391 156.474C41.0127 155.908 40.7866 155.342 40.5602 154.776C35.5578 153.507 30.4665 152.941 25.2863 153.079C22.631 152.587 20.1417 151.682 17.819 150.364C24.0267 150.388 30.2493 150.615 36.4872 151.043C37.3554 151.595 38.2607 151.934 39.2026 152.061C38.2973 151.156 37.3924 150.251 36.4872 149.346C33.9123 148.839 31.31 148.557 28.6805 148.497C22.8309 149.565 17.2871 148.772 12.0488 146.121C12.0488 145.895 12.0488 145.669 12.0488 145.442C13.8081 145.939 15.6185 146.165 17.4796 146.121C23.115 145.436 28.6588 145.719 34.1112 146.97C33.7005 146.617 33.3611 146.221 33.093 145.782C33.523 145.981 33.8624 145.981 34.1112 145.782C32.2149 143.236 30.5741 140.52 29.1896 137.636C28.0173 133.217 26.8293 128.805 25.6257 124.398C25.7431 123.992 25.9128 123.992 26.1348 124.398C28.3166 127.742 30.2401 131.249 31.905 134.92C33.8556 140.064 35.8922 145.155 38.0146 150.194C38.467 150.647 38.9198 151.099 39.3723 151.552C39.5987 150.986 39.5987 150.421 39.3723 149.855C38.0662 146.114 36.7652 142.38 35.4689 138.654Z" fill="#489C94"/>
<path fill-rule="evenodd" clip-rule="evenodd" d="M41.2393 143.066C42.2894 143.356 43.138 143.922 43.7849 144.763C43.8049 149.113 44.1444 153.412 44.8032 157.661C43.6227 156.161 42.8308 154.464 42.4272 152.57C42.0308 149.399 41.635 146.231 41.2393 143.066Z" fill="#75B9B2"/>
<path fill-rule="evenodd" clip-rule="evenodd" d="M123.04 143.066C123.121 143.504 123.008 143.844 122.701 144.084C122.745 143.834 122.689 143.607 122.531 143.406C117.429 146.352 112.338 149.294 107.257 152.231C106.482 162.685 106.199 173.094 106.409 183.457C106.293 183.742 106.067 183.855 105.73 183.797C105.428 183.59 105.088 183.477 104.712 183.457C104.108 182.952 103.881 182.273 104.033 181.421C104.033 180.855 104.033 180.29 104.033 179.724C104.606 176.176 104.833 172.556 104.712 168.862C105.001 162.977 105.34 157.093 105.73 151.212C107.676 150.242 109.486 149.111 111.161 147.818C115.057 145.7 119.017 143.664 123.04 141.708C123.04 142.161 123.04 142.614 123.04 143.066Z" fill="#585E79"/>
<path fill-rule="evenodd" clip-rule="evenodd" d="M209.932 155.964C209.389 157.22 208.71 158.408 207.896 159.528C201.383 163.512 194.821 167.415 188.209 171.238C185.777 170.934 183.288 170.934 180.742 171.238C180.742 170.786 180.742 170.333 180.742 169.88C184.82 169.541 188.78 168.692 192.622 167.335C193.699 166.74 194.717 166.061 195.677 165.298C196 165.055 196.056 164.772 195.846 164.45C194.366 165.45 192.726 166.072 190.925 166.317C188.543 166.444 186.167 166.614 183.797 166.826C184.112 166.549 184.452 166.266 184.815 165.977C184.738 165.842 184.624 165.785 184.476 165.807C186.695 165.444 188.958 165.048 191.264 164.619C194.119 164.068 196.155 162.654 197.374 160.377C194.782 161.507 192.066 162.073 189.228 162.074C189.636 161.349 190.259 160.897 191.095 160.716C191.71 159.949 192.219 159.156 192.622 158.34C196.201 157.795 199.482 156.494 202.465 154.437C201.044 154.788 199.573 155.07 198.053 155.285C198.599 154.744 199.278 154.348 200.089 154.097C203.632 153.491 206.914 154.113 209.932 155.964Z" fill="#C3F6E7"/>
<path fill-rule="evenodd" clip-rule="evenodd" d="M193.64 141.03C192.483 143.224 191.069 145.261 189.397 147.139C189.17 147.366 189.17 147.592 189.397 147.818C190.772 147.162 192.3 146.54 193.979 145.951C198.281 145.749 202.58 145.806 206.877 146.121C208.839 146.154 210.763 145.927 212.647 145.442C212.647 145.669 212.647 145.895 212.647 146.121C210.267 147.273 207.778 148.121 205.18 148.667C200.202 148.647 195.224 148.647 190.245 148.667C188.415 149.135 186.945 150.153 185.833 151.722C186.631 151.674 187.423 151.504 188.209 151.212C193.916 151.006 199.573 150.779 205.18 150.534C205.665 150.56 206.118 150.447 206.538 150.194C206.944 150.312 206.944 150.481 206.538 150.703C204.808 151.589 202.998 152.267 201.107 152.74C197.263 153.014 193.416 153.24 189.567 153.419C187.674 153.552 185.864 154.005 184.136 154.776C183.878 155.265 183.652 155.775 183.457 156.304C183.683 156.417 183.909 156.53 184.136 156.643C188.728 155.787 193.367 155.334 198.052 155.285C199.572 155.071 201.043 154.788 202.465 154.437C199.482 156.494 196.201 157.796 192.621 158.34C189.804 158.592 186.976 158.762 184.136 158.849C182.627 159.199 181.778 160.16 181.59 161.735C181.421 160.382 181.364 159.024 181.42 157.661C181.914 154.677 182.14 151.622 182.099 148.497C183.343 147.535 184.701 146.743 186.172 146.121C186.375 146.201 186.488 146.371 186.512 146.63C185.716 148.334 185.207 150.088 184.984 151.891C186.892 149.742 188.193 147.253 188.888 144.424C190.377 143.161 191.961 142.029 193.64 141.03Z" fill="#4A9C95"/>
<path fill-rule="evenodd" clip-rule="evenodd" d="M205.18 150.533C199.573 150.779 193.916 151.006 188.209 151.212C188.468 150.952 188.807 150.782 189.227 150.703C194.544 150.533 199.861 150.477 205.18 150.533Z" fill="#7CB8BC"/>
<path fill-rule="evenodd" clip-rule="evenodd" d="M24.9473 154.946C24.0821 154.984 23.2902 154.758 22.5713 154.267C22.4583 154.324 22.345 154.38 22.2319 154.437C25.0291 156.441 28.0839 157.742 31.3963 158.34C31.3671 158.678 31.4805 158.961 31.7357 159.189C32.996 159.817 34.1276 160.609 35.1299 161.565C35.0159 161.914 34.7895 162.084 34.4511 162.074C31.9336 162.095 29.5577 161.529 27.3232 160.377C27.8263 161.51 28.7312 162.472 30.0386 163.262C33.3972 164.689 36.9044 165.538 40.5607 165.807C40.5607 166.147 40.5607 166.486 40.5607 166.826C36.7341 166.67 33.0004 166.161 29.3598 165.298C31.4737 167.26 33.9627 168.505 36.8271 169.032C39.3062 169.445 41.7955 169.784 44.2943 170.05C45.278 170.198 46.0698 170.594 46.6703 171.238C46.7287 171.575 46.6153 171.801 46.3309 171.917C43.5255 171.435 40.6971 171.096 37.8453 170.899C37.2109 170.901 36.6451 171.014 36.1482 171.238C30.3947 167.908 24.6245 164.57 18.8377 161.225C18.1612 160.293 17.3127 159.557 16.292 159.019C15.6858 158.143 15.1767 157.238 14.7646 156.304C15.7082 155.656 16.6135 154.92 17.48 154.097C19.7514 153.815 22.014 153.872 24.2685 154.267C24.5206 154.499 24.7467 154.725 24.9473 154.946Z" fill="#C2F5E7"/>
<path fill-rule="evenodd" clip-rule="evenodd" d="M34.4511 162.074C37.1142 162.344 39.8296 162.571 42.5972 162.753C43.8178 163.054 45.0621 163.393 46.3309 163.771C46.0468 165.514 46.4995 166.985 47.6885 168.183C47.3919 169.214 47.0525 170.232 46.6703 171.238C46.0698 170.594 45.278 170.198 44.2943 170.05C41.7955 169.784 39.3062 169.445 36.827 169.032C33.9627 168.505 31.4737 167.26 29.3598 165.298C33.0004 166.161 36.734 166.67 40.5607 166.826C42.4407 167.403 44.3642 167.686 46.3309 167.674C46.2178 166.656 45.652 166.09 44.6337 165.977C43.2808 165.808 41.9231 165.751 40.5607 165.807C36.9044 165.538 33.3972 164.689 30.0386 163.262C28.7312 162.472 27.8263 161.51 27.3232 160.377C29.5577 161.529 31.9336 162.095 34.4511 162.074Z" fill="#459B92"/>
<path fill-rule="evenodd" clip-rule="evenodd" d="M42.2578 159.698C43.4814 159.799 44.6131 160.195 45.652 160.886C45.7739 161.778 46.1133 162.514 46.6703 163.092C46.5573 163.318 46.4439 163.544 46.3309 163.771C45.0621 163.393 43.8178 163.054 42.5972 162.753C42.9356 162.763 43.162 162.593 43.2761 162.243C42.9007 161.399 42.5613 160.55 42.2578 159.698Z" fill="#79B9B4"/>
<path fill-rule="evenodd" clip-rule="evenodd" d="M184.476 165.807C183.345 165.807 182.213 165.807 181.082 165.807C180.988 164.807 181.101 163.845 181.421 162.922C184.014 162.541 186.616 162.258 189.228 162.074C192.067 162.073 194.782 161.507 197.374 160.377C196.156 162.654 194.119 164.068 191.264 164.619C188.958 165.048 186.695 165.444 184.476 165.807Z" fill="#469B93"/>
<path fill-rule="evenodd" clip-rule="evenodd" d="M40.5605 165.808C41.923 165.751 43.2807 165.808 44.6336 165.977C45.6519 166.09 46.2177 166.656 46.3307 167.675C44.3641 167.686 42.4406 167.403 40.5605 166.826C40.5605 166.487 40.5605 166.147 40.5605 165.808Z" fill="#C5E3F3"/>
<path fill-rule="evenodd" clip-rule="evenodd" d="M180.741 169.88C180.65 168.992 180.763 168.143 181.081 167.335C182.053 167.273 182.958 167.103 183.796 166.826C186.166 166.614 188.542 166.444 190.924 166.317C192.725 166.072 194.365 165.45 195.846 164.45C196.055 164.772 195.999 165.055 195.676 165.298C194.716 166.061 193.698 166.74 192.621 167.335C188.779 168.692 184.819 169.541 180.741 169.88Z" fill="#459C91"/>
<path fill-rule="evenodd" clip-rule="evenodd" d="M78.5757 166.486C80.0742 167.348 81.6583 168.027 83.3276 168.523C83.887 169.007 84.5658 169.29 85.3641 169.371C89.9959 170.389 94.4083 169.88 98.6016 167.844C99.3768 167.683 100.056 167.343 100.638 166.826C101.193 168.085 101.419 169.443 101.317 170.899C101.317 175.538 101.317 180.176 101.317 184.815C101.317 185.833 101.317 186.852 101.317 187.87C100.574 193.225 100.235 198.655 100.299 204.162C100.096 205.33 99.87 206.462 99.6198 207.556C91.4917 203.041 83.4586 198.402 75.5209 193.64C75.6173 192.99 75.5043 192.425 75.1815 191.943C75.1815 190.698 75.1815 189.454 75.1815 188.209C75.2891 186.783 75.1757 185.425 74.842 184.136C74.9537 182.2 74.8404 180.276 74.5026 178.366C73.2675 182.606 72.2492 186.906 71.4478 191.264C71.3348 191.264 71.2214 191.264 71.1084 191.264C62.724 186.394 54.3515 181.529 45.9912 176.669C45.9912 175.99 45.9912 175.311 45.9912 174.632C46.2509 173.751 46.3642 172.846 46.3306 171.917C46.6151 171.801 46.7284 171.575 46.6701 171.238C47.0522 170.232 47.3917 169.214 47.6883 168.183C48.7813 169.025 50.0259 169.647 51.422 170.05C57.7878 170.944 64.1238 171.114 70.4296 170.559C73.8027 170.457 76.5181 169.099 78.5757 166.486Z" fill="#1E2130"/>
<path fill-rule="evenodd" clip-rule="evenodd" d="M122.023 163.431C122.07 166.107 121.843 168.709 121.344 171.238C121.368 168.569 121.594 165.967 122.023 163.431Z" fill="#999EA3"/>
<path fill-rule="evenodd" clip-rule="evenodd" d="M188.209 171.238C186.376 172.267 184.565 173.285 182.778 174.293C182.068 174.231 181.389 174.344 180.741 174.632C180.317 173.487 180.317 172.356 180.741 171.238C183.287 170.934 185.776 170.934 188.209 171.238Z" fill="#4B9D94"/>
<path fill-rule="evenodd" clip-rule="evenodd" d="M36.1494 171.238C36.6463 171.014 37.2121 170.901 37.8465 170.899C40.6983 171.096 43.5267 171.435 46.3321 171.917C46.3657 172.846 46.2523 173.751 45.9926 174.632C44.6234 174.631 43.2657 174.518 41.9196 174.293C39.9516 173.365 38.0281 172.347 36.1494 171.238Z" fill="#469B92"/>
<path fill-rule="evenodd" clip-rule="evenodd" d="M120.325 172.257C120.117 173.713 119.891 175.183 119.646 176.669C119.088 177.075 118.522 177.414 117.949 177.687C117.263 178.711 116.357 179.503 115.233 180.063C114.923 179.9 114.583 179.787 114.215 179.724C113.649 180.176 113.084 180.629 112.518 181.082C111.774 180.994 111.208 180.655 110.821 180.063C110.782 178.637 111.064 177.279 111.67 175.99C112.362 175.677 113.098 175.564 113.876 175.651C113.821 175.074 113.878 174.508 114.045 173.954C114.749 173.291 115.485 172.669 116.252 172.087C117.601 172.093 118.959 172.149 120.325 172.257Z" fill="#F3AB9F"/>
<path fill-rule="evenodd" clip-rule="evenodd" d="M41.9189 174.293C43.2651 174.518 44.6228 174.631 45.992 174.632C45.992 175.311 45.992 175.99 45.992 176.669C44.4103 176.219 43.0526 175.427 41.9189 174.293Z" fill="#BCEFE4"/>
<path fill-rule="evenodd" clip-rule="evenodd" d="M104.711 168.862C104.832 172.556 104.606 176.176 104.032 179.724C104.086 176.04 104.312 172.42 104.711 168.862Z" fill="#748A9C"/>
<path fill-rule="evenodd" clip-rule="evenodd" d="M121.343 171.578C121.25 174.081 121.024 176.57 120.665 179.045C120.147 177.893 119.241 177.441 117.949 177.687C118.523 177.414 119.088 177.075 119.646 176.669C119.891 175.183 120.118 173.713 120.325 172.256C120.665 172.03 121.004 171.804 121.343 171.578Z" fill="#C1E2E6"/>
<path fill-rule="evenodd" clip-rule="evenodd" d="M115.233 180.063C113.805 182.317 111.995 182.657 109.802 181.081C110.028 180.629 110.368 180.289 110.82 180.063C111.207 180.655 111.773 180.994 112.517 181.081C113.083 180.629 113.648 180.176 114.214 179.724C114.582 179.786 114.922 179.899 115.233 180.063Z" fill="#99CDD2"/>
<path fill-rule="evenodd" clip-rule="evenodd" d="M117.949 177.687C119.242 177.441 120.147 177.893 120.665 179.045C119.737 187.979 119.058 196.917 118.628 205.859C116.588 205.744 114.665 206.027 112.858 206.708C111.587 205.885 110.456 204.866 109.464 203.653C109.047 203.388 108.594 203.218 108.106 203.144C105.581 204.263 102.979 204.603 100.3 204.162C100.236 198.655 100.575 193.225 101.318 187.87C101.263 188.558 101.32 189.237 101.488 189.906C104.442 188.933 105.856 186.897 105.73 183.797C106.067 183.855 106.293 183.742 106.409 183.457C107.547 182.657 108.678 181.865 109.803 181.081C111.997 182.657 113.807 182.317 115.234 180.063C116.358 179.502 117.263 178.711 117.949 177.687Z" fill="#419A92"/>
<path fill-rule="evenodd" clip-rule="evenodd" d="M101.317 170.899C101.655 174.231 101.768 177.626 101.657 181.081C102.472 181.064 103.264 181.177 104.033 181.421C103.881 182.273 104.107 182.952 104.712 183.457C103.682 184.104 102.551 184.556 101.317 184.815C101.317 180.176 101.317 175.538 101.317 170.899Z" fill="#458285"/>
<path fill-rule="evenodd" clip-rule="evenodd" d="M74.8426 184.136C75.1763 185.425 75.2897 186.783 75.1821 188.209C73.7409 187.362 73.2317 186.117 73.6547 184.476C73.9978 184.192 74.3939 184.079 74.8426 184.136Z" fill="#8AC7D0"/>
<path fill-rule="evenodd" clip-rule="evenodd" d="M104.712 183.457C105.089 183.477 105.428 183.59 105.731 183.797C105.856 186.897 104.442 188.933 101.488 189.906C101.32 189.237 101.263 188.558 101.318 187.87C101.318 186.851 101.318 185.833 101.318 184.815C102.551 184.556 103.683 184.104 104.712 183.457Z" fill="#8ECDD7"/>
<path fill-rule="evenodd" clip-rule="evenodd" d="M74.8415 184.136C74.3928 184.078 73.9967 184.191 73.6535 184.476C73.2306 186.117 73.7397 187.362 75.1809 188.209C75.1809 189.454 75.1809 190.698 75.1809 191.943C74.1874 191.552 73.1692 191.213 72.1261 190.925C71.8943 191.048 71.6679 191.161 71.4473 191.264C72.2486 186.905 73.2669 182.606 74.5021 178.366C74.8398 180.276 74.9532 182.199 74.8415 184.136Z" fill="#388886"/>
<path fill-rule="evenodd" clip-rule="evenodd" d="M75.1815 191.943C75.5042 192.424 75.6173 192.99 75.5209 193.64C73.9826 192.928 72.5119 192.136 71.1084 191.264C71.2214 191.264 71.3348 191.264 71.4478 191.264C71.6684 191.161 71.8948 191.048 72.1267 190.925C73.1697 191.213 74.188 191.552 75.1815 191.943Z" fill="#99CBD2"/>
<path fill-rule="evenodd" clip-rule="evenodd" d="M118.628 205.859C118.684 207.56 118.627 209.257 118.458 210.951C111.535 213.414 105.256 212.283 99.6201 207.557C99.8703 206.462 100.096 205.33 100.299 204.162C102.978 204.603 105.58 204.263 108.106 203.144C108.594 203.218 109.046 203.388 109.463 203.653C110.455 204.867 111.586 205.885 112.858 206.708C114.665 206.027 116.588 205.744 118.628 205.859Z" fill="#90CDD8"/>
</svg>
